<?xml version="1.0" standalone="no"?>
<!DOCTYPE svg PUBLIC "-//W3C//DTD SVG 1.1//EN" "http://www.w3.org/Graphics/SVG/1.1/DTD/svg11.dtd" >
<svg>
<metadata>
Created by FontForge 20120731 at Sat Dec 10 08:36:33 2016
 By www-data
Copyright (c) 2011-2012, Martin Sommaruga (martin@estudiotrama.com), with Reserved Font Name 'Rambla'
</metadata>
<defs>
<font id="Rambla-Regular" horiz-adv-x="0" >
  <font-face 
    font-family="Rambla"
    font-weight="400"
    font-stretch="normal"
    units-per-em="1000"
    panose-1="2 0 5 3 0 0 0 2 0 4"
    ascent="800"
    descent="-200"
    x-height="506"
    cap-height="668"
    bbox="-73 -255 1032 929"
    underline-thickness="50"
    underline-position="-50"
    unicode-range="U+0020-FB02"
  />
<missing-glyph horiz-adv-x="500" 
 />
    <glyph glyph-name=".notdef" horiz-adv-x="500" 
 />
    <glyph glyph-name=".null" 
 />
    <glyph glyph-name="nonmarkingreturn" horiz-adv-x="333" 
 />
    <glyph glyph-name="space" unicode=" " horiz-adv-x="210" 
 />
    <glyph glyph-name="exclam" unicode="!" horiz-adv-x="235" 
d="M167 700l-12 -516h-76l-10 516h98zM118 117q25 0 43 -17.5t18 -43t-18 -44t-43 -18.5t-43 18.5t-18 44t18 43t43 17.5z" />
    <glyph glyph-name="quotedbl" unicode="&#x22;" horiz-adv-x="352" 
d="M52 700h87l-14 -219h-60zM214 700h87l-14 -219h-60z" />
    <glyph glyph-name="numbersign" unicode="#" horiz-adv-x="595" 
d="M44 190v77h96l22 122h-114v77h128l36 202h80l-37 -202h115l37 202h78l-36 -202h102v-77h-115l-22 -122h133v-77h-146l-38 -204h-78l36 204h-114l-37 -204h-79l36 204h-83zM356 389h-113l-22 -122h114z" />
    <glyph glyph-name="dollar" unicode="$" horiz-adv-x="466" 
d="M391 52q-45 -50 -121 -61l2 -109h-70l2 106q-112 7 -173 37l26 84q94 -38 159 -38t97 28t32 71t-35.5 73.5t-88 56.5t-68 34.5t-39.5 27t-36 35.5q-30 45 -30 109t44.5 107.5t115.5 52.5l-2 108h70l-2 -107q64 -4 133 -29l-25 -79q-72 26 -131 26t-86 -23t-27 -60.5
t32 -63.5t83 -52.5t75 -42t52 -41.5q56 -50 56 -125t-45 -125z" />
    <glyph glyph-name="uni0025" unicode="%" horiz-adv-x="725" 
d="M228 0h-92l362 701h91zM264.5 348q-36.5 -41 -98 -41t-96.5 40.5t-35 150t36.5 151.5t97.5 42t96.5 -41.5t35.5 -151t-36.5 -150.5zM167 626q-58 0 -58 -127q0 -71 15 -99t43.5 -28t44 28t15.5 99q0 127 -60 127zM654.5 28q-36.5 -41 -98 -41t-96.5 40.5t-35 150
t36.5 151.5t97.5 42t96.5 -41.5t35.5 -151t-36.5 -150.5zM557 306q-58 0 -58 -127q0 -71 15 -99t43.5 -28t44 28t15.5 99q0 127 -60 127z" />
    <glyph glyph-name="ampersand" unicode="&#x26;" horiz-adv-x="673" 
d="M160 267q-27 -40 -27 -89.5t38 -82t93 -32.5q87 0 145 70l-169 197q-53 -23 -80 -63zM193 393q-75 89 -75 154.5t42.5 99.5t112 34t147.5 -36l-25 -69q-58 29 -125 29t-67 -54q0 -43 58 -112l205 -240q60 91 69 211h79q-10 -163 -93 -276q31 -29 73 -58.5t70 -42.5
l-36 -64q-96 42 -163 101q-82 -83 -208 -83q-90 0 -152 51t-62 142q0 127 150 213z" />
    <glyph glyph-name="quotesingle" unicode="'" horiz-adv-x="193" 
d="M53 700h87l-14 -240h-60z" />
    <glyph glyph-name="parenleft" unicode="(" horiz-adv-x="291" 
d="M43 309q0 219 156 444l66 -43q-130 -206 -130 -401t130 -401l-66 -43q-156 225 -156 444z" />
    <glyph glyph-name="parenright" unicode=")" horiz-adv-x="290" 
d="M247 309q0 -220 -155 -444l-66 43q130 209 130 401t-130 401l66 43q155 -224 155 -444z" />
    <glyph glyph-name="asterisk" unicode="*" horiz-adv-x="391" 
d="M247 539l102 -45l-41 -66l-83 66l9 -112h-77l9 114l-84 -68l-39 67l102 42l-102 42l38 69l85 -67l-9 112h77l-8 -112l83 67l40 -69z" />
    <glyph glyph-name="plus" unicode="+" horiz-adv-x="468" 
d="M273 85h-79v154h-152v79h152v152h79v-152h153v-79h-153v-154z" />
    <glyph glyph-name="comma" unicode="," horiz-adv-x="220" 
d="M163 59q0 -105 -89 -187h-83q82 95 82 172q0 33 -17 72h95q12 -26 12 -57z" />
    <glyph glyph-name="hyphen" unicode="-" horiz-adv-x="509" 
d="M446 318v-79h-383v79h383z" />
    <glyph glyph-name="period" unicode="." horiz-adv-x="224" 
d="M112 117q25 0 43 -17.5t18 -43t-18 -44t-43 -18.5t-43 18.5t-18 44t18 43t43 17.5z" />
    <glyph glyph-name="slash" unicode="/" horiz-adv-x="428" 
d="M410 684l-317 -748l-75 26l319 748z" />
    <glyph glyph-name="zero" unicode="0" horiz-adv-x="529" 
d="M262 -13q-68 0 -112.5 29t-71 107t-26.5 209t28 210t73.5 109t113.5 30q104 0 157.5 -77t53.5 -268.5t-55.5 -270t-160.5 -78.5zM265 596q-61 0 -90 -58t-29 -204.5t28.5 -204t90.5 -57.5t90.5 57.5t28.5 204t-29 204.5t-90 58z" />
    <glyph glyph-name="one" unicode="1" horiz-adv-x="353" 
d="M278 0h-93v585l-144 -67l-27 67l185 83h79v-668z" />
    <glyph glyph-name="two" unicode="2" horiz-adv-x="474" 
d="M28 0v81q107 115 185 209.5t95.5 125.5t17.5 78.5t-30 74.5t-88 27t-121 -25l-22 72q82 38 166 38t133.5 -49t49.5 -136t-85 -192q-121 -151 -186 -223h295l-7 -81h-403z" />
    <glyph glyph-name="three" unicode="3" horiz-adv-x="467" 
d="M181 325h-48v68h47q59 7 91.5 40t32.5 77.5t-29.5 65.5t-85 21t-118.5 -25l-22 72q85 37 166.5 37t130 -44.5t48.5 -119.5q0 -46 -21.5 -86.5t-61.5 -62.5q110 -41 110 -166q0 -95 -58.5 -155t-154 -60t-180.5 52l33 75q84 -42 142.5 -42t92.5 36.5t34 92.5t-39 90
t-110 34z" />
    <glyph glyph-name="four" unicode="4" horiz-adv-x="542" 
d="M515 190h-113v-190h-89v190h-288v58l275 412h102v-404h113v-66zM313 256v274l-184 -274h184z" />
    <glyph glyph-name="five" unicode="5" horiz-adv-x="471" 
d="M217 72q59 0 89.5 40.5t30.5 104.5t-25.5 102.5t-83 38.5t-100.5 -47l-58 30v327h330v-81h-246v-173q40 26 106.5 26t117.5 -57.5t51 -159.5t-52 -169t-153 -67t-187 53l30 73q30 -16 75 -28.5t75 -12.5z" />
    <glyph glyph-name="six" unicode="6" horiz-adv-x="493" 
d="M250 -13q-201 0 -201 298q0 188 74.5 292t192.5 104q57 0 104 -21l-21 -74q-38 10 -74 10q-68 0 -111.5 -51.5t-60.5 -145.5q53 49 130.5 49t123.5 -54t46 -160.5t-52.5 -176.5t-150.5 -70zM275 365q-79 0 -133 -54q0 -94 15 -148.5t37.5 -72.5t58.5 -18q52 0 80 42.5
t28 115.5q0 135 -86 135z" />
    <glyph glyph-name="seven" unicode="7" horiz-adv-x="424" 
d="M24 587v81h383v-53l-113 -269q-82 -182 -105 -346h-98q20 159 97 332l112 255h-276z" />
    <glyph glyph-name="eight" unicode="8" horiz-adv-x="506" 
d="M407.5 43.5q-52.5 -56.5 -153 -56.5t-155 51t-54.5 139q0 56 31.5 103.5t83.5 75.5q-84 55 -84 157q0 80 51 123.5t130.5 43.5t128 -41.5t48.5 -114.5q0 -52 -26 -96t-74 -71q62 -28 94 -69.5t32 -114.5t-52.5 -129.5zM138 177q0 -50 32 -77.5t84.5 -27.5t83.5 30.5
t31 79.5q0 57 -43 88q-37 26 -67 37q-35 14 -36 15q-85 -50 -85 -145zM323 577.5q-25 19.5 -64.5 19.5t-68 -18.5t-28.5 -60t28 -78t71 -55.5q40 22 63.5 61.5t23.5 75.5t-25 55.5z" />
    <glyph glyph-name="nine" unicode="9" horiz-adv-x="494" 
d="M171 -13q-49 0 -102 21l23 80q40 -16 75 -16q139 0 177 191q-62 -51 -136.5 -51t-120.5 54t-46 163t53 180.5t149 71.5q202 0 202 -307q0 -182 -76 -284.5t-198 -102.5zM324 548q-28 48 -81.5 48t-81.5 -44t-28 -122q0 -140 87 -140q67 0 131 57q1 11 1 32q0 121 -28 169
z" />
    <glyph glyph-name="colon" unicode=":" horiz-adv-x="249" 
d="M124 117q25 0 43 -17.5t18 -43t-18 -44t-43 -18.5t-43 18.5t-18 44t18 43t43 17.5zM125 417q25 0 43 -17.5t18 -43t-18 -44t-43 -18.5t-43 18.5t-18 44t18 43t43 17.5z" />
    <glyph glyph-name="semicolon" unicode=";" horiz-adv-x="252" 
d="M126 416q25 0 43 -17.5t18 -43t-18 -44t-43 -18.5t-43 18.5t-18 44t18 43t43 17.5zM181 59q0 -105 -89 -187h-83q82 95 82 172q0 33 -17 72h95q12 -26 12 -57z" />
    <glyph glyph-name="less" unicode="&#x3c;" horiz-adv-x="437" 
d="M37 275v70l341 171v-85l-240 -120l240 -122v-84z" />
    <glyph glyph-name="equal" unicode="=" horiz-adv-x="464" 
d="M401 432v-79h-338v79h338zM401 240v-80h-338v80h338z" />
    <glyph glyph-name="greater" unicode="&#x3e;" horiz-adv-x="437" 
d="M400 345v-70l-341 -170v84l240 122l-240 120v85z" />
    <glyph glyph-name="question" unicode="?" horiz-adv-x="339" 
d="M179 577.5q-45 28.5 -133 36.5l18 77q114 -5 181 -55t67 -123q0 -78 -60 -132l-46 -40q-53 -48 -59 -116l-2 -59h-77q-2 42 -2 55q0 83 58 142q21 22 42 42q58 53 58 98.5t-45 74zM112 110q25 0 43 -17.5t18 -43t-18 -44t-43 -18.5t-43 18.5t-18 44t18 43t43 17.5z" />
    <glyph glyph-name="at" unicode="@" horiz-adv-x="761" 
d="M555 125q-74 0 -97 60q-17 -28 -46 -44.5t-63 -16.5q-63 0 -103 41t-40 114q0 102 58.5 166t146.5 64q57 0 129 -31l-18 -203q-1 -13 -1 -33q0 -52 42 -52q79 0 79 185q0 110 -55.5 172.5t-177 62.5t-200 -85.5t-78.5 -222.5t70.5 -207.5t174 -70.5t216.5 54l28 -63
q-142 -65 -250 -65q-138 0 -231.5 89t-93.5 256.5t103.5 276t261 108.5t236 -82t78.5 -224q0 -249 -169 -249zM413 447q-53 0 -88 -45.5t-35 -114.5q0 -99 69 -99q33 0 54.5 27.5t25.5 70.5l13 155q-18 6 -39 6z" />
    <glyph glyph-name="A" unicode="A" horiz-adv-x="561" 
d="M398 172h-235l-57 -172h-98l219 668h107l219 -668h-97zM376 247l-96 330l-95 -330h191z" />
    <glyph glyph-name="B" unicode="B" horiz-adv-x="547" 
d="M462 499q0 -93 -77 -134q64 -24 90.5 -64.5t26.5 -105.5q0 -91 -55 -143t-165 -52h-203v668h123q59 0 86 -1q174 -6 174 -168zM175 596v-200h98q44 3 68 30.5t24 65t-7.5 55.5t-18 28t-31.5 15q-32 6 -86 6h-47zM263 81q142 0 142 118q0 60 -40 91q-32 32 -114 32h-76
v-241h88z" />
    <glyph glyph-name="C" unicode="C" horiz-adv-x="521" 
d="M340 -13q-288 0 -288 348q0 180 73.5 263t202.5 83q68 0 151 -23l-18 -75q-67 15 -118 15q-92 0 -143.5 -59t-51.5 -200q0 -270 211 -270q51 0 110 12l13 -75q-79 -19 -142 -19z" />
    <glyph glyph-name="D" unicode="D" horiz-adv-x="610" 
d="M175 587v-506h83q118 0 160 61t42 192t-42 192t-160 61h-83zM251 0h-172v668h172q128 0 178 -27q128 -65 128 -307.5t-128 -307.5q-49 -26 -178 -26z" />
    <glyph glyph-name="E" unicode="E" horiz-adv-x="511" 
d="M175 81h284v-81h-380v668h371v-81h-275v-202h259v-79h-259v-225z" />
    <glyph glyph-name="F" unicode="F" horiz-adv-x="491" 
d="M451 587h-276v-203h258v-80h-258v-304h-96v668h372v-81z" />
    <glyph glyph-name="G" unicode="G" horiz-adv-x="570" 
d="M201.5 540q-51.5 -59 -51.5 -198.5t51.5 -204.5t128.5 -65q49 0 96 22v161h-112v80h202v-287q-96 -61 -192 -61q-113 0 -189 78q-39 40 -61.5 109.5t-22.5 161.5q0 180 74.5 263t204.5 83q75 0 158 -23l-20 -75q-67 15 -123 15q-92 0 -143.5 -59z" />
    <glyph glyph-name="H" unicode="H" horiz-adv-x="616" 
d="M441 384v284h96v-668h-96v304h-266v-304h-96v668h96v-284h266z" />
    <glyph glyph-name="I" unicode="I" horiz-adv-x="254" 
d="M175 668v-668h-96v668h96z" />
    <glyph glyph-name="J" unicode="J" horiz-adv-x="255" 
d="M81 125v543h96v-541q0 -106 -39.5 -181.5t-139.5 -120.5l-39 67q74 42 98 93t24 140z" />
    <glyph glyph-name="K" unicode="K" horiz-adv-x="604" 
d="M174 668v-668h-95v668h95zM202 342l254 326h119l-265 -321l280 -347h-125z" />
    <glyph glyph-name="L" unicode="L" horiz-adv-x="445" 
d="M175 81h250v-81h-346v668h96v-587z" />
    <glyph glyph-name="M" unicode="M" horiz-adv-x="778" 
d="M608 516q0 21 1 42l-182 -485h-76l-182 485q1 -21 1 -42t-1 -42l-16 -474h-88l31 668h111l182 -495l182 495h111l31 -668h-88l-16 474q-1 21 -1 42z" />
    <glyph glyph-name="N" unicode="N" horiz-adv-x="659" 
d="M580 0h-98l-316 541q4 -39 4 -84v-457h-91v668h98l316 -541q-4 39 -4 84v457h91v-668z" />
    <glyph glyph-name="O" unicode="O" horiz-adv-x="621" 
d="M311 681q69 0 121 -29t81 -79q57 -98 57 -239q0 -138 -58 -238q-30 -51 -82 -80t-121.5 -29t-120.5 29t-80 79q-57 98 -57 239q0 140 59 239q29 50 80.5 79t120.5 29zM310 72q83 0 122.5 73t39.5 189.5t-39.5 189t-122.5 72.5t-122.5 -72.5t-39.5 -189t39.5 -189.5
t122.5 -73z" />
    <glyph glyph-name="P" unicode="P" horiz-adv-x="526" 
d="M496 470q0 -165 -150 -200q-50 -11 -135 -11h-36v-259h-96v668h158q77 0 122 -12.5t79 -43.5q58 -51 58 -142zM356 364q43 31 43 98t-34 99q-35 35 -136 35h-54v-257h38q110 0 143 25z" />
    <glyph glyph-name="Q" unicode="Q" horiz-adv-x="621" 
d="M65 204.5q-14 59.5 -14 129t14.5 129.5t44 110t81 79t120.5 29t121 -29t81 -79q57 -98 57 -239q0 -104 -32.5 -188t-100.5 -125q56 -6 119 -27t104 -46l-53 -71q-12 8 -34.5 21t-100 42.5t-165.5 47.5q-68 0 -119 29t-80 78.5t-43 109zM310 66q83 0 122.5 74t39.5 192.5
t-39.5 191t-122.5 72.5t-122.5 -72.5t-39.5 -191t39.5 -192.5t122.5 -74z" />
    <glyph glyph-name="R" unicode="R" horiz-adv-x="565" 
d="M496 470q0 -110 -64 -160q-34 -26 -76 -37l184 -241l-72 -49l-207 277q-16 -1 -50 -1h-36v-259h-96v668h158q77 0 122 -12.5t79 -43.5q58 -51 58 -142zM356 364q43 31 43 98t-34 99q-35 35 -136 35h-54v-257h38q110 0 143 25z" />
    <glyph glyph-name="S" unicode="S" horiz-adv-x="490" 
d="M393 40q-58 -53 -153 -53q-51 0 -108.5 11t-92.5 28l26 85q98 -39 163 -39t98 28.5t33 72.5t-36 75t-93.5 59.5t-77.5 40.5t-46 36q-50 43 -50 124t57 127t139.5 46t169.5 -32l-26 -80q-76 27 -134.5 27t-86 -23.5t-27.5 -61.5t32 -64.5t84 -54t76.5 -43.5t53.5 -41
q57 -52 57 -133.5t-58 -134.5z" />
    <glyph glyph-name="T" unicode="T" horiz-adv-x="479" 
d="M192 583h-174v85h443v-85h-174v-583h-95v583z" />
    <glyph glyph-name="U" unicode="U" horiz-adv-x="609" 
d="M75 245v423h96v-409q0 -104 26 -139q28 -47 106.5 -47t107.5 47q27 37 27 139v409h96v-423q0 -117 -45 -181q-55 -75 -183 -76t-186 76q-45 64 -45 181z" />
    <glyph glyph-name="V" unicode="V" horiz-adv-x="546" 
d="M111 668l162 -558l162 558h104l-215 -668h-102l-215 668h104z" />
    <glyph glyph-name="W" unicode="W" horiz-adv-x="804" 
d="M349 618h106l148 -508l72 558h87l-89 -668h-119l-151 538l-152 -538h-120l-89 668h87l72 -558z" />
    <glyph glyph-name="X" unicode="X" horiz-adv-x="574" 
d="M557 0h-116l-157 268l-157 -268h-109l211 340l-200 328h108l148 -252l150 252h110l-203 -322z" />
    <glyph glyph-name="Y" unicode="Y" horiz-adv-x="521" 
d="M309 0h-96v275l-210 393h108l150 -315l154 315h101l-207 -393v-275z" />
    <glyph glyph-name="Z" unicode="Z" horiz-adv-x="525" 
d="M489 81v-81h-441l-9 65l314 522h-299l-11 81h417l7 -69l-311 -518h333z" />
    <glyph glyph-name="bracketleft" unicode="[" horiz-adv-x="303" 
d="M72 -141v907h199v-71l-113 -6v-753q17 -1 113 -7v-70h-199z" />
    <glyph glyph-name="backslash" unicode="\" horiz-adv-x="404" 
d="M310 -114l-292 851l74 21l294 -851z" />
    <glyph glyph-name="bracketright" unicode="]" horiz-adv-x="303" 
d="M231 765v-906h-199v71l113 6v752q-17 1 -113 7v70h199z" />
    <glyph glyph-name="asciicircum" unicode="^" horiz-adv-x="492" 
d="M211 641h70l170 -344h-86l-120 246l-119 -246h-86z" />
    <glyph glyph-name="underscore" unicode="_" horiz-adv-x="552" 
d="M489 74v-74h-426v74h426z" />
    <glyph glyph-name="grave" unicode="`" horiz-adv-x="356" 
d="M254 577l-172 104l48 73l160 -122z" />
    <glyph glyph-name="a" unicode="a" horiz-adv-x="487" 
d="M176 -13q-65 0 -103.5 38t-38.5 102q0 42 18 71t47 43q52 25 109 25t106 -5v78q0 58 -19.5 79.5t-74.5 21.5t-131 -27l-21 63q29 18 76.5 29t82.5 11q97 0 137 -42t40 -141v-243q0 -35 24 -35q16 0 44 9l15 -56q-34 -22 -88 -22t-78 51q-22 -21 -61.5 -35.5t-83.5 -14.5z
M195 58q63 0 119 36v116q-24 4 -78 4q-117 0 -118 -78q0 -78 77 -78z" />
    <glyph glyph-name="b" unicode="b" horiz-adv-x="516" 
d="M278 440q-62 0 -122 -42v-319q38 -16 95 -16q126 0 126 196q0 181 -99 181zM156 700v-231q19 15 58.5 31t78.5 16q76 0 127 -62.5t51 -175.5q0 -291 -221 -291q-106 0 -184 48v665h90z" />
    <glyph glyph-name="c" unicode="c" horiz-adv-x="434" 
d="M277 -15q-101 0 -167 66.5t-66 199t66 199t162 66.5q68 0 124 -29l-27 -64q-53 17 -95 17q-59 0 -98.5 -45t-39.5 -144q0 -189 155 -189q44 0 93 13l15 -66q-64 -24 -122 -24z" />
    <glyph glyph-name="d" unicode="d" horiz-adv-x="519" 
d="M46 243q0 273 219 273q55 0 96 -23v207h91v-708h-71l-13 49q-63 -50 -146.5 -50t-129.5 68t-46 184zM264 441q-125 0 -125 -197q0 -181 102 -181q73 0 120 44v316q-42 18 -97 18z" />
    <glyph glyph-name="e" unicode="e" horiz-adv-x="476" 
d="M265 -13q-112 0 -166.5 76.5t-54.5 192t58 188t159 72.5q85 0 129.5 -47.5t44.5 -125.5q0 -35 -15 -90h-294q2 -85 37 -138t104.5 -53t131.5 28l23 -62q-72 -41 -157 -41zM353 326q0 54 -22 85t-61 31t-64.5 -13.5t-39.5 -34.5q-24 -40 -30 -74l217 -2v8z" />
    <glyph glyph-name="f" unicode="f" horiz-adv-x="356" 
d="M114 543q0 96 41 137.5t144 41.5q57 0 120 -18l-20 -71q-40 10 -98.5 10t-77 -21t-18.5 -76v-40h137l-10 -71h-127v-621l-91 9v612l-93 5l9 59l84 7v37z" />
    <glyph glyph-name="g" unicode="g" horiz-adv-x="484" 
d="M227 516l84 -5q75 0 155 14l11 -56q-38 -8 -105 -17q38 -46 38 -122t-46 -126.5t-133 -51.5q-26 0 -51 5q-16 -35 -16 -58q0 -34 53 -34h92q72 0 112 -32.5t40 -89.5q0 -81 -64.5 -130t-164 -49t-151.5 34t-52 96q0 78 92 126q-26 21 -26 62t39 91q-41 23 -63 65.5
t-22 95.5q0 81 45 131.5t133 50.5zM230 447q-98 0 -98 -112t97.5 -112t97.5 111q0 58 -22.5 85.5t-74.5 27.5zM290 -13h-123q-56 -24 -56 -81q0 -35 34 -52.5t96.5 -17.5t99.5 26.5t37 72.5q0 27 -19 39.5t-69 12.5z" />
    <glyph glyph-name="h" unicode="h" horiz-adv-x="518" 
d="M319 516q75 0 104.5 -44.5t29.5 -124.5v-347h-90v342q0 46 -12 72t-48.5 26t-78 -19t-65.5 -48v-373h-91v699l91 8v-259q29 27 73.5 47.5t86.5 20.5z" />
    <glyph glyph-name="i" unicode="i" horiz-adv-x="225" 
d="M158 0h-91v502l91 9v-511zM67 697.5q18 17.5 43 17.5t42.5 -17.5t17.5 -42.5t-17.5 -43.5t-42.5 -18.5t-43 18.5t-18 43.5t18 42.5z" />
    <glyph glyph-name="j" unicode="j" horiz-adv-x="225" 
d="M158 46q0 -123 -56 -184.5t-164 -71.5l-11 72q77 12 109 56t32 138v446l90 9v-465zM69 697.5q18 17.5 43 17.5t42.5 -17.5t17.5 -42.5t-17.5 -43.5t-42.5 -18.5t-43 18.5t-18 43.5t18 42.5z" />
    <glyph glyph-name="k" unicode="k" horiz-adv-x="500" 
d="M159 0h-91v700l91 8v-427l190 221h112l-206 -223q35 -43 116 -139t117 -140h-110l-219 272v-272z" />
    <glyph glyph-name="l" unicode="l" horiz-adv-x="266" 
d="M69 700h91v-598q0 -39 36 -39q28 0 59 10l15 -66q-41 -20 -101 -20q-100 0 -100 114v599z" />
    <glyph glyph-name="m" unicode="m" horiz-adv-x="801" 
d="M449 343v-343h-90v342q0 46 -12 72t-48.5 26t-76.5 -19t-64 -48v-373h-90v506h75l10 -61q28 27 73.5 49t88.5 22q91 0 119 -74q30 28 78 51t90 23q134 0 134 -169v-347h-90v342q0 47 -12 72.5t-47 25.5t-74 -19t-66 -44q2 -12 2 -34z" />
    <glyph glyph-name="n" unicode="n" horiz-adv-x="519" 
d="M454 347v-347h-90v342q0 46 -12 72t-48.5 26t-79 -19.5t-66.5 -47.5v-373h-90v506h75l10 -61q28 27 75.5 49t91.5 22q75 0 104.5 -44.5t29.5 -124.5z" />
    <glyph glyph-name="o" unicode="o" horiz-adv-x="508" 
d="M252 -13q-94 0 -150 63t-56 200.5t58.5 201.5t152.5 64t149.5 -63t55.5 -200.5t-58 -201.5t-152 -64zM255 442q-117 0 -117 -190.5t116 -190.5q48 0 82 45t34 150t-29.5 145.5t-85.5 40.5z" />
    <glyph glyph-name="p" unicode="p" horiz-adv-x="518" 
d="M254 63q125 0 125 199q0 178 -101 178q-57 0 -120 -44v-319q50 -14 96 -14zM151 465q66 51 148 51t128 -68t46 -185q0 -276 -220 -276q-52 0 -95 20v-221l-90 -10v731h76z" />
    <glyph glyph-name="q" unicode="q" horiz-adv-x="516" 
d="M242 63q62 0 118 38v321q-34 10 -92 10q-128 0 -128 -184.5t102 -184.5zM360 29q-55 -42 -138.5 -42t-129.5 70t-46 192.5t55 190.5t162.5 68t186.5 -32v-697l-90 9v241z" />
    <glyph glyph-name="r" unicode="r" horiz-adv-x="361" 
d="M158 0h-90v506h75l10 -75q18 30 59.5 57.5t94.5 27.5q29 0 44 -5l-18 -72q-9 1 -26 1q-109 0 -149 -79v-361z" />
    <glyph glyph-name="s" unicode="s" horiz-adv-x="411" 
d="M60 92q66 -29 121 -29t80.5 20.5t25.5 51t-24.5 51.5t-59.5 33.5t-70.5 26.5t-60 44.5t-24.5 76.5q0 68 48 108.5t130 40.5t132 -29l-21 -67q-58 20 -107 20t-73 -18t-24 -48.5t25 -50.5t60.5 -32t70.5 -26.5t60 -44.5t25 -75q0 -66 -49 -112t-140 -46q-42 0 -84.5 11
t-63.5 26z" />
    <glyph glyph-name="t" unicode="t" horiz-adv-x="370" 
d="M244 -13q-78 0 -103 32.5t-25 111.5v304l-99 5l9 59l92 7l9 120l81 15v-135h148l-9 -71h-140v-313q0 -21 1.5 -31.5t11 -19t41.5 -8.5t64 11l17 -67q-47 -20 -98 -20z" />
    <glyph glyph-name="u" unicode="u" horiz-adv-x="515" 
d="M210 -13q-82 0 -114 44.5t-32 127.5v347h90v-345q0 -50 13 -73.5t52.5 -23.5t77 12.5t61.5 34.5v392h90v-512h-73l-10 54q-29 -24 -71 -41t-84 -17z" />
    <glyph glyph-name="v" unicode="v" horiz-adv-x="462" 
d="M350 505h93l-162 -505h-101l-161 506h97l115 -416z" />
    <glyph glyph-name="w" unicode="w" horiz-adv-x="689" 
d="M344 395l-97 -395h-92l-131 506h90l90 -405l99 400l82 5l100 -405l90 405h90l-131 -506h-92z" />
    <glyph glyph-name="x" unicode="x" horiz-adv-x="482" 
d="M450 506l-160 -239l175 -267h-103l-120 202l-121 -202h-105l180 268l-161 238h105l104 -173l106 173h100z" />
    <glyph glyph-name="y" unicode="y" horiz-adv-x="473" 
d="M49 -143q55 0 89.5 31t60.5 110l-185 502l95 6l131 -411l118 411h94l-166 -496q-39 -118 -90.5 -169.5t-133.5 -51.5q-33 0 -68 7l11 64q16 -3 44 -3z" />
    <glyph glyph-name="z" unicode="z" horiz-adv-x="440" 
d="M137 74h261l10 -74h-368l-9 58l254 374h-226l-10 74h333l10 -62z" />
    <glyph glyph-name="braceleft" unicode="{" horiz-adv-x="351" 
d="M99 25q-3 39 -3 78.5t-3 75.5q0 49 -6.5 72.5t-25.5 24.5h-30v70h29q33 4 33 88l6 157q4 75 46.5 119t103.5 44h73v-74h-80q-31 -3 -46.5 -32.5t-15.5 -57.5l-2 -134q-3 -110 -38 -146q36 -29 38 -157q0 -41 0.5 -74t1 -56.5t16 -53.5t46.5 -31h75v-72h-68q-66 0 -107 43
t-43 116z" />
    <glyph glyph-name="bar" unicode="|" horiz-adv-x="233" 
d="M74 -42v736h85v-736h-85z" />
    <glyph glyph-name="braceright" unicode="}" horiz-adv-x="350" 
d="M257 179q-3 -39 -4 -80.5t-2 -73.5q-2 -73 -43 -116t-107 -43h-67v72h74q31 1 46.5 31t15.5 64.5t0.5 62.5t2.5 58q2 130 38 156q-36 33 -38 146q-3 60 -3 134q0 28 -15.5 57.5t-46.5 32.5h-80v74h73q61 0 103.5 -44t46.5 -119q1 -25 3 -78.5t3 -78.5q0 -84 33 -88h29
v-70h-31q-18 -2 -24.5 -25.5t-6.5 -71.5z" />
    <glyph glyph-name="asciitilde" unicode="~" horiz-adv-x="582" 
d="M310 325q70 -31 99.5 -31t68.5 57l56 -45q-57 -97 -133 -97q-47 0 -117 33.5t-109 33.5q-30 0 -69 -57l-56 45q57 97 132 97q52 0 128 -36z" />
    <glyph glyph-name="uni007F" 
 />
    <glyph glyph-name="uni00A0" unicode="&#xa0;" horiz-adv-x="210" 
 />
    <glyph glyph-name="exclamdown" unicode="&#xa1;" horiz-adv-x="228" 
d="M152 338l12 -516h-98l10 516h76zM115 405q-25 0 -43 17.5t-18 43t18 44t43 18.5t43 -18.5t18 -44t-18 -43t-43 -17.5z" />
    <glyph glyph-name="cent" unicode="&#xa2;" horiz-adv-x="442" 
d="M370 501q-58 25 -111.5 25t-93 -45t-39.5 -143t40 -143.5t94.5 -45.5t120.5 33l25 -62q-53 -35 -112 -45l5 -107h-70l5 106q-87 10 -143.5 76t-56.5 187.5t57 187.5t143 75l-5 109h70l-5 -109q57 -8 103 -33z" />
    <glyph glyph-name="sterling" unicode="&#xa3;" horiz-adv-x="490" 
d="M39 312v72h64q-17 54 -17 111q0 89 52.5 137.5t135 48.5t164.5 -34l-27 -73q-68 30 -122.5 30t-82.5 -27.5t-28 -76.5t21 -116h126l9 -72h-112q10 -47 10 -83q0 -75 -43 -148h268v-81h-390v74q35 20 55 64.5t20 88.5t-13 85h-90z" />
    <glyph glyph-name="currency" unicode="&#xa4;" horiz-adv-x="529" 
d="M172 81l-78 -99l-53 41l78 99q-46 52 -46 128t51 133q-4 6 -75 94l53 41l74 -95q45 21 91 21t86 -19q37 49 73 93l52 -41l-69 -89q26 -26 41.5 -64t15.5 -74q0 -77 -54 -134l73 -93l-53 -41l-72 96q-38 -21 -91.5 -21t-96.5 24zM181.5 161.5q34.5 -35.5 88 -35.5t88 35.5
t34.5 88.5t-34.5 89.5t-87.5 36.5t-88 -36.5t-35 -89.5t34.5 -88.5z" />
    <glyph glyph-name="yen" unicode="&#xa5;" horiz-adv-x="563" 
d="M71 125v64h161v59h-161v64h141l-190 356h108l150 -315l154 315h101l-188 -356h154v-64h-173v-59h173v-64h-173v-125h-96v125h-161z" />
    <glyph glyph-name="brokenbar" unicode="&#xa6;" horiz-adv-x="235" 
d="M75 410v284h85v-284h-85zM75 -45v288h85v-288h-85z" />
    <glyph glyph-name="section" unicode="&#xa7;" horiz-adv-x="367" 
d="M24 289q0 94 91 143l-9 21q-12 36 -12 66q0 119 123 163q21 8 45 13l17 -70l-33 -10q-72 -26 -72 -85q0 -18 13.5 -51t68 -111.5t73.5 -119.5q15 -36 15 -70q0 -92 -92 -144q3 -5 13 -28.5t10 -59.5t-18 -75q-29 -58 -107 -86q-26 -10 -45 -13l-17 69l33 10q48 16 65 51
q7 17 7 36t-15 52.5t-68 111t-72 117.5q-14 37 -14 70zM218 91q45 23 45 77q0 22 -10 42q-18 44 -104 165q-44 -25 -44 -78q0 -48 85 -167q19 -26 28 -39z" />
    <glyph glyph-name="dieresis" unicode="&#xa8;" horiz-adv-x="325" 
d="M79 707q23 0 39 -15.5t16 -38.5t-16 -40t-38.5 -17t-39 17t-16.5 39.5t16 38.5t39 16zM244 707q23 0 39 -15.5t16 -38.5t-16 -40t-38.5 -17t-39 17t-16.5 39.5t16 38.5t39 16z" />
    <glyph glyph-name="copyright" unicode="&#xa9;" horiz-adv-x="732" 
d="M460 414q-38 24 -82.5 24t-74.5 -34t-30 -106t30 -106.5t73.5 -34.5t90.5 27l22 -49q-52 -37 -119 -37t-117 50.5t-50 149.5t50 149.5t116.5 50.5t114.5 -32zM686 302q0 -134 -93 -227t-227 -93t-227 93t-93 227t93 227t227 93t227 -93t93 -227zM611 302
q0 110 -69.5 181.5t-175.5 71.5t-176 -72.5t-70 -182.5t70 -182.5t176 -72.5t175.5 73.5t69.5 183.5z" />
    <glyph glyph-name="ordfeminine" unicode="&#xaa;" horiz-adv-x="346" 
d="M209 433q-31 -29 -75 -29t-66 21.5t-21.5 62.5t31 58.5t63 17.5t60.5 -4v41q0 32 -10.5 43.5t-39 11.5t-74.5 -16l-13 38q36 24 91 24t78 -24t23 -80v-135q0 -17 11 -17q5 0 25 6l11 -35q-18 -13 -52 -13t-45 29h3zM137 448q34 0 64 19v62q-9 2 -40 2q-64 0 -65 -42
q0 -41 41 -41z" />
    <glyph glyph-name="guillemotleft" unicode="&#xab;" horiz-adv-x="533" 
d="M486 462l-148 -154l148 -153l-58 -51l-171 180v48l171 180zM276 462l-149 -154l149 -153l-58 -51l-171 180v48l171 180z" />
    <glyph glyph-name="logicalnot" unicode="&#xac;" horiz-adv-x="509" 
d="M55 432h388v-196h-79v117h-309v79z" />
    <glyph glyph-name="uni00AD" unicode="&#xad;" horiz-adv-x="429" 
d="M366 318v-79h-303v79h303z" />
    <glyph glyph-name="registered" unicode="&#xae;" horiz-adv-x="732" 
d="M686 302q0 -134 -93 -227t-227 -93t-227 93t-93 227t93 227t227 93t227 -93t93 -227zM611 302q0 110 -69.5 181.5t-175.5 71.5t-176 -72.5t-70 -182.5t70 -182.5t176 -72.5t175.5 73.5t69.5 183.5zM339 497q151 0 151 -116q0 -62 -37 -92q-15 -13 -33 -19q3 -6 42.5 -58
t60.5 -76l-42 -31q-62 67 -119 155q-26 -2 -39 -2h-21v-147h-59v386h96zM404 321q24 17 24 58.5t-24 57t-73 15.5h-29v-147h20q63 0 82 16z" />
    <glyph glyph-name="macron" unicode="&#xaf;" horiz-adv-x="577" 
d="M514 670v-79h-451v79h451z" />
    <glyph glyph-name="degree" unicode="&#xb0;" horiz-adv-x="328" 
d="M254.5 717q30.5 -34 30.5 -84.5t-32 -86.5t-91 -36t-89 34.5t-30 85t31.5 86t90.5 35.5t89.5 -34zM205.5 589q13.5 19 13.5 43t-13 41t-41.5 17t-42 -17.5t-13.5 -42.5q0 -60 53 -60q30 0 43.5 19z" />
    <glyph glyph-name="plusminus" unicode="&#xb1;" horiz-adv-x="496" 
d="M288 142h-80v153h-152v81h152v150h80v-150h152v-81h-152v-153zM440 80v-80h-384v80h384z" />
    <glyph glyph-name="twosuperior" unicode="&#xb2;" horiz-adv-x="338" 
d="M36 286v56q47 50 74.5 85t37 47t14.5 18t13 17t12 18t9 17q9 17 9 41t-16 38.5t-50 14.5t-68 -18l-20 51q58 29 113 29t84 -31t29 -83.5t-52 -122.5q-67 -88 -91 -115h159v-62h-257z" />
    <glyph glyph-name="threesuperior" unicode="&#xb3;" horiz-adv-x="316" 
d="M128 479h-32v55h31q31 1 47.5 19t16.5 43q0 46 -53 46q-42 0 -79 -18l-17 50q56 28 107 28t82 -28t31 -80t-48 -81q63 -26 63 -99q0 -59 -36.5 -96t-95.5 -37t-116 35l25 52q45 -26 81.5 -26t54 19.5t17.5 50.5t-21 49t-58 18z" />
    <glyph glyph-name="acute" unicode="&#xb4;" horiz-adv-x="356" 
d="M279 681l-172 -104l-36 55l160 122z" />
    <glyph glyph-name="mu" unicode="&#xb5;" horiz-adv-x="557" 
d="M69 -207v706l90 9v-347q0 -50 13 -73.5t52.5 -23.5t77 12.5t61.5 34.5v395h90v-416q0 -35 24 -35q16 0 44 9l15 -56q-34 -22 -82 -22q-65 0 -84 63q-28 -26 -70 -44t-80 -18t-61 10v-204h-90z" />
    <glyph glyph-name="paragraph" unicode="&#xb6;" horiz-adv-x="508" 
d="M479 604h-72v-766h-74v766h-74v-766h-78v513q-66 0 -112.5 46.5t-46.5 112.5t46.5 112t112.5 46h298v-64z" />
    <glyph glyph-name="periodcentered" unicode="&#xb7;" horiz-adv-x="254" 
d="M77 312.5q21 20.5 50 20.5t50 -20.5t21 -49.5t-21 -51t-50 -22t-50 22t-21 51t21 49.5z" />
    <glyph glyph-name="cedilla" unicode="&#xb8;" horiz-adv-x="284" 
d="M222 -113q0 -79 -106 -142l-41 48q70 49 70 99q0 25 -18 59h79q16 -34 16 -64z" />
    <glyph glyph-name="onesuperior" unicode="&#xb9;" horiz-adv-x="243" 
d="M184 259h-74v342l-80 -41l-22 57l118 51h58v-409z" />
    <glyph glyph-name="ordmasculine" unicode="&#xba;" horiz-adv-x="332" 
d="M165 404q-53 0 -85 35.5t-32 113t33 113.5t86 36q117 0 117 -149q0 -77 -33 -113t-86 -36zM166 657q-63 0 -63 -104t63 -104q26 0 44 24.5t18 82t-16 79.5t-46 22z" />
    <glyph glyph-name="guillemotright" unicode="&#xbb;" horiz-adv-x="531" 
d="M194 308l-148 154l58 50l171 -180v-48l-171 -180l-58 51zM405 308l-149 154l58 50l171 -180v-48l-171 -180l-58 51z" />
    <glyph glyph-name="onequarter" unicode="&#xbc;" horiz-adv-x="714" 
d="M687 111h-68v-111h-65v111h-164v42l132 247h97v-234h68v-55zM554 166l1 168l-87 -168h86zM196 291h-74v342l-80 -41l-22 57l118 51h58v-409zM534 703l-317 -748l-75 26l319 748z" />
    <glyph glyph-name="onehalf" unicode="&#xbd;" horiz-adv-x="739" 
d="M448 0v56q47 50 74.5 85t37 47t14.5 18t13 17t12 18t9 17q9 17 9 41t-16 38.5t-50 14.5t-68 -18l-20 51q58 29 113 29t84 -31t29 -83.5t-52 -122.5q-67 -88 -91 -115h159v-62h-257zM196 291h-74v342l-80 -41l-22 57l118 51h58v-409zM527 703l-317 -748l-75 26l319 748z
" />
    <glyph glyph-name="threequarters" unicode="&#xbe;" horiz-adv-x="771" 
d="M125 477h-32v55h31q31 1 47.5 19t16.5 43q0 46 -53 46q-41 0 -79 -18l-17 50q56 28 107 28t82 -28t31 -80t-48 -81q63 -26 63 -99q0 -59 -36.5 -96t-95.5 -37t-116 35l25 52q46 -26 82 -26t53.5 19.5t17.5 50.5t-21 49t-58 18zM748 111h-68v-111h-65v111h-164v42l132 247
h97v-234h68v-55zM615 166l1 168l-87 -168h86zM589 692l-317 -748l-75 26l319 748z" />
    <glyph glyph-name="questiondown" unicode="&#xbf;" horiz-adv-x="334" 
d="M157 -76.5q45 -28.5 133 -36.5l-18 -77q-114 5 -181 55t-67 123q0 78 60 132l46 40q53 48 59 116l2 59h77q2 -42 2 -55q0 -83 -58 -142q-21 -22 -42 -42q-58 -53 -58 -98.5t45 -74zM224 391q-25 0 -43 17.5t-18 43t18 44t43 18.5t43 -18.5t18 -44t-18 -43t-43 -17.5z" />
    <glyph glyph-name="Agrave" unicode="&#xc0;" horiz-adv-x="561" 
d="M398 172h-235l-57 -172h-98l219 668h107l219 -668h-97zM376 247l-96 330l-95 -330h191zM333 726l-172 104l48 73l160 -122z" />
    <glyph glyph-name="Aacute" unicode="&#xc1;" horiz-adv-x="561" 
d="M398 172h-235l-57 -172h-98l219 668h107l219 -668h-97zM376 247l-96 330l-95 -330h191zM408 832l-172 -104l-36 55l160 122z" />
    <glyph glyph-name="Acircumflex" unicode="&#xc2;" horiz-adv-x="561" 
d="M398 172h-235l-57 -172h-98l219 668h107l219 -668h-97zM376 247l-96 330l-95 -330h191zM280 800l-85 -86l-48 36l99 110h65l100 -110l-51 -36z" />
    <glyph glyph-name="Atilde" unicode="&#xc3;" horiz-adv-x="561" 
d="M398 172h-235l-57 -172h-98l219 668h107l219 -668h-97zM376 247l-96 330l-95 -330h191zM159 823.5q26 20.5 50 20.5t70.5 -21.5t66 -21.5t56.5 42l43 -36q-20 -34 -50 -55.5t-55 -21.5t-69 21.5t-63 21.5t-50 -37l-44 37q19 30 45 50.5z" />
    <glyph glyph-name="Adieresis" unicode="&#xc4;" horiz-adv-x="561" 
d="M398 172h-235l-57 -172h-98l219 668h107l219 -668h-97zM376 247l-96 330l-95 -330h191zM199 839q23 0 39 -15.5t16 -38.5t-16 -40t-38.5 -17t-39 17t-16.5 39.5t16 38.5t39 16zM364 839q23 0 39 -15.5t16 -38.5t-16 -40t-38.5 -17t-39 17t-16.5 39.5t16 38.5t39 16z" />
    <glyph glyph-name="Aring" unicode="&#xc5;" horiz-adv-x="561" 
d="M382 828q0 -43 -27 -73.5t-77 -30.5t-76 30t-26 73t26.5 72.5t76.5 29.5t76.5 -29t26.5 -72zM312 793q11 15 11 34.5t-10.5 33.5t-33 14t-33.5 -14t-11 -34t10.5 -34.5t33 -14.5t33.5 15zM398 172h-235l-57 -172h-98l219 668h107l219 -668h-97zM376 247l-96 330l-95 -330
h191z" />
    <glyph glyph-name="AE" unicode="&#xc6;" horiz-adv-x="777" 
d="M445 587v-202h259v-80h-259v-224h275l10 -81h-379v172h-171l-75 -172h-100l291 668h424l-9 -81h-266zM351 247v347l-140 -347h140z" />
    <glyph glyph-name="Ccedilla" unicode="&#xc7;" horiz-adv-x="521" 
d="M340 -13q-288 0 -288 348q0 180 73.5 263t202.5 83q68 0 151 -23l-18 -75q-67 15 -118 15q-92 0 -143.5 -59t-51.5 -200q0 -270 211 -270q51 0 110 12l13 -75q-79 -19 -142 -19zM385 -113q0 -79 -106 -142l-41 48q70 49 70 99q0 25 -18 59h79q16 -34 16 -64z" />
    <glyph glyph-name="Egrave" unicode="&#xc8;" horiz-adv-x="511" 
d="M175 81h284v-81h-380v668h371v-81h-275v-202h259v-79h-259v-225zM316 726l-172 104l48 73l160 -122z" />
    <glyph glyph-name="Eacute" unicode="&#xc9;" horiz-adv-x="511" 
d="M175 81h284v-81h-380v668h371v-81h-275v-202h259v-79h-259v-225zM379 832l-172 -104l-36 55l160 122z" />
    <glyph glyph-name="Ecircumflex" unicode="&#xca;" horiz-adv-x="511" 
d="M175 81h284v-81h-380v668h371v-81h-275v-202h259v-79h-259v-225zM268 800l-85 -86l-48 36l99 110h65l100 -110l-51 -36z" />
    <glyph glyph-name="Edieresis" unicode="&#xcb;" horiz-adv-x="511" 
d="M175 81h284v-81h-380v668h371v-81h-275v-202h259v-79h-259v-225zM186 839q23 0 39 -15.5t16 -38.5t-16 -40t-38.5 -17t-39 17t-16.5 39.5t16 38.5t39 16zM351 839q23 0 39 -15.5t16 -38.5t-16 -40t-38.5 -17t-39 17t-16.5 39.5t16 38.5t39 16z" />
    <glyph glyph-name="Igrave" unicode="&#xcc;" horiz-adv-x="254" 
d="M175 668v-668h-96v668h96zM165 726l-172 104l48 73l160 -122z" />
    <glyph glyph-name="Iacute" unicode="&#xcd;" horiz-adv-x="254" 
d="M175 668v-668h-96v668h96zM255 832l-172 -104l-36 55l160 122z" />
    <glyph glyph-name="Icircumflex" unicode="&#xce;" horiz-adv-x="254" 
d="M175 668v-668h-96v668h96zM117 800l-85 -86l-48 36l99 110h65l100 -110l-51 -36z" />
    <glyph glyph-name="Idieresis" unicode="&#xcf;" horiz-adv-x="254" 
d="M175 668v-668h-96v668h96zM35 839q23 0 39 -15.5t16 -38.5t-16 -40t-38.5 -17t-39 17t-16.5 39.5t16 38.5t39 16zM200 839q23 0 39 -15.5t16 -38.5t-16 -40t-38.5 -17t-39 17t-16.5 39.5t16 38.5t39 16z" />
    <glyph glyph-name="Eth" unicode="&#xd0;" horiz-adv-x="629" 
d="M15 305v79h84v284h171q123 0 177 -28q64 -36 97 -119.5t33 -187.5t-32.5 -186.5t-97.5 -119.5q-52 -27 -177 -27h-171v305h-84zM195 587v-203l157 1v-79l-157 -1v-224h83q118 0 160 61t42 192t-42 192t-160 61h-83z" />
    <glyph glyph-name="Ntilde" unicode="&#xd1;" horiz-adv-x="659" 
d="M580 0h-98l-316 541q4 -39 4 -84v-457h-91v668h98l316 -541q-4 39 -4 84v457h91v-668zM188 823.5q26 20.5 50 20.5t70.5 -21.5t66 -21.5t56.5 42l43 -36q-20 -34 -50 -55.5t-55 -21.5t-69 21.5t-63 21.5t-50 -37l-44 37q19 30 45 50.5z" />
    <glyph glyph-name="Ograve" unicode="&#xd2;" horiz-adv-x="621" 
d="M311 681q69 0 121 -29t81 -79q57 -98 57 -239q0 -138 -58 -238q-30 -51 -82 -80t-121.5 -29t-120.5 29t-80 79q-57 98 -57 239q0 140 59 239q29 50 80.5 79t120.5 29zM310 72q83 0 122.5 73t39.5 189.5t-39.5 189t-122.5 72.5t-122.5 -72.5t-39.5 -189t39.5 -189.5
t122.5 -73zM371 726l-172 104l48 73l160 -122z" />
    <glyph glyph-name="Oacute" unicode="&#xd3;" horiz-adv-x="621" 
d="M311 681q69 0 121 -29t81 -79q57 -98 57 -239q0 -138 -58 -238q-30 -51 -82 -80t-121.5 -29t-120.5 29t-80 79q-57 98 -57 239q0 140 59 239q29 50 80.5 79t120.5 29zM310 72q83 0 122.5 73t39.5 189.5t-39.5 189t-122.5 72.5t-122.5 -72.5t-39.5 -189t39.5 -189.5
t122.5 -73zM429 832l-172 -104l-36 55l160 122z" />
    <glyph glyph-name="Ocircumflex" unicode="&#xd4;" horiz-adv-x="621" 
d="M311 681q69 0 121 -29t81 -79q57 -98 57 -239q0 -138 -58 -238q-30 -51 -82 -80t-121.5 -29t-120.5 29t-80 79q-57 98 -57 239q0 140 59 239q29 50 80.5 79t120.5 29zM310 72q83 0 122.5 73t39.5 189.5t-39.5 189t-122.5 72.5t-122.5 -72.5t-39.5 -189t39.5 -189.5
t122.5 -73zM315 800l-85 -86l-48 36l99 110h65l100 -110l-51 -36z" />
    <glyph glyph-name="Otilde" unicode="&#xd5;" horiz-adv-x="621" 
d="M311 681q69 0 121 -29t81 -79q57 -98 57 -239q0 -138 -58 -238q-30 -51 -82 -80t-121.5 -29t-120.5 29t-80 79q-57 98 -57 239q0 140 59 239q29 50 80.5 79t120.5 29zM310 72q83 0 122.5 73t39.5 189.5t-39.5 189t-122.5 72.5t-122.5 -72.5t-39.5 -189t39.5 -189.5
t122.5 -73zM196 823.5q26 20.5 50 20.5t70.5 -21.5t66 -21.5t56.5 42l43 -36q-20 -34 -50 -55.5t-55 -21.5t-69 21.5t-63 21.5t-50 -37l-44 37q19 30 45 50.5z" />
    <glyph glyph-name="Odieresis" unicode="&#xd6;" horiz-adv-x="621" 
d="M311 681q69 0 121 -29t81 -79q57 -98 57 -239q0 -138 -58 -238q-30 -51 -82 -80t-121.5 -29t-120.5 29t-80 79q-57 98 -57 239q0 140 59 239q29 50 80.5 79t120.5 29zM310 72q83 0 122.5 73t39.5 189.5t-39.5 189t-122.5 72.5t-122.5 -72.5t-39.5 -189t39.5 -189.5
t122.5 -73zM219 839q23 0 39 -15.5t16 -38.5t-16 -40t-38.5 -17t-39 17t-16.5 39.5t16 38.5t39 16zM384 839q23 0 39 -15.5t16 -38.5t-16 -40t-38.5 -17t-39 17t-16.5 39.5t16 38.5t39 16z" />
    <glyph glyph-name="multiply" unicode="&#xd7;" horiz-adv-x="510" 
d="M463 153l-56 -56l-151 149l-151 -151l-57 56l150 150l-149 148l57 57l148 -148l149 148l59 -54l-149 -149z" />
    <glyph glyph-name="Oslash" unicode="&#xd8;" horiz-adv-x="621" 
d="M570 334q0 -138 -58 -238q-30 -51 -82 -80t-110 -29t-103 15l-48 -118l-73 26l55 133q-100 89 -100 291q0 140 59 239q29 50 80.5 79t112 29t103.5 -17l40 97l71 -25l-46 -113q99 -89 99 -289zM187.5 523.5q-39.5 -72.5 -39.5 -193.5t43 -190l181 442q-28 14 -62 14
q-83 0 -122.5 -72.5zM310 72q83 0 122.5 73t39.5 193t-41 188l-180 -442q25 -12 59 -12z" />
    <glyph glyph-name="Ugrave" unicode="&#xd9;" horiz-adv-x="609" 
d="M75 245v423h96v-409q0 -104 26 -139q28 -47 106.5 -47t107.5 47q27 37 27 139v409h96v-423q0 -117 -45 -181q-55 -75 -183 -76t-186 76q-45 64 -45 181zM358 726l-172 104l48 73l160 -122z" />
    <glyph glyph-name="Uacute" unicode="&#xda;" horiz-adv-x="609" 
d="M75 245v423h96v-409q0 -104 26 -139q28 -47 106.5 -47t107.5 47q27 37 27 139v409h96v-423q0 -117 -45 -181q-55 -75 -183 -76t-186 76q-45 64 -45 181zM438 832l-172 -104l-36 55l160 122z" />
    <glyph glyph-name="Ucircumflex" unicode="&#xdb;" horiz-adv-x="609" 
d="M75 245v423h96v-409q0 -104 26 -139q28 -47 106.5 -47t107.5 47q27 37 27 139v409h96v-423q0 -117 -45 -181q-55 -75 -183 -76t-186 76q-45 64 -45 181zM307 800l-85 -86l-48 36l99 110h65l100 -110l-51 -36z" />
    <glyph glyph-name="Udieresis" unicode="&#xdc;" horiz-adv-x="609" 
d="M75 245v423h96v-409q0 -104 26 -139q28 -47 106.5 -47t107.5 47q27 37 27 139v409h96v-423q0 -117 -45 -181q-55 -75 -183 -76t-186 76q-45 64 -45 181zM223 839q23 0 39 -15.5t16 -38.5t-16 -40t-38.5 -17t-39 17t-16.5 39.5t16 38.5t39 16zM388 839q23 0 39 -15.5
t16 -38.5t-16 -40t-38.5 -17t-39 17t-16.5 39.5t16 38.5t39 16z" />
    <glyph glyph-name="Yacute" unicode="&#xdd;" horiz-adv-x="521" 
d="M309 0h-96v275l-210 393h108l150 -315l154 315h101l-207 -393v-275zM401 832l-172 -104l-36 55l160 122z" />
    <glyph glyph-name="Thorn" unicode="&#xde;" horiz-adv-x="517" 
d="M429 540q56 -49 56 -149t-61 -147q-35 -28 -85 -39t-137 -11h-53v-194h-70v700h70v-106h80q77 0 121.5 -12t78.5 -42zM365 281q48 34 48 107t-38.5 110t-144.5 37h-81v-282h65q112 0 151 28z" />
    <glyph glyph-name="germandbls" unicode="&#xdf;" horiz-adv-x="580" 
d="M263 310.5q-9 23.5 -9 53.5t11.5 53t28 38.5t33.5 30.5q40 34 40 70q0 78 -88 78q-62 0 -91 -32.5t-29 -101.5v-636l-91 1v637q0 105 57 156.5t149.5 51.5t137.5 -42.5t45 -106.5q0 -35 -18 -64.5t-40 -46.5q-58 -45 -58 -77q0 -36 23 -55q18 -13 50 -29q32 -13 50 -22.5
t42 -28.5q45 -35 45 -103t-45 -108t-122 -40q-40 0 -89.5 13.5t-71.5 30.5l23 67q75 -37 146.5 -37t71.5 70q0 21 -14.5 38.5t-29.5 26t-45 23t-45 23.5t-36.5 27t-30.5 41.5z" />
    <glyph glyph-name="agrave" unicode="&#xe0;" horiz-adv-x="487" 
d="M176 -13q-65 0 -103.5 38t-38.5 102q0 42 18 71t47 43q52 25 109 25t106 -5v78q0 58 -19.5 79.5t-74.5 21.5t-131 -27l-21 63q29 18 76.5 29t82.5 11q97 0 137 -42t40 -141v-243q0 -35 24 -35q16 0 44 9l15 -56q-34 -22 -88 -22t-78 51q-22 -21 -61.5 -35.5t-83.5 -14.5z
M195 58q63 0 119 36v116q-24 4 -78 4q-117 0 -118 -78q0 -78 77 -78zM293 577l-172 104l48 73l160 -122z" />
    <glyph glyph-name="aacute" unicode="&#xe1;" horiz-adv-x="487" 
d="M176 -13q-65 0 -103.5 38t-38.5 102q0 42 18 71t47 43q52 25 109 25t106 -5v78q0 58 -19.5 79.5t-74.5 21.5t-131 -27l-21 63q29 18 76.5 29t82.5 11q97 0 137 -42t40 -141v-243q0 -35 24 -35q16 0 44 9l15 -56q-34 -22 -88 -22t-78 51q-22 -21 -61.5 -35.5t-83.5 -14.5z
M195 58q63 0 119 36v116q-24 4 -78 4q-117 0 -118 -78q0 -78 77 -78zM331 681l-172 -104l-36 55l160 122z" />
    <glyph glyph-name="acircumflex" unicode="&#xe2;" horiz-adv-x="487" 
d="M176 -13q-65 0 -103.5 38t-38.5 102q0 42 18 71t47 43q52 25 109 25t106 -5v78q0 58 -19.5 79.5t-74.5 21.5t-131 -27l-21 63q29 18 76.5 29t82.5 11q97 0 137 -42t40 -141v-243q0 -35 24 -35q16 0 44 9l15 -56q-34 -22 -88 -22t-78 51q-22 -21 -61.5 -35.5t-83.5 -14.5z
M195 58q63 0 119 36v116q-24 4 -78 4q-117 0 -118 -78q0 -78 77 -78zM237 667l-85 -86l-48 36l99 110h65l100 -110l-51 -36z" />
    <glyph glyph-name="atilde" unicode="&#xe3;" horiz-adv-x="487" 
d="M105 680.5q26 20.5 50 20.5t70.5 -21.5t66 -21.5t56.5 42l43 -36q-20 -34 -50 -55.5t-55 -21.5t-69 21.5t-63 21.5t-50 -37l-44 37q19 30 45 50.5zM176 -13q-65 0 -103.5 38t-38.5 102q0 42 18 71t47 43q52 25 109 25t106 -5v78q0 58 -19.5 79.5t-74.5 21.5t-131 -27
l-21 63q29 18 76.5 29t82.5 11q97 0 137 -42t40 -141v-243q0 -35 24 -35q16 0 44 9l15 -56q-34 -22 -88 -22t-78 51q-22 -21 -61.5 -35.5t-83.5 -14.5zM195 58q63 0 119 36v116q-24 4 -78 4q-117 0 -118 -78q0 -78 77 -78z" />
    <glyph glyph-name="adieresis" unicode="&#xe4;" horiz-adv-x="487" 
d="M148 707q23 0 39 -15.5t16 -38.5t-16 -40t-38.5 -17t-39 17t-16.5 39.5t16 38.5t39 16zM313 707q23 0 39 -15.5t16 -38.5t-16 -40t-38.5 -17t-39 17t-16.5 39.5t16 38.5t39 16zM176 -13q-65 0 -103.5 38t-38.5 102q0 42 18 71t47 43q52 25 109 25t106 -5v78
q0 58 -19.5 79.5t-74.5 21.5t-131 -27l-21 63q29 18 76.5 29t82.5 11q97 0 137 -42t40 -141v-243q0 -35 24 -35q16 0 44 9l15 -56q-34 -22 -88 -22t-78 51q-22 -21 -61.5 -35.5t-83.5 -14.5zM195 58q63 0 119 36v116q-24 4 -78 4q-117 0 -118 -78q0 -78 77 -78z" />
    <glyph glyph-name="aring" unicode="&#xe5;" horiz-adv-x="487" 
d="M176 -12q-65 0 -103.5 38t-38.5 102q0 42 18 71t47 43q52 25 109 25t106 -5v78q0 58 -19.5 79.5t-74.5 21.5t-131 -27l-21 63q29 18 76.5 29t82.5 11q97 0 137 -42t40 -141v-243q0 -35 24 -35q16 0 44 9l15 -56q-34 -22 -88 -22t-78 51q-22 -21 -61.5 -35.5t-83.5 -14.5z
M195 59q63 0 119 36v116q-24 4 -78 4q-117 0 -118 -78q0 -78 77 -78zM330 691q0 -43 -27 -73.5t-77 -30.5t-76 30t-26 73t26.5 72.5t76.5 29.5t76.5 -29t26.5 -72zM260 656q11 15 11 34.5t-10.5 33.5t-33 14t-33.5 -14t-11 -34t10.5 -34.5t33 -14.5t33.5 15z" />
    <glyph glyph-name="ae" unicode="&#xe6;" horiz-adv-x="748" 
d="M312 339q0 58 -19.5 79.5t-75 21.5t-131.5 -27l-21 63q29 18 76.5 29t96.5 11q109 0 138 -79q45 79 150 79q85 0 130.5 -46.5t45.5 -124.5q0 -42 -14 -93h-294q2 -85 38 -137.5t106.5 -52.5t136.5 37l28 -63q-76 -49 -171 -49t-155 67q-31 -29 -86 -48t-117.5 -19
t-100.5 38t-38 102q0 42 18 71t47 43q52 25 108 25t104 -5v78zM237 214q-117 0 -118 -78q0 -76 77 -78q36 0 81.5 10.5t71.5 27.5q-27 50 -35 114q-24 4 -77 4zM620 319v8q0 54 -22.5 84.5t-61.5 30.5t-64 -13.5t-39 -35.5q-21 -33 -30 -74h217z" />
    <glyph glyph-name="ccedilla" unicode="&#xe7;" horiz-adv-x="434" 
d="M320 -113q0 -79 -106 -142l-41 48q70 49 70 99q0 25 -18 59h79q16 -34 16 -64zM277 -15q-101 0 -167 66.5t-66 199t66 199t162 66.5q68 0 124 -29l-27 -64q-53 17 -95 17q-59 0 -98.5 -45t-39.5 -144q0 -189 155 -189q44 0 93 13l15 -66q-64 -24 -122 -24z" />
    <glyph glyph-name="egrave" unicode="&#xe8;" horiz-adv-x="476" 
d="M265 -13q-112 0 -166.5 76.5t-54.5 192t58 188t159 72.5q85 0 129.5 -47.5t44.5 -125.5q0 -35 -15 -90h-294q2 -85 37 -138t104.5 -53t131.5 28l23 -62q-72 -41 -157 -41zM353 326q0 54 -22 85t-61 31t-64.5 -13.5t-39.5 -34.5q-24 -40 -30 -74l217 -2v8zM344 577
l-172 104l48 73l160 -122z" />
    <glyph glyph-name="eacute" unicode="&#xe9;" horiz-adv-x="476" 
d="M265 -13q-112 0 -166.5 76.5t-54.5 192t58 188t159 72.5q85 0 129.5 -47.5t44.5 -125.5q0 -35 -15 -90h-294q2 -85 37 -138t104.5 -53t131.5 28l23 -62q-72 -41 -157 -41zM353 326q0 54 -22 85t-61 31t-64.5 -13.5t-39.5 -34.5q-24 -40 -30 -74l217 -2v8zM356 681
l-172 -104l-36 55l160 122z" />
    <glyph glyph-name="ecircumflex" unicode="&#xea;" horiz-adv-x="476" 
d="M259 667l-85 -86l-48 36l99 110h65l100 -110l-51 -36zM399 90l23 -62q-72 -41 -157 -41q-112 0 -166.5 76.5t-54.5 192t58 188t159 72.5q85 0 129.5 -47.5t44.5 -125.5q0 -35 -15 -90h-294q2 -85 37 -138t104.5 -53t131.5 28zM270 442q-73 0 -104 -48q-24 -40 -30 -74
l217 -2v8q0 54 -22 85t-61 31z" />
    <glyph glyph-name="edieresis" unicode="&#xeb;" horiz-adv-x="476" 
d="M181 707q23 0 39 -15.5t16 -38.5t-16 -40t-38.5 -17t-39 17t-16.5 39.5t16 38.5t39 16zM346 707q23 0 39 -15.5t16 -38.5t-16 -40t-38.5 -17t-39 17t-16.5 39.5t16 38.5t39 16zM265 -13q-112 0 -166.5 76.5t-54.5 192t58 188t159 72.5q85 0 129.5 -47.5t44.5 -125.5
q0 -35 -15 -90h-294q2 -85 37 -138t104.5 -53t131.5 28l23 -62q-72 -41 -157 -41zM353 326q0 54 -22 85t-61 31t-64.5 -13.5t-39.5 -34.5q-24 -40 -30 -74l217 -2v8z" />
    <glyph glyph-name="igrave" unicode="&#xec;" horiz-adv-x="225" 
d="M158 0h-91v502l91 9v-511zM154 577l-172 104l48 73l160 -122z" />
    <glyph glyph-name="iacute" unicode="&#xed;" horiz-adv-x="225" 
d="M158 0h-91v502l91 9v-511zM259 681l-172 -104l-36 55l160 122z" />
    <glyph glyph-name="icircumflex" unicode="&#xee;" horiz-adv-x="225" 
d="M158 0h-91v502l91 9v-511zM120 667l-85 -86l-48 36l99 110h65l100 -110l-51 -36z" />
    <glyph glyph-name="idieresis" unicode="&#xef;" horiz-adv-x="225" 
d="M158 0h-91v502l91 9v-511zM31 707q23 0 39 -15.5t16 -38.5t-16 -40t-38.5 -17t-39 17t-16.5 39.5t16 38.5t39 16zM196 707q23 0 39 -15.5t16 -38.5t-16 -40t-38.5 -17t-39 17t-16.5 39.5t16 38.5t39 16z" />
    <glyph glyph-name="eth" unicode="&#xf0;" horiz-adv-x="498" 
d="M99 55.5q-53 68.5 -53 176t46 176t127.5 68.5t124.5 -33q-27 97 -88 140l-76 -66l-49 56l55 47q-54 25 -126 33l14 67q107 -3 184 -39l71 60l46 -56l-53 -45q128 -108 128 -354q0 -299 -201 -299q-97 0 -150 68.5zM135 221q0 -70 29.5 -114t83.5 -44t83 53t29 190
q0 29 -1 49q-59 48 -116 48q-108 0 -108 -182z" />
    <glyph glyph-name="ntilde" unicode="&#xf1;" horiz-adv-x="519" 
d="M131 680.5q26 20.5 50 20.5t70.5 -21.5t66 -21.5t56.5 42l43 -36q-20 -34 -50 -55.5t-55 -21.5t-69 21.5t-63 21.5t-50 -37l-44 37q19 30 45 50.5zM454 347v-347h-90v342q0 46 -12 72t-48.5 26t-79 -19.5t-66.5 -47.5v-373h-90v506h75l10 -61q28 27 75.5 49t91.5 22
q75 0 104.5 -44.5t29.5 -124.5z" />
    <glyph glyph-name="ograve" unicode="&#xf2;" horiz-adv-x="508" 
d="M252 -13q-94 0 -150 63t-56 200.5t58.5 201.5t152.5 64t149.5 -63t55.5 -200.5t-58 -201.5t-152 -64zM255 442q-117 0 -117 -190.5t116 -190.5q48 0 82 45t34 150t-29.5 145.5t-85.5 40.5zM326 577l-172 104l48 73l160 -122z" />
    <glyph glyph-name="oacute" unicode="&#xf3;" horiz-adv-x="508" 
d="M252 -13q-94 0 -150 63t-56 200.5t58.5 201.5t152.5 64t149.5 -63t55.5 -200.5t-58 -201.5t-152 -64zM255 442q-117 0 -117 -190.5t116 -190.5q48 0 82 45t34 150t-29.5 145.5t-85.5 40.5zM364 681l-172 -104l-36 55l160 122z" />
    <glyph glyph-name="ocircumflex" unicode="&#xf4;" horiz-adv-x="508" 
d="M252 -13q-94 0 -150 63t-56 200.5t58.5 201.5t152.5 64t149.5 -63t55.5 -200.5t-58 -201.5t-152 -64zM255 442q-117 0 -117 -190.5t116 -190.5q48 0 82 45t34 150t-29.5 145.5t-85.5 40.5zM256 667l-85 -86l-48 36l99 110h65l100 -110l-51 -36z" />
    <glyph glyph-name="otilde" unicode="&#xf5;" horiz-adv-x="508" 
d="M252 -13q-94 0 -150 63t-56 200.5t58.5 201.5t152.5 64t149.5 -63t55.5 -200.5t-58 -201.5t-152 -64zM255 442q-117 0 -117 -190.5t116 -190.5q48 0 82 45t34 150t-29.5 145.5t-85.5 40.5zM134 680.5q26 20.5 50 20.5t70.5 -21.5t66 -21.5t56.5 42l43 -36
q-20 -34 -50 -55.5t-55 -21.5t-69 21.5t-63 21.5t-50 -37l-44 37q19 30 45 50.5z" />
    <glyph glyph-name="odieresis" unicode="&#xf6;" horiz-adv-x="508" 
d="M252 -13q-94 0 -150 63t-56 200.5t58.5 201.5t152.5 64t149.5 -63t55.5 -200.5t-58 -201.5t-152 -64zM255 442q-117 0 -117 -190.5t116 -190.5q48 0 82 45t34 150t-29.5 145.5t-85.5 40.5zM171 707q23 0 39 -15.5t16 -38.5t-16 -40t-38.5 -17t-39 17t-16.5 39.5t16 38.5
t39 16zM336 707q23 0 39 -15.5t16 -38.5t-16 -40t-38.5 -17t-39 17t-16.5 39.5t16 38.5t39 16z" />
    <glyph glyph-name="divide" unicode="&#xf7;" horiz-adv-x="502" 
d="M210 190q17 16 41 16t40.5 -16t16.5 -39.5t-16.5 -41t-40.5 -17.5t-41 17.5t-17 41t17 39.5zM454 239h-406v79h406v-79zM210 453q17 16 41 16t40.5 -16t16.5 -39.5t-16.5 -41t-40.5 -17.5t-41 17.5t-17 41t17 39.5z" />
    <glyph glyph-name="oslash" unicode="&#xf8;" horiz-adv-x="513" 
d="M121 31q-75 65 -75 211t59 210t155 64q48 0 88 -17l36 74l60 -24l-42 -86q66 -66 66 -207t-58.5 -205t-154.5 -64q-42 0 -77 12l-41 -85l-61 24zM258 442q-50 0 -85 -42t-35 -140t24 -144l153 314q-23 12 -57 12zM257 61q48 0 83.5 45t35.5 134t-17 134l-147 -305
q17 -8 45 -8z" />
    <glyph glyph-name="ugrave" unicode="&#xf9;" horiz-adv-x="515" 
d="M210 -13q-82 0 -114 44.5t-32 127.5v347h90v-345q0 -50 13 -73.5t52.5 -23.5t77 12.5t61.5 34.5v392h90v-512h-73l-10 54q-29 -24 -71 -41t-84 -17zM310 577l-172 104l48 73l160 -122z" />
    <glyph glyph-name="uacute" unicode="&#xfa;" horiz-adv-x="515" 
d="M210 -13q-82 0 -114 44.5t-32 127.5v347h90v-345q0 -50 13 -73.5t52.5 -23.5t77 12.5t61.5 34.5v392h90v-512h-73l-10 54q-29 -24 -71 -41t-84 -17zM379 681l-172 -104l-36 55l160 122z" />
    <glyph glyph-name="ucircumflex" unicode="&#xfb;" horiz-adv-x="515" 
d="M210 -13q-82 0 -114 44.5t-32 127.5v347h90v-345q0 -50 13 -73.5t52.5 -23.5t77 12.5t61.5 34.5v392h90v-512h-73l-10 54q-29 -24 -71 -41t-84 -17zM258 667l-85 -86l-48 36l99 110h65l100 -110l-51 -36z" />
    <glyph glyph-name="udieresis" unicode="&#xfc;" horiz-adv-x="515" 
d="M210 -13q-82 0 -114 44.5t-32 127.5v347h90v-345q0 -50 13 -73.5t52.5 -23.5t77 12.5t61.5 34.5v392h90v-512h-73l-10 54q-29 -24 -71 -41t-84 -17zM179 707q23 0 39 -15.5t16 -38.5t-16 -40t-38.5 -17t-39 17t-16.5 39.5t16 38.5t39 16zM344 707q23 0 39 -15.5t16 -38.5
t-16 -40t-38.5 -17t-39 17t-16.5 39.5t16 38.5t39 16z" />
    <glyph glyph-name="yacute" unicode="&#xfd;" horiz-adv-x="473" 
d="M49 -143q55 0 89.5 31t60.5 110l-185 502l95 6l131 -411l118 411h94l-166 -496q-39 -118 -90.5 -169.5t-133.5 -51.5q-33 0 -68 7l11 64q16 -3 44 -3zM393 681l-172 -104l-36 55l160 122z" />
    <glyph glyph-name="thorn" unicode="&#xfe;" horiz-adv-x="518" 
d="M158 700v-231q19 15 58.5 31t78.5 16q76 0 127 -62.5t51 -175.5q0 -291 -221 -291q-52 0 -94 14v-212h-90v911h90zM280 440q-62 0 -122 -42v-319q38 -16 95 -16q126 0 126 196q0 181 -99 181z" />
    <glyph glyph-name="ydieresis" unicode="&#xff;" horiz-adv-x="473" 
d="M49 -143q55 0 89.5 31t60.5 110l-185 502l95 6l131 -411l118 411h94l-166 -496q-39 -118 -90.5 -169.5t-133.5 -51.5q-33 0 -68 7l11 64q16 -3 44 -3zM153 707q23 0 39 -15.5t16 -38.5t-16 -40t-38.5 -17t-39 17t-16.5 39.5t16 38.5t39 16zM318 707q23 0 39 -15.5
t16 -38.5t-16 -40t-38.5 -17t-39 17t-16.5 39.5t16 38.5t39 16z" />
    <glyph glyph-name="dotlessi" unicode="&#x131;" horiz-adv-x="225" 
d="M158 0h-91v502l91 9v-511z" />
    <glyph glyph-name="Lslash" unicode="&#x141;" horiz-adv-x="486" 
d="M214 81h250v-81h-346v315h-96v79h96v274h96v-274h193v-79h-193v-234z" />
    <glyph glyph-name="lslash" unicode="&#x142;" horiz-adv-x="427" 
d="M416 394v-79h-207v-213q0 -39 36 -39q28 0 59 10l15 -66q-41 -20 -101 -20q-100 0 -100 114v214h-87v79h87v306h91v-306h207z" />
    <glyph glyph-name="OE" unicode="&#x152;" horiz-adv-x="898" 
d="M566 81h275l9 -81h-380v56q-55 -69 -162 -69q-69 0 -120 29t-80 79q-57 98 -57 239q0 140 59 239q29 50 80.5 79t120.5 29q104 0 159 -67v54h371l-10 -81h-265v-202h259v-79h-259v-225zM310 72q83 0 122.5 73t39.5 189.5t-39.5 189t-122.5 72.5t-122.5 -72.5t-39.5 -189
t39.5 -189.5t122.5 -73z" />
    <glyph glyph-name="oe" unicode="&#x153;" horiz-adv-x="813" 
d="M497 114.5q36 -52.5 106.5 -52.5t136.5 37l28 -63q-76 -49 -167 -49q-125 0 -180 97q-54 -97 -166 -97q-96 0 -152.5 63t-56.5 200.5t59 201.5t155 64q116 0 166 -93q56 93 165 93q85 0 130.5 -46.5t45.5 -124.5q0 -42 -14 -93h-294q2 -85 38 -137.5zM345 401.5
q-30 40.5 -83.5 40.5t-88.5 -42t-35 -149q0 -190 119 -190q48 0 83 45t35 150t-30 145.5zM685 319v8q0 54 -22.5 84.5t-61.5 30.5t-64 -13.5t-39 -35.5q-21 -33 -30 -74h217z" />
    <glyph glyph-name="Scaron" unicode="&#x160;" horiz-adv-x="490" 
d="M393 40q-58 -53 -153 -53q-51 0 -108.5 11t-92.5 28l26 85q98 -39 163 -39t98 28.5t33 72.5t-36 75t-93.5 59.5t-77.5 40.5t-46 36q-50 43 -50 124t57 127t139.5 46t169.5 -32l-26 -80q-76 27 -134.5 27t-86 -23.5t-27.5 -61.5t32 -64.5t84 -54t76.5 -43.5t53.5 -41
q57 -52 57 -133.5t-58 -134.5zM263 781l91 93l46 -39l-103 -114h-66l-104 114l46 39z" />
    <glyph glyph-name="scaron" unicode="&#x161;" horiz-adv-x="411" 
d="M214 632l91 93l46 -39l-103 -114h-66l-104 114l46 39zM60 92q66 -29 121 -29t80.5 20.5t25.5 51t-24.5 51.5t-59.5 33.5t-70.5 26.5t-60 44.5t-24.5 76.5q0 68 48 108.5t130 40.5t132 -29l-21 -67q-58 20 -107 20t-73 -18t-24 -48.5t25 -50.5t60.5 -32t70.5 -26.5
t60 -44.5t25 -75q0 -66 -49 -112t-140 -46q-42 0 -84.5 11t-63.5 26z" />
    <glyph glyph-name="Ydieresis" unicode="&#x178;" horiz-adv-x="521" 
d="M309 0h-96v275l-210 393h108l150 -315l154 315h101l-207 -393v-275zM192 839q23 0 39 -15.5t16 -38.5t-16 -40t-38.5 -17t-39 17t-16.5 39.5t16 38.5t39 16zM357 839q23 0 39 -15.5t16 -38.5t-16 -40t-38.5 -17t-39 17t-16.5 39.5t16 38.5t39 16z" />
    <glyph glyph-name="Zcaron" unicode="&#x17d;" horiz-adv-x="525" 
d="M489 81v-81h-441l-9 65l314 522h-299l-11 81h417l7 -69l-311 -518h333zM264 784l91 93l46 -39l-103 -114h-66l-104 114l46 39z" />
    <glyph glyph-name="zcaron" unicode="&#x17e;" horiz-adv-x="440" 
d="M137 74h261l10 -74h-368l-9 58l254 374h-226l-10 74h333l10 -62zM227 632l91 93l46 -39l-103 -114h-66l-104 114l46 39z" />
    <glyph glyph-name="florin" unicode="&#x192;" horiz-adv-x="513" 
d="M302 432v-490q0 -94 -39 -136.5t-129 -42.5q-53 0 -116 18l20 71q40 -10 90 -10t66.5 21.5t16.5 75.5v493h-93l9 74h84v37q0 94 39 136.5t129 42.5q53 0 116 -18l-20 -71q-40 10 -90 10t-66.5 -21.5t-16.5 -75.5v-40h137l-10 -74h-127z" />
    <glyph glyph-name="circumflex" unicode="&#x2c6;" horiz-adv-x="384" 
d="M193 667l-85 -86l-48 36l99 110h65l100 -110l-51 -36z" />
    <glyph glyph-name="caron" unicode="&#x2c7;" horiz-adv-x="432" 
d="M223 632l91 93l46 -39l-103 -114h-66l-104 114l46 39z" />
    <glyph glyph-name="breve" unicode="&#x2d8;" horiz-adv-x="336" 
d="M119 670q0 -50 48 -50q50 0 50 50h59q0 -43 -28 -73.5t-81.5 -30.5t-80 30t-26.5 74h59z" />
    <glyph glyph-name="dotaccent" unicode="&#x2d9;" horiz-adv-x="202" 
d="M101 682q25 0 43 -17.5t18 -43t-18 -44t-43 -18.5t-43 18.5t-18 44t18 43t43 17.5z" />
    <glyph glyph-name="ring" unicode="&#x2da;" horiz-adv-x="335" 
d="M266 691q0 -43 -27 -73.5t-77 -30.5t-76 30t-26 73t26.5 72.5t76.5 29.5t76.5 -29t26.5 -72zM196 656q11 15 11 34.5t-10.5 33.5t-33 14t-33.5 -14t-11 -34t10.5 -34.5t33 -14.5t33.5 15z" />
    <glyph glyph-name="ogonek" unicode="&#x2db;" horiz-adv-x="332" 
d="M152 -108q0 -35 42 -35q23 0 58 13l13 -70q-49 -21 -94.5 -21t-76 23.5t-30.5 60.5q0 65 59 124h82q-53 -56 -53 -95z" />
    <glyph glyph-name="tilde" unicode="&#x2dc;" horiz-adv-x="515" 
d="M139 680.5q26 20.5 50 20.5t70.5 -21.5t66 -21.5t56.5 42l43 -36q-20 -34 -50 -55.5t-55 -21.5t-69 21.5t-63 21.5t-50 -37l-44 37q19 30 45 50.5z" />
    <glyph glyph-name="hungarumlaut" unicode="&#x2dd;" horiz-adv-x="503" 
d="M258 666l-144 -140l-47 45l128 155zM437 662l-144 -140l-47 45l128 156z" />
    <glyph glyph-name="endash" unicode="&#x2013;" horiz-adv-x="556" 
d="M493 318v-79h-430v79h430z" />
    <glyph glyph-name="emdash" unicode="&#x2014;" horiz-adv-x="836" 
d="M773 318v-79h-710v79h710z" />
    <glyph glyph-name="quoteleft" unicode="&#x2018;" horiz-adv-x="223" 
d="M52 532q0 105 89 187h83q-82 -95 -82 -172q0 -33 17 -72h-95q-12 26 -12 57z" />
    <glyph glyph-name="quoteright" unicode="&#x2019;" horiz-adv-x="255" 
d="M215 643q0 -105 -89 -187h-83q82 95 82 172q0 33 -17 72h95q12 -26 12 -57z" />
    <glyph glyph-name="quotesinglbase" unicode="&#x201a;" horiz-adv-x="220" 
d="M163 59q0 -105 -89 -187h-83q82 95 82 172q0 33 -17 72h95q12 -26 12 -57z" />
    <glyph glyph-name="quotedblleft" unicode="&#x201c;" horiz-adv-x="393" 
d="M222 532q0 105 89 187h83q-82 -95 -82 -172q0 -33 17 -72h-95q-12 26 -12 57zM52 532q0 105 89 187h83q-82 -95 -82 -172q0 -33 17 -72h-95q-12 26 -12 57z" />
    <glyph glyph-name="quotedblright" unicode="&#x201d;" horiz-adv-x="425" 
d="M215 643q0 -105 -89 -187h-83q82 95 82 172q0 33 -17 72h95q12 -26 12 -57zM385 643q0 -105 -89 -187h-83q82 95 82 172q0 33 -17 72h95q12 -26 12 -57z" />
    <glyph glyph-name="quotedblbase" unicode="&#x201e;" horiz-adv-x="390" 
d="M163 59q0 -105 -89 -187h-83q82 95 82 172q0 33 -17 72h95q12 -26 12 -57zM333 59q0 -105 -89 -187h-83q82 95 82 172q0 33 -17 72h95q12 -26 12 -57z" />
    <glyph glyph-name="dagger" unicode="&#x2020;" horiz-adv-x="428" 
d="M399 480v-88l-162 15l25 -407h-106l25 407l-152 -15v88l152 -15l-27 204h110l-27 -204z" />
    <glyph glyph-name="daggerdbl" unicode="&#x2021;" horiz-adv-x="435" 
d="M262 341l-21 -126l143 13v-78l-143 13l24 -163h-94l23 163l-143 -13v78l143 -13l-20 126l20 118l-143 -13v79l143 -14l-23 163h94l-24 -163l143 14v-79l-143 13z" />
    <glyph glyph-name="bullet" unicode="&#x2022;" horiz-adv-x="371" 
d="M69 323q0 50 33.5 83.5t83 33.5t83 -33.5t33.5 -83.5t-33.5 -83.5t-83 -33.5t-83 33.5t-33.5 83.5z" />
    <glyph glyph-name="ellipsis" unicode="&#x2026;" horiz-adv-x="668" 
d="M112 117q25 0 43 -17.5t18 -43t-18 -44t-43 -18.5t-43 18.5t-18 44t18 43t43 17.5zM334 117q25 0 43 -17.5t18 -43t-18 -44t-43 -18.5t-43 18.5t-18 44t18 43t43 17.5zM556 117q25 0 43 -17.5t18 -43t-18 -44t-43 -18.5t-43 18.5t-18 44t18 43t43 17.5z" />
    <glyph glyph-name="perthousand" unicode="&#x2030;" horiz-adv-x="1066" 
d="M673.5 43.5q-34.5 -47.5 -100 -47.5t-99 46.5t-33.5 162t34.5 163t100.5 47.5t99 -46.5t33 -162t-34.5 -163zM626.5 321.5q-16.5 31.5 -52 31.5t-51.5 -31.5t-16 -116.5t16 -115t51.5 -30t52 30.5t16.5 115t-16.5 116zM997.5 43.5q-34.5 -47.5 -100 -47.5t-99 46.5
t-33.5 162t34.5 163t100.5 47.5t99 -46.5t33 -162t-34.5 -163zM950.5 321.5q-16.5 31.5 -52 31.5t-51.5 -31.5t-16 -116.5t16 -115t51.5 -30t52 30.5t16.5 115t-16.5 116zM266.5 343.5q-34.5 -47.5 -100 -47.5t-99 46.5t-33.5 162t34.5 163t100 47.5t99 -46.5t33.5 -162
t-34.5 -163zM218.5 621.5q-16.5 31.5 -52 31.5t-51.5 -31.5t-16 -116.5t16 -115t51.5 -30t52 30.5t16.5 115t-16.5 116zM560 706l-317 -748l-75 26l319 748z" />
    <glyph glyph-name="guilsinglleft" unicode="&#x2039;" horiz-adv-x="325" 
d="M276 431l-149 -154l149 -153l-58 -51l-171 180v48l171 180z" />
    <glyph glyph-name="guilsinglright" unicode="&#x203a;" horiz-adv-x="321" 
d="M194 308l-148 154l58 50l171 -180v-48l-171 -180l-58 51z" />
    <glyph glyph-name="fraction" unicode="&#x2044;" horiz-adv-x="402" 
d="M397 684l-317 -748l-75 26l319 748z" />
    <glyph glyph-name="Euro" unicode="&#x20ac;" horiz-adv-x="585" 
d="M412 446v-64h-196q-1 -14 -1 -43.5t1 -42.5h196v-64h-187q35 -163 201 -163q52 0 110 12l13 -75q-79 -19 -142 -19q-241 0 -281 245h-86v64h80q-1 12 -1 41.5t1 44.5h-80v64h88q40 235 267 235q68 0 151 -23l-18 -75q-67 15 -118 15q-150 0 -185 -152h187z" />
    <glyph glyph-name="trademark" unicode="&#x2122;" horiz-adv-x="752" 
d="M144 616h-96v48h246v-48h-97v-323h-53v323zM511 389l101 275h62l18 -371h-50l-9 264v46l-101 -269h-41l-102 269v-46l-9 -264h-49l18 371h62z" />
    <glyph glyph-name="minus" unicode="&#x2212;" horiz-adv-x="504" 
d="M441 310v-61h-378v61h378z" />
    <glyph glyph-name="fi" unicode="&#xfb01;" horiz-adv-x="567" 
d="M409 435h-204v-621l-91 9v612l-93 5l9 59l84 7v37q0 179 186 179q71 0 139 -16l-18 -74q-71 11 -119 11t-72.5 -22t-24.5 -75v-40h204l91 7v-513h-91v435z" />
    <glyph glyph-name="fl" unicode="&#xfb02;" horiz-adv-x="618" 
d="M114 543q0 179 186 179q101 0 212 -40v-580q0 -39 36 -39q28 0 59 10l15 -66q-41 -20 -101 -20q-100 0 -100 114v526q-65 16 -116 16t-75.5 -22t-24.5 -75v-40h137l-10 -71h-127v-621l-91 9v612l-93 5l9 59l84 7v37z" />
    <glyph glyph-name="CR" horiz-adv-x="435" 
 />
    <glyph glyph-name="plus.001" horiz-adv-x="484" 
d="M281 85h-79v154h-152v79h152v152h79v-152h153v-79h-153v-154z" />
    <glyph glyph-name="percent" horiz-adv-x="812" 
d="M255 0h-92l362 701h91zM291.5 348q-36.5 -41 -98 -41t-96.5 40.5t-35 150t36.5 151.5t97.5 42t96.5 -41.5t35.5 -151t-36.5 -150.5zM194 626q-58 0 -58 -127q0 -71 15 -99t43.5 -28t44 28t15.5 99q0 127 -60 127zM681.5 28q-36.5 -41 -98 -41t-96.5 40.5t-35 150
t36.5 151.5t97.5 42t96.5 -41.5t35.5 -151t-36.5 -150.5zM584 306q-58 0 -58 -127q0 -71 15 -99t43.5 -28t44 28t15.5 99q0 127 -60 127z" />
    <glyph glyph-name="_0007" 
 />
    <glyph glyph-name="_0009" 
 />
    <glyph glyph-name="_0157" 
 />
    <glyph glyph-name="_0158" 
 />
    <glyph glyph-name="_0141" 
 />
    <glyph glyph-name="_0142" 
 />
    <glyph glyph-name="_0144" 
 />
    <glyph glyph-name="_0143" 
 />
    <glyph glyph-name="_0127" 
 />
    <glyph glyph-name="_0129" 
 />
    </font>
</defs>
</svg>
