<?xml version="1.0" standalone="no"?>
<!DOCTYPE svg PUBLIC "-//W3C//DTD SVG 1.1//EN" "http://www.w3.org/Graphics/SVG/1.1/DTD/svg11.dtd" >
<svg>
<metadata>
Created by FontForge 20120731 at Fri Dec  9 12:00:18 2016
 By www-data
Copyright (c) 2011-2012, Martin Sommaruga (martin@estudiotrama.com), with Reserved Font Name 'Rambla'
</metadata>
<defs>
<font id="Rambla-Bold" horiz-adv-x="0" >
  <font-face 
    font-family="Rambla"
    font-weight="700"
    font-stretch="normal"
    units-per-em="1000"
    panose-1="2 0 8 6 2 0 0 2 0 4"
    ascent="800"
    descent="-200"
    x-height="512"
    cap-height="668"
    bbox="-77 -295 1135 922"
    underline-thickness="50"
    underline-position="-50"
    unicode-range="U+0020-FB02"
  />
<missing-glyph horiz-adv-x="500" 
 />
    <glyph glyph-name=".notdef" horiz-adv-x="500" 
 />
    <glyph glyph-name=".null" 
 />
    <glyph glyph-name="nonmarkingreturn" horiz-adv-x="333" 
 />
    <glyph glyph-name="space" unicode=" " horiz-adv-x="186" 
 />
    <glyph glyph-name="exclam" unicode="!" horiz-adv-x="248" 
d="M197 702l-22 -486h-105l-19 486h146zM67 134q24 24 58 24t58 -24t24 -57.5t-24 -58.5t-58 -25t-58 24.5t-24 58.5t24 58z" />
    <glyph glyph-name="quotedbl" unicode="&#x22;" horiz-adv-x="389" 
d="M40 700h126l-18 -251h-90zM223 700h126l-18 -251h-90z" />
    <glyph glyph-name="numbersign" unicode="#" horiz-adv-x="642" 
d="M355 277l17 95h-105l-17 -95h105zM601 172h-154l-32 -185h-111l32 185h-105l-32 -185h-111l32 185h-82v105h101l17 95h-112v104h130l35 192h110l-34 -192h105l35 192h110l-34 -192h100v-104h-118l-17 -95h135v-105z" />
    <glyph glyph-name="dollar" unicode="$" horiz-adv-x="493" 
d="M237 110q93 0 93 72q0 35 -31 60t-84 49.5t-75.5 37.5t-49.5 37q-51 45 -51 125.5t46.5 127.5t122.5 58l-4 109h91l-4 -107q64 -5 151 -36l-40 -109q-82 29 -140 29q-83 0 -84 -66q0 -27 18 -40.5t26 -19t32.5 -18t45.5 -24t38.5 -22t46.5 -32.5t45 -41q39 -50 39 -120.5
t-47 -123t-130 -65.5l4 -102h-91l3 100q-108 9 -182 44l37 119q92 -42 174 -42z" />
    <glyph glyph-name="uni0025" unicode="%" horiz-adv-x="810" 
d="M291 0h-130l353 691h129zM64 362.5q-39 39.5 -39 147.5q0 112 52 154q44 36 108 36t103 -40.5t39 -148.5q0 -111 -51 -153q-44 -35 -108.5 -35t-103.5 39.5zM176 633q-28 0 -42.5 -26.5t-14.5 -97t14.5 -95.5t42.5 -25t42.5 25.5t14.5 95.5t-14.5 96.5t-42.5 26.5z
M523 29.5q-39 39.5 -39 147.5q0 112 52 155q44 35 108 35t103 -40.5t39 -148.5q0 -111 -52 -153q-43 -35 -107.5 -35t-103.5 39.5zM635 300q-28 0 -42.5 -26.5t-14.5 -97t14.5 -95.5t42.5 -25t42.5 25.5t14.5 95.5t-14.5 96.5t-42.5 26.5z" />
    <glyph glyph-name="ampersand" unicode="&#x26;" horiz-adv-x="677" 
d="M182 264q-20 -33 -20 -71.5t27.5 -68t87 -29.5t106.5 44l-146 175q-35 -17 -55 -50zM160 645q49 38 125 38t177 -37l-33 -97q-77 33 -133.5 33t-56.5 -52q0 -37 48 -94l171 -206q43 84 51 196h108q-6 -165 -89 -275q53 -46 145 -91l-53 -93q-37 16 -87.5 44.5t-82.5 53.5
q-74 -78 -180 -78t-170.5 52t-64.5 151q0 127 143 200q-67 86 -67 151.5t49 103.5z" />
    <glyph glyph-name="quotesingle" unicode="'" horiz-adv-x="206" 
d="M40 700h126l-18 -251h-90z" />
    <glyph glyph-name="parenleft" unicode="(" horiz-adv-x="302" 
d="M197 -133q-166 227 -166 442.5t166 442.5l87 -60q-120 -205 -120 -384t120 -381z" />
    <glyph glyph-name="parenright" unicode=")" horiz-adv-x="302" 
d="M105 752q166 -227 166 -442.5t-166 -442.5l-87 60q120 202 120 381t-120 384z" />
    <glyph glyph-name="asterisk" unicode="*" horiz-adv-x="393" 
d="M260 527l98 -38l-51 -82l-74 66l10 -105h-95l10 108l-75 -69l-49 84l98 35l-97 36l47 87l76 -70l-10 107h94l-9 -106l75 68l50 -86z" />
    <glyph glyph-name="plus" unicode="+" horiz-adv-x="483" 
d="M297 77h-111v146h-149v110h149v145h111v-145h149v-110h-149v-146z" />
    <glyph glyph-name="comma" unicode="," horiz-adv-x="218" 
d="M172 59q0 -105 -89 -187h-103q82 95 82 172q0 33 -17 72h115q12 -26 12 -57z" />
    <glyph glyph-name="hyphen" unicode="-" horiz-adv-x="509" 
d="M458 332v-109h-407v109h407z" />
    <glyph glyph-name="period" unicode="." horiz-adv-x="242" 
d="M63 134q24 24 58 24t58 -24t24 -57.5t-24 -58.5t-58 -25t-58 24.5t-24 58.5t24 58z" />
    <glyph glyph-name="slash" unicode="/" horiz-adv-x="426" 
d="M408 731l-283 -849l-107 29l285 851z" />
    <glyph glyph-name="zero" unicode="0" horiz-adv-x="546" 
d="M369.5 4q-41.5 -17 -109.5 -17t-116 29q-101 62 -101 316q0 253 105 318q49 31 127 31q117 0 172.5 -76t55.5 -270q0 -198 -61 -275q-31 -39 -72.5 -56zM273 562q-51 0 -72.5 -49.5t-21.5 -179t21.5 -179t72.5 -49.5t72.5 49.5t21.5 179t-21.5 179t-72.5 49.5z" />
    <glyph glyph-name="one" unicode="1" horiz-adv-x="377" 
d="M313 1h-139v535l-123 -53l-44 99l198 86h108v-667z" />
    <glyph glyph-name="two" unicode="2" horiz-adv-x="482" 
d="M27 0v105q108 118 177.5 201.5t85 111t15.5 66.5t-23 61t-75.5 22t-122.5 -30l-31 100q91 45 180.5 45t142.5 -52t53 -138q0 -53 -22 -97.5t-68.5 -106.5t-145.5 -172h258l-9 -116h-415z" />
    <glyph glyph-name="three" unicode="3" horiz-adv-x="489" 
d="M286 489q0 35 -24.5 52t-73 17t-122.5 -30l-32 107q98 45 190 45t144 -47.5t52 -127.5q0 -40 -18.5 -78t-56.5 -62q107 -46 107 -152.5t-63.5 -166t-173.5 -59.5q-81 0 -188 38l30 111q90 -32 147 -32q114 0 114 103q0 46 -31 73t-91 27h-69v101h59q100 0 100 81z" />
    <glyph glyph-name="four" unicode="4" horiz-adv-x="568" 
d="M545 176h-104v-176h-133v176h-289v74l266 419h156v-398h104v-95zM308 271l-1 234l-141 -234h142z" />
    <glyph glyph-name="five" unicode="5" horiz-adv-x="483" 
d="M220 105q43 0 70 28.5t27 86t-25 84t-69 26.5t-85 -41l-73 35v345h349v-115h-232v-127q32 23 82 23q81 0 134 -58.5t53 -162.5t-58 -173t-161.5 -69t-203.5 61l43 99q84 -42 149 -42z" />
    <glyph glyph-name="six" unicode="6" horiz-adv-x="499" 
d="M253 -12q-212 0 -212 295q0 191 75 294t198 103q63 0 125 -28l-31 -107q-35 13 -84.5 13t-84.5 -35t-48 -110q20 18 47.5 27t46.5 9q84 0 133 -54t49 -160.5t-55 -176.5t-159 -70zM199 149q19 -45 56.5 -45t57.5 33.5t20 89.5t-19.5 81t-57 25.5t-76.5 -22.5
q0 -117 19 -162z" />
    <glyph glyph-name="seven" unicode="7" horiz-adv-x="433" 
d="M22 554v115h399v-72l-108 -259q-74 -162 -100 -338h-131q21 169 96 340q2 4 96 214h-252z" />
    <glyph glyph-name="eight" unicode="8" horiz-adv-x="518" 
d="M424.5 47q-55.5 -59 -164 -59t-166 53t-57.5 146q0 49 29.5 95t80.5 76q-80 49 -80 140t54.5 137t142 46t139.5 -44t52 -122q0 -101 -93 -156q118 -57 118 -169q0 -84 -55.5 -143zM311.5 551.5q-19.5 15.5 -49 15.5t-50.5 -14.5t-21 -47t21.5 -60.5t53.5 -43q29 17 47 48
t18 58.5t-19.5 43zM167 190q0 -41 26 -63.5t67 -22.5t65.5 25.5t24.5 66.5t-28 65t-79 44q-1 0 -4 1.5t-4 1.5l-1 1q-67 -41 -67 -119z" />
    <glyph glyph-name="nine" unicode="9" horiz-adv-x="500" 
d="M247 679q212 0 212 -295q0 -191 -75 -293.5t-198 -102.5q-63 0 -125 28l31 107q35 -13 84.5 -13t84.5 35t48 109q-20 -18 -47.5 -27t-46.5 -9q-84 0 -133 54t-49 160.5t55 176.5t159 70zM301 518q-19 45 -56.5 45t-57.5 -33.5t-20 -89.5t19.5 -81t57 -25.5t76.5 22.5
q0 117 -19 162z" />
    <glyph glyph-name="colon" unicode=":" horiz-adv-x="266" 
d="M74 134q24 24 58 24t58 -24t24 -57.5t-24 -58.5t-58 -25t-58 24.5t-24 58.5t24 58zM76 431q24 24 58 24t58 -24t24 -57.5t-24 -58.5t-58 -25t-58 24.5t-24 58.5t24 58z" />
    <glyph glyph-name="semicolon" unicode=";" horiz-adv-x="256" 
d="M194 59q0 -105 -89 -187h-103q82 95 82 172q0 33 -17 72h115q12 -26 12 -57zM68 428q24 24 58 24t58 -24t24 -57.5t-24 -58.5t-58 -25t-58 24.5t-24 58.5t24 58z" />
    <glyph glyph-name="less" unicode="&#x3c;" horiz-adv-x="439" 
d="M31 236v88l356 178v-122l-208 -99l208 -101v-120z" />
    <glyph glyph-name="equal" unicode="=" horiz-adv-x="488" 
d="M433 431v-107h-378v107h378zM433 236v-108h-378v108h378z" />
    <glyph glyph-name="greater" unicode="&#x3e;" horiz-adv-x="439" 
d="M408 324v-88l-356 -176v120l208 101l-208 99v122z" />
    <glyph glyph-name="question" unicode="?" horiz-adv-x="366" 
d="M175 105q23 -23 23 -55t-22.5 -55.5t-55 -23.5t-55.5 23.5t-23 56t23 55t55 22.5t55 -23zM176 238l-2 -54h-114q-3 36 -3 67q4 33 20.5 65t31.5 49.5t38 39t33 31.5q34 34 34 74q0 83 -164 98l25 92q125 -6 196.5 -57.5t71.5 -124.5q0 -41 -16 -70.5t-29.5 -43t-38 -35
t-38.5 -36t-28 -40.5t-17 -55z" />
    <glyph glyph-name="at" unicode="@" horiz-adv-x="801" 
d="M441 415q-45 0 -75 -40.5t-30 -101.5q0 -81 52 -81q26 0 44 23t20 58l11 139q-7 3 -22 3zM394 -86q-155 0 -254 84q-49 43 -76.5 115t-27.5 167q0 180 107.5 290t294.5 110q166 0 251.5 -85.5t85.5 -236.5q0 -257 -189 -257q-29 0 -57.5 16.5t-40.5 41.5
q-18 -24 -48.5 -41.5t-60.5 -17.5q-69 0 -111 44t-42 122q0 106 61 172t153 66q60 0 140 -35l-18 -208q-1 -12 -1 -31.5t9.5 -27.5t33.5 -8q63 0 63 165q0 105 -58 164t-173 59q-136 0 -212 -80t-76 -220q0 -173 117 -237q61 -33 144.5 -33t204.5 42l25 -86
q-123 -54 -245 -54z" />
    <glyph glyph-name="A" unicode="A" horiz-adv-x="568" 
d="M570 0h-142l-47 158h-193l-46 -158h-146l212 668h153zM350 267l-66 263l-65 -263h131z" />
    <glyph glyph-name="B" unicode="B" horiz-adv-x="549" 
d="M410 632q68 -44 68 -135t-65 -131q58 -26 80.5 -63.5t22.5 -98.5q0 -95 -57.5 -149.5t-174.5 -54.5h-220v668h146q77 0 121 -6.5t79 -29.5zM207 562v-153h67q65 5 65 81q0 56 -44 67q-20 5 -67 5h-21zM267 114q110 0 110 94q0 55 -31.5 75.5t-90.5 20.5h-48v-190h60z" />
    <glyph glyph-name="C" unicode="C" horiz-adv-x="519" 
d="M483 5q-79 -18 -146.5 -18t-117 17.5t-91.5 56.5q-89 83 -89 275q0 95 26 164.5t71 107.5q84 71 203 71q75 0 151 -22l-23 -103q-57 11 -106 11q-81 0 -128 -50.5t-47 -177t48 -179t133 -52.5q59 0 107 8z" />
    <glyph glyph-name="D" unicode="D" horiz-adv-x="601" 
d="M208 538v-409h50q95 0 127.5 49.5t32.5 155.5t-32 155t-128 49h-50zM252 0h-188v667h188q126 0 176 -26q132 -68 132 -308q0 -108 -31.5 -190t-99.5 -116q-54 -27 -177 -27z" />
    <glyph glyph-name="E" unicode="E" horiz-adv-x="536" 
d="M208 116h286v-116h-430v669h421v-116h-277v-151h261v-112h-261v-174z" />
    <glyph glyph-name="F" unicode="F" horiz-adv-x="512" 
d="M485 553h-276v-151h252v-112h-252v-290h-145v668h421v-115z" />
    <glyph glyph-name="G" unicode="G" horiz-adv-x="580" 
d="M229.5 662q50.5 17 119.5 17t164 -26l-21 -104q-67 16 -140 16t-120 -50.5t-47 -175.5q0 -233 155 -233q31 0 65 6v124h-94v105h225v-310q-110 -44 -224 -44t-192 83.5t-82 265.5q0 95 26 164.5t70.5 107t95 54.5z" />
    <glyph glyph-name="H" unicode="H" horiz-adv-x="633" 
d="M426 404v264h143v-668h-143v288h-219v-288h-143v668h143v-264h219z" />
    <glyph glyph-name="I" unicode="I" horiz-adv-x="272" 
d="M208 668v-668h-144v668h144z" />
    <glyph glyph-name="J" unicode="J" horiz-adv-x="270" 
d="M65 121v547h143v-545q0 -109 -45.5 -183.5t-158.5 -125.5l-62 95q75 42 99 87t24 125z" />
    <glyph glyph-name="K" unicode="K" horiz-adv-x="636" 
d="M230 341l194 327h170l-207 -322l251 -346h-175zM208 668v-668h-144v668h144z" />
    <glyph glyph-name="L" unicode="L" horiz-adv-x="474" 
d="M209 116h255v-116h-400v668h145v-552z" />
    <glyph glyph-name="M" unicode="M" horiz-adv-x="771" 
d="M438 85h-105l-138 394l-16 -479h-133l39 668h156l144 -430l145 430h156l39 -668h-134l-16 478z" />
    <glyph glyph-name="N" unicode="N" horiz-adv-x="682" 
d="M618 0h-152l-263 467v-467h-139v668h152l262 -468v468h140v-668z" />
    <glyph glyph-name="O" unicode="O" horiz-adv-x="618" 
d="M181.5 651.5q54.5 28.5 121.5 28.5t114.5 -19.5t77.5 -51.5t49 -77q35 -84 35 -198q0 -142 -57 -238q-30 -50 -85 -79t-122.5 -29t-114.5 19.5t-77 51.5t-49 77q-35 84 -35 198q0 141 58 238q30 51 84.5 79.5zM309 110q73 0 102 59.5t29 146.5t-10 134.5t-40 80
t-74.5 32.5t-71 -17.5t-40.5 -50.5q-26 -61 -26 -163.5t29 -162t102 -59.5z" />
    <glyph glyph-name="P" unicode="P" horiz-adv-x="540" 
d="M459 610q61 -54 61 -156.5t-68 -157.5q-35 -28 -85 -40t-134 -12h-25v-244h-144v668h193q76 0 121.5 -13t80.5 -45zM346 371q34 23 34 85.5t-34.5 84t-111.5 21.5h-26v-212h11q99 0 127 21z" />
    <glyph glyph-name="Q" unicode="Q" horiz-adv-x="618" 
d="M53.5 205.5q-14.5 59.5 -14.5 129t14 128.5t44 109.5t84.5 79t121.5 28.5t114.5 -19.5t77.5 -51.5t49 -77q35 -84 35 -198q0 -218 -118 -301q113 -13 212 -72l-72 -98q-13 13 -43.5 33.5t-61.5 35.5q-82 40 -189 58q-72 0 -125.5 28.5t-83.5 78t-44.5 109zM309 94
q131 0 131 234.5t-131 234.5t-131 -234.5t131 -234.5z" />
    <glyph glyph-name="R" unicode="R" horiz-adv-x="581" 
d="M233 244h-25v-244h-144v668h193q76 0 121.5 -13t80.5 -45q61 -54 61 -148q0 -115 -68 -166q-23 -18 -54 -30l171 -233l-108 -66l-198 278q-9 -1 -30 -1zM346 371q35 24 35 80.5t-28.5 83.5t-118.5 27h-26v-212h11q99 0 127 21z" />
    <glyph glyph-name="S" unicode="S" horiz-adv-x="499" 
d="M472 187q0 -89 -61.5 -144.5t-165.5 -55.5q-50 0 -112.5 13.5t-103.5 32.5l37 119q92 -42 174 -42q93 0 93 72q0 35 -31 60t-84 49.5t-75.5 37.5t-49.5 37q-51 45 -51 131t60.5 135t150 49t192.5 -38l-40 -109q-82 29 -140 29q-83 0 -84 -66q0 -27 18 -40.5t26 -19
t32.5 -18t45.5 -24t38.5 -22t46.5 -32.5t44 -41q40 -50 40 -113z" />
    <glyph glyph-name="T" unicode="T" horiz-adv-x="515" 
d="M184 553h-174v115h495v-115h-177v-553h-144v553z" />
    <glyph glyph-name="U" unicode="U" horiz-adv-x="606" 
d="M59 246v421h145v-416q0 -86 20 -113q20 -30 79.5 -30t78.5 31q20 26 20 112v416h145v-421q0 -116 -47 -182q-60 -74 -197 -76q-137 0 -198 76q-46 67 -46 182z" />
    <glyph glyph-name="V" unicode="V" horiz-adv-x="553" 
d="M276 160l139 508h142l-210 -668h-141l-210 668h142z" />
    <glyph glyph-name="W" unicode="W" horiz-adv-x="795" 
d="M345 612h105l140 -448l36 504h133l-67 -668h-150l-145 494l-144 -494h-150l-67 668h132l36 -505z" />
    <glyph glyph-name="X" unicode="X" horiz-adv-x="600" 
d="M591 0h-161l-133 231l-134 -231h-154l215 334l-205 333h154l126 -227l125 227h156l-208 -327z" />
    <glyph glyph-name="Y" unicode="Y" horiz-adv-x="548" 
d="M346 0h-144v264l-210 404h146l136 -285l136 285h146l-210 -404v-264z" />
    <glyph glyph-name="Z" unicode="Z" horiz-adv-x="525" 
d="M496 117v-117h-453l-11 88l283 464h-267l-15 116h433l9 -93l-281 -458h302z" />
    <glyph glyph-name="bracketleft" unicode="[" horiz-adv-x="346" 
d="M58 -131v879h261v-100l-130 -8v-664l130 -6v-101h-261z" />
    <glyph glyph-name="backslash" unicode="\" horiz-adv-x="428" 
d="M302 -118l-283 849l105 31l285 -851z" />
    <glyph glyph-name="bracketright" unicode="]" horiz-adv-x="346" 
d="M288 748v-879h-261v101l130 6v664l-130 8v100h261z" />
    <glyph glyph-name="asciicircum" unicode="^" horiz-adv-x="499" 
d="M204 643h88l178 -348h-122l-99 200l-101 -200h-120z" />
    <glyph glyph-name="underscore" unicode="_" horiz-adv-x="534" 
d="M483 109v-109h-432v109h432z" />
    <glyph glyph-name="grave" unicode="`" horiz-adv-x="343" 
d="M262 587l-204 76l49 111l189 -109z" />
    <glyph glyph-name="a" unicode="a" horiz-adv-x="510" 
d="M516 17q-51 -28 -111.5 -28t-89.5 46q-58 -48 -136 -48t-118 39.5t-40 107.5q0 45 19 77t49 47q55 26 114.5 26t95.5 -3v49q0 52 -21 67t-71.5 15t-113.5 -21l-29 88q37 22 90.5 33.5t91.5 11.5q102 0 145.5 -43.5t43.5 -148.5v-210q0 -28 25 -28q13 0 37 6zM217 80
q42 0 82 26v105q-28 2 -49 2q-99 0 -99 -64q0 -69 66 -69z" />
    <glyph glyph-name="b" unicode="b" horiz-adv-x="541" 
d="M192 701v-221q21 17 56.5 29.5t71.5 12.5q82 0 135 -62.5t53 -178.5q0 -143 -58 -218.5t-186 -75.5q-55 0 -118 10.5t-94 24.5v679h140zM244 100q69 0 96 42t27 122t-21.5 112t-65.5 32t-88 -27v-276q27 -5 52 -5z" />
    <glyph glyph-name="c" unicode="c" horiz-adv-x="438" 
d="M271 -13q-103 0 -171 66.5t-68 201t67 201t172 66.5q62 0 141 -23l-27 -101q-61 14 -98 14q-59 0 -90.5 -35.5t-31.5 -125.5t34.5 -125t96.5 -35q32 0 98 10l17 -91q-79 -23 -140 -23z" />
    <glyph glyph-name="d" unicode="d" horiz-adv-x="534" 
d="M34 244q0 278 217 278q55 0 89 -18v206h141v-717h-116l-8 38q-56 -40 -133 -40q-94 0 -142 68t-48 185zM265 412q-97 0 -97 -165q0 -151 90 -151q46 0 83 23v279q-33 14 -76 14z" />
    <glyph glyph-name="e" unicode="e" horiz-adv-x="480" 
d="M164 242q2 -150 132 -150q61 0 121 23l24 -95q-77 -33 -171 -33q-237 0 -237 279q0 110 59 183t170 73q89 0 137.5 -47.5t48.5 -132.5q0 -50 -13 -100h-271zM336 318v6q0 99 -70 99q-84 0 -101 -105h171z" />
    <glyph glyph-name="f" unicode="f" horiz-adv-x="409" 
d="M445 613q-42 10 -100 10t-77 -22.5t-19 -73.5v-15h153l-9 -96h-144v-602l-140 14v588l-94 6v82l95 7v29q0 103 56 150t174 47q60 0 134 -24z" />
    <glyph glyph-name="g" unicode="g" horiz-adv-x="490" 
d="M283 -23h-101q-51 -17 -51 -61q0 -56 114 -56t114 73q0 22 -16.5 33t-59.5 11zM230 419q-69 0 -69 -90q0 -44 16.5 -64t52.5 -20t52 20t16 65.5t-16 67t-52 21.5zM227 525l88 -5q78 0 165 15l12 -77q-19 -5 -104 -17q35 -49 35 -111q0 -86 -49.5 -140t-142.5 -54
q-33 0 -53 5q-6 -18 -6 -31q0 -33 57 -33h86q77 0 120 -34.5t43 -95.5q0 -89 -68 -140t-176 -51t-163.5 36.5t-55.5 103.5q0 39 26 74t73 56q-32 21 -32 60.5t30 79.5q-36 26 -56 69.5t-20 94.5q0 87 48.5 141t142.5 54z" />
    <glyph glyph-name="h" unicode="h" horiz-adv-x="546" 
d="M264 506q41 16 83 16t73 -12.5t47 -37.5q29 -45 29 -121v-351h-146v326q0 64 -27 76q-13 6 -35 6q-56 0 -95 -37v-371h-140v697l140 9v-239q30 23 71 39z" />
    <glyph glyph-name="i" unicode="i" horiz-adv-x="246" 
d="M193 0h-140v512l140 12v-524zM64 735q24 24 58 24t58 -24t24 -57.5t-24 -58.5t-58 -25t-58 24.5t-24 58.5t24 58z" />
    <glyph glyph-name="j" unicode="j" horiz-adv-x="244" 
d="M192 51q0 -245 -258 -258l-11 108q71 12 100.5 47t29.5 112v448l139 14v-471zM62.5 737.5q24.5 24.5 59.5 24.5t59.5 -24.5t24.5 -59t-24.5 -60t-59.5 -25.5t-59.5 25t-24.5 60t24.5 59.5z" />
    <glyph glyph-name="k" unicode="k" horiz-adv-x="554" 
d="M193 0h-140v699l140 10v-416l170 219h152l-185 -231l224 -281h-160l-201 261v-261z" />
    <glyph glyph-name="l" unicode="l" horiz-adv-x="309" 
d="M313 9q-51 -22 -99 -22t-79 11t-46.5 25t-23.5 41t-9.5 45.5t-1.5 51.5v539h141v-547q0 -29 8.5 -41t34.5 -12t54 7z" />
    <glyph glyph-name="m" unicode="m" horiz-adv-x="836" 
d="M251.5 502q45.5 20 96.5 20t79 -17t45 -52q27 28 73.5 48.5t93.5 20.5q86 0 116.5 -44.5t30.5 -126.5v-351h-140v326q0 64 -27 76q-13 6 -35 6q-56 0 -95 -37q1 -7 1 -21v-350h-140v326q0 64 -27 76q-13 6 -35 6q-56 0 -95 -37v-371h-140v513h115l12 -57q26 26 71.5 46z
" />
    <glyph glyph-name="n" unicode="n" horiz-adv-x="546" 
d="M346 522q87 0 118.5 -44.5t31.5 -126.5v-351h-140v326q0 39 -12.5 60.5t-60.5 21.5t-87 -37v-371h-143v513h118l12 -57q29 27 73.5 46.5t89.5 19.5z" />
    <glyph glyph-name="o" unicode="o" horiz-adv-x="511" 
d="M416 51.5q-62 -64.5 -163 -64.5t-160.5 64t-59.5 203t61.5 203.5t161.5 64.5q222 0 222 -267q0 -139 -62 -203.5zM320 381q-22 33 -64.5 33t-65 -33t-22.5 -127q0 -160 87 -160q41 0 64 35.5t23 127t-22 124.5z" />
    <glyph glyph-name="p" unicode="p" horiz-adv-x="538" 
d="M316 522q93 0 141 -69t48 -187q0 -279 -229 -279q-38 0 -83 18v-202l-140 -16v726h120l12 -41q64 50 131 50zM253 100q114 0 114 162q0 146 -95 146q-38 0 -79 -25v-276q28 -7 60 -7z" />
    <glyph glyph-name="q" unicode="q" horiz-adv-x="541" 
d="M349 19q-51 -32 -130.5 -32t-132.5 62.5t-53 178.5q0 294 255 294q54 0 112 -11t89 -27v-706l-140 9v232zM292 409q-66 0 -92 -42t-26 -122t21.5 -112.5t64.5 -32.5t89 20v281q-26 8 -57 8z" />
    <glyph glyph-name="r" unicode="r" horiz-adv-x="377" 
d="M308 410q-82 0 -115 -47v-363h-140v513h116l11 -65q58 76 148 76q25 0 46 -5l-23 -115q-22 6 -43 6z" />
    <glyph glyph-name="s" unicode="s" horiz-adv-x="419" 
d="M237 414q-68 0 -68 -45q0 -24 23 -41t55.5 -29.5t65 -28t55.5 -44.5t23 -71q0 -75 -51 -121.5t-150 -46.5q-45 0 -94.5 10t-72.5 23l34 100q78 -26 140.5 -26t62.5 49q0 21 -23 38t-55.5 31.5t-65 31.5t-55.5 48t-23 72q0 77 51 118t146 41t149 -31l-33 -99
q-69 21 -114 21z" />
    <glyph glyph-name="t" unicode="t" horiz-adv-x="403" 
d="M105 165v251l-90 6v82l93 8v117l140 12v-128h146l-8 -97h-139v-264q0 -29 9 -41.5t38 -12.5t65 9l21 -99q-49 -21 -99.5 -21t-76 6t-42 14t-28 23.5t-17 27.5t-8.5 34q-4 30 -4 73z" />
    <glyph glyph-name="u" unicode="u" horiz-adv-x="543" 
d="M363 47q-77 -60 -163.5 -60t-118 44.5t-31.5 126.5v355h140v-330q0 -40 12 -61t59.5 -21t88.5 31v381h140v-526h-115z" />
    <glyph glyph-name="v" unicode="v" horiz-adv-x="511" 
d="M255 112l107 401h141l-160 -513h-176l-157 513h141z" />
    <glyph glyph-name="w" unicode="w" horiz-adv-x="689" 
d="M279 504l129 9l73 -398l55 398h137l-115 -513h-150l-62 373l-63 -373h-156l-106 513h137l52 -401z" />
    <glyph glyph-name="x" unicode="x" horiz-adv-x="527" 
d="M506 513l-159 -249l172 -264h-148l-107 191l-108 -191h-150l178 266l-160 247h150l93 -172l93 172h146z" />
    <glyph glyph-name="y" unicode="y" horiz-adv-x="502" 
d="M85 -213q-45 0 -105 18l21 97q0 -1 30 -5.5t39 -4.5q56 0 79.5 20.5t42.5 100.5l-187 487l133 17l115 -354l102 350h135l-162 -471q-52 -150 -98.5 -202.5t-144.5 -52.5z" />
    <glyph glyph-name="z" unicode="z" horiz-adv-x="451" 
d="M181 95h240l12 -95h-396l-12 75l225 341h-205l-10 96h359l13 -78z" />
    <glyph glyph-name="braceleft" unicode="{" horiz-adv-x="369" 
d="M248 -35h95v-95h-89q-73 0 -116.5 46t-46.5 127q-1 23 -2.5 75.5t-2 66.5t-1 27t-1 19t-2.5 14q-5 15 -21 15h-43v104h43q21 0 23 29q2 18 2 39q3 101 5 149q3 81 46.5 127t116.5 46h89v-95h-95q-40 0 -40 -80l-2 -129q-2 -100 -45 -138q43 -38 45 -138l2 -129
q0 -80 40 -80z" />
    <glyph glyph-name="bar" unicode="|" horiz-adv-x="234" 
d="M59 -43v737h116v-737h-116z" />
    <glyph glyph-name="braceright" unicode="}" horiz-adv-x="369" 
d="M121 659h-95v95h89q73 0 116.5 -46t46.5 -127q1 -23 2.5 -75.5t2 -66.5t1 -27t1 -19t3.5 -14q4 -15 20 -15h43v-104h-43q-21 0 -24 -29q-1 -18 -2 -39q-2 -101 -4 -149q-3 -81 -46.5 -127t-116.5 -46h-89v95h95q40 0 40 80l2 129q2 100 45 138q-43 38 -45 138l-2 129
q0 80 -40 80z" />
    <glyph glyph-name="asciitilde" unicode="~" horiz-adv-x="567" 
d="M398 308q41 0 73 46l63 -55q-58 -103 -144 -103q-47 0 -115 33t-107 33t-71 -46l-63 55q58 104 137 104q52 0 128 -36q70 -31 99 -31z" />
    <glyph glyph-name="uni007F" 
 />
    <glyph glyph-name="uni00A0" unicode="&#xa0;" horiz-adv-x="186" 
 />
    <glyph glyph-name="exclamdown" unicode="&#xa1;" horiz-adv-x="240" 
d="M47 -178l22 486h105l19 -486h-146zM177 390q-24 -24 -58 -24t-58 24t-24 57.5t24 58.5t58 25t58 -24.5t24 -58.5t-24 -58z" />
    <glyph glyph-name="cent" unicode="&#xa2;" horiz-adv-x="440" 
d="M281 496q-59 0 -90.5 -35.5t-31.5 -125.5t34.5 -125t96.5 -35q32 0 98 10l17 -91q-52 -16 -100 -22l6 -108h-90l6 109q-89 12 -145 78t-56 187.5t55 187.5t146 77l-6 116h90l-7 -115q38 -3 102 -21l-27 -101q-61 14 -98 14z" />
    <glyph glyph-name="sterling" unicode="&#xa3;" horiz-adv-x="493" 
d="M36 304v100h56q-12 36 -12 87q0 92 53.5 142t139 50t176.5 -42l-38 -100q-78 32 -122.5 32t-65.5 -20.5t-21 -61t15 -87.5h132l6 -100h-108q5 -25 5 -60q0 -68 -32 -129h241v-115h-399v100q32 16 51 60t19 83.5t-8 60.5h-88z" />
    <glyph glyph-name="currency" unicode="&#xa4;" horiz-adv-x="537" 
d="M178 68l-78 -100l-69 53l79 101q-43 57 -43 130t48 132l-76 95l69 53l75 -96q43 18 89.5 18t81.5 -16q46 61 74 94l68 -53l-70 -91q54 -59 54 -136.5t-51 -136.5l74 -94l-69 -53l-73 96q-33 -17 -86 -17t-97 21zM193 169q32 -33 80.5 -33t80.5 33t32 81.5t-32 82
t-80.5 33.5t-80.5 -33.5t-32 -82t32 -81.5z" />
    <glyph glyph-name="yen" unicode="&#xa5;" horiz-adv-x="606" 
d="M83 247v84h113l-175 337h146l136 -285l136 285h146l-175 -337h113v-84h-148v-53h148v-85h-148v-109h-144v109h-148v85h148v53h-148z" />
    <glyph glyph-name="brokenbar" unicode="&#xa6;" horiz-adv-x="236" 
d="M60 407v287h116v-287h-116zM60 -43v285h116v-285h-116z" />
    <glyph glyph-name="section" unicode="&#xa7;" horiz-adv-x="379" 
d="M102 427q-14 42 -14 73q0 123 126 169q16 6 63 17l23 -99l-46 -16q-55 -20 -55 -61q0 -32 64 -127t78.5 -128.5t14.5 -69.5q0 -92 -80 -142q16 -32 16 -74t-15.5 -73t-44.5 -56q-53 -44 -130 -54l-23 97l47 15q54 19 54 61q0 18 -8 31q-14 34 -25 50t-22.5 34t-18 28
t-22.5 33q-27 39 -43.5 74.5t-16.5 77.5q0 88 78 140zM226 128q18 20 18 39.5t-10.5 47t-80.5 125.5q-17 -16 -17 -38.5t11.5 -50.5t63.5 -102z" />
    <glyph glyph-name="dieresis" unicode="&#xa8;" horiz-adv-x="358" 
d="M36.5 715q19.5 20 49 20t49.5 -20t20 -49t-20 -49.5t-49.5 -20.5t-49 20.5t-19.5 49.5t19.5 49zM221 715q20 20 49 20t49 -20t20 -49t-20 -49.5t-49 -20.5t-49 20.5t-20 49.5t20 49z" />
    <glyph glyph-name="copyright" unicode="&#xa9;" horiz-adv-x="716" 
d="M452 414q-38 24 -82.5 24t-74.5 -34t-30 -106t30 -106.5t73.5 -34.5t90.5 27l22 -49q-52 -37 -119 -37t-117 50.5t-50 149.5t50 149.5t116.5 50.5t114.5 -32zM678 302q0 -134 -93 -227t-227 -93t-227 93t-93 227t93 227t227 93t227 -93t93 -227zM603 302
q0 110 -69.5 181.5t-175.5 71.5t-176 -72.5t-70 -182.5t70 -182.5t176 -72.5t175.5 73.5t69.5 183.5z" />
    <glyph glyph-name="ordfeminine" unicode="&#xaa;" horiz-adv-x="342" 
d="M310 421q-30 -17 -63 -17t-50 24q-33 -25 -75.5 -25t-65 22.5t-22 65.5t32 61.5t66.5 18.5t54 -2v26q0 26 -11 34t-35.5 8t-65.5 -13l-18 53q42 26 101 26t83 -24.5t24 -82.5v-117q0 -12 11.5 -12t22.5 4zM177 527l-15 1q-52 0 -52 -34.5t33 -34.5q23 0 44 13v55h-10z
" />
    <glyph glyph-name="guillemotleft" unicode="&#xab;" horiz-adv-x="560" 
d="M525 421l-139 -145l139 -142l-82 -73l-176 186v59l176 185zM294 421l-140 -145l140 -142l-82 -73l-176 186v59l176 185z" />
    <glyph glyph-name="logicalnot" unicode="&#xac;" horiz-adv-x="566" 
d="M508 225h-110v108h-347v109h457v-217z" />
    <glyph glyph-name="uni00AD" unicode="&#xad;" horiz-adv-x="509" 
 />
    <glyph glyph-name="registered" unicode="&#xae;" horiz-adv-x="716" 
d="M678 302q0 -134 -93 -227t-227 -93t-227 93t-93 227t93 227t227 93t227 -93t93 -227zM603 302q0 110 -69.5 181.5t-175.5 71.5t-176 -72.5t-70 -182.5t70 -182.5t176 -72.5t175.5 73.5t69.5 183.5zM331 497q151 0 151 -116q0 -62 -37 -92q-15 -13 -33 -19q3 -6 42.5 -58
t60.5 -76l-42 -31q-62 67 -119 155q-26 -2 -39 -2h-21v-147h-59v386h96zM396 321q24 17 24 58.5t-24 57t-73 15.5h-29v-147h20q63 0 82 16z" />
    <glyph glyph-name="macron" unicode="&#xaf;" horiz-adv-x="532" 
d="M487 650v-109h-442v109h442z" />
    <glyph glyph-name="degree" unicode="&#xb0;" horiz-adv-x="311" 
d="M276 565q0 -50 -31.5 -86t-90 -36t-89 35t-30.5 85.5t31 85t89.5 34.5t89.5 -34t31 -84zM155 507q53 0 53 55.5t-53 55.5q-26 0 -38.5 -16t-12.5 -39t12.5 -39.5t38.5 -16.5z" />
    <glyph glyph-name="plusminus" unicode="&#xb1;" horiz-adv-x="511" 
d="M311 187h-111v146h-149v110h149v145h111v-145h149v-110h-149v-146zM459 110v-109h-407v109h407z" />
    <glyph glyph-name="twosuperior" unicode="&#xb2;" horiz-adv-x="378" 
d="M46 256v75q70 70 125 136q44 55 44 79.5t-12 36.5t-31.5 12t-86.5 -24l-26 77q68 32 124.5 32t91.5 -34t35 -88q0 -76 -106 -185q-20 -23 -26 -29h145v-88h-277z" />
    <glyph glyph-name="threesuperior" unicode="&#xb3;" horiz-adv-x="367" 
d="M152 444h-49v70h48q43 0 43 48q0 34 -41 34t-79 -19l-26 71q64 32 119.5 32t89 -30t33.5 -79.5t-35 -82.5q49 -30 49 -95.5t-39 -104.5t-101 -39t-129 42l35 74q51 -31 91 -31q22 0 35.5 14.5t13.5 39.5q0 56 -58 56z" />
    <glyph glyph-name="acute" unicode="&#xb4;" horiz-adv-x="342" 
d="M288 663l-204 -76l-34 78l189 109z" />
    <glyph glyph-name="mu" unicode="&#xb5;" horiz-adv-x="603" 
d="M249 -3q-27 0 -48 9v-207h-140v714h140v-330q0 -40 12 -61t59.5 -21t88.5 31v381h140v-391q0 -28 25 -28q13 0 37 6l19 -83q-51 -28 -109 -28q-75 0 -99 64q-56 -56 -125 -56z" />
    <glyph glyph-name="paragraph" unicode="&#xb6;" horiz-adv-x="506" 
d="M478 604h-72v-766h-74v766h-74v-766h-78v513q-66 0 -112.5 46.5t-46.5 112.5t46.5 112t112.5 46h298v-64z" />
    <glyph glyph-name="periodcentered" unicode="&#xb7;" horiz-adv-x="248" 
d="M66 321q24 24 58 24t58 -24t24 -57.5t-24 -58.5t-58 -25t-58 24.5t-24 58.5t24 58z" />
    <glyph glyph-name="cedilla" unicode="&#xb8;" horiz-adv-x="276" 
d="M232 -133q0 -97 -128 -162l-51 65q58 43 58 91q0 28 -21 82h124q18 -39 18 -76z" />
    <glyph glyph-name="onesuperior" unicode="&#xb9;" horiz-adv-x="320" 
d="M232 251h-103v308l-86 -36l-31 81l143 62h77v-415z" />
    <glyph glyph-name="ordmasculine" unicode="&#xba;" horiz-adv-x="325" 
d="M253 438.5q-35 -36.5 -92 -36.5t-90.5 35.5t-33.5 114t35 115t91 36.5q125 0 125 -150q0 -78 -35 -114.5zM163 639q-23 0 -35 -18t-12 -69q0 -87 46.5 -87t46.5 87q0 51 -11.5 69t-34.5 18z" />
    <glyph glyph-name="guillemotright" unicode="&#xbb;" horiz-adv-x="561" 
d="M176 278l-139 145l82 70l176 -185v-59l-176 -186l-82 73zM408 278l-140 145l82 70l176 -185v-59l-176 -186l-82 73z" />
    <glyph glyph-name="onequarter" unicode="&#xbc;" horiz-adv-x="874" 
d="M847 109h-63v-109h-95v109h-164v55l140 244h119v-227h63v-72zM689 181v124l-66 -124h66zM239 272h-103v308l-86 -36l-31 81l143 62h77v-415zM621 765l-283 -849l-107 29l285 851z" />
    <glyph glyph-name="onehalf" unicode="&#xbd;" horiz-adv-x="841" 
d="M239 272h-103v308l-86 -36l-31 81l143 62h77v-415zM533 -2v75q70 70 125 136q44 55 44 83q0 42 -43 42q-29 0 -87 -21l-26 77q68 32 124.5 32t91.5 -34t35 -88q0 -76 -106 -185q-20 -22 -26 -29h145v-88h-277zM605 765l-283 -849l-107 29l285 851z" />
    <glyph glyph-name="threequarters" unicode="&#xbe;" horiz-adv-x="874" 
d="M138 460h-45v70h44q47 0 47 48q0 34 -41 34t-79 -19l-26 71q64 32 119.5 32t89 -30t33.5 -79.5t-35 -82.5q49 -30 49 -95.5t-39 -104.5t-101 -39t-129 42l35 74q51 -31 91 -31q22 0 35.5 14.5t13.5 39.5t-16.5 40.5t-45.5 15.5zM853 109h-63v-109h-95v109h-164v55
l140 244h119v-227h63v-72zM695 181v124l-66 -124h66zM629 752l-283 -849l-107 29l285 851z" />
    <glyph glyph-name="questiondown" unicode="&#xbf;" horiz-adv-x="361" 
d="M300 393.5q-23 -22.5 -55.5 -22.5t-55 22.5t-22.5 55t22.5 56t55 23.5t55.5 -23.5t23 -56t-23 -55zM188 258l2 54h114q3 -36 3 -67q-4 -33 -20.5 -65t-31.5 -49.5t-38 -39t-33 -31.5q-34 -34 -34 -74q0 -83 164 -98l-25 -92q-125 6 -196.5 57.5t-71.5 124.5q0 41 16 70.5
t29.5 43t38 35t38.5 36t28 40.5t17 55z" />
    <glyph glyph-name="Agrave" unicode="&#xc0;" horiz-adv-x="568" 
d="M357 732l-204 76l49 111l189 -109zM570 0h-142l-47 158h-193l-46 -158h-146l212 668h153zM350 267l-66 263l-65 -263h131z" />
    <glyph glyph-name="Aacute" unicode="&#xc1;" horiz-adv-x="568" 
d="M570 0h-142l-47 158h-193l-46 -158h-146l212 668h153zM350 267l-66 263l-65 -263h131zM456 811l-204 -76l-34 78l189 109z" />
    <glyph glyph-name="Acircumflex" unicode="&#xc2;" horiz-adv-x="568" 
d="M570 0h-142l-47 158h-193l-46 -158h-146l212 668h153zM350 267l-66 263l-65 -263h131zM285 796l-84 -85l-64 52l111 119h74l111 -119l-64 -52z" />
    <glyph glyph-name="Atilde" unicode="&#xc3;" horiz-adv-x="568" 
d="M570 0h-142l-47 158h-193l-46 -158h-146l212 668h153zM350 267l-66 263l-65 -263h131zM289 849.5q45 -21.5 67.5 -21.5t51.5 35l49 -54q-18 -30 -48.5 -52.5t-58 -22.5t-71.5 21.5t-66.5 21.5t-51.5 -35l-49 54q18 30 47.5 52.5t57 22.5t72.5 -21.5z" />
    <glyph glyph-name="Adieresis" unicode="&#xc4;" horiz-adv-x="568" 
d="M570 0h-142l-47 158h-193l-46 -158h-146l212 668h153zM350 267l-66 263l-65 -263h131zM143.5 834q19.5 20 49 20t49.5 -20t20 -49t-20 -49.5t-49.5 -20.5t-49 20.5t-19.5 49.5t19.5 49zM328 834q20 20 49 20t49 -20t20 -49t-20 -49.5t-49 -20.5t-49 20.5t-20 49.5t20 49z
" />
    <glyph glyph-name="Aring" unicode="&#xc5;" horiz-adv-x="568" 
d="M387 816q0 -43 -27 -73.5t-77 -30.5t-76 30t-26 73t26.5 72.5t76.5 29.5t76.5 -29t26.5 -72zM284 775q36 0 36 39t-35.5 39t-35.5 -39q0 -16 8.5 -27.5t26.5 -11.5zM570 0h-142l-47 158h-193l-46 -158h-146l212 668h153zM350 267l-66 263l-65 -263h131z" />
    <glyph glyph-name="AE" unicode="&#xc6;" horiz-adv-x="817" 
d="M361 267v304l-117 -304h117zM370 -1v159h-169l-63 -158h-145l288 668h485v-116h-277v-151h261v-112h-261v-174h286v-116h-405z" />
    <glyph glyph-name="Ccedilla" unicode="&#xc7;" horiz-adv-x="519" 
d="M483 5q-79 -18 -146.5 -18t-117 17.5t-91.5 56.5q-89 83 -89 275q0 95 26 164.5t71 107.5q84 71 203 71q75 0 151 -22l-23 -103q-57 11 -106 11q-81 0 -128 -50.5t-47 -177t48 -179t133 -52.5q59 0 107 8zM424 -133q0 -97 -128 -162l-51 65q58 43 58 91q0 28 -21 82h124
q18 -39 18 -76z" />
    <glyph glyph-name="Egrave" unicode="&#xc8;" horiz-adv-x="536" 
d="M208 116h286v-116h-430v669h421v-116h-277v-151h261v-112h-261v-174zM354 732l-204 76l49 111l189 -109z" />
    <glyph glyph-name="Eacute" unicode="&#xc9;" horiz-adv-x="536" 
d="M208 116h286v-116h-430v669h421v-116h-277v-151h261v-112h-261v-174zM382 811l-204 -76l-34 78l189 109z" />
    <glyph glyph-name="Ecircumflex" unicode="&#xca;" horiz-adv-x="536" 
d="M208 116h286v-116h-430v669h421v-116h-277v-151h261v-112h-261v-174zM256 796l-84 -85l-64 52l111 119h74l111 -119l-64 -52z" />
    <glyph glyph-name="Edieresis" unicode="&#xcb;" horiz-adv-x="536" 
d="M208 116h286v-116h-430v669h421v-116h-277v-151h261v-112h-261v-174zM126.5 834q19.5 20 49 20t49.5 -20t20 -49t-20 -49.5t-49.5 -20.5t-49 20.5t-19.5 49.5t19.5 49zM311 834q20 20 49 20t49 -20t20 -49t-20 -49.5t-49 -20.5t-49 20.5t-20 49.5t20 49z" />
    <glyph glyph-name="Igrave" unicode="&#xcc;" horiz-adv-x="272" 
d="M208 668v-668h-144v668h144zM182 732l-204 76l49 111l189 -109z" />
    <glyph glyph-name="Iacute" unicode="&#xcd;" horiz-adv-x="272" 
d="M208 668v-668h-144v668h144zM285 811l-204 -76l-34 78l189 109z" />
    <glyph glyph-name="Icircumflex" unicode="&#xce;" horiz-adv-x="272" 
d="M208 668v-668h-144v668h144zM132 796l-84 -85l-64 52l111 119h74l111 -119l-64 -52z" />
    <glyph glyph-name="Idieresis" unicode="&#xcf;" horiz-adv-x="272" 
d="M208 668v-668h-144v668h144zM-15.5 834q19.5 20 49 20t49.5 -20t20 -49t-20 -49.5t-49.5 -20.5t-49 20.5t-19.5 49.5t19.5 49zM169 834q20 20 49 20t49 -20t20 -49t-20 -49.5t-49 -20.5t-49 20.5t-20 49.5t20 49z" />
    <glyph glyph-name="Eth" unicode="&#xd0;" horiz-adv-x="653" 
d="M21 280v112h95v275h188q126 0 176 -26q132 -68 132 -308q0 -108 -31.5 -190t-99.5 -116q-54 -27 -177 -27h-188v280h-95zM260 538v-146h115v-112h-115v-151h50q95 0 127.5 49.5t32.5 155.5t-32 155t-128 49h-50z" />
    <glyph glyph-name="Ntilde" unicode="&#xd1;" horiz-adv-x="682" 
d="M618 0h-152l-263 467v-467h-139v668h152l262 -468v468h140v-668zM335 849.5q45 -21.5 67.5 -21.5t51.5 35l49 -54q-18 -30 -48.5 -52.5t-58 -22.5t-71.5 21.5t-66.5 21.5t-51.5 -35l-49 54q18 30 47.5 52.5t57 22.5t72.5 -21.5z" />
    <glyph glyph-name="Ograve" unicode="&#xd2;" horiz-adv-x="618" 
d="M181.5 651.5q54.5 28.5 121.5 28.5t114.5 -19.5t77.5 -51.5t49 -77q35 -84 35 -198q0 -142 -57 -238q-30 -50 -85 -79t-122.5 -29t-114.5 19.5t-77 51.5t-49 77q-35 84 -35 198q0 141 58 238q30 51 84.5 79.5zM309 110q73 0 102 59.5t29 146.5t-10 134.5t-40 80
t-74.5 32.5t-71 -17.5t-40.5 -50.5q-26 -61 -26 -163.5t29 -162t102 -59.5zM386 732l-204 76l49 111l189 -109z" />
    <glyph glyph-name="Oacute" unicode="&#xd3;" horiz-adv-x="618" 
d="M181.5 651.5q54.5 28.5 121.5 28.5t114.5 -19.5t77.5 -51.5t49 -77q35 -84 35 -198q0 -142 -57 -238q-30 -50 -85 -79t-122.5 -29t-114.5 19.5t-77 51.5t-49 77q-35 84 -35 198q0 141 58 238q30 51 84.5 79.5zM309 110q73 0 102 59.5t29 146.5t-10 134.5t-40 80
t-74.5 32.5t-71 -17.5t-40.5 -50.5q-26 -61 -26 -163.5t29 -162t102 -59.5zM431 811l-204 -76l-34 78l189 109z" />
    <glyph glyph-name="Ocircumflex" unicode="&#xd4;" horiz-adv-x="618" 
d="M181.5 651.5q54.5 28.5 121.5 28.5t114.5 -19.5t77.5 -51.5t49 -77q35 -84 35 -198q0 -142 -57 -238q-30 -50 -85 -79t-122.5 -29t-114.5 19.5t-77 51.5t-49 77q-35 84 -35 198q0 141 58 238q30 51 84.5 79.5zM309 110q73 0 102 59.5t29 146.5t-10 134.5t-40 80
t-74.5 32.5t-71 -17.5t-40.5 -50.5q-26 -61 -26 -163.5t29 -162t102 -59.5zM310 796l-84 -85l-64 52l111 119h74l111 -119l-64 -52z" />
    <glyph glyph-name="Otilde" unicode="&#xd5;" horiz-adv-x="618" 
d="M181.5 651.5q54.5 28.5 121.5 28.5t114.5 -19.5t77.5 -51.5t49 -77q35 -84 35 -198q0 -142 -57 -238q-30 -50 -85 -79t-122.5 -29t-114.5 19.5t-77 51.5t-49 77q-35 84 -35 198q0 141 58 238q30 51 84.5 79.5zM309 110q73 0 102 59.5t29 146.5t-10 134.5t-40 80
t-74.5 32.5t-71 -17.5t-40.5 -50.5q-26 -61 -26 -163.5t29 -162t102 -59.5zM310.5 846.5q44.5 -21.5 67.5 -21.5t52 35l49 -54q-18 -30 -48.5 -52.5t-58 -22.5t-71.5 21.5t-66.5 21.5t-51.5 -35l-49 54q18 30 47.5 52.5t57 22.5t72 -21.5z" />
    <glyph glyph-name="Odieresis" unicode="&#xd6;" horiz-adv-x="618" 
d="M181.5 651.5q54.5 28.5 121.5 28.5t114.5 -19.5t77.5 -51.5t49 -77q35 -84 35 -198q0 -142 -57 -238q-30 -50 -85 -79t-122.5 -29t-114.5 19.5t-77 51.5t-49 77q-35 84 -35 198q0 141 58 238q30 51 84.5 79.5zM309 110q73 0 102 59.5t29 146.5t-10 134.5t-40 80
t-74.5 32.5t-71 -17.5t-40.5 -50.5q-26 -61 -26 -163.5t29 -162t102 -59.5zM161.5 834q19.5 20 49 20t49.5 -20t20 -49t-20 -49.5t-49.5 -20.5t-49 20.5t-19.5 49.5t19.5 49zM346 834q20 20 49 20t49 -20t20 -49t-20 -49.5t-49 -20.5t-49 20.5t-20 49.5t20 49z" />
    <glyph glyph-name="multiply" unicode="&#xd7;" horiz-adv-x="516" 
d="M477 152l-78 -77l-140 138l-140 -140l-80 77l140 140l-138 137l79 79l137 -137l138 137l80 -78l-137 -136z" />
    <glyph glyph-name="Oslash" unicode="&#xd8;" horiz-adv-x="618" 
d="M579 334q0 -142 -57 -238q-30 -50 -85 -79t-117 -29t-103 12l-45 -110l-105 36l55 133q-83 88 -83 275q0 141 58 238q30 51 84.5 79.5t128.5 28.5q38 0 67 -7l43 105l103 -38l-47 -114q103 -86 103 -292zM309 110q73 0 102 59.5t29 160.5t-22 156l-153 -369q18 -7 44 -7z
M178 325q0 -60 11 -105l141 341q-14 2 -21 2q-76 0 -105 -68q-26 -61 -26 -170z" />
    <glyph glyph-name="Ugrave" unicode="&#xd9;" horiz-adv-x="606" 
d="M59 246v421h145v-416q0 -86 20 -113q20 -30 79.5 -30t78.5 31q20 26 20 112v416h145v-421q0 -116 -47 -182q-60 -74 -197 -76q-137 0 -198 76q-46 67 -46 182zM382 732l-204 76l49 111l189 -109z" />
    <glyph glyph-name="Uacute" unicode="&#xda;" horiz-adv-x="606" 
d="M59 246v421h145v-416q0 -86 20 -113q20 -30 79.5 -30t78.5 31q20 26 20 112v416h145v-421q0 -116 -47 -182q-60 -74 -197 -76q-137 0 -198 76q-46 67 -46 182zM440 811l-204 -76l-34 78l189 109z" />
    <glyph glyph-name="Ucircumflex" unicode="&#xdb;" horiz-adv-x="606" 
d="M59 246v421h145v-416q0 -86 20 -113q20 -30 79.5 -30t78.5 31q20 26 20 112v416h145v-421q0 -116 -47 -182q-60 -74 -197 -76q-137 0 -198 76q-46 67 -46 182zM306 796l-84 -85l-64 52l111 119h74l111 -119l-64 -52z" />
    <glyph glyph-name="Udieresis" unicode="&#xdc;" horiz-adv-x="606" 
d="M59 246v421h145v-416q0 -86 20 -113q20 -30 79.5 -30t78.5 31q20 26 20 112v416h145v-421q0 -116 -47 -182q-60 -74 -197 -76q-137 0 -198 76q-46 67 -46 182zM164.5 834q19.5 20 49 20t49.5 -20t20 -49t-20 -49.5t-49.5 -20.5t-49 20.5t-19.5 49.5t19.5 49zM349 834
q20 20 49 20t49 -20t20 -49t-20 -49.5t-49 -20.5t-49 20.5t-20 49.5t20 49z" />
    <glyph glyph-name="Yacute" unicode="&#xdd;" horiz-adv-x="548" 
d="M346 0h-144v264l-210 404h146l136 -285l136 285h146l-210 -404v-264zM413 811l-204 -76l-34 78l189 109z" />
    <glyph glyph-name="Thorn" unicode="&#xde;" horiz-adv-x="504" 
d="M484 395q0 -113 -65 -161q-36 -28 -85.5 -39.5t-134.5 -11.5h-31v-183h-104v697h104v-100h56q77 0 122 -12t79 -43q59 -52 59 -147zM210 276q98 0 133.5 25t35.5 83.5t-31 89t-123 30.5h-57v-228h42z" />
    <glyph glyph-name="germandbls" unicode="&#xdf;" horiz-adv-x="604" 
d="M395 404q-11 -16 -11 -32t8.5 -28.5t17.5 -17.5t33.5 -16t38 -17.5t37.5 -21.5t35 -29q32 -40 32 -89q0 -77 -49.5 -121.5t-134.5 -44.5q-41 0 -95 15.5t-81 34.5l35 98q93 -39 146 -39t53 49q0 20 -21.5 35.5t-52 29t-60.5 30.5t-51.5 49t-21.5 71t16.5 68t35.5 45
q52 44 52 75q0 64 -69 64q-51 0 -74 -28.5t-23 -90.5v-622h-138v624q0 114 62.5 169.5t168.5 55.5t156.5 -45t50.5 -119q0 -51 -37 -90q-16 -17 -32 -31.5t-27 -30.5z" />
    <glyph glyph-name="agrave" unicode="&#xe0;" horiz-adv-x="510" 
d="M516 17q-51 -28 -111.5 -28t-89.5 46q-58 -48 -136 -48t-118 39.5t-40 107.5q0 45 19 77t49 47q55 26 114.5 26t95.5 -3v49q0 52 -21 67t-71.5 15t-113.5 -21l-29 88q37 22 90.5 33.5t91.5 11.5q102 0 145.5 -43.5t43.5 -148.5v-210q0 -28 25 -28q13 0 37 6zM217 80
q42 0 82 26v105q-28 2 -49 2q-99 0 -99 -64q0 -69 66 -69zM320 587l-204 76l49 111l189 -109z" />
    <glyph glyph-name="aacute" unicode="&#xe1;" horiz-adv-x="510" 
d="M516 17q-51 -28 -111.5 -28t-89.5 46q-58 -48 -136 -48t-118 39.5t-40 107.5q0 45 19 77t49 47q55 26 114.5 26t95.5 -3v49q0 52 -21 67t-71.5 15t-113.5 -21l-29 88q37 22 90.5 33.5t91.5 11.5q102 0 145.5 -43.5t43.5 -148.5v-210q0 -28 25 -28q13 0 37 6zM217 80
q42 0 82 26v105q-28 2 -49 2q-99 0 -99 -64q0 -69 66 -69zM359 663l-204 -76l-34 78l189 109z" />
    <glyph glyph-name="acircumflex" unicode="&#xe2;" horiz-adv-x="510" 
d="M239 676l-84 -85l-64 52l111 119h74l111 -119l-64 -52zM516 17q-51 -28 -111.5 -28t-89.5 46q-58 -48 -136 -48t-118 39.5t-40 107.5q0 45 19 77t49 47q55 26 114.5 26t95.5 -3v49q0 52 -21 67t-71.5 15t-113.5 -21l-29 88q37 22 90.5 33.5t91.5 11.5q102 0 145.5 -43.5
t43.5 -148.5v-210q0 -28 25 -28q13 0 37 6zM217 80q42 0 82 26v105q-28 2 -49 2q-99 0 -99 -64q0 -69 66 -69z" />
    <glyph glyph-name="atilde" unicode="&#xe3;" horiz-adv-x="510" 
d="M516 17q-51 -28 -111.5 -28t-89.5 46q-58 -48 -136 -48t-118 39.5t-40 107.5q0 45 19 77t49 47q55 26 114.5 26t95.5 -3v49q0 52 -21 67t-71.5 15t-113.5 -21l-29 88q37 22 90.5 33.5t91.5 11.5q102 0 145.5 -43.5t43.5 -148.5v-210q0 -28 25 -28q13 0 37 6zM217 80
q42 0 82 26v105q-28 2 -49 2q-99 0 -99 -64q0 -69 66 -69zM241 706.5q45 -21.5 68 -21.5t52 35l49 -54q-18 -30 -48.5 -52.5t-58 -22.5t-71.5 21.5t-66.5 21.5t-51.5 -35l-49 54q18 30 47.5 52.5t56.5 22.5t72 -21.5z" />
    <glyph glyph-name="adieresis" unicode="&#xe4;" horiz-adv-x="510" 
d="M516 17q-51 -28 -111.5 -28t-89.5 46q-58 -48 -136 -48t-118 39.5t-40 107.5q0 45 19 77t49 47q55 26 114.5 26t95.5 -3v49q0 52 -21 67t-71.5 15t-113.5 -21l-29 88q37 22 90.5 33.5t91.5 11.5q102 0 145.5 -43.5t43.5 -148.5v-210q0 -28 25 -28q13 0 37 6zM217 80
q42 0 82 26v105q-28 2 -49 2q-99 0 -99 -64q0 -69 66 -69zM106.5 715q19.5 20 49 20t49.5 -20t20 -49t-20 -49.5t-49.5 -20.5t-49 20.5t-19.5 49.5t19.5 49zM291 715q20 20 49 20t49 -20t20 -49t-20 -49.5t-49 -20.5t-49 20.5t-20 49.5t20 49z" />
    <glyph glyph-name="aring" unicode="&#xe5;" horiz-adv-x="510" 
d="M516 17q-51 -28 -111.5 -28t-89.5 46q-58 -48 -136 -48t-118 39.5t-40 107.5q0 45 19 77t49 47q55 26 114.5 26t95.5 -3v49q0 52 -21 67t-71.5 15t-113.5 -21l-29 88q37 22 90.5 33.5t91.5 11.5q102 0 145.5 -43.5t43.5 -148.5v-210q0 -28 25 -28q13 0 37 6zM217 80
q42 0 82 26v105q-28 2 -49 2q-99 0 -99 -64q0 -69 66 -69zM346 701q0 -43 -27 -73.5t-77 -30.5t-76 30t-26 73t26.5 72.5t76.5 29.5t76.5 -29t26.5 -72zM243 660q36 0 36 39t-35.5 39t-35.5 -39q0 -16 8.5 -27.5t26.5 -11.5z" />
    <glyph glyph-name="ae" unicode="&#xe6;" horiz-adv-x="746" 
d="M430 242q2 -150 132 -150q61 0 121 23l24 -95q-77 -33 -173.5 -33t-154.5 56q-29 -21 -81 -38.5t-103 -17.5q-84 0 -129 39t-45 108q0 45 19 77t49 47q55 26 118 26t99 -3v49q0 52 -21 67t-75 15t-117 -21l-29 88q37 22 90.5 33.5t100.5 11.5t80.5 -14t52.5 -53
q47 65 138 65t139.5 -47.5t48.5 -132.5q0 -42 -13 -100h-271zM151 149q0 -69 78 -69q74 0 113 26q-19 43 -26 105q-28 2 -59 2q-106 0 -106 -64zM602 318v6q0 99 -73 99q-85 0 -102 -105h175z" />
    <glyph glyph-name="ccedilla" unicode="&#xe7;" horiz-adv-x="438" 
d="M353 -133q0 -97 -128 -162l-51 65q58 43 58 91q0 28 -21 82h124q18 -39 18 -76zM271 -13q-103 0 -171 66.5t-68 201t67 201t172 66.5q62 0 141 -23l-27 -101q-61 14 -98 14q-59 0 -90.5 -35.5t-31.5 -125.5t34.5 -125t96.5 -35q32 0 98 10l17 -91q-79 -23 -140 -23z" />
    <glyph glyph-name="egrave" unicode="&#xe8;" horiz-adv-x="480" 
d="M334 587l-204 76l49 111l189 -109zM164 242q2 -150 132 -150q61 0 121 23l24 -95q-77 -33 -171 -33q-237 0 -237 279q0 110 59 183t170 73q89 0 137.5 -47.5t48.5 -132.5q0 -50 -13 -100h-271zM336 318v6q0 99 -70 99q-84 0 -101 -105h171z" />
    <glyph glyph-name="eacute" unicode="&#xe9;" horiz-adv-x="480" 
d="M377 663l-204 -76l-34 78l189 109zM164 242q2 -150 132 -150q61 0 121 23l24 -95q-77 -33 -171 -33q-237 0 -237 279q0 110 59 183t170 73q89 0 137.5 -47.5t48.5 -132.5q0 -50 -13 -100h-271zM336 318v6q0 99 -70 99q-84 0 -101 -105h171z" />
    <glyph glyph-name="ecircumflex" unicode="&#xea;" horiz-adv-x="480" 
d="M448 342q0 -50 -13 -100h-271q2 -150 132 -150q61 0 121 23l24 -95q-77 -33 -171 -33q-237 0 -237 279q0 110 59 183t170 73q89 0 137.5 -47.5t48.5 -132.5zM336 318v6q0 99 -70 99q-84 0 -101 -105h171zM256 676l-84 -85l-64 52l111 119h74l111 -119l-64 -52z" />
    <glyph glyph-name="edieresis" unicode="&#xeb;" horiz-adv-x="480" 
d="M115.5 715q19.5 20 49 20t49.5 -20t20 -49t-20 -49.5t-49.5 -20.5t-49 20.5t-19.5 49.5t19.5 49zM300 715q20 20 49 20t49 -20t20 -49t-20 -49.5t-49 -20.5t-49 20.5t-20 49.5t20 49zM164 242q2 -150 132 -150q61 0 121 23l24 -95q-77 -33 -171 -33q-237 0 -237 279
q0 110 59 183t170 73q89 0 137.5 -47.5t48.5 -132.5q0 -50 -13 -100h-271zM336 318v6q0 99 -70 99q-84 0 -101 -105h171z" />
    <glyph glyph-name="igrave" unicode="&#xec;" horiz-adv-x="246" 
d="M185 587l-204 76l49 111l189 -109zM193 0h-140v512l140 12v-524z" />
    <glyph glyph-name="iacute" unicode="&#xed;" horiz-adv-x="246" 
d="M276 663l-204 -76l-34 78l189 109zM193 0h-140v512l140 12v-524z" />
    <glyph glyph-name="icircumflex" unicode="&#xee;" horiz-adv-x="246" 
d="M127 676l-84 -85l-64 52l111 119h74l111 -119l-64 -52zM193 0h-140v512l140 12v-524z" />
    <glyph glyph-name="idieresis" unicode="&#xef;" horiz-adv-x="246" 
d="M-12.5 715q19.5 20 49 20t49.5 -20t20 -49t-20 -49.5t-49.5 -20.5t-49 20.5t-19.5 49.5t19.5 49zM172 715q20 20 49 20t49 -20t20 -49t-20 -49.5t-49 -20.5t-49 20.5t-20 49.5t20 49zM193 0h-140v512l140 12v-524z" />
    <glyph glyph-name="eth" unicode="&#xf0;" horiz-adv-x="499" 
d="M404.5 60q-56.5 -72 -158.5 -72t-156.5 71.5t-54.5 182t49 164t133 53.5q56 0 94 -22q-11 87 -63 134l-74 -76l-60 58l57 58q-42 12 -118 16l18 92q108 0 183 -25l67 70l58 -60l-47 -48q129 -92 129 -349q0 -175 -56.5 -247zM169 244q0 -140 77 -140q25 0 41 18
q35 38 35 213q-32 16 -82 16q-71 -2 -71 -107z" />
    <glyph glyph-name="ntilde" unicode="&#xf1;" horiz-adv-x="546" 
d="M271 706.5q45 -21.5 67.5 -21.5t51.5 35l49 -54q-18 -30 -48.5 -52.5t-58 -22.5t-71.5 21.5t-66.5 21.5t-51.5 -35l-49 54q18 30 47.5 52.5t57 22.5t72.5 -21.5zM346 522q87 0 118.5 -44.5t31.5 -126.5v-351h-140v326q0 39 -12.5 60.5t-60.5 21.5t-87 -37v-371h-143v513
h118l12 -57q29 27 73.5 46.5t89.5 19.5z" />
    <glyph glyph-name="ograve" unicode="&#xf2;" horiz-adv-x="511" 
d="M416 51.5q-62 -64.5 -163 -64.5t-160.5 64t-59.5 203t61.5 203.5t161.5 64.5q222 0 222 -267q0 -139 -62 -203.5zM320 381q-22 33 -64.5 33t-65 -33t-22.5 -127q0 -160 87 -160q41 0 64 35.5t23 127t-22 124.5zM335 587l-204 76l49 111l189 -109z" />
    <glyph glyph-name="oacute" unicode="&#xf3;" horiz-adv-x="511" 
d="M416 51.5q-62 -64.5 -163 -64.5t-160.5 64t-59.5 203t61.5 203.5t161.5 64.5q222 0 222 -267q0 -139 -62 -203.5zM320 381q-22 33 -64.5 33t-65 -33t-22.5 -127q0 -160 87 -160q41 0 64 35.5t23 127t-22 124.5zM408 663l-204 -76l-34 78l189 109z" />
    <glyph glyph-name="ocircumflex" unicode="&#xf4;" horiz-adv-x="511" 
d="M92.5 51q-59.5 64 -59.5 203t61.5 203.5t161.5 64.5q222 0 222 -267q0 -139 -62 -203.5t-163 -64.5t-160.5 64zM190.5 381q-22.5 -33 -22.5 -127q0 -160 87 -160q41 0 64 35.5t23 127t-22 124.5t-64.5 33t-65 -33zM253 676l-84 -85l-64 52l111 119h74l111 -119l-64 -52z
" />
    <glyph glyph-name="otilde" unicode="&#xf5;" horiz-adv-x="511" 
d="M416 51.5q-62 -64.5 -163 -64.5t-160.5 64t-59.5 203t61.5 203.5t161.5 64.5q222 0 222 -267q0 -139 -62 -203.5zM320 381q-22 33 -64.5 33t-65 -33t-22.5 -127q0 -160 87 -160q41 0 64 35.5t23 127t-22 124.5zM257 706.5q45 -21.5 68 -21.5t52 35l49 -54
q-18 -30 -48.5 -52.5t-58 -22.5t-71.5 21.5t-66.5 21.5t-51.5 -35l-49 54q18 30 47.5 52.5t56.5 22.5t72 -21.5z" />
    <glyph glyph-name="odieresis" unicode="&#xf6;" horiz-adv-x="511" 
d="M416 51.5q-62 -64.5 -163 -64.5t-160.5 64t-59.5 203t61.5 203.5t161.5 64.5q222 0 222 -267q0 -139 -62 -203.5zM320 381q-22 33 -64.5 33t-65 -33t-22.5 -127q0 -160 87 -160q41 0 64 35.5t23 127t-22 124.5zM111.5 715q19.5 20 49 20t49.5 -20t20 -49t-20 -49.5
t-49.5 -20.5t-49 20.5t-19.5 49.5t19.5 49zM296 715q20 20 49 20t49 -20t20 -49t-20 -49.5t-49 -20.5t-49 20.5t-20 49.5t20 49z" />
    <glyph glyph-name="divide" unicode="&#xf7;" horiz-adv-x="537" 
d="M222.5 483q19.5 18 46.5 18t45.5 -18t18.5 -44.5t-18.5 -46.5t-45.5 -20t-46.5 20t-19.5 46.5t19.5 44.5zM497 332v-109h-457v109h457zM222.5 162q19.5 18 46.5 18t45.5 -18t18.5 -44.5t-18.5 -46.5t-45.5 -20t-46.5 20t-19.5 46.5t19.5 44.5z" />
    <glyph glyph-name="oslash" unicode="&#xf8;" horiz-adv-x="511" 
d="M97 45q-64 69 -64 208.5t61.5 204t161.5 64.5q36 0 71 -8l40 83l75 -36l-41 -85q77 -66 77 -213t-62 -211.5t-166 -64.5q-40 0 -81 13l-38 -78l-77 35zM255 94q41 0 64 35.5t23 107.5t-7 103l-116 -238q15 -8 36 -8zM256 414q-43 0 -65.5 -33t-22.5 -127q0 -25 4 -57
l105 215q-14 2 -21 2z" />
    <glyph glyph-name="ugrave" unicode="&#xf9;" horiz-adv-x="543" 
d="M363 47q-77 -60 -163.5 -60t-118 44.5t-31.5 126.5v355h140v-330q0 -40 12 -61t59.5 -21t88.5 31v381h140v-526h-115zM310 587l-204 76l49 111l189 -109z" />
    <glyph glyph-name="uacute" unicode="&#xfa;" horiz-adv-x="543" 
d="M363 47q-77 -60 -163.5 -60t-118 44.5t-31.5 126.5v355h140v-330q0 -40 12 -61t59.5 -21t88.5 31v381h140v-526h-115zM427 663l-204 -76l-34 78l189 109z" />
    <glyph glyph-name="ucircumflex" unicode="&#xfb;" horiz-adv-x="543" 
d="M363 47q-77 -60 -163.5 -60t-118 44.5t-31.5 126.5v355h140v-330q0 -40 12 -61t59.5 -21t88.5 31v381h140v-526h-115zM270 676l-84 -85l-64 52l111 119h74l111 -119l-64 -52z" />
    <glyph glyph-name="udieresis" unicode="&#xfc;" horiz-adv-x="543" 
d="M363 47q-77 -60 -163.5 -60t-118 44.5t-31.5 126.5v355h140v-330q0 -40 12 -61t59.5 -21t88.5 31v381h140v-526h-115zM131.5 715q19.5 20 49 20t49.5 -20t20 -49t-20 -49.5t-49.5 -20.5t-49 20.5t-19.5 49.5t19.5 49zM316 715q20 20 49 20t49 -20t20 -49t-20 -49.5
t-49 -20.5t-49 20.5t-20 49.5t20 49z" />
    <glyph glyph-name="yacute" unicode="&#xfd;" horiz-adv-x="502" 
d="M85 -213q-45 0 -105 18l21 97q0 -1 30 -5.5t39 -4.5q56 0 79.5 20.5t42.5 100.5l-187 487l133 17l115 -354l102 350h135l-162 -471q-52 -150 -98.5 -202.5t-144.5 -52.5zM414 663l-204 -76l-34 78l189 109z" />
    <glyph glyph-name="thorn" unicode="&#xfe;" horiz-adv-x="542" 
d="M193 -212h-140v913h140v-221q21 17 56.5 29.5t71.5 12.5q82 0 135 -62.5t53 -178.5q0 -294 -240 -294q-39 0 -76 16v-215zM245 100q69 0 96 42t27 122t-21.5 112t-65.5 32t-88 -27v-276q27 -5 52 -5z" />
    <glyph glyph-name="ydieresis" unicode="&#xff;" horiz-adv-x="502" 
d="M85 -213q-45 0 -105 18l21 97q0 -1 30 -5.5t39 -4.5q56 0 79.5 20.5t42.5 100.5l-187 487l133 17l115 -354l102 350h135l-162 -471q-52 -150 -98.5 -202.5t-144.5 -52.5zM106.5 715q19.5 20 49 20t49.5 -20t20 -49t-20 -49.5t-49.5 -20.5t-49 20.5t-19.5 49.5t19.5 49z
M291 715q20 20 49 20t49 -20t20 -49t-20 -49.5t-49 -20.5t-49 20.5t-20 49.5t20 49z" />
    <glyph glyph-name="dotlessi" unicode="&#x131;" horiz-adv-x="246" 
d="M193 0h-140v512l140 12v-524z" />
    <glyph glyph-name="Lslash" unicode="&#x141;" horiz-adv-x="516" 
d="M419 383v-109h-168v-158h255v-116h-400v274h-89v109h89v285h145v-285h168z" />
    <glyph glyph-name="lslash" unicode="&#x142;" horiz-adv-x="440" 
d="M364 9q-51 -22 -99 -22t-79 11t-46.5 25t-23.5 41t-9.5 45.5t-1.5 51.5v113h-81v109h81v317h141v-317h180v-109h-180v-121q0 -29 8.5 -41t34.5 -12t54 7z" />
    <glyph glyph-name="OE" unicode="&#x152;" horiz-adv-x="913" 
d="M317 680q81 0 144 -42v31h401v-116h-291v-151h275v-112h-275v-174h300v-116h-410v31q-62 -43 -154 -43q-171 0 -233 148q-35 84 -35 198q0 141 58 238q64 108 220 108zM309 110q73 0 102 59.5t29 146.5t-10 134.5t-40 80t-74.5 32.5t-71 -17.5t-40.5 -50.5
q-26 -61 -26 -163.5t29 -162t102 -59.5z" />
    <glyph glyph-name="oe" unicode="&#x153;" horiz-adv-x="803" 
d="M615 92q65 0 125 23l24 -95q-76 -33 -171 -33q-121 0 -177 80q-55 -80 -159.5 -80t-164 64t-59.5 203t61.5 203.5t167 64.5t157.5 -81q56 81 166 81q89 0 137.5 -47.5t48.5 -132.5q0 -50 -13 -100h-276q1 -150 133 -150zM323.5 381q-22.5 33 -66.5 33t-66.5 -33
t-22.5 -127q0 -160 87 -160q44 0 67.5 35t23.5 127t-22.5 125zM659 318v6q0 99 -70 99q-74 0 -99 -75q-4 -14 -7 -30h176z" />
    <glyph glyph-name="Scaron" unicode="&#x160;" horiz-adv-x="500" 
d="M472 187q0 -89 -61.5 -144.5t-165.5 -55.5q-50 0 -112.5 13.5t-103.5 32.5l37 119q92 -42 174 -42q93 0 93 72q0 35 -31 60t-84 49.5t-75.5 37.5t-49.5 37q-51 45 -51 131t60.5 135t150 49t192.5 -38l-40 -109q-82 29 -140 29q-83 0 -84 -66q0 -27 18 -40.5t26 -19
t32.5 -18t45.5 -24t38.5 -22t46.5 -32.5t44 -41q40 -50 40 -113zM152 896l84 -85l84 85l64 -52l-111 -119h-74l-111 119z" />
    <glyph glyph-name="scaron" unicode="&#x161;" horiz-adv-x="419" 
d="M132 743l84 -85l84 85l64 -52l-111 -119h-74l-111 119zM237 414q-68 0 -68 -45q0 -24 23 -41t55.5 -29.5t65 -28t55.5 -44.5t23 -71q0 -75 -51 -121.5t-150 -46.5q-45 0 -94.5 10t-72.5 23l34 100q78 -26 140.5 -26t62.5 49q0 21 -23 38t-55.5 31.5t-65 31.5t-55.5 48
t-23 72q0 77 51 118t146 41t149 -31l-33 -99q-69 21 -114 21z" />
    <glyph glyph-name="Ydieresis" unicode="&#x178;" horiz-adv-x="548" 
d="M346 0h-144v264l-210 404h146l136 -285l136 285h146l-210 -404v-264zM127.5 834q19.5 20 49 20t49.5 -20t20 -49t-20 -49.5t-49.5 -20.5t-49 20.5t-19.5 49.5t19.5 49zM312 834q20 20 49 20t49 -20t20 -49t-20 -49.5t-49 -20.5t-49 20.5t-20 49.5t20 49z" />
    <glyph glyph-name="Zcaron" unicode="&#x17d;" horiz-adv-x="525" 
d="M496 117v-117h-453l-11 88l283 464h-267l-15 116h433l9 -93l-281 -458h302zM185 896l84 -85l84 85l64 -52l-111 -119h-74l-111 119z" />
    <glyph glyph-name="zcaron" unicode="&#x17e;" horiz-adv-x="451" 
d="M181 95h240l12 -95h-396l-12 75l225 341h-205l-10 96h359l13 -78zM142 742l84 -85l84 85l64 -52l-111 -119h-74l-111 119z" />
    <glyph glyph-name="florin" unicode="&#x192;" horiz-adv-x="624" 
d="M242 -33v449l-94 6v82l95 7v29q0 103 56 150t174 47q60 0 134 -24l-29 -100q-42 10 -100 10t-77 -22.5t-19 -73.5v-15h153l-9 -96h-144v-462q0 -103 -56.5 -150t-174.5 -47q-60 0 -134 24l29 100q43 -10 100.5 -10t76.5 22.5t19 73.5z" />
    <glyph glyph-name="circumflex" unicode="&#x2c6;" horiz-adv-x="380" 
d="M190 676l-84 -85l-64 52l111 119h74l111 -119l-64 -52z" />
    <glyph glyph-name="caron" unicode="&#x2c7;" horiz-adv-x="408" 
d="M125 742l84 -85l84 85l64 -52l-111 -119h-74l-111 119z" />
    <glyph glyph-name="breve" unicode="&#x2d8;" horiz-adv-x="300" 
d="M110 658q0 -17 9.5 -32t31 -15t31 14.5t9.5 32.5h67q0 -45 -28 -77.5t-81 -32.5t-80 32t-27 78h68z" />
    <glyph glyph-name="dotaccent" unicode="&#x2d9;" horiz-adv-x="220" 
d="M52 656q24 24 58 24t58 -24t24 -57.5t-24 -58.5t-58 -25t-58 24.5t-24 58.5t24 58z" />
    <glyph glyph-name="ring" unicode="&#x2da;" horiz-adv-x="297" 
d="M248 701q0 -43 -27 -73.5t-77 -30.5t-76 30t-26 73t26.5 72.5t76.5 29.5t76.5 -29t26.5 -72zM145 660q36 0 36 39t-35.5 39t-35.5 -39q0 -16 8.5 -27.5t26.5 -11.5z" />
    <glyph glyph-name="ogonek" unicode="&#x2db;" horiz-adv-x="309" 
d="M160 -105q0 -29 37 -29q19 0 47 9l18 -93q-61 -25 -111 -25t-78 28.5t-28 68t16.5 74.5t44.5 59h110q-56 -50 -56 -92z" />
    <glyph glyph-name="tilde" unicode="&#x2dc;" horiz-adv-x="474" 
d="M243 706.5q45 -21.5 67.5 -21.5t51.5 35l49 -54q-18 -30 -48.5 -52.5t-58 -22.5t-71.5 21.5t-66.5 21.5t-51.5 -35l-49 54q18 30 47.5 52.5t57 22.5t72.5 -21.5z" />
    <glyph glyph-name="hungarumlaut" unicode="&#x2dd;" horiz-adv-x="534" 
d="M266 644l-157 -150l-62 58l130 174zM487 644l-157 -150l-62 58l130 174z" />
    <glyph glyph-name="endash" unicode="&#x2013;" horiz-adv-x="559" 
d="M508 332v-109h-457v109h457z" />
    <glyph glyph-name="emdash" unicode="&#x2014;" horiz-adv-x="709" 
d="M658 332v-109h-607v109h607z" />
    <glyph glyph-name="quoteleft" unicode="&#x2018;" horiz-adv-x="221" 
d="M41 533q0 105 89 187h103q-82 -95 -82 -172q0 -33 17 -72h-115q-12 26 -12 57z" />
    <glyph glyph-name="quoteright" unicode="&#x2019;" horiz-adv-x="254" 
d="M224 642q0 -105 -89 -187h-103q82 95 82 172q0 33 -17 72h115q12 -26 12 -57z" />
    <glyph glyph-name="quotesinglbase" unicode="&#x201a;" horiz-adv-x="218" 
d="M172 59q0 -105 -89 -187h-103q82 95 82 172q0 33 -17 72h115q12 -26 12 -57z" />
    <glyph glyph-name="quotedblleft" unicode="&#x201c;" horiz-adv-x="411" 
d="M41 533q0 105 89 187h103q-82 -95 -82 -172q0 -33 17 -72h-115q-12 26 -12 57zM231 533q0 105 89 187h103q-82 -95 -82 -172q0 -33 17 -72h-115q-12 26 -12 57z" />
    <glyph glyph-name="quotedblright" unicode="&#x201d;" horiz-adv-x="444" 
d="M414 642q0 -105 -89 -187h-103q82 95 82 172q0 33 -17 72h115q12 -26 12 -57zM224 642q0 -105 -89 -187h-103q82 95 82 172q0 33 -17 72h115q12 -26 12 -57z" />
    <glyph glyph-name="quotedblbase" unicode="&#x201e;" horiz-adv-x="408" 
d="M172 59q0 -105 -89 -187h-103q82 95 82 172q0 33 -17 72h115q12 -26 12 -57zM362 59q0 -105 -89 -187h-103q82 95 82 172q0 33 -17 72h115q12 -26 12 -57z" />
    <glyph glyph-name="dagger" unicode="&#x2020;" horiz-adv-x="418" 
d="M394 480v-88l-162 15l25 -407h-106l25 407l-152 -15v88l152 -15l-27 204h110l-27 -204z" />
    <glyph glyph-name="daggerdbl" unicode="&#x2021;" horiz-adv-x="419" 
d="M254 341l-21 -126l143 13v-78l-143 13l24 -163h-94l23 163l-143 -13v78l143 -13l-20 126l20 118l-143 -13v79l143 -14l-23 163h94l-24 -163l143 14v-79l-143 13z" />
    <glyph glyph-name="bullet" unicode="&#x2022;" horiz-adv-x="357" 
d="M62 314q0 50 33.5 83.5t83 33.5t83 -33.5t33.5 -83.5t-33.5 -83.5t-83 -33.5t-83 33.5t-33.5 83.5z" />
    <glyph glyph-name="ellipsis" unicode="&#x2026;" horiz-adv-x="702" 
d="M63 134q24 24 58 24t58 -24t24 -57.5t-24 -58.5t-58 -25t-58 24.5t-24 58.5t24 58zM294 134q24 24 58 24t58 -24t24 -57.5t-24 -58.5t-58 -25t-58 24.5t-24 58.5t24 58zM524 134q24 24 58 24t58 -24t24 -57.5t-24 -58.5t-58 -25t-58 24.5t-24 58.5t24 58z" />
    <glyph glyph-name="perthousand" unicode="&#x2030;" horiz-adv-x="1158" 
d="M61.5 355q-38.5 40 -38.5 152q0 116 52 159q43 36 107.5 36t103.5 -41t39 -153q0 -115 -51 -158q-43 -35 -108.5 -35t-104 40zM174 635q-28 0 -42.5 -27t-14.5 -101t14 -100t42.5 -26t43 26t14.5 99.5t-14.5 101t-42.5 27.5zM529.5 28q-38.5 40 -38.5 152q0 116 52 159
q43 36 107.5 36t103.5 -41t39 -153q0 -115 -51 -157q-43 -36 -108.5 -36t-104 40zM642 308q-28 0 -42.5 -27t-14.5 -101t14 -100t42.5 -26t43 26t14.5 99.5t-14.5 101t-42.5 27.5zM871.5 28q-38.5 40 -38.5 152q0 116 52 159q43 36 107.5 36t103.5 -41t39 -153
q0 -115 -51 -157q-43 -36 -108.5 -36t-104 40zM984 308q-28 0 -42.5 -27t-14.5 -101t14 -100t42.5 -26t43 26t14.5 99.5t-14.5 101t-42.5 27.5zM592 753l-283 -849l-107 29l285 851z" />
    <glyph glyph-name="guilsinglleft" unicode="&#x2039;" horiz-adv-x="330" 
d="M293 423l-140 -145l140 -142l-82 -73l-176 186v59l176 185z" />
    <glyph glyph-name="guilsinglright" unicode="&#x203a;" horiz-adv-x="330" 
d="M177 278l-140 145l82 70l176 -185v-59l-176 -186l-82 73z" />
    <glyph glyph-name="fraction" unicode="&#x2044;" horiz-adv-x="387" 
d="M388 765l-283 -849l-107 29l285 851z" />
    <glyph glyph-name="Euro" unicode="&#x20ac;" horiz-adv-x="581" 
d="M407 451v-74h-159q-1 -12 -1 -38t1 -38h159v-74h-147q36 -121 168 -121q59 0 107 8l9 -109q-79 -18 -154 -18q-106 0 -181.5 56.5t-99.5 183.5h-76v74h68q-1 11 -1 37t1 39h-68v74h79q18 82 65 135t102 73t125.5 20t146.5 -22l-23 -103q-57 11 -106 11q-127 0 -161 -114
h146z" />
    <glyph glyph-name="trademark" unicode="&#x2122;" horiz-adv-x="795" 
d="M142 604h-98v64h278v-64h-100v-312h-80v312zM523 339l-78 222l-9 -269h-75l21 376h88l82 -242l81 242h88l22 -376h-75l-10 269l-77 -222h-58z" />
    <glyph glyph-name="minus" unicode="&#x2212;" horiz-adv-x="522" 
d="M467 332v-109h-412v109h412z" />
    <glyph glyph-name="fi" unicode="&#xfb01;" horiz-adv-x="616" 
d="M564 0h-140v416h-175v-602l-140 14v588l-94 6v82l95 7v29q0 104 57 150.5t180 46.5q75 0 149 -24l-29 -100q-43 10 -110.5 10t-87.5 -22.5t-20 -73.5v-15h175l140 12v-524z" />
    <glyph glyph-name="fl" unicode="&#xfb02;" horiz-adv-x="727" 
d="M731 9q-51 -22 -99 -22t-79 11t-46.5 25t-23.5 41t-9.5 45.5t-1.5 51.5v453q-39 15 -109.5 15t-92 -23t-21.5 -79v-15h143l-9 -96h-134v-602l-140 14v588l-94 6v82l95 7v29q0 118 75 164q67 41 179 41t249 -45v-547q0 -29 8.5 -41t34.5 -12t54 7z" />
    <glyph glyph-name="CR" horiz-adv-x="435" 
 />
    <glyph glyph-name="plus.001" horiz-adv-x="479" 
d="M295 77h-111v146h-149v110h149v145h111v-145h149v-110h-149v-146z" />
    <glyph glyph-name="percent" horiz-adv-x="871" 
d="M310 0h-130l353 691h129zM83 362.5q-39 39.5 -39 147.5q0 112 52 154q44 36 108 36t103 -40.5t39 -148.5q0 -111 -52 -153q-43 -35 -107.5 -35t-103.5 39.5zM195 633q-28 0 -42.5 -26.5t-14.5 -97t14.5 -95.5t42.5 -25t42.5 25.5t14.5 95.5t-14.5 96.5t-42.5 26.5z
M542 29.5q-39 39.5 -39 147.5q0 112 52 155q44 35 108 35t103 -40.5t39 -148.5q0 -111 -51 -153q-44 -35 -108.5 -35t-103.5 39.5zM654 300q-28 0 -42.5 -26.5t-14.5 -97t14.5 -95.5t42.5 -25t42.5 25.5t14.5 95.5t-14.5 96.5t-42.5 26.5z" />
    <glyph glyph-name="_0007" 
 />
    <glyph glyph-name="_0009" 
 />
    <glyph glyph-name="_0127" 
 />
    <glyph glyph-name="_0129" 
 />
    <glyph glyph-name="_0141" 
 />
    <glyph glyph-name="_0142" 
 />
    <glyph glyph-name="_0143" 
 />
    <glyph glyph-name="_0144" 
 />
    <glyph glyph-name="_0157" 
 />
    <glyph glyph-name="_0158" 
 />
    <glyph glyph-name="a.alt" horiz-adv-x="565" 
d="M355 31q-51 -43 -138 -43t-135 68.5t-48 196t55 194.5t146 67q57 0 124 -29l8 35h116v-398q0 -28 23 -28q13 0 37 6l18 -83q-51 -28 -116 -28t-90 42zM269 407q-97 0 -97 -162t90 -162q49 0 83 27v283q-33 14 -76 14z" />
    </font>
</defs>
</svg>
