<?xml version="1.0" standalone="no"?>
<!DOCTYPE svg PUBLIC "-//W3C//DTD SVG 1.1//EN" "http://www.w3.org/Graphics/SVG/1.1/DTD/svg11.dtd" >
<svg>
<metadata>
Created by FontForge 20120731 at Sat Dec 10 13:06:10 2016
 By www-data
(c) 2006  Dalton Maag Ltd. All rights reserved. This font may not be altered in any way without prior consent of Dalton Maag Ltd. DaMa is a trademark of Dalton Maag Ltd
</metadata>
<defs>
<font id="YotaInterFace-Bold" horiz-adv-x="540" >
  <font-face 
    font-family="Yota InterFace"
    font-weight="700"
    font-stretch="normal"
    units-per-em="1000"
    panose-1="2 0 8 3 8 0 0 2 0 4"
    ascent="800"
    descent="-200"
    x-height="482"
    cap-height="667"
    bbox="-252 -240 1106 912"
    underline-thickness="20"
    underline-position="-113"
    unicode-range="U+0020-FB04"
  />
<missing-glyph horiz-adv-x="1000" 
 />
    <glyph glyph-name="fi" unicode="fi" horiz-adv-x="566" 
d="M371 0v482h130v-482h-130zM406 540q-18 14 -44 22.5t-61 8.5t-61.5 -17t-26.5 -60v-12h109v-100h-108v-382h-131v382h-67v100h67v17q0 50 17.5 85t46.5 56.5t66.5 31t78.5 9.5q65 0 106.5 -13.5t68.5 -32.5z" />
    <glyph glyph-name="fl" unicode="fl" horiz-adv-x="565" 
d="M370 0v565q-12 2 -27 2.5t-26 0.5q-44 0 -74 -16.5t-30 -57.5v-12h102v-100h-101v-382h-131v382h-67v100h68v15q0 55 23.5 91t60 56t81.5 28t88 8q38 0 82 -4t81 -11v-665h-130z" />
    <glyph glyph-name="ffl" unicode="ffl" horiz-adv-x="903" 
d="M361 551q-40 20 -89 20q-25 0 -42 -16t-17 -57v-16h109v-100h-108v-382h-131v382h-67v100h67v17q0 48 13 82t35.5 56t53 32.5t66.5 10.5q48 0 83.5 -7.5t64.5 -21.5zM708 0v565q-12 2 -27 2.5t-26 0.5q-44 0 -74 -16.5t-30 -57.5v-12h102v-100h-101v-382h-131v382h-67
v100h68v15q0 55 23.5 91t60 56t81.5 28t88 8q38 0 82 -4t81 -11v-665h-130z" />
    <glyph glyph-name="ffi" unicode="ffi" horiz-adv-x="904" 
d="M361 551q-40 20 -89 20q-25 0 -42 -16t-17 -57v-16h109v-100h-108v-382h-131v382h-67v100h67v17q0 48 13 82t35.5 56t53 32.5t66.5 10.5q48 0 83.5 -7.5t64.5 -21.5zM709 0v482h130v-482h-130zM744 540q-18 14 -44 22.5t-61 8.5t-61.5 -17t-26.5 -60v-12h109v-100h-108
v-382h-131v382h-67v100h67v17q0 50 17.5 85t46.5 56.5t66.5 31t78.5 9.5q65 0 106.5 -13.5t68.5 -32.5z" />
    <glyph glyph-name="ff" unicode="ff" horiz-adv-x="675" 
d="M701 551q-40 20 -89 20q-25 0 -42 -16t-17 -57v-16h109v-100h-108v-382h-131v382h-67v100h67v17q0 48 13 82t35.5 56t53 32.5t66.5 10.5q48 0 83.5 -7.5t64.5 -21.5zM361 551q-40 20 -89 20q-25 0 -42 -16t-17 -57v-16h109v-100h-108v-382h-131v382h-67v100h67v17
q0 48 13 82t35.5 56t53 32.5t66.5 10.5q48 0 83.5 -7.5t64.5 -21.5z" />
    <glyph glyph-name=".notdef" horiz-adv-x="1000" 
 />
    <glyph glyph-name=".null" horiz-adv-x="0" 
 />
    <glyph glyph-name="nonmarkingreturn" horiz-adv-x="212" 
 />
    <glyph glyph-name="space" unicode=" " horiz-adv-x="200" 
 />
    <glyph glyph-name="exclam" unicode="!" horiz-adv-x="241" 
d="M56 211v456h132v-456h-132zM202 70q0 -16 -6 -30.5t-17 -26t-25.5 -18t-32.5 -6.5q-36 0 -59 24.5t-23 56.5t23 56.5t59 24.5q18 0 32.5 -7t25.5 -18t17 -25.5t6 -30.5z" />
    <glyph glyph-name="quotedbl" unicode="&#x22;" horiz-adv-x="416" 
d="M241 371v296h125v-296h-125zM50 371v296h125v-296h-125z" />
    <glyph glyph-name="numbersign" unicode="#" horiz-adv-x="671" 
d="M501 206v-132h-113v132h-100v-132h-114v132h-139v114h139v101h-139v113h139v133h114v-133h100v133h113v-133h140v-113h-140v-101h140v-114h-140zM388 421h-100v-101h100v101z" />
    <glyph glyph-name="dollar" unicode="$" 
d="M512 181q0 -42 -15.5 -75t-41.5 -57t-60 -38.5t-71 -20.5v-129h-91v128q-66 8 -121.5 38.5t-90.5 93.5l106 64q28 -45 63.5 -63t80.5 -18q48 0 76.5 18.5t28.5 50.5q0 22 -8 38t-22 28t-32 20.5t-37 16.5q-39 16 -80 32t-74.5 39.5t-55 58t-21.5 88.5q0 41 15.5 72.5
t41.5 54t60 36t70 19.5v147h91v-144q59 -7 109 -36.5t79 -83.5l-110 -57q-23 35 -54 49.5t-68 14.5q-45 0 -73 -18t-28 -50q0 -17 9.5 -30t23.5 -23t30 -17t29 -12q42 -17 84.5 -34.5t77.5 -43t57 -63t22 -94.5z" />
    <glyph glyph-name="percent" unicode="%" horiz-adv-x="740" 
d="M737 149q0 -30 -10.5 -58t-31.5 -50t-52.5 -35.5t-73.5 -13.5t-73.5 13.5t-52.5 35.5t-31.5 50t-10.5 57t10.5 57.5t31.5 50.5t53 35.5t74 13.5t73 -13.5t52 -35.5t31.5 -50t10.5 -57zM340 519q0 -30 -10.5 -58t-31.5 -50t-52.5 -35.5t-73.5 -13.5t-73.5 13.5t-52.5 35.5
t-31.5 50t-10.5 57q0 30 10.5 58t31.5 50t52.5 35.5t73.5 13.5t73.5 -13.5t52.5 -35.5t31.5 -50t10.5 -57zM628 149q0 26 -15 48.5t-45 22.5t-45 -22.5t-15 -48.5t15 -48.5t45 -22.5t45 22.5t15 48.5zM231 520q0 26 -15 48.5t-45 22.5q-31 0 -45.5 -22.5t-14.5 -48.5
t14.5 -49t45.5 -23q30 0 45 23t15 49zM77 -4l-65 70l655 610l68 -69z" />
    <glyph glyph-name="ampersand" unicode="&#x26;" horiz-adv-x="668" 
d="M494 0l-66 86q-17 -21 -33.5 -39t-37.5 -31t-48 -20t-65 -7q-48 0 -86.5 16.5t-65 43.5t-40.5 63t-14 75q0 60 34.5 119t109.5 101q-20 25 -35.5 53.5t-15.5 64.5q0 33 13.5 59.5t36.5 44.5t55 28t69 10t64.5 -7t48.5 -20t36.5 -30.5t27.5 -39.5l-102 -57
q-13 25 -31.5 41t-43.5 16q-21 0 -35 -11t-14 -30q0 -14 7.5 -28.5t21.5 -31.5l137 -177q28 51 60.5 97t77.5 76l68 -92q-41 -33 -71 -81t-59 -99l148 -193h-152zM251 317q-43 -26 -63.5 -61.5t-20.5 -69.5q0 -18 5.5 -34t16.5 -28.5t27 -20t36 -7.5q34 0 57.5 24t46.5 59z
" />
    <glyph glyph-name="quotesingle" unicode="'" horiz-adv-x="225" 
d="M50 371v296h125v-296h-125z" />
    <glyph glyph-name="parenleft" unicode="(" horiz-adv-x="312" 
d="M282 -57q-115 57 -178.5 157.5t-63.5 240.5q0 139 63.5 240t178.5 158l39 -82q-72 -51 -110.5 -128t-38.5 -188q0 -113 39 -189.5t111 -127.5z" />
    <glyph glyph-name="parenright" unicode=")" horiz-adv-x="312" 
d="M272 341q0 -140 -63.5 -240.5t-178.5 -157.5l-40 81q72 51 111 127.5t39 189.5q0 111 -38.5 188t-110.5 128l39 82q115 -57 178.5 -158t63.5 -240z" />
    <glyph glyph-name="asterisk" unicode="*" horiz-adv-x="455" 
d="M318 536l107 -67l-51 -86l-99 61v-105h-99v105l-96 -61l-51 86l109 66l-111 68l57 81l92 -59v100h99v-100l95 59l58 -81z" />
    <glyph glyph-name="plus" unicode="+" 
d="M324 275v-198h-109v198h-192v110h192v201h109v-201h192v-110h-192z" />
    <glyph glyph-name="comma" unicode="," horiz-adv-x="233" 
d="M195 55q0 -21 -10 -44.5t-31 -45t-54.5 -40.5t-79.5 -31l-17 52q23 5 44.5 17t31.5 24q-14 10 -22 28t-8 38q0 30 18 55.5t54 25.5q32 0 53 -23t21 -56z" />
    <glyph glyph-name="hyphen" unicode="-" horiz-adv-x="330" 
d="M38 201v119h254v-119h-254z" />
    <glyph glyph-name="period" unicode="." horiz-adv-x="222" 
d="M184 61q0 -27 -17.5 -49.5t-54.5 -22.5q-38 0 -56 22.5t-18 49.5q0 28 18 50.5t56 22.5q36 0 54 -22.5t18 -50.5z" />
    <glyph glyph-name="slash" unicode="/" horiz-adv-x="543" 
d="M101 -32l-101 57l444 741l99 -53z" />
    <glyph glyph-name="zero" unicode="0" 
d="M521 330q0 -60 -13 -121t-42 -110.5t-77.5 -81t-118.5 -31.5q-71 0 -119 31.5t-77 81t-42 110.5t-13 121t13 121t42 110.5t77 81t119 31.5q70 0 118.5 -31.5t77.5 -81t42 -110.5t13 -121zM384 331q0 48 -6.5 89.5t-20 72t-35.5 48.5t-52 18t-52 -18t-35.5 -48.5t-20 -72
t-6.5 -89.5t6.5 -89.5t20.5 -73t35.5 -49.5t51.5 -18t51.5 18t35.5 49.5t20.5 73t6.5 89.5z" />
    <glyph glyph-name="one" unicode="1" 
d="M254 0v508l-126 -76l-62 97l220 133h105v-662h-137z" />
    <glyph glyph-name="two" unicode="2" 
d="M57 0v78q60 63 121.5 128t111.5 129q26 34 44.5 67.5t18.5 74.5q0 38 -22.5 60t-64.5 22q-37 0 -71.5 -27.5t-60.5 -71.5l-109 59q16 31 39.5 59.5t55 49.5t71.5 33.5t89 12.5q43 0 81.5 -12t67 -36t45.5 -59t17 -81q0 -56 -24.5 -110t-66.5 -105q-35 -43 -75 -83.5
t-72 -74.5h257v-113h-453z" />
    <glyph glyph-name="three" unicode="3" 
d="M504 195q0 -51 -20 -90t-53 -64.5t-76.5 -38.5t-90.5 -13q-75 0 -140 31t-110 109l107 62q32 -53 67.5 -71.5t74.5 -18.5q45 0 75.5 23.5t30.5 64.5q0 46 -38 70.5t-107 25.5v101q66 5 100 31t34 69q0 33 -24.5 52.5t-69.5 19.5q-35 0 -65.5 -19.5t-56.5 -67.5l-107 62
q41 75 105.5 108t141.5 33q43 0 81 -12.5t67 -35.5t46 -56.5t17 -75.5q0 -64 -24 -100.5t-62 -50.5q39 -15 68 -50t29 -98z" />
    <glyph glyph-name="four" unicode="4" 
d="M450 167v-167h-131v167h-292v99l315 396h108v-380h69v-115h-69zM319 459l-139 -177h139v177z" />
    <glyph glyph-name="five" unicode="5" 
d="M498 208q0 -54 -19.5 -95t-51.5 -68.5t-73.5 -41.5t-86.5 -14q-32 0 -64 6.5t-61.5 21t-56 38.5t-47.5 59l107 65q27 -43 55 -60t65 -17q41 0 70.5 26t29.5 74q0 30 -9.5 54t-32.5 40.5t-61.5 25.5t-95.5 9h-86v331h387v-112h-268v-113h4q64 0 118 -13t93.5 -41t61.5 -71
t22 -104z" />
    <glyph glyph-name="six" unicode="6" 
d="M498 215q0 -45 -14 -85.5t-41.5 -72t-69.5 -50t-97 -18.5q-44 0 -85 14t-72.5 44.5t-50.5 77.5t-19 113q0 70 22.5 141t67.5 132t113 104.5t160 58.5l27 -102q-78 -17 -139 -60.5t-88 -105.5q19 12 41.5 19t51.5 7q44 0 80 -16.5t61 -45.5t38.5 -69t13.5 -86zM363 205
q0 54 -25 84.5t-64 30.5q-24 0 -46 -7.5t-35 -15.5q-3 -11 -5 -32t-2 -35q0 -33 8 -57t21 -39.5t29.5 -23t33.5 -7.5q38 0 61.5 27t23.5 75z" />
    <glyph glyph-name="seven" unicode="7" 
d="M247 0h-141l243 550h-319v112h477v-80z" />
    <glyph glyph-name="eight" unicode="8" 
d="M499 188q0 -38 -15 -74t-44.5 -63.5t-72 -44.5t-97.5 -17t-97.5 16.5t-72 44.5t-44.5 63.5t-15 73.5q0 21 5.5 43t16.5 43t27 39t37 30q-40 29 -57.5 67.5t-17.5 74.5q0 37 15.5 71t44 60.5t69 42.5t90.5 16q49 0 89.5 -15.5t69 -41.5t44 -60t15.5 -71q0 -36 -18.5 -76.5
t-56.5 -66.5q42 -25 63.5 -69t21.5 -86zM356 482q0 15 -6 30t-17 27t-27 19.5t-36 7.5t-35.5 -7.5t-26.5 -19.5t-17 -27.5t-6 -30.5q0 -16 5.5 -32t16.5 -29t26.5 -21t36.5 -8q20 0 36 8.5t27 21.5t17 29t6 32zM367 193q0 38 -26 66t-72 28q-45 0 -70 -27.5t-25 -64.5
q0 -38 24.5 -65.5t72.5 -27.5t72 26.5t24 64.5z" />
    <glyph glyph-name="nine" unicode="9" 
d="M493 422q0 -74 -22.5 -144.5t-68 -129t-113.5 -101t-159 -58.5l-27 103q78 17 139 63.5t89 109.5q-18 -12 -43.5 -19t-50.5 -7q-47 0 -83 18.5t-60.5 48.5t-37 68.5t-12.5 79.5t14 80.5t41.5 70.5t69 50t97.5 19q43 0 84 -14.5t72.5 -45.5t51 -78.5t19.5 -113.5zM356 430
q0 34 -8.5 58.5t-21.5 40t-29 23t-32 7.5q-20 0 -36 -9t-27 -23.5t-16.5 -33.5t-5.5 -38q0 -20 6 -38.5t17 -33t27.5 -23.5t37.5 -9q23 0 42.5 4.5t38.5 15.5q3 10 5 27.5t2 31.5z" />
    <glyph glyph-name="colon" unicode=":" horiz-adv-x="222" 
d="M184 409q0 -27 -17.5 -49.5t-54.5 -22.5q-38 0 -56 22.5t-18 49.5q0 28 18 50.5t56 22.5q36 0 54 -22.5t18 -50.5zM184 61q0 -27 -17.5 -49.5t-54.5 -22.5q-38 0 -56 22.5t-18 49.5q0 28 18 50.5t56 22.5q36 0 54 -22.5t18 -50.5z" />
    <glyph glyph-name="semicolon" unicode=";" horiz-adv-x="233" 
d="M195 55q0 -21 -10 -44.5t-31 -45t-54.5 -40.5t-79.5 -31l-17 52q23 5 44.5 17t31.5 24q-14 10 -22 28t-8 38q0 30 18 55.5t54 25.5q32 0 53 -23t21 -56zM199 409q0 -27 -17.5 -49.5t-54.5 -22.5q-38 0 -56 22.5t-18 49.5q0 28 18 50.5t56 22.5q36 0 54 -22.5t18 -50.5z
" />
    <glyph glyph-name="less" unicode="&#x3c;" 
d="M491 129l-468 162v83l454 153l39 -108l-263 -85l273 -94z" />
    <glyph glyph-name="equal" unicode="=" 
d="M23 370v110h493v-110h-493zM23 155v110h493v-110h-493z" />
    <glyph glyph-name="greater" unicode="&#x3e;" 
d="M49 129l-35 111l273 94l-263 85l40 108l453 -153v-83z" />
    <glyph glyph-name="question" unicode="?" horiz-adv-x="422" 
d="M416 496q0 -25 -7.5 -46t-19.5 -40t-27 -35.5t-30 -31.5q-26 -28 -47 -53.5t-21 -54.5v-24h-127v42q0 20 6.5 39t16.5 35.5t21.5 30.5t21.5 24q14 15 28.5 28t26 27t19 29t7.5 34q0 35 -21 54t-60 19q-29 0 -58 -16.5t-61 -64.5l-96 64q35 55 89.5 90t133.5 35
q100 0 152.5 -50t52.5 -135zM282 70q0 -32 -23 -56.5t-59 -24.5q-18 0 -32.5 6.5t-25.5 18t-17 26t-6 30.5t6 30.5t17 25.5t25.5 18t32.5 7q36 0 59 -24.5t23 -56.5z" />
    <glyph glyph-name="A" unicode="A" horiz-adv-x="648" 
d="M502 0l-54 134h-257l-55 -134h-136l274 667h95l278 -667h-145zM318 466l-86 -219h172z" />
    <glyph glyph-name="B" unicode="B" horiz-adv-x="598" 
d="M573 188q0 -53 -30 -101t-91 -71q-23 -8 -49.5 -12t-51.5 -4h-274v667h238q48 0 88.5 -12t69.5 -35.5t45.5 -57t16.5 -75.5q0 -45 -21.5 -78t-59.5 -56q54 -19 86.5 -60.5t32.5 -104.5zM399 472q0 24 -15.5 44.5t-46.5 30.5q-5 1 -13.5 2.5t-19 2l-21 1t-18.5 0.5h-55
v-159h66q23 0 44 2t30 7q26 12 37.5 30.5t11.5 38.5zM436 193q0 22 -12.5 43t-37.5 34q-16 8 -36.5 11.5t-45.5 3.5h-94v-171h96q35 0 55 3t33 10q22 12 32 29.5t10 36.5z" />
    <glyph glyph-name="C" unicode="C" horiz-adv-x="608" 
d="M584 133q-45 -80 -102 -113.5t-139 -33.5q-66 0 -121 23t-94.5 67.5t-61 108.5t-21.5 146q0 90 24.5 155.5t65 109t94 64.5t110.5 21q46 0 83 -10.5t66.5 -30.5t52 -49t39.5 -66l-109 -61q-20 43 -49.5 71t-79.5 28q-31 0 -60 -14t-51 -43t-35.5 -72.5t-13.5 -102.5
q0 -52 13 -94t35.5 -71t52.5 -45t65 -16q19 0 36.5 4t33.5 14.5t31 28t30 45.5l105 -64v0z" />
    <glyph glyph-name="D" unicode="D" horiz-adv-x="661" 
d="M618 337q0 -47 -10.5 -92.5t-32 -86t-54 -72.5t-75.5 -52q-73 -34 -166 -34h-203v667h198q38 0 84 -6t88 -24q43 -20 75.5 -51.5t53.5 -71t31.5 -85t10.5 -92.5zM481 331q0 57 -21 107.5t-65 78.5q-23 15 -57 22.5t-69 7.5h-57v-427h54q73 0 121 25t71 76.5t23 109.5z
" />
    <glyph glyph-name="E" unicode="E" horiz-adv-x="586" 
d="M77 0v667h458v-121h-323v-152h267v-121h-267v-152h346v-121h-481z" />
    <glyph glyph-name="F" unicode="F" horiz-adv-x="536" 
d="M212 546v-158h254v-119h-254v-269h-135v667h454v-121h-319z" />
    <glyph glyph-name="G" unicode="G" horiz-adv-x="627" 
d="M587 30q-41 -18 -98 -31t-145 -13q-64 0 -119 23t-95 67.5t-62.5 108.5t-22.5 146q0 90 24 155.5t64.5 109t93.5 64.5t112 21q90 0 146.5 -36t91.5 -110l-109 -61q-20 42 -50.5 65.5t-75.5 23.5q-30 0 -59 -14t-51.5 -43t-36 -72.5t-13.5 -102.5q0 -52 14 -93.5t38 -71
t56 -45.5t69 -16q32 0 58.5 3t43.5 8v120h-109v115h235v-321v0z" />
    <glyph glyph-name="H" unicode="H" horiz-adv-x="689" 
d="M477 0v282h-265v-282h-135v667h135v-264h265v264h135v-667h-135z" />
    <glyph glyph-name="I" unicode="I" horiz-adv-x="289" 
d="M77 0v667h135v-667h-135z" />
    <glyph glyph-name="J" unicode="J" horiz-adv-x="297" 
d="M220 67q0 -47 -17 -82.5t-48.5 -61t-75 -41.5t-97.5 -25l-25 114q70 14 99 43t29 75v578h135v-600v0z" />
    <glyph glyph-name="K" unicode="K" horiz-adv-x="639" 
d="M489 0l-215 316l-62 -62v-254h-135v667h135v-255l256 255h160l-262 -260l275 -407h-152z" />
    <glyph glyph-name="L" unicode="L" horiz-adv-x="553" 
d="M77 0v667h135v-546h336v-121h-471z" />
    <glyph glyph-name="M" unicode="M" horiz-adv-x="806" 
d="M596 0v373l-161 -377h-48l-177 381v-377h-133v667h138l197 -444l178 444h139v-667h-133z" />
    <glyph glyph-name="N" unicode="N" horiz-adv-x="695" 
d="M500 0l-290 441v-441h-133v667h138l270 -416v416h133v-667h-118z" />
    <glyph glyph-name="O" unicode="O" horiz-adv-x="707" 
d="M662 334q0 -64 -19 -126.5t-58 -111.5t-97 -79.5t-136 -30.5q-77 0 -135 30.5t-96 79.5t-57 111.5t-19 126.5t19 126.5t57 111.5t96 79t135 30q78 0 136 -30t97 -79t58 -111.5t19 -126.5zM525 334q0 44 -11 85.5t-33 73.5t-54.5 51t-74.5 19t-73.5 -19t-53.5 -51
t-33 -73.5t-11 -85.5t11 -85.5t33 -73.5t53.5 -51t73.5 -19t74.5 19t54.5 51t33 73.5t11 85.5z" />
    <glyph glyph-name="P" unicode="P" horiz-adv-x="578" 
d="M563 462q0 -30 -8 -60.5t-23 -56.5t-37 -47t-50 -33q-35 -14 -71 -19.5t-73 -5.5h-92v-240h-132v667h210q51 0 94.5 -6.5t82.5 -25.5q51 -24 75 -71.5t24 -101.5zM430 454q0 28 -13.5 52t-42.5 34q-17 6 -36 9t-49 3h-80v-197h75q29 0 52.5 3t40.5 11q29 13 41 36t12 49z
" />
    <glyph glyph-name="Q" unicode="Q" horiz-adv-x="707" 
d="M662 334q0 -54 -14 -106.5t-41.5 -98t-68.5 -80t-95 -50.5q11 -21 43 -28.5t84 -7.5l-16 -107q-124 4 -189 39.5t-89 100.5q-58 14 -101.5 47.5t-72 79.5t-43 100.5t-14.5 110.5q0 64 19 126.5t57 111.5t96 79t135 30q78 0 136 -30t97 -79t58 -111.5t19 -126.5zM525 334
q0 44 -11 85.5t-33 73.5t-54.5 51t-74.5 19t-73.5 -19t-53.5 -51t-33 -73.5t-11 -85.5t11 -85.5t33 -73.5t53.5 -51t73.5 -19t74.5 19t54.5 51t33 73.5t11 85.5z" />
    <glyph glyph-name="R" unicode="R" horiz-adv-x="623" 
d="M447 0l-165 250h-73v-250h-132v667h271q42 0 84 -9t75.5 -31.5t55 -60.5t21.5 -97q0 -36 -9 -69t-27.5 -60.5t-48 -48.5t-70.5 -33l171 -258h-153zM451 456q0 48 -31 71.5t-108 23.5h-103v-186h103q73 0 106 23t33 68z" />
    <glyph glyph-name="S" unicode="S" horiz-adv-x="556" 
d="M523 180q0 -49 -20.5 -85.5t-54 -60.5t-77.5 -36t-90 -12q-182 0 -255 123l103 68q23 -38 62 -57.5t88 -19.5q51 0 81.5 20t30.5 53q0 21 -7 37t-24 30t-47 27.5t-76 29.5q-43 15 -77.5 32t-59 40t-37.5 53.5t-13 72.5q0 41 14.5 75t44 59t73.5 38.5t103 13.5
q49 0 86.5 -9.5t65 -25.5t47.5 -37t35 -44l-97 -69q-21 32 -53 53t-85 21q-51 0 -77.5 -18t-26.5 -47q0 -35 34 -57.5t102 -47.5q51 -18 89.5 -38t64.5 -45.5t39.5 -58.5t13.5 -78z" />
    <glyph glyph-name="T" unicode="T" horiz-adv-x="543" 
d="M340 546v-546h-136v546h-199v121h533v-121h-198z" />
    <glyph glyph-name="U" unicode="U" horiz-adv-x="687" 
d="M614 229q0 -57 -21 -102t-58 -76.5t-86 -48t-106 -16.5q-56 0 -105.5 16.5t-86 48t-57.5 76.5t-21 102v438h135v-425q0 -60 35 -98.5t101 -38.5t100.5 38.5t34.5 98.5v425h135v-438v0z" />
    <glyph glyph-name="V" unicode="V" horiz-adv-x="634" 
d="M378 0h-83l-295 667h144l191 -458l166 458h133z" />
    <glyph glyph-name="W" unicode="W" horiz-adv-x="778" 
d="M625 0h-85l-152 447l-151 -447h-85l-152 667h135l82 -396l130 396h83l130 -396l84 396h134z" />
    <glyph glyph-name="X" unicode="X" horiz-adv-x="579" 
d="M428 0l-139 230l-138 -230h-151l217 347l-202 320h152l122 -203l122 203h152l-201 -320l217 -347h-151z" />
    <glyph glyph-name="Y" unicode="Y" horiz-adv-x="581" 
d="M360 268v-268h-135v268l-225 399h150l145 -265l138 265h148z" />
    <glyph glyph-name="Z" unicode="Z" horiz-adv-x="574" 
d="M34 0v110l340 436h-312v121h477v-114l-337 -432h343v-121h-511z" />
    <glyph glyph-name="bracketleft" unicode="[" horiz-adv-x="300" 
d="M66 -143v879h234v-110h-109v-659h109v-110h-234z" />
    <glyph glyph-name="backslash" unicode="\" horiz-adv-x="543" 
d="M442 -32l-442 745l99 53l444 -741z" />
    <glyph glyph-name="bracketright" unicode="]" horiz-adv-x="300" 
d="M0 -143v110h110v659h-110v110h234v-879h-234z" />
    <glyph glyph-name="asciicircum" unicode="^" horiz-adv-x="552" 
d="M375 292l-100 213l-93 -222l-121 39l165 345h97l169 -330z" />
    <glyph glyph-name="underscore" unicode="_" horiz-adv-x="560" 
d="M0 -240v90h560v-90h-560z" />
    <glyph glyph-name="grave" unicode="`" horiz-adv-x="442" 
d="M318 538l-229 112l63 83l201 -141z" />
    <glyph glyph-name="a" unicode="a" horiz-adv-x="514" 
d="M332 0l-6 36q-21 -22 -53.5 -34.5t-71.5 -12.5q-32 0 -62.5 10.5t-53.5 30t-37 48t-14 64.5t15 63.5t40 46.5t57.5 31t68.5 18q25 5 55 7.5t50 4.5v16q0 29 -20 47t-47 18q-17 0 -43 -9t-50 -34l-89 62q19 24 43.5 40t50 25t50.5 12.5t46 3.5q42 0 77 -10.5t60.5 -33
t39.5 -57t14 -83.5v-310h-120zM321 225q-20 -1 -42.5 -3.5t-42.5 -6.5q-42 -8 -58.5 -27.5t-16.5 -42.5q0 -24 18 -38.5t53 -14.5q25 0 48.5 10t40.5 25v98z" />
    <glyph glyph-name="b" unicode="b" horiz-adv-x="553" 
d="M518 250q0 -70 -21 -119.5t-57 -81t-83.5 -46t-100.5 -14.5q-49 0 -97 11t-94 30v637h131v-184q21 5 40 8t45 3q60 0 104.5 -21t74 -55.5t44 -78t14.5 -89.5zM391 247q0 36 -10 62.5t-28 44t-42 26.5t-51 9q-29 0 -64 -11v-275l28 -6t27 -3q62 0 101 39t39 114z" />
    <glyph glyph-name="c" unicode="c" horiz-adv-x="487" 
d="M476 116q-31 -65 -83.5 -96t-122.5 -31q-46 0 -88.5 16t-75 47.5t-52 78t-19.5 108.5q0 64 19 112t50.5 80t72.5 47.5t85 15.5t78.5 -12.5t60 -32.5t42 -45t25.5 -50l-103 -51q-17 48 -42.5 67.5t-57.5 19.5q-20 0 -38 -9t-32.5 -27t-23 -46t-8.5 -67q0 -69 30.5 -107
t79.5 -38q38 0 62 19t43 54l98 -53v0z" />
    <glyph glyph-name="d" unicode="d" horiz-adv-x="557" 
d="M373 0l-6 37q-18 -19 -47 -33.5t-69 -14.5q-52 0 -92.5 21t-68 56t-41.5 81t-14 96q0 47 15 92t45 80.5t75 57t106 21.5q41 0 86 -14v187h130v-667h-119zM362 375q-37 14 -70 14t-57.5 -12t-40.5 -32.5t-24 -46t-8 -52.5q0 -30 7 -57.5t21 -48t35.5 -33t51.5 -12.5
q24 0 49 12.5t36 29.5v238z" />
    <glyph glyph-name="e" unicode="e" horiz-adv-x="525" 
d="M166 210q5 -61 37.5 -88t72.5 -27q35 0 63 12.5t58 54.5l97 -59q-41 -63 -95 -88.5t-127 -25.5q-48 0 -91 15t-75.5 46.5t-51.5 78.5t-19 112q0 61 18.5 108t50.5 79t74.5 49t90.5 17q101 0 162.5 -70.5t63.5 -213.5h-329zM362 299q-4 48 -32.5 72t-60.5 24
q-17 0 -33.5 -6.5t-30.5 -19t-23.5 -30.5t-12.5 -40h193z" />
    <glyph glyph-name="f" unicode="f" horiz-adv-x="335" 
d="M361 551q-40 20 -89 20q-25 0 -42 -16t-17 -57v-16h109v-100h-108v-382h-131v382h-67v100h67v17q0 48 13 82t35.5 56t53 32.5t66.5 10.5q48 0 83.5 -7.5t64.5 -21.5z" />
    <glyph glyph-name="g" unicode="g" horiz-adv-x="533" 
d="M526 -52q0 -43 -21 -71.5t-55 -46t-78.5 -24.5t-90.5 -7t-90.5 7t-79.5 23.5t-56.5 44t-21.5 69.5q0 35 15 56.5t41 35.5q-14 11 -24.5 29t-10.5 40q0 26 15 46.5t40 34.5q-29 23 -46.5 56.5t-17.5 73.5q0 45 18.5 78.5t49 56t70 33.5t81.5 11q29 0 52 -5t49 -15l77 81
l73 -60l-70 -74q19 -21 29.5 -49t10.5 -57q0 -45 -18.5 -78.5t-49.5 -55.5t-71 -33t-82 -11q-19 0 -37.5 2.5t-31.5 5.5q-5 -3 -10 -10t-5 -13q0 -7 5 -12t19.5 -9t40.5 -7t69 -4q52 -2 92 -9.5t66.5 -24t40 -43t13.5 -65.5zM361 313q0 38 -27.5 61t-69.5 23t-68.5 -22.5
t-26.5 -60.5q0 -39 26.5 -59.5t68.5 -20.5t69.5 20.5t27.5 58.5zM412 -61q0 13 -5 22t-21.5 15t-46.5 9.5t-81 4.5q-20 1 -41 3.5t-41 5.5q-9 -6 -18 -17.5t-9 -27.5q0 -62 135 -62q60 0 94 12t34 35z" />
    <glyph glyph-name="h" unicode="h" horiz-adv-x="577" 
d="M384 0v277q0 60 -24.5 86.5t-56.5 26.5t-61 -16.5t-46 -30.5v-343h-131v667h131v-217q24 18 57.5 31t80.5 13q49 0 83 -15t56 -42t32 -65.5t10 -85.5v-286h-131z" />
    <glyph glyph-name="i" unicode="i" horiz-adv-x="260" 
d="M208 598q0 -27 -19.5 -49t-58.5 -22t-58.5 22t-19.5 49q0 26 19.5 48t58.5 22t58.5 -22t19.5 -48zM65 0v482h130v-482h-130z" />
    <glyph glyph-name="j" unicode="j" horiz-adv-x="270" 
d="M218 598q0 -27 -19.5 -49t-57.5 -22q-39 0 -58.5 22t-19.5 49q0 26 19.5 48t58.5 22q38 0 57.5 -22t19.5 -48zM205 19q0 -39 -8.5 -70.5t-26 -57.5t-44 -47t-62.5 -40l-72 80q25 17 41.5 31.5t25.5 30t12.5 33t3.5 40.5v463h130v-463z" />
    <glyph glyph-name="k" unicode="k" horiz-adv-x="522" 
d="M381 0l-138 249l-47 -44v-205h-131v667h131v-321l151 136h157l-166 -149l190 -333h-147z" />
    <glyph glyph-name="l" unicode="l" horiz-adv-x="261" 
d="M65 0v667h131v-667h-131z" />
    <glyph glyph-name="m" unicode="m" horiz-adv-x="881" 
d="M689 0v283q0 48 -19 77.5t-70 29.5q-15 0 -30 -4.5t-28.5 -10.5t-24.5 -12.5t-17 -11.5q2 -12 4 -27t2 -33v-291h-130v283q0 22 -4 41.5t-13 34t-24.5 23t-38.5 8.5q-29 0 -56 -15t-44 -32v-343h-131v482h120l5 -36q23 20 57.5 34t69.5 14t71 -10.5t66 -36.5
q35 20 76 33.5t89 13.5q57 0 95 -14t61.5 -40t33.5 -64t10 -87v-289h-130z" />
    <glyph glyph-name="n" unicode="n" horiz-adv-x="581" 
d="M388 0v275q0 55 -24 85t-67 30q-30 0 -56 -15t-45 -33v-342h-131v482h119l6 -38q30 24 69 37t78 13q40 0 73.5 -11.5t57.5 -36.5t37.5 -65t13.5 -96v-285h-131z" />
    <glyph glyph-name="o" unicode="o" horiz-adv-x="556" 
d="M521 243q0 -47 -15 -92.5t-45.5 -81.5t-76 -58t-106.5 -22t-106.5 22t-76 58t-45.5 81.5t-15 92.5t15 92t45.5 80.5t76 57t106.5 21.5t106.5 -21.5t76 -57t45.5 -80.5t15 -92zM393 243q0 30 -7.5 57t-22 46.5t-36 31t-49.5 11.5t-49.5 -11.5t-36 -31t-22 -46.5t-7.5 -57
q0 -31 7.5 -57.5t21.5 -46.5t35.5 -31.5t50.5 -11.5q28 0 49.5 11.5t36 31.5t22 46.5t7.5 57.5z" />
    <glyph glyph-name="p" unicode="p" horiz-adv-x="554" 
d="M519 242q0 -47 -15 -92.5t-46.5 -81t-80 -57.5t-114.5 -22q-34 0 -67 14v-192h-131v671h119l6 -36q18 17 48 32.5t71 15.5q52 0 91.5 -21t65.5 -55.5t39.5 -80.5t13.5 -95zM392 240q0 28 -7 55t-20.5 48t-34 34t-48.5 13q-27 0 -51 -14.5t-36 -31.5v-233q31 -14 61 -14
q35 0 60.5 12t42.5 32.5t25 46t8 52.5z" />
    <glyph glyph-name="q" unicode="q" horiz-adv-x="554" 
d="M358 -189v187q-20 -5 -37 -7t-35 -2q-62 0 -108.5 20.5t-78.5 55t-48 80.5t-16 97q0 49 16 94.5t49.5 80.5t84.5 56t122 21q39 0 85 -4.5t97 -11.5v-667h-131zM358 386q-14 2 -24.5 3t-25.5 1q-38 0 -65.5 -12.5t-45.5 -33t-26.5 -47.5t-8.5 -55q0 -31 9 -57.5t27 -46
t45 -31t62 -11.5q20 0 31 4t22 9v277z" />
    <glyph glyph-name="r" unicode="r" horiz-adv-x="371" 
d="M354 364q-20 8 -37.5 12.5t-34.5 4.5q-28 0 -50.5 -13t-35.5 -30v-338h-131v482h119l6 -42q27 29 54.5 40.5t57.5 11.5q17 0 36 -4t39 -11z" />
    <glyph glyph-name="s" unicode="s" horiz-adv-x="485" 
d="M457 140q0 -39 -16 -67.5t-44 -47t-66 -27.5t-81 -9q-86 0 -139.5 32.5t-81.5 81.5l97 59q17 -32 47.5 -53.5t76.5 -21.5q40 0 62.5 12.5t22.5 34.5q0 21 -24 37t-89 28q-38 7 -69.5 18.5t-53.5 29.5t-34 43t-12 60q0 64 53.5 104t144.5 40q82 0 130 -26.5t74 -64.5
l-92 -63q-18 24 -46 40t-66 16q-42 0 -58 -12.5t-16 -32.5q0 -23 20 -33t74 -21q44 -9 78.5 -21t58.5 -30.5t36.5 -44.5t12.5 -61z" />
    <glyph glyph-name="t" unicode="t" horiz-adv-x="368" 
d="M366 38q-33 -22 -69.5 -35.5t-77.5 -13.5q-25 0 -49 7t-42.5 22t-30 39.5t-11.5 59.5v265h-71v100h71v125h130v-125h117v-100h-117v-246q0 -23 10.5 -31.5t20.5 -8.5q20 0 39 10t33 21l47 -89v0z" />
    <glyph glyph-name="u" unicode="u" horiz-adv-x="579" 
d="M394 0l-5 38q-35 -28 -72 -38t-73 -10q-88 0 -135 51t-47 154v287h131v-274q0 -50 19 -81t65 -31q38 0 64 14.5t42 27.5v344h131v-482h-120z" />
    <glyph glyph-name="v" unicode="v" horiz-adv-x="533" 
d="M326 0h-113l-213 482h139l133 -320l128 320h133z" />
    <glyph glyph-name="w" unicode="w" horiz-adv-x="717" 
d="M545 0h-95l-92 279l-91 -279h-95l-172 482h136l87 -290l95 290h80l96 -290l87 290h136z" />
    <glyph glyph-name="x" unicode="x" horiz-adv-x="511" 
d="M364 0l-112 152l-113 -152h-136l181 238l-184 244h147l111 -149l111 149h134l-176 -235l184 -247h-147z" />
    <glyph glyph-name="y" unicode="y" horiz-adv-x="517" 
d="M267 -114q-11 -25 -26 -42t-33 -27t-38.5 -14t-40.5 -4q-26 0 -57.5 6.5t-64.5 20.5l41 93q19 -9 37.5 -13t31.5 -4q12 0 24 7t22 28l37 83l-200 462h139l126 -329l120 329h132z" />
    <glyph glyph-name="z" unicode="z" horiz-adv-x="508" 
d="M36 0v89l276 293h-265v100h415v-94l-272 -289h280v-99h-434z" />
    <glyph glyph-name="braceleft" unicode="{" horiz-adv-x="293" 
d="M282 -62q-92 1 -136 37.5t-44 112.5v128q0 37 -20 56t-65 25v74q45 6 65 25t20 56v129q0 76 44 112t136 38l11 -87q-25 -1 -39 -7.5t-21.5 -18t-9.5 -26.5t-2 -32v-108q0 -90 -71 -118q37 -17 54 -44.5t17 -73.5v-110q0 -17 2 -31.5t9.5 -25.5t22 -17.5t38.5 -7.5z" />
    <glyph glyph-name="bar" unicode="|" horiz-adv-x="275" 
d="M74 -74v812h125v-812h-125z" />
    <glyph glyph-name="braceright" unicode="}" horiz-adv-x="293" 
d="M277 297q-45 -6 -65 -25t-20 -56v-128q0 -149 -181 -150l-11 86q24 1 38.5 7.5t22 17t9.5 25.5t2 32v110q0 46 17 73.5t54 44.5q-71 28 -71 118v108q0 17 -2 32t-9.5 26.5t-21.5 18t-39 7.5l11 87q92 -2 136.5 -38t44.5 -112v-129q0 -37 20 -56t65 -25v-74v0z" />
    <glyph glyph-name="asciitilde" unicode="~" horiz-adv-x="474" 
d="M476 652q-3 -40 -15.5 -68.5t-32 -46.5t-43.5 -26t-51 -8q-33 0 -56.5 8.5t-42 19t-35 19t-36.5 8.5t-33 -11.5t-18 -40.5h-115q11 71 49 107.5t99 36.5q33 0 57 -8.5t42 -18.5t33 -18.5t31 -8.5q17 0 32 10t20 46h115v0z" />
    <glyph glyph-name="Adieresis" unicode="&#xc4;" horiz-adv-x="648" 
d="M502 0l-54 134h-257l-55 -134h-136l274 667h95l278 -667h-145zM318 466l-86 -219h172zM477 797q0 -28 -18 -49.5t-47 -21.5q-28 0 -46.5 21.5t-18.5 49.5q0 29 18.5 50t46.5 21q29 0 47 -21t18 -50zM289 797q0 -28 -18.5 -49.5t-46.5 -21.5q-29 0 -47 21.5t-18 49.5
q0 29 18 50t47 21q28 0 46.5 -21t18.5 -50z" />
    <glyph glyph-name="Aring" unicode="&#xc5;" horiz-adv-x="648" 
d="M502 0l-54 134h-257l-55 -134h-136l274 667h95l278 -667h-145zM318 466l-86 -219h172zM426 766q0 -20 -6.5 -39.5t-19.5 -35t-33 -25t-46 -9.5t-45.5 9.5t-32.5 24.5t-19.5 34.5t-6.5 39.5t6.5 39.5t19.5 35t32.5 25t45.5 9.5t46 -9.5t33 -24.5t19.5 -34.5t6.5 -39.5z
M361 766q0 20 -10.5 33t-29.5 13q-18 0 -28.5 -13t-10.5 -33t10.5 -33t28.5 -13q19 0 29.5 13t10.5 33z" />
    <glyph glyph-name="Ccedilla" unicode="&#xc7;" horiz-adv-x="609" 
d="M584 133q-45 -80 -102 -113.5t-139 -33.5q-66 0 -121 23t-94.5 67.5t-61 108.5t-21.5 146q0 90 24.5 155.5t65 109t94 64.5t110.5 21q46 0 83 -10.5t66.5 -30.5t52 -49t39.5 -66l-109 -61q-20 43 -49.5 71t-79.5 28q-31 0 -60 -14t-51 -43t-35.5 -72.5t-13.5 -102.5
q0 -52 13 -94t35.5 -71t52.5 -45t65 -16q19 0 36.5 4t33.5 14.5t31 28t30 45.5l105 -64v0zM327 -181h-92l62 137h116z" />
    <glyph glyph-name="Eacute" unicode="&#xc9;" horiz-adv-x="586" 
d="M77 0v667h458v-121h-323v-152h267v-121h-267v-152h346v-121h-481zM238 704l-36 54l201 141l63 -83z" />
    <glyph glyph-name="Ntilde" unicode="&#xd1;" horiz-adv-x="695" 
d="M500 0l-290 441v-441h-133v667h138l270 -416v416h133v-667h-118zM541 828q-18 -54 -50 -85t-77 -31q-21 0 -40.5 9.5t-36.5 20.5t-31.5 19t-26.5 8q-11 0 -27.5 -11.5t-33.5 -51.5l-69 36q17 51 49.5 83t77.5 32q20 0 39.5 -9t36.5 -20t32 -19.5t27 -8.5q10 0 27.5 11.5
t34.5 51.5l68 -35v0z" />
    <glyph glyph-name="Odieresis" unicode="&#xd6;" horiz-adv-x="707" 
d="M662 334q0 -64 -19 -126.5t-58 -111.5t-97 -79.5t-136 -30.5q-77 0 -135 30.5t-96 79.5t-57 111.5t-19 126.5t19 126.5t57 111.5t96 79t135 30q78 0 136 -30t97 -79t58 -111.5t19 -126.5zM525 334q0 44 -11 85.5t-33 73.5t-54.5 51t-74.5 19t-73.5 -19t-53.5 -51
t-33 -73.5t-11 -85.5t11 -85.5t33 -73.5t53.5 -51t73.5 -19t74.5 19t54.5 51t33 73.5t11 85.5zM505 797q0 -28 -18 -49.5t-47 -21.5q-28 0 -46.5 21.5t-18.5 49.5q0 29 18.5 50t46.5 21q29 0 47 -21t18 -50zM317 797q0 -28 -18.5 -49.5t-46.5 -21.5q-29 0 -47 21.5t-18 49.5
q0 29 18 50t47 21q28 0 46.5 -21t18.5 -50z" />
    <glyph glyph-name="Udieresis" unicode="&#xdc;" horiz-adv-x="687" 
d="M614 229q0 -57 -21 -102t-58 -76.5t-86 -48t-106 -16.5q-56 0 -105.5 16.5t-86 48t-57.5 76.5t-21 102v438h135v-425q0 -60 35 -98.5t101 -38.5t100.5 38.5t34.5 98.5v425h135v-438v0zM498 797q0 -28 -18 -49.5t-47 -21.5q-28 0 -46.5 21.5t-18.5 49.5q0 29 18.5 50
t46.5 21q29 0 47 -21t18 -50zM310 797q0 -28 -18.5 -49.5t-46.5 -21.5q-29 0 -47 21.5t-18 49.5q0 29 18 50t47 21q28 0 46.5 -21t18.5 -50z" />
    <glyph glyph-name="aacute" unicode="&#xe1;" horiz-adv-x="514" 
d="M332 0l-6 36q-21 -22 -53.5 -34.5t-71.5 -12.5q-32 0 -62.5 10.5t-53.5 30t-37 48t-14 64.5t15 63.5t40 46.5t57.5 31t68.5 18q25 5 55 7.5t50 4.5v16q0 29 -20 47t-47 18q-17 0 -43 -9t-50 -34l-89 62q19 24 43.5 40t50 25t50.5 12.5t46 3.5q42 0 77 -10.5t60.5 -33
t39.5 -57t14 -83.5v-310h-120zM321 225q-20 -1 -42.5 -3.5t-42.5 -6.5q-42 -8 -58.5 -27.5t-16.5 -42.5q0 -24 18 -38.5t53 -14.5q25 0 48.5 10t40.5 25v98zM175 538l-36 54l201 141l63 -83z" />
    <glyph glyph-name="agrave" unicode="&#xe0;" horiz-adv-x="514" 
d="M332 0l-6 36q-21 -22 -53.5 -34.5t-71.5 -12.5q-32 0 -62.5 10.5t-53.5 30t-37 48t-14 64.5t15 63.5t40 46.5t57.5 31t68.5 18q25 5 55 7.5t50 4.5v16q0 29 -20 47t-47 18q-17 0 -43 -9t-50 -34l-89 62q19 24 43.5 40t50 25t50.5 12.5t46 3.5q42 0 77 -10.5t60.5 -33
t39.5 -57t14 -83.5v-310h-120zM321 225q-20 -1 -42.5 -3.5t-42.5 -6.5q-42 -8 -58.5 -27.5t-16.5 -42.5q0 -24 18 -38.5t53 -14.5q25 0 48.5 10t40.5 25v98zM341 538l-229 112l63 83l201 -141z" />
    <glyph glyph-name="acircumflex" unicode="&#xe2;" horiz-adv-x="514" 
d="M332 0l-6 36q-21 -22 -53.5 -34.5t-71.5 -12.5q-32 0 -62.5 10.5t-53.5 30t-37 48t-14 64.5t15 63.5t40 46.5t57.5 31t68.5 18q25 5 55 7.5t50 4.5v16q0 29 -20 47t-47 18q-17 0 -43 -9t-50 -34l-89 62q19 24 43.5 40t50 25t50.5 12.5t46 3.5q42 0 77 -10.5t60.5 -33
t39.5 -57t14 -83.5v-310h-120zM321 225q-20 -1 -42.5 -3.5t-42.5 -6.5q-42 -8 -58.5 -27.5t-16.5 -42.5q0 -24 18 -38.5t53 -14.5q25 0 48.5 10t40.5 25v98zM348 545l-101 96l-101 -97l-67 45l121 130h96l121 -132z" />
    <glyph glyph-name="adieresis" unicode="&#xe4;" horiz-adv-x="514" 
d="M332 0l-6 36q-21 -22 -53.5 -34.5t-71.5 -12.5q-32 0 -62.5 10.5t-53.5 30t-37 48t-14 64.5t15 63.5t40 46.5t57.5 31t68.5 18q25 5 55 7.5t50 4.5v16q0 29 -20 47t-47 18q-17 0 -43 -9t-50 -34l-89 62q19 24 43.5 40t50 25t50.5 12.5t46 3.5q42 0 77 -10.5t60.5 -33
t39.5 -57t14 -83.5v-310h-120zM321 225q-20 -1 -42.5 -3.5t-42.5 -6.5q-42 -8 -58.5 -27.5t-16.5 -42.5q0 -24 18 -38.5t53 -14.5q25 0 48.5 10t40.5 25v98zM414 631q0 -28 -18 -49.5t-47 -21.5q-28 0 -46.5 21.5t-18.5 49.5q0 29 18.5 50t46.5 21q29 0 47 -21t18 -50z
M226 631q0 -28 -18.5 -49.5t-46.5 -21.5q-29 0 -47 21.5t-18 49.5q0 29 18 50t47 21q28 0 46.5 -21t18.5 -50z" />
    <glyph glyph-name="atilde" unicode="&#xe3;" horiz-adv-x="514" 
d="M332 0l-6 36q-21 -22 -53.5 -34.5t-71.5 -12.5q-32 0 -62.5 10.5t-53.5 30t-37 48t-14 64.5t15 63.5t40 46.5t57.5 31t68.5 18q25 5 55 7.5t50 4.5v16q0 29 -20 47t-47 18q-17 0 -43 -9t-50 -34l-89 62q19 24 43.5 40t50 25t50.5 12.5t46 3.5q42 0 77 -10.5t60.5 -33
t39.5 -57t14 -83.5v-310h-120zM321 225q-20 -1 -42.5 -3.5t-42.5 -6.5q-42 -8 -58.5 -27.5t-16.5 -42.5q0 -24 18 -38.5t53 -14.5q25 0 48.5 10t40.5 25v98zM447 662q-18 -54 -50 -85t-77 -31q-21 0 -40.5 9.5t-36.5 20.5t-31.5 19t-26.5 8q-11 0 -27.5 -11.5t-33.5 -51.5
l-69 36q17 51 49.5 83t77.5 32q20 0 39.5 -9t36.5 -20t32 -19.5t27 -8.5q10 0 27.5 11.5t34.5 51.5l68 -35v0z" />
    <glyph glyph-name="aring" unicode="&#xe5;" horiz-adv-x="514" 
d="M332 0l-6 36q-21 -22 -53.5 -34.5t-71.5 -12.5q-32 0 -62.5 10.5t-53.5 30t-37 48t-14 64.5t15 63.5t40 46.5t57.5 31t68.5 18q25 5 55 7.5t50 4.5v16q0 29 -20 47t-47 18q-17 0 -43 -9t-50 -34l-89 62q19 24 43.5 40t50 25t50.5 12.5t46 3.5q42 0 77 -10.5t60.5 -33
t39.5 -57t14 -83.5v-310h-120zM321 225q-20 -1 -42.5 -3.5t-42.5 -6.5q-42 -8 -58.5 -27.5t-16.5 -42.5q0 -24 18 -38.5t53 -14.5q25 0 48.5 10t40.5 25v98zM362 638q0 -20 -6.5 -39.5t-19.5 -35t-33 -25t-46 -9.5t-45.5 9.5t-32.5 24.5t-19.5 34.5t-6.5 39.5t6.5 39.5
t19.5 35t32.5 25t45.5 9.5t46 -9.5t33 -24.5t19.5 -34.5t6.5 -39.5zM297 638q0 20 -10.5 33t-29.5 13q-18 0 -28.5 -13t-10.5 -33t10.5 -33t28.5 -13q19 0 29.5 13t10.5 33z" />
    <glyph glyph-name="ccedilla" unicode="&#xe7;" horiz-adv-x="487" 
d="M476 116q-31 -65 -83.5 -96t-122.5 -31q-46 0 -88.5 16t-75 47.5t-52 78t-19.5 108.5q0 64 19 112t50.5 80t72.5 47.5t85 15.5t78.5 -12.5t60 -32.5t42 -45t25.5 -50l-103 -51q-17 48 -42.5 67.5t-57.5 19.5q-20 0 -38 -9t-32.5 -27t-23 -46t-8.5 -67q0 -69 30.5 -107
t79.5 -38q38 0 62 19t43 54l98 -53v0zM249 -181h-92l62 137h116z" />
    <glyph glyph-name="eacute" unicode="&#xe9;" horiz-adv-x="525" 
d="M166 210q5 -61 37.5 -88t72.5 -27q35 0 63 12.5t58 54.5l97 -59q-41 -63 -95 -88.5t-127 -25.5q-48 0 -91 15t-75.5 46.5t-51.5 78.5t-19 112q0 61 18.5 108t50.5 79t74.5 49t90.5 17q101 0 162.5 -70.5t63.5 -213.5h-329zM362 299q-4 48 -32.5 72t-60.5 24
q-17 0 -33.5 -6.5t-30.5 -19t-23.5 -30.5t-12.5 -40h193zM193 538l-36 54l201 141l63 -83z" />
    <glyph glyph-name="egrave" unicode="&#xe8;" horiz-adv-x="525" 
d="M166 210q5 -61 37.5 -88t72.5 -27q35 0 63 12.5t58 54.5l97 -59q-41 -63 -95 -88.5t-127 -25.5q-48 0 -91 15t-75.5 46.5t-51.5 78.5t-19 112q0 61 18.5 108t50.5 79t74.5 49t90.5 17q101 0 162.5 -70.5t63.5 -213.5h-329zM362 299q-4 48 -32.5 72t-60.5 24
q-17 0 -33.5 -6.5t-30.5 -19t-23.5 -30.5t-12.5 -40h193zM340 538l-229 112l63 83l201 -141z" />
    <glyph glyph-name="ecircumflex" unicode="&#xea;" horiz-adv-x="525" 
d="M166 210q5 -61 37.5 -88t72.5 -27q35 0 63 12.5t58 54.5l97 -59q-41 -63 -95 -88.5t-127 -25.5q-48 0 -91 15t-75.5 46.5t-51.5 78.5t-19 112q0 61 18.5 108t50.5 79t74.5 49t90.5 17q101 0 162.5 -70.5t63.5 -213.5h-329zM362 299q-4 48 -32.5 72t-60.5 24
q-17 0 -33.5 -6.5t-30.5 -19t-23.5 -30.5t-12.5 -40h193zM364 545l-101 96l-101 -97l-67 45l121 130h96l121 -132z" />
    <glyph glyph-name="edieresis" unicode="&#xeb;" horiz-adv-x="525" 
d="M166 210q5 -61 37.5 -88t72.5 -27q35 0 63 12.5t58 54.5l97 -59q-41 -63 -95 -88.5t-127 -25.5q-48 0 -91 15t-75.5 46.5t-51.5 78.5t-19 112q0 61 18.5 108t50.5 79t74.5 49t90.5 17q101 0 162.5 -70.5t63.5 -213.5h-329zM362 299q-4 48 -32.5 72t-60.5 24
q-17 0 -33.5 -6.5t-30.5 -19t-23.5 -30.5t-12.5 -40h193zM429 631q0 -28 -18 -49.5t-47 -21.5q-28 0 -46.5 21.5t-18.5 49.5q0 29 18.5 50t46.5 21q29 0 47 -21t18 -50zM241 631q0 -28 -18.5 -49.5t-46.5 -21.5q-29 0 -47 21.5t-18 49.5q0 29 18 50t47 21q28 0 46.5 -21
t18.5 -50z" />
    <glyph glyph-name="iacute" unicode="&#xed;" horiz-adv-x="261" 
d="M65 0v477h131v-477h-131zM71 538l-36 54l201 141l63 -83z" />
    <glyph glyph-name="igrave" unicode="&#xec;" horiz-adv-x="261" 
d="M65 0v477h131v-477h-131zM190 538l-229 112l63 83l201 -141z" />
    <glyph glyph-name="icircumflex" unicode="&#xee;" horiz-adv-x="261" 
d="M65 0v477h131v-477h-131zM231 545l-101 96l-101 -97l-67 45l121 130h96l121 -132z" />
    <glyph glyph-name="idieresis" unicode="&#xef;" horiz-adv-x="261" 
d="M65 0v477h131v-477h-131zM289 631q0 -28 -18 -49.5t-47 -21.5q-28 0 -46.5 21.5t-18.5 49.5q0 29 18.5 50t46.5 21q29 0 47 -21t18 -50zM101 631q0 -28 -18.5 -49.5t-46.5 -21.5q-29 0 -47 21.5t-18 49.5q0 29 18 50t47 21q28 0 46.5 -21t18.5 -50z" />
    <glyph glyph-name="ntilde" unicode="&#xf1;" horiz-adv-x="581" 
d="M388 0v275q0 55 -24 85t-67 30q-30 0 -56 -15t-45 -33v-342h-131v482h119l6 -38q30 24 69 37t78 13q40 0 73.5 -11.5t57.5 -36.5t37.5 -65t13.5 -96v-285h-131zM481 662q-18 -54 -50 -85t-77 -31q-21 0 -40.5 9.5t-36.5 20.5t-31.5 19t-26.5 8q-11 0 -27.5 -11.5
t-33.5 -51.5l-69 36q17 51 49.5 83t77.5 32q20 0 39.5 -9t36.5 -20t32 -19.5t27 -8.5q10 0 27.5 11.5t34.5 51.5l68 -35v0z" />
    <glyph glyph-name="oacute" unicode="&#xf3;" horiz-adv-x="556" 
d="M521 243q0 -47 -15 -92.5t-45.5 -81.5t-76 -58t-106.5 -22t-106.5 22t-76 58t-45.5 81.5t-15 92.5t15 92t45.5 80.5t76 57t106.5 21.5t106.5 -21.5t76 -57t45.5 -80.5t15 -92zM393 243q0 30 -7.5 57t-22 46.5t-36 31t-49.5 11.5t-49.5 -11.5t-36 -31t-22 -46.5t-7.5 -57
q0 -31 7.5 -57.5t21.5 -46.5t35.5 -31.5t50.5 -11.5q28 0 49.5 11.5t36 31.5t22 46.5t7.5 57.5zM194 538l-36 54l201 141l63 -83z" />
    <glyph glyph-name="ograve" unicode="&#xf2;" horiz-adv-x="556" 
d="M521 243q0 -47 -15 -92.5t-45.5 -81.5t-76 -58t-106.5 -22t-106.5 22t-76 58t-45.5 81.5t-15 92.5t15 92t45.5 80.5t76 57t106.5 21.5t106.5 -21.5t76 -57t45.5 -80.5t15 -92zM393 243q0 30 -7.5 57t-22 46.5t-36 31t-49.5 11.5t-49.5 -11.5t-36 -31t-22 -46.5t-7.5 -57
q0 -31 7.5 -57.5t21.5 -46.5t35.5 -31.5t50.5 -11.5q28 0 49.5 11.5t36 31.5t22 46.5t7.5 57.5zM328 538l-229 112l63 83l201 -141z" />
    <glyph glyph-name="ocircumflex" unicode="&#xf4;" horiz-adv-x="556" 
d="M521 243q0 -47 -15 -92.5t-45.5 -81.5t-76 -58t-106.5 -22t-106.5 22t-76 58t-45.5 81.5t-15 92.5t15 92t45.5 80.5t76 57t106.5 21.5t106.5 -21.5t76 -57t45.5 -80.5t15 -92zM393 243q0 30 -7.5 57t-22 46.5t-36 31t-49.5 11.5t-49.5 -11.5t-36 -31t-22 -46.5t-7.5 -57
q0 -31 7.5 -57.5t21.5 -46.5t35.5 -31.5t50.5 -11.5q28 0 49.5 11.5t36 31.5t22 46.5t7.5 57.5zM374 545l-101 96l-101 -97l-67 45l121 130h96l121 -132z" />
    <glyph glyph-name="odieresis" unicode="&#xf6;" horiz-adv-x="556" 
d="M521 243q0 -47 -15 -92.5t-45.5 -81.5t-76 -58t-106.5 -22t-106.5 22t-76 58t-45.5 81.5t-15 92.5t15 92t45.5 80.5t76 57t106.5 21.5t106.5 -21.5t76 -57t45.5 -80.5t15 -92zM393 243q0 30 -7.5 57t-22 46.5t-36 31t-49.5 11.5t-49.5 -11.5t-36 -31t-22 -46.5t-7.5 -57
q0 -31 7.5 -57.5t21.5 -46.5t35.5 -31.5t50.5 -11.5q28 0 49.5 11.5t36 31.5t22 46.5t7.5 57.5zM433 631q0 -28 -18 -49.5t-47 -21.5q-28 0 -46.5 21.5t-18.5 49.5q0 29 18.5 50t46.5 21q29 0 47 -21t18 -50zM245 631q0 -28 -18.5 -49.5t-46.5 -21.5q-29 0 -47 21.5
t-18 49.5q0 29 18 50t47 21q28 0 46.5 -21t18.5 -50z" />
    <glyph glyph-name="otilde" unicode="&#xf5;" horiz-adv-x="556" 
d="M521 243q0 -47 -15 -92.5t-45.5 -81.5t-76 -58t-106.5 -22t-106.5 22t-76 58t-45.5 81.5t-15 92.5t15 92t45.5 80.5t76 57t106.5 21.5t106.5 -21.5t76 -57t45.5 -80.5t15 -92zM393 243q0 30 -7.5 57t-22 46.5t-36 31t-49.5 11.5t-49.5 -11.5t-36 -31t-22 -46.5t-7.5 -57
q0 -31 7.5 -57.5t21.5 -46.5t35.5 -31.5t50.5 -11.5q28 0 49.5 11.5t36 31.5t22 46.5t7.5 57.5zM457 662q-18 -54 -50 -85t-77 -31q-21 0 -40.5 9.5t-36.5 20.5t-31.5 19t-26.5 8q-11 0 -27.5 -11.5t-33.5 -51.5l-69 36q17 51 49.5 83t77.5 32q20 0 39.5 -9t36.5 -20
t32 -19.5t27 -8.5q10 0 27.5 11.5t34.5 51.5l68 -35v0z" />
    <glyph glyph-name="uacute" unicode="&#xfa;" horiz-adv-x="579" 
d="M394 0l-5 38q-35 -28 -72 -38t-73 -10q-88 0 -135 51t-47 154v287h131v-274q0 -50 19 -81t65 -31q38 0 64 14.5t42 27.5v344h131v-482h-120zM233 538l-36 54l201 141l63 -83z" />
    <glyph glyph-name="ugrave" unicode="&#xf9;" horiz-adv-x="579" 
d="M394 0l-5 38q-35 -28 -72 -38t-73 -10q-88 0 -135 51t-47 154v287h131v-274q0 -50 19 -81t65 -31q38 0 64 14.5t42 27.5v344h131v-482h-120zM332 538l-229 112l63 83l201 -141z" />
    <glyph glyph-name="ucircumflex" unicode="&#xfb;" horiz-adv-x="579" 
d="M394 0l-5 38q-35 -28 -72 -38t-73 -10q-88 0 -135 51t-47 154v287h131v-274q0 -50 19 -81t65 -31q38 0 64 14.5t42 27.5v344h131v-482h-120zM387 545l-101 96l-101 -97l-67 45l121 130h96l121 -132z" />
    <glyph glyph-name="udieresis" unicode="&#xfc;" horiz-adv-x="579" 
d="M394 0l-5 38q-35 -28 -72 -38t-73 -10q-88 0 -135 51t-47 154v287h131v-274q0 -50 19 -81t65 -31q38 0 64 14.5t42 27.5v344h131v-482h-120zM448 631q0 -28 -18 -49.5t-47 -21.5q-28 0 -46.5 21.5t-18.5 49.5q0 29 18.5 50t46.5 21q29 0 47 -21t18 -50zM260 631
q0 -28 -18.5 -49.5t-46.5 -21.5q-29 0 -47 21.5t-18 49.5q0 29 18 50t47 21q28 0 46.5 -21t18.5 -50z" />
    <glyph glyph-name="dagger" unicode="&#x2020;" horiz-adv-x="481" 
d="M304 338v-484h-125v484h-139v118h139v211h125v-211h137v-118h-137z" />
    <glyph glyph-name="degree" unicode="&#xb0;" horiz-adv-x="396" 
d="M356 517q0 -36 -14 -64t-36.5 -46.5t-50.5 -28.5t-56 -10q-29 0 -57 10t-51 29t-37 47t-14 64t14 64t36.5 46.5t51 28.5t56.5 10t56.5 -10t51 -29t36.5 -47t14 -64zM252 517q0 32 -17 47.5t-37 15.5t-37 -15.5t-17 -47.5q0 -31 17 -46.5t37 -15.5t37 15.5t17 46.5z" />
    <glyph glyph-name="cent" unicode="&#xa2;" 
d="M405 391q-25 17 -50 29t-55 12q-26 0 -44 -9t-29 -23.5t-16 -32.5t-5 -37q0 -17 5.5 -34t17.5 -31t30.5 -23t44.5 -10q11 0 21 1t22 4.5t26 9.5t33 15l42 -89q-33 -19 -60.5 -27.5t-52.5 -11.5v-145h-84v147q-42 7 -73.5 26t-52.5 46t-31.5 58.5t-10.5 64.5q0 34 10 67
t31 60t52.5 45.5t74.5 24.5v139h84v-138q35 -2 68.5 -17t54.5 -32z" />
    <glyph glyph-name="sterling" unicode="&#xa3;" 
d="M393 487q-20 43 -41 56t-42 13q-13 0 -26.5 -5t-25 -17t-19 -32t-7.5 -49v-98h199v-109h-199v-125h273v-121h-401v246h-70v109h70v104q0 52 16.5 92t44.5 67.5t65.5 41.5t79.5 14q67 0 120 -32t80 -100z" />
    <glyph glyph-name="section" unicode="&#xa7;" horiz-adv-x="467" 
d="M338 533q-17 18 -39.5 30.5t-47.5 12.5q-14 0 -25.5 -10t-11.5 -25q0 -18 9 -32t23 -27t32.5 -26.5t37.5 -29.5q18 -16 35.5 -34t31 -39t22 -46.5t8.5 -55.5q0 -44 -24.5 -74.5t-57.5 -47.5q28 -23 46.5 -52.5t18.5 -74.5q0 -36 -15 -63t-40 -45.5t-56 -28t-63 -9.5
q-57 0 -99 21t-77 60l72 78q45 -55 99 -55q29 0 41 14t12 31q0 16 -9 29.5t-23 26.5t-33 26t-38 27q-20 14 -39.5 30.5t-34.5 37t-24.5 45.5t-9.5 57q0 46 28.5 80t70.5 51q-31 28 -48 58.5t-17 70.5q0 65 44 100.5t116 35.5q48 0 87 -17t74 -58zM294 250q0 21 -15 46
t-57 57q-24 -11 -32.5 -31.5t-8.5 -37.5q0 -24 18 -46t63 -52q20 10 26 28.5t6 35.5z" />
    <glyph glyph-name="bullet" unicode="&#x2022;" horiz-adv-x="514" 
d="M464 385q0 -42 -16.5 -79.5t-44.5 -65.5t-66 -44.5t-80 -16.5t-80 16.5t-66 44.5t-44.5 65.5t-16.5 79.5t16.5 79.5t44.5 65.5t66 44.5t80 16.5t80 -16.5t66 -44.5t44.5 -65.5t16.5 -79.5z" />
    <glyph glyph-name="paragraph" unicode="&#xb6;" horiz-adv-x="530" 
d="M355 -145v812h109v-812h-109zM200 -145v397q-41 4 -75 22.5t-58 46t-37.5 63t-13.5 74.5q0 42 15.5 79.5t43.5 66.5t67 46t85 17h80v-812h-107z" />
    <glyph glyph-name="germandbls" unicode="&#xdf;" horiz-adv-x="606" 
d="M586 145q0 -36 -13.5 -65t-36 -49t-52.5 -31t-62 -11q-52 0 -97.5 23t-71.5 81l108 52q11 -27 28 -38.5t32 -11.5q17 0 28 11t11 31q0 18 -10.5 31.5t-27 25t-36.5 22t-40 22.5q-27 17 -48 44.5t-21 77.5q0 26 8.5 50.5t25.5 44t42 31.5t59 13q-3 21 -13 35.5t-23.5 23
t-29 12.5t-29.5 4q-16 0 -33.5 -5.5t-32.5 -19t-25 -35.5t-10 -55v-459h-131v382h-69v100h70q1 50 20.5 87.5t52 62t73.5 36.5t84 12q42 0 82 -12t71 -36.5t49.5 -61t18.5 -85.5v-86h-86q-18 0 -32 -8.5t-14 -25.5q0 -11 8.5 -21t22.5 -19.5t32.5 -19.5t38.5 -22
q16 -9 30 -21.5t25 -29t17.5 -38t6.5 -49.5z" />
    <glyph glyph-name="registered" unicode="&#xae;" horiz-adv-x="776" 
d="M731 297q0 -70 -21.5 -137.5t-64.5 -120t-107.5 -84.5t-149.5 -32t-149.5 32t-107.5 84.5t-64.5 120t-21.5 137.5t21.5 136.5t65 119t107.5 84.5t150 32q85 0 149 -32t107 -84.5t64.5 -119t21.5 -136.5zM647 297q0 56 -16.5 109t-49 94t-81 65.5t-111.5 24.5
q-64 0 -112.5 -24.5t-81.5 -65.5t-49.5 -94t-16.5 -109q0 -57 16.5 -110t49.5 -94t81.5 -65.5t112.5 -24.5q63 0 111 24.5t81 65.5t49.5 94t16.5 110zM461 102l-77 147h-46v-147h-93v406h152q81 0 120 -32.5t39 -95.5q0 -50 -23 -79t-58 -41l85 -158h-99zM460 383
q0 24 -14.5 32t-51.5 8h-56v-89h52q38 0 54 10t16 39z" />
    <glyph glyph-name="copyright" unicode="&#xa9;" horiz-adv-x="775" 
d="M731 297q0 -70 -21.5 -137.5t-64.5 -120t-107.5 -84.5t-149.5 -32q-86 0 -150 32t-107.5 84.5t-65 120t-21.5 137.5t21.5 136.5t65 119t107.5 84.5t150 32q85 0 149.5 -32t107.5 -84.5t64.5 -119t21.5 -136.5zM646 297q0 56 -16.5 109t-49 94t-81 65.5t-111.5 24.5
q-64 0 -112.5 -24.5t-81 -65.5t-49 -94t-16.5 -109q0 -57 16.5 -110t49.5 -94t81.5 -65.5t111.5 -24.5t111.5 24.5t81 65.5t49 94t16.5 110zM565 167q-32 -57 -73 -78.5t-96 -21.5q-45 0 -82.5 15.5t-64.5 45t-41.5 71.5t-14.5 96q0 58 16.5 101.5t44 72t63.5 42.5t75 14
q63 0 103.5 -26.5t65.5 -79.5l-84 -46q-15 31 -33.5 48.5t-49.5 17.5q-19 0 -37 -8.5t-31.5 -26.5t-22 -45t-8.5 -64q0 -66 30.5 -103.5t73.5 -37.5q23 0 43 12t41 50z" />
    <glyph glyph-name="trademark" unicode="&#x2122;" horiz-adv-x="657" 
d="M526 380v168l-67 -170h-15l-74 167v-165h-75v287h92l64 -144l59 144h91v-287h-75zM176 588v-208h-77v208h-80v79h237v-79h-80z" />
    <glyph glyph-name="acute" unicode="&#xb4;" horiz-adv-x="442" 
d="M125 538l-36 54l201 141l63 -83z" />
    <glyph glyph-name="dieresis" unicode="&#xa8;" horiz-adv-x="442" 
d="M380 631q0 -28 -18 -49.5t-47 -21.5q-28 0 -46.5 21.5t-18.5 49.5q0 29 18.5 50t46.5 21q29 0 47 -21t18 -50zM192 631q0 -28 -18.5 -49.5t-46.5 -21.5q-29 0 -47 21.5t-18 49.5q0 29 18 50t47 21q28 0 46.5 -21t18.5 -50z" />
    <glyph glyph-name="notequal" unicode="&#x2260;" 
d="M192 155l-80 -93l-73 58l30 35h-46v110h139l90 105h-229v110h322l82 96l76 -60l-31 -36h44v-110h-139l-90 -105h229v-110h-324z" />
    <glyph glyph-name="AE" unicode="&#xc6;" horiz-adv-x="923" 
d="M463 0v176h-204l-107 -176h-152l406 667h466v-121h-274v-151h217v-120h-217v-154h297v-121h-432zM463 529l-142 -239h142v239z" />
    <glyph glyph-name="Oslash" unicode="&#xd8;" horiz-adv-x="707" 
d="M607 536q28 -45 41.5 -98t13.5 -104q0 -64 -19 -126.5t-58 -111.5t-97 -79t-136 -30q-101 0 -174 55l-61 -71l-85 73l70 80q-29 46 -43 100t-14 110q0 64 19 126t57 111t96 79t135 30q56 0 101 -15.5t81 -42.5l63 73l86 -72zM451 527q-20 17 -44.5 26.5t-54.5 9.5
q-42 0 -73.5 -19t-53.5 -51t-33 -73.5t-11 -85.5q0 -55 16 -100zM525 334q0 21 -4 48.5t-9 47.5l-255 -294q17 -12 43.5 -21.5t51.5 -9.5q42 0 74.5 19t54.5 51t33 73.5t11 85.5z" />
    <glyph glyph-name="plusminus" unicode="&#xb1;" 
d="M325 356v-198h-109v198h-192v110h192v201h109v-201h192v-110h-192zM24 0v110h493v-110h-493z" />
    <glyph glyph-name="lessequal" unicode="&#x2264;" 
d="M491 129l-468 162v83l454 153l39 -108l-263 -85l273 -94zM24 0v110h493v-110h-493z" />
    <glyph glyph-name="greaterequal" unicode="&#x2265;" 
d="M49 129l-35 111l273 94l-263 85l39 108l454 -153v-83zM23 0v110h493v-110h-493z" />
    <glyph glyph-name="yen" unicode="&#xa5;" 
d="M381 345h113v-108h-154v-237h-135v237h-156v108h113l-181 317h150l145 -262l137 262h146z" />
    <glyph glyph-name="partialdiff" unicode="&#x2202;" horiz-adv-x="569" 
d="M531 259q0 -58 -17.5 -107.5t-49.5 -85.5t-78 -56t-103 -20q-53 0 -97.5 17.5t-77 49.5t-51 78.5t-18.5 104.5q0 51 14.5 96.5t42 79.5t67.5 53.5t92 19.5q26 0 48.5 -5.5t45.5 -19.5q-32 47 -91.5 82t-128.5 46l17 85q43 -5 88 -17.5t87.5 -34.5t80.5 -54t67 -77
t45.5 -103t16.5 -132zM396 255q0 29 -6.5 57t-14.5 47q-18 11 -42 18t-52 7q-51 0 -83 -35.5t-32 -107.5q0 -36 9.5 -63t25.5 -45.5t36.5 -27.5t42.5 -9q21 0 42 10.5t37.5 31t26.5 50t10 67.5z" />
    <glyph glyph-name="summation" unicode="&#x2211;" horiz-adv-x="538" 
d="M41 0v111l206 225l-207 219v112h464v-121h-289l200 -210l-203 -215h296v-121h-467z" />
    <glyph glyph-name="product" unicode="&#x220f;" horiz-adv-x="680" 
d="M580 546v-546h-135v546h-210v-546h-135v546h-75v121h630v-121h-75z" />
    <glyph glyph-name="pi" unicode="&#x3c0;" horiz-adv-x="737" 
d="M581 383v-246q0 -30 7.5 -39.5t27.5 -9.5q8 0 20.5 2t20.5 4l16 -90q-20 -7 -45.5 -11t-48.5 -4q-56 0 -89.5 31t-33.5 94v266h-135v-380h-131v379h-8q-8 0 -18.5 -1t-20.5 -5q-14 -5 -26.5 -17.5t-23.5 -26.5l-83 62q19 28 48.5 52.5t71.5 33.5q11 2 27.5 3.5t27.5 1.5
h502v-99h-106z" />
    <glyph glyph-name="integral" unicode="&#x222b;" horiz-adv-x="413" 
d="M394 569q-30 -2 -52.5 -8t-37.5 -19t-22.5 -34.5t-7.5 -54.5v-428q0 -112 -64 -163t-192 -53v105q30 2 52.5 8t37.5 19t22.5 34.5t7.5 54.5v428q0 112 64 163t192 53v-105v0z" />
    <glyph glyph-name="ordfeminine" unicode="&#xaa;" horiz-adv-x="371" 
d="M251 302l-4 26q-41 -33 -92 -33q-24 0 -46.5 7.5t-40 22t-28 35t-10.5 47.5q0 39 22.5 63t54.5 37t68.5 18t65.5 7v10q0 20 -14 33t-34 13q-13 0 -32 -6.5t-36 -25.5l-68 47q15 19 33 30.5t37 18.5t37.5 9.5t34.5 2.5q62 0 102 -32t40 -105v-225h-90zM242 462
q-14 -2 -29.5 -4t-29.5 -5q-30 -6 -43 -19t-13 -26q0 -14 13 -25t38 -11q20 0 36 9.5t28 20.5v60z" />
    <glyph glyph-name="ordmasculine" unicode="&#xba;" horiz-adv-x="413" 
d="M383 480q0 -34 -11 -67t-33 -59.5t-55 -42.5t-78 -16t-78 16t-55 42.5t-32.5 59.5t-10.5 67t11 67t33 59t55 42t77 16t77.5 -16t55.5 -42t33 -59t11 -67zM278 480q0 41 -17.5 70t-53.5 29q-37 0 -54.5 -29t-17.5 -70q0 -40 17.5 -68.5t53.5 -28.5q37 0 54.5 28.5
t17.5 68.5z" />
    <glyph glyph-name="Omega" unicode="&#x2126;" horiz-adv-x="737" 
d="M424 0l-1 114q22 16 44 37.5t40 50.5t29 66t11 84q0 103 -49 157t-129 54q-81 0 -130 -54t-49 -157q0 -45 12 -82.5t30 -67t39.5 -51.5t41.5 -37v-114h-251v120h95q-43 38 -74 101t-31 150q0 69 23 126.5t65 98t101 63t131 22.5q73 0 131 -22t98.5 -62.5t62 -97
t21.5 -125.5q0 -42 -10 -81t-26 -72t-36.5 -59t-42.5 -42h105v-120h-251z" />
    <glyph glyph-name="ae" unicode="&#xe6;" horiz-adv-x="795" 
d="M451 210q1 -29 10 -50.5t24 -35.5t34.5 -21t40.5 -7q34 0 61.5 13.5t49.5 48.5l92 -55q-74 -114 -201 -114q-60 0 -102.5 19t-68.5 52q-31 -34 -71.5 -52.5t-108.5 -18.5q-36 0 -68 10t-56 30t-38.5 49.5t-14.5 69.5q0 49 28 80t70.5 49t92.5 25.5t94 9.5v24
q0 28 -19.5 43t-52.5 15q-26 0 -50.5 -14.5t-40.5 -31.5l-82 69q28 34 72.5 55.5t104.5 21.5q101 0 149 -61q23 27 58 44t95 17q94 0 152 -70.5t60 -213.5h-314zM633 300q-2 41 -25 67.5t-60 26.5q-40 0 -64 -26.5t-31 -67.5h180zM320 218q-32 -1 -60 -5t-49.5 -13
t-34 -22.5t-12.5 -33.5q0 -26 17 -40t47 -14q15 0 31 4.5t29.5 14t22.5 23.5t9 32v54z" />
    <glyph glyph-name="oslash" unicode="&#xf8;" horiz-adv-x="556" 
d="M521 243q0 -47 -15 -92.5t-45.5 -81.5t-76 -58t-106.5 -22q-55 0 -101 19l-41 -61l-69 47l41 61q-37 37 -55 86.5t-18 101.5q0 47 15 92t45.5 80.5t76 57t106.5 21.5q32 0 59 -6t50 -17l38 56l69 -47l-39 -58q33 -36 49.5 -82.5t16.5 -96.5zM394 243q0 19 -3 37.5
t-7 33.5l-143 -215q15 -5 37 -5q28 0 49.5 11.5t36.5 32t22.5 47.5t7.5 58zM328 381q-11 5 -23.5 7.5t-26.5 2.5q-28 0 -49.5 -11.5t-36.5 -32t-22.5 -47.5t-7.5 -57q0 -49 15 -85l150 223h1z" />
    <glyph glyph-name="questiondown" unicode="&#xbf;" horiz-adv-x="422" 
d="M303 413q0 -32 -23 -56.5t-59 -24.5t-58.5 24.5t-22.5 56.5t22.5 56.5t58.5 24.5t59 -24.5t23 -56.5zM434 -73q-36 -55 -90 -90t-133 -35q-100 0 -152.5 50t-52.5 135q0 24 7.5 45t19.5 40t27 35.5t30 32.5q27 27 47.5 53t20.5 55v24h126v-42q0 -20 -6.5 -39t-16 -35.5
t-21 -30.5t-21.5 -24q-15 -15 -29.5 -28t-26 -27t-18.5 -29t-7 -34q0 -35 21 -54t59 -19q29 0 58.5 16.5t61.5 64.5z" />
    <glyph glyph-name="exclamdown" unicode="&#xa1;" horiz-adv-x="241" 
d="M202 413q0 -16 -6 -30.5t-17 -26t-25.5 -18t-32.5 -6.5q-36 0 -59 24.5t-23 56.5t23 56.5t59 24.5q18 0 32.5 -7t25.5 -18t17 -25.5t6 -30.5zM56 -185v457h132v-457h-132z" />
    <glyph glyph-name="logicalnot" unicode="&#xac;" 
d="M400 146v260h-379v109h493v-369h-114z" />
    <glyph glyph-name="radical" unicode="&#x221a;" 
d="M324 0h-90l-125 243h-73v104h142l89 -172l182 565l110 -33z" />
    <glyph glyph-name="florin" unicode="&#x192;" 
d="M321 337l-57 -236q-14 -58 -36 -102t-56 -73.5t-83 -45t-116 -16.5v116q56 2 96.5 26.5t54.5 81.5l62 249h-85v114h113q15 70 43.5 114t66.5 68t83 32.5t92 8.5v-115q-35 0 -59 -5.5t-41 -18t-28.5 -33.5t-20.5 -51h149v-114h-178z" />
    <glyph glyph-name="approxequal" unicode="&#x2248;" 
d="M537 405q-35 -26 -74 -41.5t-80 -15.5q-29 0 -57 6t-55.5 13t-55.5 13t-57 6q-23 0 -45.5 -8.5t-57.5 -28.5l-52 98q37 24 75.5 39t76.5 15q30 0 58 -6t56 -13t55.5 -13t56.5 -6q23 0 45.5 8.5t57.5 29.5zM537 190q-35 -26 -74 -41.5t-80 -15.5q-29 0 -57 6t-55.5 13
t-55.5 13t-57 6q-23 0 -45.5 -8.5t-57.5 -28.5l-52 98q37 24 75.5 39t76.5 15q30 0 58 -6t56 -13t55.5 -13t56.5 -6q23 0 45.5 8.5t57.5 29.5z" />
    <glyph glyph-name="Delta" unicode="&#x2206;" horiz-adv-x="665" 
d="M30 0v66l250 601h102l253 -601v-66h-605zM327 494l-143 -384h294z" />
    <glyph glyph-name="guillemotleft" unicode="&#xab;" horiz-adv-x="574" 
d="M470 45l-227 205l207 212l86 -68l-143 -138l157 -135zM242 45l-227 205l207 212l86 -68l-143 -138l157 -135z" />
    <glyph glyph-name="guillemotright" unicode="&#xbb;" horiz-adv-x="574" 
d="M331 45l-79 76l157 135l-143 138l86 68l207 -212zM104 45l-80 76l157 135l-143 138l86 68l207 -212z" />
    <glyph glyph-name="ellipsis" unicode="&#x2026;" horiz-adv-x="686" 
d="M648 61q0 -27 -17.5 -49.5t-54.5 -22.5q-38 0 -55.5 22.5t-17.5 49.5q0 28 18 50.5t55 22.5t54.5 -22.5t17.5 -50.5zM416 61q0 -27 -17.5 -49.5t-54.5 -22.5q-38 0 -56 22.5t-18 49.5q0 28 18 50.5t56 22.5q36 0 54 -22.5t18 -50.5zM184 61q0 -27 -17.5 -49.5
t-54.5 -22.5q-38 0 -56 22.5t-18 49.5q0 28 18 50.5t56 22.5q36 0 54 -22.5t18 -50.5z" />
    <glyph glyph-name="Agrave" unicode="&#xc0;" horiz-adv-x="648" 
d="M502 0l-54 134h-257l-55 -134h-136l274 667h95l278 -667h-145zM318 466l-86 -219h172zM371 704l-229 112l63 83l201 -141z" />
    <glyph glyph-name="Atilde" unicode="&#xc3;" horiz-adv-x="648" 
d="M502 0l-54 134h-257l-55 -134h-136l274 667h95l278 -667h-145zM318 466l-86 -219h172zM505 828q-18 -54 -50 -85t-77 -31q-21 0 -40.5 9.5t-36.5 20.5t-31.5 19t-26.5 8q-11 0 -27.5 -11.5t-33.5 -51.5l-69 36q17 51 49.5 83t77.5 32q20 0 39.5 -9t36.5 -20t32 -19.5
t27 -8.5q10 0 27.5 11.5t34.5 51.5l68 -35v0z" />
    <glyph glyph-name="Otilde" unicode="&#xd5;" horiz-adv-x="707" 
d="M662 334q0 -64 -19 -126.5t-58 -111.5t-97 -79.5t-136 -30.5q-77 0 -135 30.5t-96 79.5t-57 111.5t-19 126.5t19 126.5t57 111.5t96 79t135 30q78 0 136 -30t97 -79t58 -111.5t19 -126.5zM525 334q0 44 -11 85.5t-33 73.5t-54.5 51t-74.5 19t-73.5 -19t-53.5 -51
t-33 -73.5t-11 -85.5t11 -85.5t33 -73.5t53.5 -51t73.5 -19t74.5 19t54.5 51t33 73.5t11 85.5zM542 828q-18 -54 -50 -85t-77 -31q-21 0 -40.5 9.5t-36.5 20.5t-31.5 19t-26.5 8q-11 0 -27.5 -11.5t-33.5 -51.5l-69 36q17 51 49.5 83t77.5 32q20 0 39.5 -9t36.5 -20
t32 -19.5t27 -8.5q10 0 27.5 11.5t34.5 51.5l68 -35v0z" />
    <glyph glyph-name="OE" unicode="&#x152;" horiz-adv-x="946" 
d="M389 0q-75 0 -138 24t-108.5 67.5t-71.5 105t-26 137.5q0 78 26 139.5t71.5 104.5t108.5 66t138 23h506v-121h-301v-152h245v-121h-245v-152h324v-121h-529zM459 546h-77q-42 0 -79 -14.5t-64 -42t-42.5 -67t-15.5 -88.5q0 -47 16 -86t43 -67.5t63.5 -44t78.5 -15.5h77
v425z" />
    <glyph glyph-name="oe" unicode="&#x153;" horiz-adv-x="844" 
d="M499 210q7 -61 36 -87.5t74 -26.5q26 0 52 12t55 55l97 -59q-39 -64 -93.5 -89.5t-108.5 -25.5q-110 0 -177 71q-33 -35 -73.5 -53t-94.5 -18q-51 0 -93.5 19t-73 52.5t-47.5 80t-17 101.5t17 101.5t48 80t74 52t94 18.5q66 0 103.5 -19t61.5 -51q13 16 28 29t33.5 22
t42 14t54.5 5q59 0 101 -21.5t69 -59.5t40 -90t13 -113h-315zM683 300q-1 15 -6.5 31.5t-16 31t-27.5 23.5t-40 9q-20 0 -36.5 -8.5t-28.5 -22.5t-19.5 -31t-8.5 -33h183zM368 245q0 38 -9 65t-23.5 44.5t-32.5 26t-37 8.5t-37 -8.5t-32.5 -26t-23.5 -45t-9 -66.5t9 -67
t23 -46t32.5 -26.5t37.5 -8.5q28 0 47.5 13t31.5 34t17.5 48t5.5 55z" />
    <glyph glyph-name="endash" unicode="&#x2013;" horiz-adv-x="553" 
d="M0 204v94h553v-94h-553z" />
    <glyph glyph-name="emdash" unicode="&#x2014;" horiz-adv-x="1106" 
d="M0 204v94h1106v-94h-1106z" />
    <glyph glyph-name="quotedblleft" unicode="&#x201c;" horiz-adv-x="420" 
d="M420 615q-23 -5 -44.5 -17t-31.5 -24q14 -10 22 -28t8 -38q0 -30 -18 -55.5t-54 -25.5q-32 0 -53 23t-21 56q0 21 10 44.5t31 45.5t54 40.5t80 30.5zM230 615q-23 -5 -44.5 -17t-31.5 -24q13 -10 21.5 -28t8.5 -38q0 -30 -18 -55.5t-54 -25.5q-32 0 -53 23t-21 56
q0 21 10 44.5t31 45.5t54 40.5t80 30.5z" />
    <glyph glyph-name="quotedblright" unicode="&#x201d;" horiz-adv-x="420" 
d="M382 588q0 -21 -10 -44.5t-31 -45.5t-54 -40.5t-80 -30.5l-17 52q23 5 44.5 17t31.5 24q-13 10 -21.5 28t-8.5 38q0 30 18 55.5t54 25.5q32 0 53 -23t21 -56zM192 588q0 -21 -10 -44.5t-31 -45.5t-54.5 -40.5t-79.5 -30.5l-17 52q23 5 44.5 17t31.5 24q-14 10 -22 28
t-8 38q0 30 18 55.5t54 25.5q32 0 53 -23t21 -56z" />
    <glyph glyph-name="quoteleft" unicode="&#x2018;" horiz-adv-x="230" 
d="M230 615q-23 -5 -44.5 -17t-31.5 -24q13 -10 21.5 -28t8.5 -38q0 -30 -18 -55.5t-54 -25.5q-32 0 -53 23t-21 56q0 21 10 44.5t31 45.5t54 40.5t80 30.5z" />
    <glyph glyph-name="quoteright" unicode="&#x2019;" horiz-adv-x="230" 
d="M192 588q0 -21 -10 -44.5t-31 -45.5t-54.5 -40.5t-79.5 -30.5l-17 52q23 5 44.5 17t31.5 24q-14 10 -22 28t-8 38q0 30 18 55.5t54 25.5q32 0 53 -23t21 -56z" />
    <glyph glyph-name="divide" unicode="&#xf7;" 
d="M351 522q0 -31 -22.5 -55t-57.5 -24q-18 0 -32.5 6.5t-25.5 17.5t-17 25.5t-6 29.5t6 29.5t17 25.5t25.5 17.5t32.5 6.5q35 0 57.5 -24t22.5 -55zM23 275v110h493v-110h-493zM351 151q0 -32 -22.5 -55.5t-57.5 -23.5t-58 23.5t-23 55.5q0 31 23 54.5t58 23.5t57.5 -23.5
t22.5 -54.5z" />
    <glyph glyph-name="ydieresis" unicode="&#xff;" horiz-adv-x="517" 
d="M267 -114q-11 -25 -26 -42t-33 -27t-38.5 -14t-40.5 -4q-26 0 -57.5 6.5t-64.5 20.5l41 93q19 -9 37.5 -13t31.5 -4q12 0 24 7t22 28l37 83l-200 462h139l126 -329l120 329h132zM421 631q0 -28 -18 -49.5t-47 -21.5q-28 0 -46.5 21.5t-18.5 49.5q0 29 18.5 50t46.5 21
q29 0 47 -21t18 -50zM233 631q0 -28 -18.5 -49.5t-46.5 -21.5q-29 0 -47 21.5t-18 49.5q0 29 18 50t47 21q28 0 46.5 -21t18.5 -50z" />
    <glyph glyph-name="Ydieresis" unicode="&#x178;" horiz-adv-x="581" 
d="M360 268v-268h-135v268l-225 399h150l145 -265l138 265h148zM455 797q0 -28 -18 -49.5t-47 -21.5q-28 0 -46.5 21.5t-18.5 49.5q0 29 18.5 50t46.5 21q29 0 47 -21t18 -50zM267 797q0 -28 -18.5 -49.5t-46.5 -21.5q-29 0 -47 21.5t-18 49.5q0 29 18 50t47 21
q28 0 46.5 -21t18.5 -50z" />
    <glyph glyph-name="fraction" unicode="&#x2044;" horiz-adv-x="221" 
d="M-187 -12l-65 70l655 610l68 -69z" />
    <glyph glyph-name="Euro" unicode="&#x20ac;" 
d="M542 130q-31 -67 -80 -104t-131 -37q-68 0 -114.5 24t-76.5 64.5t-44.5 93t-18.5 110.5h-63v113h64q5 57 22.5 108t48.5 89.5t75.5 60.5t104.5 22q80 0 130 -36t82 -114l-114 -44q-19 46 -43 61.5t-53 15.5q-25 0 -43.5 -13.5t-31.5 -36t-20 -52t-9 -61.5h145v-113h-146
q1 -36 8.5 -68.5t21 -56.5t33.5 -38t48 -14q31 0 55 17t52 67l98 -58v0z" />
    <glyph glyph-name="guilsinglleft" unicode="&#x2039;" horiz-adv-x="346" 
d="M242 45l-227 205l207 212l86 -68l-143 -138l157 -135z" />
    <glyph glyph-name="guilsinglright" unicode="&#x203a;" horiz-adv-x="346" 
d="M104 45l-80 76l157 135l-143 138l86 68l207 -212z" />
    <glyph glyph-name="daggerdbl" unicode="&#x2021;" horiz-adv-x="485" 
d="M305 70v-216h-125v216h-140v109h140v159h-139v118h139v211h125v-211h137v-118h-137v-159h140v-109h-140z" />
    <glyph glyph-name="periodcentered" unicode="&#xb7;" horiz-adv-x="326" 
d="M236 368q0 -27 -17.5 -49.5t-54.5 -22.5q-38 0 -56 22.5t-18 49.5q0 28 18 50.5t56 22.5q36 0 54 -22.5t18 -50.5z" />
    <glyph glyph-name="quotesinglbase" unicode="&#x201a;" horiz-adv-x="230" 
d="M192 55q0 -21 -10 -44.5t-31 -45t-54.5 -40.5t-79.5 -31l-17 52q23 5 44.5 17t31.5 24q-14 10 -22 28t-8 38q0 30 18 55.5t54 25.5q32 0 53 -23t21 -56z" />
    <glyph glyph-name="quotedblbase" unicode="&#x201e;" horiz-adv-x="420" 
d="M382 55q0 -21 -10 -44.5t-31 -45t-54 -40.5t-80 -31l-17 52q23 5 44.5 17t31.5 24q-13 10 -21.5 28t-8.5 38q0 30 18 55.5t54 25.5q32 0 53 -23t21 -56zM192 55q0 -21 -10 -44.5t-31 -45t-54.5 -40.5t-79.5 -31l-17 52q23 5 44.5 17t31.5 24q-14 10 -22 28t-8 38
q0 30 18 55.5t54 25.5q32 0 53 -23t21 -56z" />
    <glyph glyph-name="perthousand" unicode="&#x2030;" horiz-adv-x="1100" 
d="M1095 149q0 -30 -10.5 -58t-31.5 -50t-52.5 -35.5t-73.5 -13.5t-73.5 13.5t-52.5 35.5t-31.5 50t-10.5 57t10.5 57.5t31.5 50.5t52.5 35.5t73.5 13.5t73.5 -13.5t52.5 -35.5t31.5 -50t10.5 -57zM721 149q0 -30 -10.5 -58t-31.5 -50t-52.5 -35.5t-73.5 -13.5t-73.5 13.5
t-52.5 35.5t-31.5 50t-10.5 57t10.5 57.5t31.5 50.5t52.5 35.5t73.5 13.5t73.5 -13.5t52.5 -35.5t31.5 -50t10.5 -57zM343 519q0 -30 -10.5 -58t-31.5 -50t-52.5 -35.5t-73.5 -13.5t-73.5 13.5t-52.5 35.5t-31.5 50t-10.5 57q0 30 10.5 58t31.5 50t53 35.5t74 13.5
t73.5 -13.5t52 -35.5t31 -50t10.5 -57zM986 149q0 26 -15 48.5t-45 22.5q-31 0 -45.5 -22.5t-14.5 -48.5t14.5 -48.5t45.5 -22.5q30 0 45 22.5t15 48.5zM612 149q0 26 -15 48.5t-45 22.5q-31 0 -45.5 -22.5t-14.5 -48.5t14.5 -48.5t45.5 -22.5q30 0 45 22.5t15 48.5z
M234 520q0 26 -14.5 48.5t-45.5 22.5q-30 0 -45 -22.5t-15 -48.5t15 -49t45 -23q31 0 45.5 23t14.5 49zM71 -4l-65 70l655 610l68 -69z" />
    <glyph glyph-name="Acircumflex" unicode="&#xc2;" horiz-adv-x="648" 
d="M502 0l-54 134h-257l-55 -134h-136l274 667h95l278 -667h-145zM318 466l-86 -219h172zM418 711l-101 96l-101 -97l-67 45l121 130h96l121 -132z" />
    <glyph glyph-name="Ecircumflex" unicode="&#xca;" horiz-adv-x="586" 
d="M77 0v667h458v-121h-323v-152h267v-121h-267v-152h346v-121h-481zM404 711l-101 96l-101 -97l-67 45l121 130h96l121 -132z" />
    <glyph glyph-name="Aacute" unicode="&#xc1;" horiz-adv-x="648" 
d="M502 0l-54 134h-257l-55 -134h-136l274 667h95l278 -667h-145zM318 466l-86 -219h172zM248 704l-36 54l201 141l63 -83z" />
    <glyph glyph-name="Edieresis" unicode="&#xcb;" horiz-adv-x="586" 
d="M77 0v667h458v-121h-323v-152h267v-121h-267v-152h346v-121h-481zM466 797q0 -28 -18 -49.5t-47 -21.5q-28 0 -46.5 21.5t-18.5 49.5q0 29 18.5 50t46.5 21q29 0 47 -21t18 -50zM278 797q0 -28 -18.5 -49.5t-46.5 -21.5q-29 0 -47 21.5t-18 49.5q0 29 18 50t47 21
q28 0 46.5 -21t18.5 -50z" />
    <glyph glyph-name="Egrave" unicode="&#xc8;" horiz-adv-x="586" 
d="M77 0v667h458v-121h-323v-152h267v-121h-267v-152h346v-121h-481zM367 704l-229 112l63 83l201 -141z" />
    <glyph glyph-name="Iacute" unicode="&#xcd;" horiz-adv-x="289" 
d="M77 0v667h135v-667h-135zM84 704l-36 54l201 141l63 -83z" />
    <glyph glyph-name="Icircumflex" unicode="&#xce;" horiz-adv-x="289" 
d="M77 0v667h135v-667h-135zM244 711l-101 96l-101 -97l-67 45l121 130h96l121 -132z" />
    <glyph glyph-name="Idieresis" unicode="&#xcf;" horiz-adv-x="289" 
d="M77 0v667h135v-667h-135zM304 797q0 -28 -18 -49.5t-47 -21.5q-28 0 -46.5 21.5t-18.5 49.5q0 29 18.5 50t46.5 21q29 0 47 -21t18 -50zM116 797q0 -28 -18.5 -49.5t-46.5 -21.5q-29 0 -47 21.5t-18 49.5q0 29 18 50t47 21q28 0 46.5 -21t18.5 -50z" />
    <glyph glyph-name="Igrave" unicode="&#xcc;" horiz-adv-x="289" 
d="M77 0v667h135v-667h-135zM203 704l-229 112l63 83l201 -141z" />
    <glyph glyph-name="Oacute" unicode="&#xd3;" horiz-adv-x="707" 
d="M662 334q0 -64 -19 -126.5t-58 -111.5t-97 -79.5t-136 -30.5q-77 0 -135 30.5t-96 79.5t-57 111.5t-19 126.5t19 126.5t57 111.5t96 79t135 30q78 0 136 -30t97 -79t58 -111.5t19 -126.5zM525 334q0 44 -11 85.5t-33 73.5t-54.5 51t-74.5 19t-73.5 -19t-53.5 -51
t-33 -73.5t-11 -85.5t11 -85.5t33 -73.5t53.5 -51t73.5 -19t74.5 19t54.5 51t33 73.5t11 85.5zM279 704l-36 54l201 141l63 -83z" />
    <glyph glyph-name="Ocircumflex" unicode="&#xd4;" horiz-adv-x="707" 
d="M662 334q0 -64 -19 -126.5t-58 -111.5t-97 -79.5t-136 -30.5q-77 0 -135 30.5t-96 79.5t-57 111.5t-19 126.5t19 126.5t57 111.5t96 79t135 30q78 0 136 -30t97 -79t58 -111.5t19 -126.5zM525 334q0 44 -11 85.5t-33 73.5t-54.5 51t-74.5 19t-73.5 -19t-53.5 -51
t-33 -73.5t-11 -85.5t11 -85.5t33 -73.5t53.5 -51t73.5 -19t74.5 19t54.5 51t33 73.5t11 85.5zM455 711l-101 96l-101 -97l-67 45l121 130h96l121 -132z" />
    <glyph glyph-name="Ograve" unicode="&#xd2;" horiz-adv-x="707" 
d="M662 334q0 -64 -19 -126.5t-58 -111.5t-97 -79.5t-136 -30.5q-77 0 -135 30.5t-96 79.5t-57 111.5t-19 126.5t19 126.5t57 111.5t96 79t135 30q78 0 136 -30t97 -79t58 -111.5t19 -126.5zM525 334q0 44 -11 85.5t-33 73.5t-54.5 51t-74.5 19t-73.5 -19t-53.5 -51
t-33 -73.5t-11 -85.5t11 -85.5t33 -73.5t53.5 -51t73.5 -19t74.5 19t54.5 51t33 73.5t11 85.5zM399 704l-229 112l63 83l201 -141z" />
    <glyph glyph-name="Uacute" unicode="&#xda;" horiz-adv-x="687" 
d="M614 229q0 -57 -21 -102t-58 -76.5t-86 -48t-106 -16.5q-56 0 -105.5 16.5t-86 48t-57.5 76.5t-21 102v438h135v-425q0 -60 35 -98.5t101 -38.5t100.5 38.5t34.5 98.5v425h135v-438v0zM289 704l-36 54l201 141l63 -83z" />
    <glyph glyph-name="Ucircumflex" unicode="&#xdb;" horiz-adv-x="687" 
d="M614 229q0 -57 -21 -102t-58 -76.5t-86 -48t-106 -16.5q-56 0 -105.5 16.5t-86 48t-57.5 76.5t-21 102v438h135v-425q0 -60 35 -98.5t101 -38.5t100.5 38.5t34.5 98.5v425h135v-438v0zM446 711l-101 96l-101 -97l-67 45l121 130h96l121 -132z" />
    <glyph glyph-name="Ugrave" unicode="&#xd9;" horiz-adv-x="687" 
d="M614 229q0 -57 -21 -102t-58 -76.5t-86 -48t-106 -16.5q-56 0 -105.5 16.5t-86 48t-57.5 76.5t-21 102v438h135v-425q0 -60 35 -98.5t101 -38.5t100.5 38.5t34.5 98.5v425h135v-438v0zM369 704l-229 112l63 83l201 -141z" />
    <glyph glyph-name="dotlessi" unicode="&#x131;" horiz-adv-x="261" 
d="M65 0v477h131v-477h-131z" />
    <glyph glyph-name="circumflex" unicode="&#x2c6;" horiz-adv-x="442" 
d="M321 545l-101 96l-101 -97l-67 45l121 130h96l121 -132z" />
    <glyph glyph-name="tilde" unicode="&#x2dc;" horiz-adv-x="442" 
d="M417 662q-18 -54 -50 -85t-77 -31q-21 0 -40.5 9.5t-36.5 20.5t-31.5 19t-26.5 8q-11 0 -27.5 -11.5t-33.5 -51.5l-69 36q17 51 49.5 83t77.5 32q20 0 39.5 -9t36.5 -20t32 -19.5t27 -8.5q10 0 27.5 11.5t34.5 51.5l68 -35v0z" />
    <glyph glyph-name="macron" unicode="&#xaf;" horiz-adv-x="442" 
d="M40 578v89h363v-89h-363z" />
    <glyph glyph-name="breve" unicode="&#x2d8;" horiz-adv-x="442" 
d="M388 680q-1 -34 -16 -60t-38.5 -44t-53 -27.5t-59.5 -9.5q-33 0 -62.5 9t-52.5 26.5t-37.5 44t-15.5 61.5h103q6 -28 22 -44.5t43 -16.5t44 16.5t23 44.5h100v0z" />
    <glyph glyph-name="dotaccent" unicode="&#x2d9;" horiz-adv-x="442" 
d="M292 631q0 -31 -20 -54t-51 -23q-30 0 -50 23t-20 54t20 54t50 23q31 0 51 -23t20 -54z" />
    <glyph glyph-name="ring" unicode="&#x2da;" horiz-adv-x="442" 
d="M326 638q0 -20 -6.5 -39.5t-19.5 -35t-33 -25t-46 -9.5t-45.5 9.5t-32.5 24.5t-19.5 34.5t-6.5 39.5t6.5 39.5t19.5 35t32.5 25t45.5 9.5t46 -9.5t33 -24.5t19.5 -34.5t6.5 -39.5zM261 638q0 20 -10.5 33t-29.5 13q-18 0 -28.5 -13t-10.5 -33t10.5 -33t28.5 -13
q19 0 29.5 13t10.5 33z" />
    <glyph glyph-name="cedilla" unicode="&#xb8;" horiz-adv-x="442" 
d="M227 -181h-92l62 137h116z" />
    <glyph glyph-name="hungarumlaut" unicode="&#x2dd;" horiz-adv-x="442" 
d="M239 541l-40 43l163 151l66 -72zM54 541l-39 43l164 151l64 -72z" />
    <glyph glyph-name="ogonek" unicode="&#x2db;" horiz-adv-x="442" 
d="M221 -106q11 0 21 3t15 6l24 -67q-20 -11 -38.5 -14.5t-38.5 -3.5q-50 0 -76.5 22t-26.5 62q0 19 7.5 37.5t20 34.5t29.5 28.5t37 18.5l69 -10q-29 -17 -48 -42.5t-19 -47.5q0 -13 5 -20t19 -7z" />
    <glyph glyph-name="caron" unicode="&#x2c7;" horiz-adv-x="442" 
d="M269 544h-96l-121 130l67 45l101 -96l101 95l69 -41z" />
    <glyph glyph-name="infinity" unicode="&#x221e;" horiz-adv-x="532" 
d="M518 359q0 -26 -6.5 -53t-21.5 -49t-39.5 -36t-59.5 -14q-17 0 -33 3.5t-31.5 14t-31 29t-30.5 48.5q-14 -30 -29.5 -48.5t-31 -29t-31.5 -14t-31 -3.5q-34 0 -59 12.5t-41 33.5t-24 48.5t-8 57.5q0 74 37 113t95 39q18 0 35 -4t32 -14.5t29 -29.5t27 -48q13 27 26 45.5
t28 29.5t32.5 15.5t39.5 4.5q58 0 92.5 -39.5t34.5 -111.5zM436 360q0 35 -14.5 55t-37.5 20q-21 0 -36.5 -21.5t-29.5 -55.5q14 -30 30 -52t38 -22q15 0 24.5 7.5t15.5 19t8 25t2 24.5zM214 359q-18 38 -32.5 56.5t-34.5 18.5q-14 0 -24 -7t-16.5 -18t-9.5 -24t-3 -26
q0 -34 13.5 -54t39.5 -20q13 0 23.5 8t18.5 19.5t14.5 24t10.5 22.5z" />
    <glyph glyph-name="lozenge" unicode="&#x25ca;" horiz-adv-x="532" 
d="M265 -16l-210 373l210 363l212 -363zM265 548l-106 -191l109 -206l105 205z" />
    <glyph glyph-name="mu" unicode="&#xb5;" horiz-adv-x="609" 
d="M201 189q0 -41 21.5 -69.5t68.5 -28.5q33 0 59 14.5t37 41.5q3 7 4.5 17.5t2.5 21t1 19.5v15v258h130v-345q0 -26 7 -36t21 -10q7 0 14.5 1.5l17.5 3.5l14 -88q-13 -5 -36.5 -10t-42.5 -5q-75 0 -93 65q-24 -33 -58.5 -49t-75.5 -16q-31 0 -58.5 10.5t-42.5 26.5v-215
h-122v671h131v-293z" />
    <glyph glyph-name="uni00A0" unicode="&#xa0;" horiz-adv-x="200" 
 />
    <glyph glyph-name="at" unicode="@" horiz-adv-x="1102" 
d="M645 52q-11 -11 -24 -21.5t-30 -18.5t-39 -12.5t-50 -4.5q-91 0 -142 60t-51 165q0 101 53 159.5t151 58.5q41 0 66 -12t46 -32l1 45h115v-249q0 -34 4 -55t11 -33t16.5 -16.5t20.5 -4.5q16 0 31 16t27 42t19 60.5t7 71.5q0 57 -18 112.5t-57.5 99t-103.5 70t-156 26.5
q-78 0 -138.5 -29.5t-102 -79.5t-63 -116.5t-21.5 -140.5q0 -71 25 -131t69 -103t105.5 -67t133.5 -24q34 0 72 2.5t74.5 8.5t69.5 16.5t58 26.5v-116q-17 -11 -48 -19.5t-70.5 -15.5t-85 -10.5t-91.5 -3.5q-96 0 -177 33.5t-140.5 92.5t-92.5 139t-33 172q0 104 33 191.5
t93 150.5t144.5 98.5t188.5 35.5q106 0 193 -25t148.5 -75.5t95.5 -125t34 -173.5q0 -68 -17 -123t-49.5 -93.5t-78 -59t-102.5 -20.5q-47 0 -78 18.5t-46 38.5zM625 219q0 42 -10 68t-25 40.5t-33.5 19.5t-35.5 5q-23 0 -40 -10t-28 -28t-17 -42t-6 -52q0 -27 5.5 -52.5
t17 -44.5t28.5 -30.5t40 -11.5q19 0 37.5 5.5t33.5 20.5t24 42t9 70z" />
    <glyph glyph-name="Scaron" unicode="&#x160;" horiz-adv-x="556" 
d="M523 180q0 -49 -20.5 -85.5t-54 -60.5t-77.5 -36t-90 -12q-182 0 -255 123l103 68q23 -38 62 -57.5t88 -19.5q51 0 81.5 20t30.5 53q0 21 -7 37t-24 30t-47 27.5t-76 29.5q-43 15 -77.5 32t-59 40t-37.5 53.5t-13 72.5q0 41 14.5 75t44 59t73.5 38.5t103 13.5
q49 0 86.5 -9.5t65 -25.5t47.5 -37t35 -44l-97 -69q-21 32 -53 53t-85 21q-51 0 -77.5 -18t-26.5 -47q0 -35 34 -57.5t102 -47.5q51 -18 89.5 -38t64.5 -45.5t39.5 -58.5t13.5 -78zM331 710h-96l-121 130l67 45l101 -96l101 95l69 -41z" />
    <glyph glyph-name="scaron" unicode="&#x161;" horiz-adv-x="485" 
d="M457 140q0 -39 -16 -67.5t-44 -47t-66 -27.5t-81 -9q-86 0 -139.5 32.5t-81.5 81.5l97 59q17 -32 47.5 -53.5t76.5 -21.5q40 0 62.5 12.5t22.5 34.5q0 21 -24 37t-89 28q-38 7 -69.5 18.5t-53.5 29.5t-34 43t-12 60q0 64 53.5 104t144.5 40q82 0 130 -26.5t74 -64.5
l-92 -63q-18 24 -46 40t-66 16q-42 0 -58 -12.5t-16 -32.5q0 -23 20 -33t74 -21q44 -9 78.5 -21t58.5 -30.5t36.5 -44.5t12.5 -61zM301 544h-96l-121 130l67 45l101 -96l101 95l69 -41z" />
    <glyph glyph-name="Yacute" unicode="&#xdd;" horiz-adv-x="581" 
d="M360 268v-268h-135v268l-225 399h150l145 -265l138 265h148zM235 704l-36 54l201 141l63 -83z" />
    <glyph glyph-name="yacute" unicode="&#xfd;" horiz-adv-x="517" 
d="M267 -114q-11 -25 -26 -42t-33 -27t-38.5 -14t-40.5 -4q-26 0 -57.5 6.5t-64.5 20.5l41 93q19 -9 37.5 -13t31.5 -4q12 0 24 7t22 28l37 83l-200 462h139l126 -329l120 329h132zM197 538l-36 54l201 141l63 -83z" />
    <glyph glyph-name="Thorn" unicode="&#xde;" horiz-adv-x="580" 
d="M563 360q0 -31 -7.5 -61t-22.5 -56.5t-37 -47.5t-51 -33q-35 -14 -70.5 -19.5t-73.5 -5.5h-89v-137h-135v667h135v-103h76q50 0 93.5 -6.5t82.5 -25.5q51 -24 75 -71t24 -101zM437 351q0 28 -15 52.5t-44 34.5q-17 6 -36 9t-49 3h-81v-198h77q29 0 52 3t40 11
q29 13 42.5 36t13.5 49z" />
    <glyph glyph-name="thorn" unicode="&#xfe;" horiz-adv-x="581" 
d="M542 237q0 -59 -21.5 -105t-58 -78t-86 -48.5t-106.5 -16.5q-35 0 -66 9v-187h-131v856h130v-210q26 19 54.5 27.5t60.5 8.5q55 0 97 -21t70 -56t42.5 -81.5t14.5 -97.5zM414 235q0 73 -34.5 113.5t-91.5 40.5q-24 0 -46 -7t-39 -17v-260q11 -4 24 -6.5t28 -2.5
q32 0 61 8t50.5 24.5t34.5 43t13 63.5z" />
    <glyph glyph-name="Zcaron" unicode="&#x17d;" horiz-adv-x="574" 
d="M34 0v110l340 436h-312v121h477v-114l-337 -432h343v-121h-511zM351 710h-96l-121 130l67 45l101 -96l101 95l69 -41z" />
    <glyph glyph-name="zcaron" unicode="&#x17e;" horiz-adv-x="508" 
d="M36 0v89l276 293h-265v100h415v-94l-272 -289h280v-99h-434zM312 544h-96l-121 130l67 45l101 -96l101 95l69 -41z" />
    <glyph glyph-name="onehalf" unicode="&#xbd;" horiz-adv-x="774" 
d="M95 337v218l-68 -36l-40 72l132 74h74v-328h-98zM511 0v57q35 32 63 57t55 55q14 15 21.5 28t7.5 27t-7.5 22.5t-21.5 8.5q-12 0 -27 -10.5t-32 -45.5l-78 40q53 97 154 97q48 0 81.5 -25t33.5 -76q0 -29 -12 -53.5t-32 -45.5q-15 -17 -28.5 -29t-29.5 -24h110v-83h-258z
M83 -12l-65 70l655 610l68 -69z" />
    <glyph glyph-name="onequarter" unicode="&#xbc;" horiz-adv-x="774" 
d="M95 337v218l-68 -36l-40 72l132 74h74v-328h-98zM711 71v-71h-97v71h-153v73l161 184h89v-187h41v-70h-41zM614 227l-74 -86h74v86zM90 -12l-65 70l655 610l68 -69z" />
    <glyph glyph-name="onesuperior" unicode="&#xb9;" horiz-adv-x="315" 
d="M162 337v218l-68 -36l-40 72l132 74h74v-328h-98z" />
    <glyph glyph-name="threequarters" unicode="&#xbe;" horiz-adv-x="774" 
d="M92 -12l-65 70l655 610l68 -69zM274 439q0 -29 -12 -49t-31 -33t-43 -19t-49 -6q-40 0 -78 16.5t-69 63.5l78 41q17 -26 34 -34.5t32 -8.5q20 0 29.5 9t9.5 23q0 4 -1.5 9.5t-7.5 10.5t-17.5 8.5t-32.5 3.5v65q20 1 31 5t16 8.5t6 9.5t1 8q0 11 -8 18t-25 7q-14 0 -29 -8
t-32 -35l-77 41q29 45 67.5 62.5t82.5 17.5q22 0 43.5 -5.5t38.5 -17t27 -28.5t10 -40q0 -28 -11 -44.5t-27 -26.5q15 -8 29.5 -26t14.5 -46zM706 71v-71h-97v71h-153v73l161 184h89v-187h41v-70h-41zM609 227l-74 -86h74v86z" />
    <glyph glyph-name="threesuperior" unicode="&#xb3;" horiz-adv-x="315" 
d="M298 439q0 -29 -12 -49t-31 -33t-43 -19t-49 -6q-40 0 -78 16.5t-69 63.5l78 41q17 -26 34 -34.5t32 -8.5q20 0 29.5 9t9.5 23q0 4 -1.5 9.5t-7.5 10.5t-17.5 8.5t-32.5 3.5v65q20 1 31 5t16 8.5t6 9.5t1 8q0 11 -8 18t-25 7q-14 0 -29 -8t-32 -35l-77 41
q29 45 67.5 62.5t82.5 17.5q22 0 43.5 -5.5t38.5 -17t27 -28.5t10 -40q0 -28 -11 -44.5t-27 -26.5q15 -8 29.5 -26t14.5 -46z" />
    <glyph glyph-name="twosuperior" unicode="&#xb2;" horiz-adv-x="315" 
d="M39 337v57q35 32 63 57t55 55q14 15 21.5 28t7.5 27t-7.5 22.5t-21.5 8.5q-12 0 -27 -10.5t-32 -45.5l-78 40q53 97 154 97q48 0 81.5 -25t33.5 -76q0 -29 -12 -53.5t-32 -45.5q-15 -17 -28.5 -29t-29.5 -24h110v-83h-258z" />
    <glyph glyph-name="brokenbar" unicode="&#xa6;" horiz-adv-x="275" 
d="M74 429v309h125v-309h-125zM74 -74v308h125v-308h-125z" />
    <glyph glyph-name="minus" unicode="&#x2212;" horiz-adv-x="542" 
d="M25 275v110h492v-110h-492z" />
    <glyph glyph-name="multiply" unicode="&#xd7;" horiz-adv-x="542" 
d="M399 125l-128 127l-128 -127l-77 77l127 128l-127 128l77 77l128 -127l128 127l77 -77l-127 -128l127 -128z" />
    <glyph glyph-name="lslash" unicode="&#x142;" horiz-adv-x="310" 
d="M217 332v-332h-131v255l-60 -36l-46 78l106 63v307h131v-231l75 48l48 -76z" />
    <glyph glyph-name="nonbreakingspace" horiz-adv-x="296" 
 />
    <glyph glyph-name="currency" unicode="&#xa4;" horiz-adv-x="738" 
d="M652 14l-161 152q-29 -16 -61 -23t-65 -7q-31 0 -61.5 7t-58.5 22l-159 -151l-86 83l160 152q-31 56 -31 119q0 62 28 114l-157 148l90 81l148 -141q29 17 62 25t67 8q35 0 68.5 -8t63.5 -26l149 142l90 -81l-158 -148q14 -26 20 -54t6 -57q0 -32 -7.5 -62.5t-23.5 -57.5
l163 -154zM487 369q0 26 -8.5 49t-24.5 40t-38 26.5t-49 9.5q-54 0 -86.5 -36t-32.5 -89q0 -26 8.5 -48.5t24.5 -39.5t37.5 -26.5t48.5 -9.5t49 9.5t38 26.5t24.5 39.5t8.5 48.5z" />
    <glyph glyph-name="caron.alt" horiz-adv-x="442" 
d="M241 497h-73v170h107z" />
    <glyph glyph-name="zdotaccent" unicode="&#x17c;" horiz-adv-x="508" 
d="M36 0v89l276 293h-265v100h415v-94l-272 -289h280v-99h-434zM332 631q0 -31 -20 -54t-51 -23q-30 0 -50 23t-20 54t20 54t50 23q31 0 51 -23t20 -54z" />
    <glyph glyph-name="Zdotaccent" unicode="&#x17b;" horiz-adv-x="574" 
d="M34 0v110l340 436h-312v121h477v-114l-337 -432h343v-121h-511zM375 797q0 -31 -20 -54t-51 -23q-30 0 -50 23t-20 54t20 54t50 23q31 0 51 -23t20 -54z" />
    <glyph glyph-name="zacute" unicode="&#x17a;" horiz-adv-x="508" 
d="M36 0v89l276 293h-265v100h415v-94l-272 -289h280v-99h-434zM169 538l-36 54l201 141l63 -83z" />
    <glyph glyph-name="Zacute" unicode="&#x179;" horiz-adv-x="574" 
d="M34 0v110l340 436h-312v121h477v-114l-337 -432h343v-121h-511zM211 704l-36 54l201 141l63 -83z" />
    <glyph glyph-name="uogonek" unicode="&#x173;" horiz-adv-x="579" 
d="M394 0l-5 38q-35 -28 -72 -38t-73 -10q-88 0 -135 51t-47 154v287h131v-274q0 -50 19 -81t65 -31q38 0 64 14.5t42 27.5v344h131v-482h-120zM465 -106q11 0 21 3t15 6l24 -67q-20 -11 -38.5 -14.5t-38.5 -3.5q-50 0 -76.5 22t-26.5 62q0 19 7.5 37.5t20 34.5t29.5 28.5
t37 18.5l69 -10q-29 -17 -48 -42.5t-19 -47.5q0 -13 5 -20t19 -7z" />
    <glyph glyph-name="Uogonek" unicode="&#x172;" horiz-adv-x="687" 
d="M614 229q0 -57 -21 -102t-58 -76.5t-86 -48t-106 -16.5q-56 0 -105.5 16.5t-86 48t-57.5 76.5t-21 102v438h135v-425q0 -60 35 -98.5t101 -38.5t100.5 38.5t34.5 98.5v425h135v-438v0zM424 -106q11 0 21 3t15 6l24 -67q-20 -11 -38.5 -14.5t-38.5 -3.5q-50 0 -76.5 22
t-26.5 62q0 19 7.5 37.5t20 34.5t29.5 28.5t37 18.5l69 -10q-29 -17 -48 -42.5t-19 -47.5q0 -13 5 -20t19 -7z" />
    <glyph glyph-name="uhungarumlaut" unicode="&#x171;" horiz-adv-x="579" 
d="M394 0l-5 38q-35 -28 -72 -38t-73 -10q-88 0 -135 51t-47 154v287h131v-274q0 -50 19 -81t65 -31q38 0 64 14.5t42 27.5v344h131v-482h-120zM332 541l-40 43l163 151l66 -72zM147 541l-39 43l164 151l64 -72z" />
    <glyph glyph-name="Uhungarumlaut" unicode="&#x170;" horiz-adv-x="687" 
d="M614 229q0 -57 -21 -102t-58 -76.5t-86 -48t-106 -16.5q-56 0 -105.5 16.5t-86 48t-57.5 76.5t-21 102v438h135v-425q0 -60 35 -98.5t101 -38.5t100.5 38.5t34.5 98.5v425h135v-438v0zM398 707l-40 43l163 151l66 -72zM213 707l-39 43l164 151l64 -72z" />
    <glyph glyph-name="uring" unicode="&#x16f;" horiz-adv-x="579" 
d="M394 0l-5 38q-35 -28 -72 -38t-73 -10q-88 0 -135 51t-47 154v287h131v-274q0 -50 19 -81t65 -31q38 0 64 14.5t42 27.5v344h131v-482h-120zM392 638q0 -20 -6.5 -39.5t-19.5 -35t-33 -25t-46 -9.5t-45.5 9.5t-32.5 24.5t-19.5 34.5t-6.5 39.5t6.5 39.5t19.5 35t32.5 25
t45.5 9.5t46 -9.5t33 -24.5t19.5 -34.5t6.5 -39.5zM327 638q0 20 -10.5 33t-29.5 13q-18 0 -28.5 -13t-10.5 -33t10.5 -33t28.5 -13q19 0 29.5 13t10.5 33z" />
    <glyph glyph-name="Uring" unicode="&#x16e;" horiz-adv-x="687" 
d="M614 229q0 -57 -21 -102t-58 -76.5t-86 -48t-106 -16.5q-56 0 -105.5 16.5t-86 48t-57.5 76.5t-21 102v438h135v-425q0 -60 35 -98.5t101 -38.5t100.5 38.5t34.5 98.5v425h135v-438v0zM457 804q0 -20 -6.5 -39.5t-19.5 -35t-33 -25t-46 -9.5t-45.5 9.5t-32.5 24.5
t-19.5 34.5t-6.5 39.5t6.5 39.5t19.5 35t32.5 25t45.5 9.5t46 -9.5t33 -24.5t19.5 -34.5t6.5 -39.5zM392 804q0 20 -10.5 33t-29.5 13q-18 0 -28.5 -13t-10.5 -33t10.5 -33t28.5 -13q19 0 29.5 13t10.5 33z" />
    <glyph glyph-name="umacron" unicode="&#x16b;" horiz-adv-x="579" 
d="M394 0l-5 38q-35 -28 -72 -38t-73 -10q-88 0 -135 51t-47 154v287h131v-274q0 -50 19 -81t65 -31q38 0 64 14.5t42 27.5v344h131v-482h-120zM105 578v89h363v-89h-363z" />
    <glyph glyph-name="Umacron" unicode="&#x16a;" horiz-adv-x="687" 
d="M614 229q0 -57 -21 -102t-58 -76.5t-86 -48t-106 -16.5q-56 0 -105.5 16.5t-86 48t-57.5 76.5t-21 102v438h135v-425q0 -60 35 -98.5t101 -38.5t100.5 38.5t34.5 98.5v425h135v-438v0zM164 744v89h363v-89h-363z" />
    <glyph glyph-name="tcaron" unicode="&#x165;" horiz-adv-x="373" 
d="M339 531h-73v170h107zM366 38q-33 -22 -69.5 -35.5t-77.5 -13.5q-25 0 -49 7t-42.5 22t-30 39.5t-11.5 59.5v265h-71v100h71v125h130v-125h117v-100h-117v-246q0 -23 10.5 -31.5t20.5 -8.5q20 0 39 10t33 21l47 -89v0z" />
    <glyph glyph-name="Tcaron" unicode="&#x164;" horiz-adv-x="543" 
d="M340 546v-546h-136v546h-199v121h533v-121h-198zM319 710h-96l-121 130l67 45l101 -96l101 95l69 -41z" />
    <glyph glyph-name="sacute" unicode="&#x15b;" horiz-adv-x="485" 
d="M457 140q0 -39 -16 -67.5t-44 -47t-66 -27.5t-81 -9q-86 0 -139.5 32.5t-81.5 81.5l97 59q17 -32 47.5 -53.5t76.5 -21.5q40 0 62.5 12.5t22.5 34.5q0 21 -24 37t-89 28q-38 7 -69.5 18.5t-53.5 29.5t-34 43t-12 60q0 64 53.5 104t144.5 40q82 0 130 -26.5t74 -64.5
l-92 -63q-18 24 -46 40t-66 16q-42 0 -58 -12.5t-16 -32.5q0 -23 20 -33t74 -21q44 -9 78.5 -21t58.5 -30.5t36.5 -44.5t12.5 -61zM162 538l-36 54l201 141l63 -83z" />
    <glyph glyph-name="Sacute" unicode="&#x15a;" horiz-adv-x="556" 
d="M523 180q0 -49 -20.5 -85.5t-54 -60.5t-77.5 -36t-90 -12q-182 0 -255 123l103 68q23 -38 62 -57.5t88 -19.5q51 0 81.5 20t30.5 53q0 21 -7 37t-24 30t-47 27.5t-76 29.5q-43 15 -77.5 32t-59 40t-37.5 53.5t-13 72.5q0 41 14.5 75t44 59t73.5 38.5t103 13.5
q49 0 86.5 -9.5t65 -25.5t47.5 -37t35 -44l-97 -69q-21 32 -53 53t-85 21q-51 0 -77.5 -18t-26.5 -47q0 -35 34 -57.5t102 -47.5q51 -18 89.5 -38t64.5 -45.5t39.5 -58.5t13.5 -78zM190 704l-36 54l201 141l63 -83z" />
    <glyph glyph-name="rcaron" unicode="&#x159;" horiz-adv-x="371" 
d="M354 364q-20 8 -37.5 12.5t-34.5 4.5q-28 0 -50.5 -13t-35.5 -30v-338h-131v482h119l6 -42q27 29 54.5 40.5t57.5 11.5q17 0 36 -4t39 -11zM269 544h-96l-121 130l67 45l101 -96l101 95l69 -41z" />
    <glyph glyph-name="Rcaron" unicode="&#x158;" horiz-adv-x="623" 
d="M447 0l-165 250h-73v-250h-132v667h271q42 0 84 -9t75.5 -31.5t55 -60.5t21.5 -97q0 -36 -9 -69t-27.5 -60.5t-48 -48.5t-70.5 -33l171 -258h-153zM451 456q0 48 -31 71.5t-108 23.5h-103v-186h103q73 0 106 23t33 68zM362 710h-96l-121 130l67 45l101 -96l101 95l69 -41
z" />
    <glyph glyph-name="racute" unicode="&#x155;" horiz-adv-x="371" 
d="M354 364q-20 8 -37.5 12.5t-34.5 4.5q-28 0 -50.5 -13t-35.5 -30v-338h-131v482h119l6 -42q27 29 54.5 40.5t57.5 11.5q17 0 36 -4t39 -11zM137 538l-36 54l201 141l63 -83z" />
    <glyph glyph-name="Racute" unicode="&#x154;" horiz-adv-x="623" 
d="M447 0l-165 250h-73v-250h-132v667h271q42 0 84 -9t75.5 -31.5t55 -60.5t21.5 -97q0 -36 -9 -69t-27.5 -60.5t-48 -48.5t-70.5 -33l171 -258h-153zM451 456q0 48 -31 71.5t-108 23.5h-103v-186h103q73 0 106 23t33 68zM233 704l-36 54l201 141l63 -83z" />
    <glyph glyph-name="ohungarumlaut" unicode="&#x151;" horiz-adv-x="556" 
d="M521 243q0 -47 -15 -92.5t-45.5 -81.5t-76 -58t-106.5 -22t-106.5 22t-76 58t-45.5 81.5t-15 92.5t15 92t45.5 80.5t76 57t106.5 21.5t106.5 -21.5t76 -57t45.5 -80.5t15 -92zM393 243q0 30 -7.5 57t-22 46.5t-36 31t-49.5 11.5t-49.5 -11.5t-36 -31t-22 -46.5t-7.5 -57
q0 -31 7.5 -57.5t21.5 -46.5t35.5 -31.5t50.5 -11.5q28 0 49.5 11.5t36 31.5t22 46.5t7.5 57.5zM331 541l-40 43l163 151l66 -72zM146 541l-39 43l164 151l64 -72z" />
    <glyph glyph-name="Ohungarumlaut" unicode="&#x150;" horiz-adv-x="707" 
d="M662 334q0 -64 -19 -126.5t-58 -111.5t-97 -79.5t-136 -30.5q-77 0 -135 30.5t-96 79.5t-57 111.5t-19 126.5t19 126.5t57 111.5t96 79t135 30q78 0 136 -30t97 -79t58 -111.5t19 -126.5zM525 334q0 44 -11 85.5t-33 73.5t-54.5 51t-74.5 19t-73.5 -19t-53.5 -51
t-33 -73.5t-11 -85.5t11 -85.5t33 -73.5t53.5 -51t73.5 -19t74.5 19t54.5 51t33 73.5t11 85.5zM407 707l-40 43l163 151l66 -72zM222 707l-39 43l164 151l64 -72z" />
    <glyph glyph-name="omacron" unicode="&#x14d;" horiz-adv-x="556" 
d="M521 243q0 -47 -15 -92.5t-45.5 -81.5t-76 -58t-106.5 -22t-106.5 22t-76 58t-45.5 81.5t-15 92.5t15 92t45.5 80.5t76 57t106.5 21.5t106.5 -21.5t76 -57t45.5 -80.5t15 -92zM393 243q0 30 -7.5 57t-22 46.5t-36 31t-49.5 11.5t-49.5 -11.5t-36 -31t-22 -46.5t-7.5 -57
q0 -31 7.5 -57.5t21.5 -46.5t35.5 -31.5t50.5 -11.5q28 0 49.5 11.5t36 31.5t22 46.5t7.5 57.5zM99 578v89h363v-89h-363z" />
    <glyph glyph-name="Omacron" unicode="&#x14c;" horiz-adv-x="707" 
d="M662 334q0 -64 -19 -126.5t-58 -111.5t-97 -79.5t-136 -30.5q-77 0 -135 30.5t-96 79.5t-57 111.5t-19 126.5t19 126.5t57 111.5t96 79t135 30q78 0 136 -30t97 -79t58 -111.5t19 -126.5zM525 334q0 44 -11 85.5t-33 73.5t-54.5 51t-74.5 19t-73.5 -19t-53.5 -51
t-33 -73.5t-11 -85.5t11 -85.5t33 -73.5t53.5 -51t73.5 -19t74.5 19t54.5 51t33 73.5t11 85.5zM174 744v89h363v-89h-363z" />
    <glyph glyph-name="ncaron" unicode="&#x148;" horiz-adv-x="581" 
d="M388 0v275q0 55 -24 85t-67 30q-30 0 -56 -15t-45 -33v-342h-131v482h119l6 -38q30 24 69 37t78 13q40 0 73.5 -11.5t57.5 -36.5t37.5 -65t13.5 -96v-285h-131zM343 544h-96l-121 130l67 45l101 -96l101 95l69 -41z" />
    <glyph glyph-name="Ncaron" unicode="&#x147;" horiz-adv-x="695" 
d="M500 0l-290 441v-441h-133v667h138l270 -416v416h133v-667h-118zM396 710h-96l-121 130l67 45l101 -96l101 95l69 -41z" />
    <glyph glyph-name="nacute" unicode="&#x144;" horiz-adv-x="581" 
d="M388 0v275q0 55 -24 85t-67 30q-30 0 -56 -15t-45 -33v-342h-131v482h119l6 -38q30 24 69 37t78 13q40 0 73.5 -11.5t57.5 -36.5t37.5 -65t13.5 -96v-285h-131zM197 538l-36 54l201 141l63 -83z" />
    <glyph glyph-name="Nacute" unicode="&#x143;" horiz-adv-x="695" 
d="M500 0l-290 441v-441h-133v667h138l270 -416v416h133v-667h-118zM277 704l-36 54l201 141l63 -83z" />
    <glyph glyph-name="lcaron" unicode="&#x13e;" horiz-adv-x="323" 
d="M65 0v667h131v-667h-131zM319 497h-73v170h107z" />
    <glyph glyph-name="Lcaron" unicode="&#x13d;" horiz-adv-x="553" 
d="M345 497h-73v170h107zM77 0v667h135v-546h336v-121h-471z" />
    <glyph glyph-name="lacute" unicode="&#x13a;" horiz-adv-x="261" 
d="M65 0v667h131v-667h-131zM55 704l-36 54l201 141l63 -83z" />
    <glyph glyph-name="Lacute" unicode="&#x139;" horiz-adv-x="553" 
d="M77 0v667h135v-546h336v-121h-471zM69 704l-36 54l201 141l63 -83z" />
    <glyph glyph-name="iogonek" unicode="&#x12f;" horiz-adv-x="260" 
d="M208 598q0 -27 -19.5 -49t-58.5 -22t-58.5 22t-19.5 49q0 26 19.5 48t58.5 22t58.5 -22t19.5 -48zM65 0v482h130v-482h-130zM149 -106q11 0 21 3t15 6l24 -67q-20 -11 -38.5 -14.5t-38.5 -3.5q-50 0 -76.5 22t-26.5 62q0 19 7.5 37.5t20 34.5t29.5 28.5t37 18.5l69 -10
q-29 -17 -48 -42.5t-19 -47.5q0 -13 5 -20t19 -7z" />
    <glyph glyph-name="Iogonek" unicode="&#x12e;" horiz-adv-x="289" 
d="M77 0v667h135v-667h-135zM166 -106q11 0 21 3t15 6l24 -67q-20 -11 -38.5 -14.5t-38.5 -3.5q-50 0 -76.5 22t-26.5 62q0 19 7.5 37.5t20 34.5t29.5 28.5t37 18.5l69 -10q-29 -17 -48 -42.5t-19 -47.5q0 -13 5 -20t19 -7z" />
    <glyph glyph-name="imacron" unicode="&#x12b;" horiz-adv-x="261" 
d="M65 0v477h131v-477h-131zM-47 578v89h363v-89h-363z" />
    <glyph glyph-name="Imacron" unicode="&#x12a;" horiz-adv-x="289" 
d="M77 0v667h135v-667h-135zM-34 744v89h363v-89h-363z" />
    <glyph glyph-name="gcommaaccent" unicode="&#x123;" horiz-adv-x="533" 
d="M526 -52q0 -43 -21 -71.5t-55 -46t-78.5 -24.5t-90.5 -7t-90.5 7t-79.5 23.5t-56.5 44t-21.5 69.5q0 35 15 56.5t41 35.5q-14 11 -24.5 29t-10.5 40q0 26 15 46.5t40 34.5q-29 23 -46.5 56.5t-17.5 73.5q0 45 18.5 78.5t49 56t70 33.5t81.5 11q29 0 52 -5t49 -15l77 81
l73 -60l-70 -74q19 -21 29.5 -49t10.5 -57q0 -45 -18.5 -78.5t-49.5 -55.5t-71 -33t-82 -11q-19 0 -37.5 2.5t-31.5 5.5q-5 -3 -10 -10t-5 -13q0 -7 5 -12t19.5 -9t40.5 -7t69 -4q52 -2 92 -9.5t66.5 -24t40 -43t13.5 -65.5zM361 313q0 38 -27.5 61t-69.5 23t-68.5 -22.5
t-26.5 -60.5q0 -39 26.5 -59.5t68.5 -20.5t69.5 20.5t27.5 58.5zM412 -61q0 13 -5 22t-21.5 15t-46.5 9.5t-81 4.5q-20 1 -41 3.5t-41 5.5q-9 -6 -18 -17.5t-9 -27.5q0 -62 135 -62q60 0 94 12t34 35zM317 559h-109l85 130h83z" />
    <glyph glyph-name="ecaron" unicode="&#x11b;" horiz-adv-x="525" 
d="M166 210q5 -61 37.5 -88t72.5 -27q35 0 63 12.5t58 54.5l97 -59q-41 -63 -95 -88.5t-127 -25.5q-48 0 -91 15t-75.5 46.5t-51.5 78.5t-19 112q0 61 18.5 108t50.5 79t74.5 49t90.5 17q101 0 162.5 -70.5t63.5 -213.5h-329zM362 299q-4 48 -32.5 72t-60.5 24
q-17 0 -33.5 -6.5t-30.5 -19t-23.5 -30.5t-12.5 -40h193zM316 544h-96l-121 130l67 45l101 -96l101 95l69 -41z" />
    <glyph glyph-name="Ecaron" unicode="&#x11a;" horiz-adv-x="586" 
d="M77 0v667h458v-121h-323v-152h267v-121h-267v-152h346v-121h-481zM360 710h-96l-121 130l67 45l101 -96l101 95l69 -41z" />
    <glyph glyph-name="eogonek" unicode="&#x119;" horiz-adv-x="525" 
d="M166 210q5 -61 37.5 -88t72.5 -27q35 0 63 12.5t58 54.5l97 -59q-41 -63 -95 -88.5t-127 -25.5q-48 0 -91 15t-75.5 46.5t-51.5 78.5t-19 112q0 61 18.5 108t50.5 79t74.5 49t90.5 17q101 0 162.5 -70.5t63.5 -213.5h-329zM362 299q-4 48 -32.5 72t-60.5 24
q-17 0 -33.5 -6.5t-30.5 -19t-23.5 -30.5t-12.5 -40h193zM345 -106q11 0 21 3t15 6l24 -67q-20 -11 -38.5 -14.5t-38.5 -3.5q-50 0 -76.5 22t-26.5 62q0 19 7.5 37.5t20 34.5t29.5 28.5t37 18.5l69 -10q-29 -17 -48 -42.5t-19 -47.5q0 -13 5 -20t19 -7z" />
    <glyph glyph-name="Eogonek" unicode="&#x118;" horiz-adv-x="586" 
d="M77 0v667h458v-121h-323v-152h267v-121h-267v-152h346v-121h-481zM496 -106q11 0 21 3t15 6l24 -67q-20 -11 -38.5 -14.5t-38.5 -3.5q-50 0 -76.5 22t-26.5 62q0 19 7.5 37.5t20 34.5t29.5 28.5t37 18.5l69 -10q-29 -17 -48 -42.5t-19 -47.5q0 -13 5 -20t19 -7z" />
    <glyph glyph-name="edotaccent" unicode="&#x117;" horiz-adv-x="525" 
d="M166 210q5 -61 37.5 -88t72.5 -27q35 0 63 12.5t58 54.5l97 -59q-41 -63 -95 -88.5t-127 -25.5q-48 0 -91 15t-75.5 46.5t-51.5 78.5t-19 112q0 61 18.5 108t50.5 79t74.5 49t90.5 17q101 0 162.5 -70.5t63.5 -213.5h-329zM362 299q-4 48 -32.5 72t-60.5 24
q-17 0 -33.5 -6.5t-30.5 -19t-23.5 -30.5t-12.5 -40h193zM338 631q0 -31 -20 -54t-51 -23q-30 0 -50 23t-20 54t20 54t50 23q31 0 51 -23t20 -54z" />
    <glyph glyph-name="Edotaccent" unicode="&#x116;" horiz-adv-x="586" 
d="M77 0v667h458v-121h-323v-152h267v-121h-267v-152h346v-121h-481zM378 797q0 -31 -20 -54t-51 -23q-30 0 -50 23t-20 54t20 54t50 23q31 0 51 -23t20 -54z" />
    <glyph glyph-name="emacron" unicode="&#x113;" horiz-adv-x="525" 
d="M166 210q5 -61 37.5 -88t72.5 -27q35 0 63 12.5t58 54.5l97 -59q-41 -63 -95 -88.5t-127 -25.5q-48 0 -91 15t-75.5 46.5t-51.5 78.5t-19 112q0 61 18.5 108t50.5 79t74.5 49t90.5 17q101 0 162.5 -70.5t63.5 -213.5h-329zM362 299q-4 48 -32.5 72t-60.5 24
q-17 0 -33.5 -6.5t-30.5 -19t-23.5 -30.5t-12.5 -40h193zM80 578v89h363v-89h-363z" />
    <glyph glyph-name="Emacron" unicode="&#x112;" horiz-adv-x="586" 
d="M77 0v667h458v-121h-323v-152h267v-121h-267v-152h346v-121h-481zM121 744v89h363v-89h-363z" />
    <glyph glyph-name="Dcroat" unicode="&#x110;" horiz-adv-x="667" 
d="M624 337q0 -47 -10.5 -92.5t-32 -86t-53.5 -72.5t-75 -52q-73 -34 -167 -34h-203v291h-83v105h83v271h198q40 0 86.5 -6.5t85.5 -23.5q43 -20 75 -51.5t53.5 -71t32 -85t10.5 -92.5zM487 331q0 57 -21 107.5t-64 78.5q-23 15 -57.5 22.5t-69.5 7.5h-57v-151h152v-105
h-152v-171h55q71 0 121 25q48 25 70.5 76.5t22.5 109.5z" />
    <glyph glyph-name="dcaron" unicode="&#x10f;" horiz-adv-x="567" 
d="M613 497h-73v170h107zM373 0l-6 37q-18 -19 -47 -33.5t-69 -14.5q-52 0 -92.5 21t-68 56t-41.5 81t-14 96q0 47 15 92t45 80.5t75 57t106 21.5q41 0 86 -14v187h130v-667h-119zM362 375q-37 14 -70 14t-57.5 -12t-40.5 -32.5t-24 -46t-8 -52.5q0 -30 7 -57.5t21 -48
t35.5 -33t51.5 -12.5q24 0 49 12.5t36 29.5v238z" />
    <glyph glyph-name="Dcaron" unicode="&#x10e;" horiz-adv-x="661" 
d="M618 337q0 -47 -10.5 -92.5t-32 -86t-54 -72.5t-75.5 -52q-73 -34 -166 -34h-203v667h198q38 0 84 -6t88 -24q43 -20 75.5 -51.5t53.5 -71t31.5 -85t10.5 -92.5zM481 331q0 57 -21 107.5t-65 78.5q-23 15 -57 22.5t-69 7.5h-57v-427h54q73 0 121 25t71 76.5t23 109.5z
M347 710h-96l-121 130l67 45l101 -96l101 95l69 -41z" />
    <glyph glyph-name="ccircumflex" unicode="&#x109;" horiz-adv-x="487" 
d="M476 116q-31 -65 -83.5 -96t-122.5 -31q-46 0 -88.5 16t-75 47.5t-52 78t-19.5 108.5q0 64 19 112t50.5 80t72.5 47.5t85 15.5t78.5 -12.5t60 -32.5t42 -45t25.5 -50l-103 -51q-17 48 -42.5 67.5t-57.5 19.5q-20 0 -38 -9t-32.5 -27t-23 -46t-8.5 -67q0 -69 30.5 -107
t79.5 -38q38 0 62 19t43 54l98 -53v0zM365 545l-101 96l-101 -97l-67 45l121 130h96l121 -132z" />
    <glyph glyph-name="Ccircumflex" unicode="&#x108;" horiz-adv-x="609" 
d="M584 133q-45 -80 -102 -113.5t-139 -33.5q-66 0 -121 23t-94.5 67.5t-61 108.5t-21.5 146q0 90 24.5 155.5t65 109t94 64.5t110.5 21q46 0 83 -10.5t66.5 -30.5t52 -49t39.5 -66l-109 -61q-20 43 -49.5 71t-79.5 28q-31 0 -60 -14t-51 -43t-35.5 -72.5t-13.5 -102.5
q0 -52 13 -94t35.5 -71t52.5 -45t65 -16q19 0 36.5 4t33.5 14.5t31 28t30 45.5l105 -64v0zM430 711l-101 96l-101 -97l-67 45l121 130h96l121 -132z" />
    <glyph glyph-name="aogonek" unicode="&#x105;" horiz-adv-x="514" 
d="M332 0l-6 36q-21 -22 -53.5 -34.5t-71.5 -12.5q-32 0 -62.5 10.5t-53.5 30t-37 48t-14 64.5t15 63.5t40 46.5t57.5 31t68.5 18q25 5 55 7.5t50 4.5v16q0 29 -20 47t-47 18q-17 0 -43 -9t-50 -34l-89 62q19 24 43.5 40t50 25t50.5 12.5t46 3.5q42 0 77 -10.5t60.5 -33
t39.5 -57t14 -83.5v-310h-120zM321 225q-20 -1 -42.5 -3.5t-42.5 -6.5q-42 -8 -58.5 -27.5t-16.5 -42.5q0 -24 18 -38.5t53 -14.5q25 0 48.5 10t40.5 25v98zM399 -106q11 0 21 3t15 6l24 -67q-20 -11 -38.5 -14.5t-38.5 -3.5q-50 0 -76.5 22t-26.5 62q0 19 7.5 37.5t20 34.5
t29.5 28.5t37 18.5l69 -10q-29 -17 -48 -42.5t-19 -47.5q0 -13 5 -20t19 -7z" />
    <glyph glyph-name="Aogonek" unicode="&#x104;" horiz-adv-x="648" 
d="M502 0l-54 134h-257l-55 -134h-136l274 667h95l278 -667h-145zM318 466l-86 -219h172zM595 -106q11 0 21 3t15 6l24 -67q-20 -11 -38.5 -14.5t-38.5 -3.5q-50 0 -76.5 22t-26.5 62q0 19 7.5 37.5t20 34.5t29.5 28.5t37 18.5l69 -10q-29 -17 -48 -42.5t-19 -47.5
q0 -13 5 -20t19 -7z" />
    <glyph glyph-name="abreve" unicode="&#x103;" horiz-adv-x="514" 
d="M332 0l-6 36q-21 -22 -53.5 -34.5t-71.5 -12.5q-32 0 -62.5 10.5t-53.5 30t-37 48t-14 64.5t15 63.5t40 46.5t57.5 31t68.5 18q25 5 55 7.5t50 4.5v16q0 29 -20 47t-47 18q-17 0 -43 -9t-50 -34l-89 62q19 24 43.5 40t50 25t50.5 12.5t46 3.5q42 0 77 -10.5t60.5 -33
t39.5 -57t14 -83.5v-310h-120zM321 225q-20 -1 -42.5 -3.5t-42.5 -6.5q-42 -8 -58.5 -27.5t-16.5 -42.5q0 -24 18 -38.5t53 -14.5q25 0 48.5 10t40.5 25v98zM430 680q-1 -34 -16 -60t-38.5 -44t-53 -27.5t-59.5 -9.5q-33 0 -62.5 9t-52.5 26.5t-37.5 44t-15.5 61.5h103
q6 -28 22 -44.5t43 -16.5t44 16.5t23 44.5h100v0z" />
    <glyph glyph-name="Abreve" unicode="&#x102;" horiz-adv-x="648" 
d="M502 0l-54 134h-257l-55 -134h-136l274 667h95l278 -667h-145zM318 466l-86 -219h172zM483 846q-1 -34 -16 -60t-38.5 -44t-53 -27.5t-59.5 -9.5q-33 0 -62.5 9t-52.5 26.5t-37.5 44t-15.5 61.5h103q6 -28 22 -44.5t43 -16.5t44 16.5t23 44.5h100v0z" />
    <glyph glyph-name="amacron" unicode="&#x101;" horiz-adv-x="514" 
d="M332 0l-6 36q-21 -22 -53.5 -34.5t-71.5 -12.5q-32 0 -62.5 10.5t-53.5 30t-37 48t-14 64.5t15 63.5t40 46.5t57.5 31t68.5 18q25 5 55 7.5t50 4.5v16q0 29 -20 47t-47 18q-17 0 -43 -9t-50 -34l-89 62q19 24 43.5 40t50 25t50.5 12.5t46 3.5q42 0 77 -10.5t60.5 -33
t39.5 -57t14 -83.5v-310h-120zM321 225q-20 -1 -42.5 -3.5t-42.5 -6.5q-42 -8 -58.5 -27.5t-16.5 -42.5q0 -24 18 -38.5t53 -14.5q25 0 48.5 10t40.5 25v98zM75 578v89h363v-89h-363z" />
    <glyph glyph-name="Amacron" unicode="&#x100;" horiz-adv-x="648" 
d="M502 0l-54 134h-257l-55 -134h-136l274 667h95l278 -667h-145zM318 466l-86 -219h172zM137 744v89h363v-89h-363z" />
    <glyph glyph-name="dcroat" unicode="&#x111;" horiz-adv-x="557" 
d="M492 532v-532h-119l-6 37q-18 -19 -47 -33.5t-69 -14.5q-52 0 -92.5 20.5t-68 55t-41.5 80t-14 95.5q0 47 15 91.5t45 79t75 55t106 20.5q41 0 86 -14v60h-120v83h120v52h130v-52h64v-83h-64zM362 367q-37 14 -70 14t-57.5 -11.5t-40.5 -30.5t-24 -44t-8 -52q0 -30 7 -57
t21 -47t35.5 -32t51.5 -12q24 0 49 12.5t36 29.5v230z" />
    <glyph glyph-name="ccaron" unicode="&#x10d;" horiz-adv-x="487" 
d="M476 116q-31 -65 -83.5 -96t-122.5 -31q-46 0 -88.5 16t-75 47.5t-52 78t-19.5 108.5q0 64 19 112t50.5 80t72.5 47.5t85 15.5t78.5 -12.5t60 -32.5t42 -45t25.5 -50l-103 -51q-17 48 -42.5 67.5t-57.5 19.5q-20 0 -38 -9t-32.5 -27t-23 -46t-8.5 -67q0 -69 30.5 -107
t79.5 -38q38 0 62 19t43 54l98 -53v0zM313 544h-96l-121 130l67 45l101 -96l101 95l69 -41z" />
    <glyph glyph-name="Ccaron" unicode="&#x10c;" horiz-adv-x="609" 
d="M584 133q-45 -80 -102 -113.5t-139 -33.5q-66 0 -121 23t-94.5 67.5t-61 108.5t-21.5 146q0 90 24.5 155.5t65 109t94 64.5t110.5 21q46 0 83 -10.5t66.5 -30.5t52 -49t39.5 -66l-109 -61q-20 43 -49.5 71t-79.5 28q-31 0 -60 -14t-51 -43t-35.5 -72.5t-13.5 -102.5
q0 -52 13 -94t35.5 -71t52.5 -45t65 -16q19 0 36.5 4t33.5 14.5t31 28t30 45.5l105 -64v0zM387 710h-96l-121 130l67 45l101 -96l101 95l69 -41z" />
    <glyph glyph-name="cacute" unicode="&#x107;" horiz-adv-x="487" 
d="M476 116q-31 -65 -83.5 -96t-122.5 -31q-46 0 -88.5 16t-75 47.5t-52 78t-19.5 108.5q0 64 19 112t50.5 80t72.5 47.5t85 15.5t78.5 -12.5t60 -32.5t42 -45t25.5 -50l-103 -51q-17 48 -42.5 67.5t-57.5 19.5q-20 0 -38 -9t-32.5 -27t-23 -46t-8.5 -67q0 -69 30.5 -107
t79.5 -38q38 0 62 19t43 54l98 -53v0zM158 538l-36 54l201 141l63 -83z" />
    <glyph glyph-name="Cacute" unicode="&#x106;" horiz-adv-x="609" 
d="M584 133q-45 -80 -102 -113.5t-139 -33.5q-66 0 -121 23t-94.5 67.5t-61 108.5t-21.5 146q0 90 24.5 155.5t65 109t94 64.5t110.5 21q46 0 83 -10.5t66.5 -30.5t52 -49t39.5 -66l-109 -61q-20 43 -49.5 71t-79.5 28q-31 0 -60 -14t-51 -43t-35.5 -72.5t-13.5 -102.5
q0 -52 13 -94t35.5 -71t52.5 -45t65 -16q19 0 36.5 4t33.5 14.5t31 28t30 45.5l105 -64v0zM227 704l-36 54l201 141l63 -83z" />
    <glyph glyph-name="scedilla" unicode="&#x15f;" horiz-adv-x="485" 
d="M457 140q0 -39 -16 -67.5t-44 -47t-66 -27.5t-81 -9q-86 0 -139.5 32.5t-81.5 81.5l97 59q17 -32 47.5 -53.5t76.5 -21.5q40 0 62.5 12.5t22.5 34.5q0 21 -24 37t-89 28q-38 7 -69.5 18.5t-53.5 29.5t-34 43t-12 60q0 64 53.5 104t144.5 40q82 0 130 -26.5t74 -64.5
l-92 -63q-18 24 -46 40t-66 16q-42 0 -58 -12.5t-16 -32.5q0 -23 20 -33t74 -21q44 -9 78.5 -21t58.5 -30.5t36.5 -44.5t12.5 -61zM228 -181h-92l62 137h116z" />
    <glyph glyph-name="Scedilla" unicode="&#x15e;" horiz-adv-x="556" 
d="M523 180q0 -49 -20.5 -85.5t-54 -60.5t-77.5 -36t-90 -12q-182 0 -255 123l103 68q23 -38 62 -57.5t88 -19.5q51 0 81.5 20t30.5 53q0 21 -7 37t-24 30t-47 27.5t-76 29.5q-43 15 -77.5 32t-59 40t-37.5 53.5t-13 72.5q0 41 14.5 75t44 59t73.5 38.5t103 13.5
q49 0 86.5 -9.5t65 -25.5t47.5 -37t35 -44l-97 -69q-21 32 -53 53t-85 21q-51 0 -77.5 -18t-26.5 -47q0 -35 34 -57.5t102 -47.5q51 -18 89.5 -38t64.5 -45.5t39.5 -58.5t13.5 -78zM249 -181h-92l62 137h116z" />
    <glyph glyph-name="Idotaccent" unicode="&#x130;" horiz-adv-x="289" 
d="M77 0v667h135v-667h-135zM217 797q0 -31 -20 -54t-51 -23q-30 0 -50 23t-20 54t20 54t50 23q31 0 51 -23t20 -54z" />
    <glyph glyph-name="gbreve" unicode="&#x11f;" horiz-adv-x="533" 
d="M526 -52q0 -43 -21 -71.5t-55 -46t-78.5 -24.5t-90.5 -7t-90.5 7t-79.5 23.5t-56.5 44t-21.5 69.5q0 35 15 56.5t41 35.5q-14 11 -24.5 29t-10.5 40q0 26 15 46.5t40 34.5q-29 23 -46.5 56.5t-17.5 73.5q0 45 18.5 78.5t49 56t70 33.5t81.5 11q29 0 52 -5t49 -15l77 81
l73 -60l-70 -74q19 -21 29.5 -49t10.5 -57q0 -45 -18.5 -78.5t-49.5 -55.5t-71 -33t-82 -11q-19 0 -37.5 2.5t-31.5 5.5q-5 -3 -10 -10t-5 -13q0 -7 5 -12t19.5 -9t40.5 -7t69 -4q52 -2 92 -9.5t66.5 -24t40 -43t13.5 -65.5zM361 313q0 38 -27.5 61t-69.5 23t-68.5 -22.5
t-26.5 -60.5q0 -39 26.5 -59.5t68.5 -20.5t69.5 20.5t27.5 58.5zM412 -61q0 13 -5 22t-21.5 15t-46.5 9.5t-81 4.5q-20 1 -41 3.5t-41 5.5q-9 -6 -18 -17.5t-9 -27.5q0 -62 135 -62q60 0 94 12t34 35zM430 680q-1 -34 -16 -60t-38.5 -44t-53 -27.5t-59.5 -9.5q-33 0 -62.5 9
t-52.5 26.5t-37.5 44t-15.5 61.5h103q6 -28 22 -44.5t43 -16.5t44 16.5t23 44.5h100v0z" />
    <glyph glyph-name="Gbreve" unicode="&#x11e;" horiz-adv-x="627" 
d="M587 30q-41 -18 -98 -31t-145 -13q-64 0 -119 23t-95 67.5t-62.5 108.5t-22.5 146q0 90 24 155.5t64.5 109t93.5 64.5t112 21q90 0 146.5 -36t91.5 -110l-109 -61q-20 42 -50.5 65.5t-75.5 23.5q-30 0 -59 -14t-51.5 -43t-36 -72.5t-13.5 -102.5q0 -52 14 -93.5t38 -71
t56 -45.5t69 -16q32 0 58.5 3t43.5 8v120h-109v115h235v-321v0zM513 846q-1 -34 -16 -60t-38.5 -44t-53 -27.5t-59.5 -9.5q-33 0 -62.5 9t-52.5 26.5t-37.5 44t-15.5 61.5h103q6 -28 22 -44.5t43 -16.5t44 16.5t23 44.5h100v0z" />
    <glyph glyph-name="Eth" unicode="&#xd0;" horiz-adv-x="667" 
d="M624 337q0 -47 -10.5 -92.5t-32 -86t-53.5 -72.5t-75 -52q-73 -34 -167 -34h-203v291h-83v105h83v271h198q40 0 86.5 -6.5t85.5 -23.5q43 -20 75 -51.5t53.5 -71t32 -85t10.5 -92.5zM487 331q0 57 -21 107.5t-64 78.5q-23 15 -57.5 22.5t-69.5 7.5h-57v-151h152v-105
h-152v-171h55q71 0 121 25q48 25 70.5 76.5t22.5 109.5z" />
    <glyph glyph-name="afii10017" unicode="&#x410;" horiz-adv-x="640" 
d="M502 0l-53 134h-258l-53 -134h-138l274 667h91l275 -667h-138zM320 460l-84 -213h169z" />
    <glyph glyph-name="afii10018" unicode="&#x411;" horiz-adv-x="599" 
d="M564 212q0 -100 -65.5 -156t-185.5 -56h-240v667h423v-121h-288v-123h105q120 0 185.5 -55.5t65.5 -155.5zM423 212q0 50 -31 73.5t-87 23.5h-97v-195h96q56 0 87.5 22.5t31.5 75.5z" />
    <glyph glyph-name="afii10019" unicode="&#x412;" horiz-adv-x="598" 
d="M573 188q0 -53 -30 -101t-91 -71q-23 -8 -49.5 -12t-51.5 -4h-274v667h238q48 0 88.5 -12t69.5 -35.5t45.5 -57t16.5 -75.5q0 -45 -21.5 -78t-59.5 -56q54 -19 86.5 -60.5t32.5 -104.5zM436 193q0 22 -12.5 43t-37.5 34q-16 8 -36.5 11.5t-45.5 3.5h-94v-171h96
q35 0 55 3t33 10q22 12 32 29.5t10 36.5zM399 472q0 24 -15.5 44.5t-46.5 30.5q-5 1 -13.5 2.5t-19 2l-21 1t-18.5 0.5h-55v-159h66q23 0 44 2t30 7q26 12 37.5 30.5t11.5 38.5z" />
    <glyph glyph-name="afii10020" unicode="&#x413;" horiz-adv-x="505" 
d="M208 546v-546h-135v667h427v-121h-292z" />
    <glyph glyph-name="afii10021" unicode="&#x414;" horiz-adv-x="698" 
d="M561 -135v135h-424v-135h-132v256h74l225 546h95l227 -546h67v-256h-132zM213 121h271l-136 345z" />
    <glyph glyph-name="afii10022" unicode="&#x415;" horiz-adv-x="586" 
d="M77 0v667h458v-121h-323v-152h267v-121h-267v-152h346v-121h-481z" />
    <glyph glyph-name="afii10024" unicode="&#x416;" horiz-adv-x="993" 
d="M0 0l275 392l-262 275h160l256 -268v268h135v-268l256 268h160l-262 -275l275 -392h-152l-215 301l-62 -62v-239h-135v239l-62 62l-215 -301h-152z" />
    <glyph glyph-name="afii10025" unicode="&#x417;" horiz-adv-x="572" 
d="M528 192q0 -50 -18 -88.5t-51.5 -64.5t-81.5 -39.5t-107 -13.5q-79 0 -145 31.5t-112 111.5l106 68q29 -48 66.5 -73t85.5 -25q54 0 85.5 24.5t31.5 71.5q0 18 -6.5 34.5t-21.5 29.5t-38.5 21t-57.5 8h-77v107h75q54 0 83.5 27.5t29.5 64.5q0 32 -25 56.5t-72 24.5
q-29 0 -51 -5t-39 -16.5t-30 -30.5t-24 -46l-103 58q41 84 102.5 118.5t152.5 34.5q107 0 166.5 -48.5t59.5 -129.5q0 -58 -25 -97.5t-63 -61.5q104 -38 104 -152z" />
    <glyph glyph-name="afii10026" unicode="&#x418;" horiz-adv-x="681" 
d="M72 0v667h133v-416l270 416h138v-667h-133v441l-290 -441h-118z" />
    <glyph glyph-name="afii10027" unicode="&#x419;" horiz-adv-x="681" 
d="M535 867q-2 -41 -19 -71t-43.5 -50.5t-60.5 -30.5t-68 -10q-35 0 -68 10t-60 30.5t-44 50.5t-19 71h117q8 -33 29.5 -50t44.5 -17t44.5 17t29.5 50h117v0zM72 0v667h133v-416l270 416h138v-667h-133v441l-290 -441h-118z" />
    <glyph glyph-name="afii10028" unicode="&#x41a;" horiz-adv-x="622" 
d="M489 0l-215 316l-62 -62v-254h-135v667h135v-255l256 255h160l-262 -260l275 -407h-152z" />
    <glyph glyph-name="afii10029" unicode="&#x41b;" horiz-adv-x="647" 
d="M136 0h-136l274 667h95l278 -667h-145l-184 466z" />
    <glyph glyph-name="afii10030" unicode="&#x41c;" horiz-adv-x="806" 
d="M596 0v373l-161 -377h-48l-177 381v-377h-133v667h138l197 -444l178 444h139v-667h-133z" />
    <glyph glyph-name="afii10031" unicode="&#x41d;" horiz-adv-x="689" 
d="M474 0v282h-259v-282h-135v667h135v-264h259v264h135v-667h-135z" />
    <glyph glyph-name="afii10032" unicode="&#x41e;" horiz-adv-x="707" 
d="M662 334q0 -64 -19 -126.5t-58 -111.5t-97 -79.5t-136 -30.5q-77 0 -135 30.5t-96 79.5t-57 111.5t-19 126.5t19 126.5t57 111.5t96 79t135 30q78 0 136 -30t97 -79t58 -111.5t19 -126.5zM525 334q0 44 -11 85.5t-33 73.5t-54.5 51t-74.5 19t-73.5 -19t-53.5 -51
t-33 -73.5t-11 -85.5t11 -85.5t33 -73.5t53.5 -51t73.5 -19t74.5 19t54.5 51t33 73.5t11 85.5z" />
    <glyph glyph-name="afii10033" unicode="&#x41f;" horiz-adv-x="673" 
d="M463 0v546h-253v-546h-135v667h523v-667h-135z" />
    <glyph glyph-name="afii10034" unicode="&#x420;" horiz-adv-x="578" 
d="M563 462q0 -30 -8 -60.5t-23 -56.5t-37 -47t-50 -33q-35 -14 -71 -19.5t-73 -5.5h-92v-240h-132v667h210q51 0 94.5 -6.5t82.5 -25.5q51 -24 75 -71.5t24 -101.5zM430 454q0 28 -13.5 52t-42.5 34q-17 6 -36 9t-49 3h-80v-197h75q29 0 52.5 3t40.5 11q29 13 41 36t12 49z
" />
    <glyph glyph-name="afii10035" unicode="&#x421;" horiz-adv-x="608" 
d="M584 133q-45 -80 -102 -113.5t-139 -33.5q-66 0 -121 23t-94.5 67.5t-61 108.5t-21.5 146q0 90 24.5 155.5t65 109t94 64.5t110.5 21q46 0 83 -10.5t66.5 -30.5t52 -49t39.5 -66l-109 -61q-20 43 -49.5 71t-79.5 28q-31 0 -60 -14t-51 -43t-35.5 -72.5t-13.5 -102.5
q0 -52 13 -94t35.5 -71t52.5 -45t65 -16q19 0 36.5 4t33.5 14.5t31 28t30 45.5l105 -64v0z" />
    <glyph glyph-name="afii10036" unicode="&#x422;" horiz-adv-x="543" 
d="M340 546v-546h-136v546h-199v121h533v-121h-198z" />
    <glyph glyph-name="afii10037" unicode="&#x423;" horiz-adv-x="606" 
d="M591 667q-27 -81 -52.5 -152t-51.5 -134.5t-53 -122t-57 -113.5q-20 -38 -41.5 -66.5t-48 -47t-60 -28t-77.5 -9.5h-50v121h29q25 0 44 2t33 9.5t25 22t22 39.5l-263 479h151l184 -350q35 81 67.5 170t61.5 180h137z" />
    <glyph glyph-name="afii10038" unicode="&#x424;" horiz-adv-x="747" 
d="M713 334q0 -112 -70.5 -179t-201.5 -76v-91h-135v91q-131 9 -201.5 76t-70.5 179t70.5 179t201.5 76v91h135v-91q131 -9 201.5 -76t70.5 -179zM581 334q0 68 -37 105.5t-103 42.5v-297q66 5 103 43t37 106zM306 482q-66 -5 -103 -42.5t-37 -105.5t37 -106t103 -43v297z
" />
    <glyph glyph-name="afii10039" unicode="&#x425;" horiz-adv-x="579" 
d="M428 0l-139 230l-138 -230h-151l217 347l-202 320h152l122 -203l122 203h152l-201 -320l217 -347h-151z" />
    <glyph glyph-name="afii10040" unicode="&#x426;" horiz-adv-x="682" 
d="M516 -135v135h-435v667h135v-548h241v548h135v-548h56v-254h-132z" />
    <glyph glyph-name="afii10041" unicode="&#x427;" horiz-adv-x="643" 
d="M435 0v262q-26 -8 -70 -13.5t-85 -5.5q-109 0 -164.5 45.5t-63.5 141.5q-1 12 -1.5 25t-0.5 27v185h135v-173q0 -14 0.5 -26t1.5 -23q5 -48 34 -67.5t86 -19.5q33 0 69 5t59 14v290h135v-667h-135z" />
    <glyph glyph-name="afii10042" unicode="&#x428;" horiz-adv-x="921" 
d="M78 0v667h135v-549h182v549h131v-549h182v549h135v-667h-765z" />
    <glyph glyph-name="afii10043" unicode="&#x429;" horiz-adv-x="930" 
d="M763 -135v135h-681v667h135v-549h178v549h131v-549h178v549h135v-549h56v-253h-132z" />
    <glyph glyph-name="afii10044" unicode="&#x42a;" horiz-adv-x="640" 
d="M610 224q0 -50 -17 -91t-49 -70.5t-78.5 -46t-106.5 -16.5h-253v546h-101v121h234v-224h120q60 0 106.5 -15.5t78.5 -44.5t49 -69.5t17 -89.5zM469 224q0 50 -31 77.5t-87 27.5h-112v-215h111q56 0 87.5 28.5t31.5 81.5z" />
    <glyph glyph-name="afii10045" unicode="&#x42b;" horiz-adv-x="846" 
d="M562 224q0 -50 -17 -91t-49 -70.5t-78.5 -46t-106.5 -16.5h-238v667h133v-224h105q60 0 106.5 -15.5t78.5 -44.5t49 -69.5t17 -89.5zM638 0v667h135v-667h-135zM421 224q0 50 -31 77.5t-87 27.5h-97v-215h96q56 0 87.5 28.5t31.5 81.5z" />
    <glyph glyph-name="afii10046" unicode="&#x42c;" horiz-adv-x="612" 
d="M582 224q0 -50 -17 -91t-49 -70.5t-78.5 -46t-106.5 -16.5h-258v667h133v-224h125q60 0 106.5 -15.5t78.5 -44.5t49 -69.5t17 -89.5zM441 224q0 50 -31 77.5t-87 27.5h-117v-215h116q56 0 87.5 28.5t31.5 81.5z" />
    <glyph glyph-name="afii10047" unicode="&#x42d;" horiz-adv-x="606" 
d="M565 337q0 -87 -21 -153t-58.5 -110t-91 -66t-117.5 -22q-90 0 -150.5 34t-103.5 110l108 67q26 -48 61 -70t86 -22q28 0 54 10t46.5 31t33 54t14.5 80h-248v121h244q-8 78 -49 120t-99 42q-51 0 -86.5 -26t-58.5 -63l-109 61q19 31 44 58t57 46.5t72 30.5t91 11
q58 0 109.5 -20t89.5 -62t60 -107t22 -155z" />
    <glyph glyph-name="afii10048" unicode="&#x42e;" horiz-adv-x="973" 
d="M932 334q0 -64 -18.5 -126.5t-56 -111.5t-94.5 -79.5t-134 -30.5q-69 0 -122 24.5t-90.5 65.5t-59 94.5t-28.5 110.5h-121v-281h-135v667h135v-271h122q8 55 30 106.5t59 91.5t89.5 63.5t120.5 23.5q77 0 134 -30t94.5 -79t56 -111.5t18.5 -126.5zM796 334
q0 44 -10.5 85.5t-31.5 73.5t-52 51t-73 19t-73 -19t-52 -51t-31.5 -73.5t-10.5 -85.5t10.5 -85.5t31.5 -73.5t52 -51.5t73 -19.5t73 19.5t52 51.5t31.5 73.5t10.5 85.5z" />
    <glyph glyph-name="afii10049" unicode="&#x42f;" horiz-adv-x="611" 
d="M17 0l171 258q-41 12 -70.5 33t-48 48.5t-27.5 60.5t-9 69q0 59 21.5 97t55 60.5t75.5 31.5t84 9h271v-667h-132v250h-73l-165 -250h-153zM166 456q0 -45 33 -68t106 -23h103v186h-103q-77 0 -108 -23.5t-31 -71.5z" />
    <glyph glyph-name="afii10051" unicode="&#x402;" horiz-adv-x="719" 
d="M689 247q0 -61 -17 -107t-48.5 -77t-76 -47t-99.5 -16h-70v117h53q60 0 90.5 28t30.5 91q0 58 -32.5 87t-88.5 29q-37 0 -72.5 -10.5t-57.5 -21.5v-320h-133v546h-168v121h480v-121h-180v-111q25 10 67.5 20t91.5 10q51 0 93 -14t72.5 -42t47.5 -68.5t17 -93.5z" />
    <glyph glyph-name="afii10099" unicode="&#x452;" horiz-adv-x="573" 
d="M515 26q0 -83 -40 -135t-107 -85l-69 83q45 23 65 54.5t20 88.5v208q0 19 -1 34.5t-5 27.5q-8 29 -28.5 39t-46.5 10q-32 0 -61 -15.5t-46 -29.5v-306h-131v524h-65v83h65v60h131v-60h151v-83h-151v-111q25 19 59.5 33t81.5 14q66 0 105.5 -26.5t56.5 -69.5
q10 -25 13 -54t3 -61v-223v0z" />
    <glyph glyph-name="afii10052" unicode="&#x403;" horiz-adv-x="505" 
d="M208 546v-546h-135v667h427v-121h-292zM199 704l-36 54l201 141l63 -83z" />
    <glyph glyph-name="afii10100" unicode="&#x453;" horiz-adv-x="425" 
d="M195 377v-377h-130v482h355v-105h-225zM152 538l-36 54l201 141l63 -83z" />
    <glyph glyph-name="afii10057" unicode="&#x408;" horiz-adv-x="297" 
d="M220 67q0 -47 -17 -82.5t-48.5 -61t-75 -41.5t-97.5 -25l-25 114q70 14 99 43t29 75v578h135v-600v0z" />
    <glyph glyph-name="afii10053" unicode="&#x404;" horiz-adv-x="606" 
d="M477 474q-22 38 -55 63.5t-84 25.5q-54 0 -96.5 -40t-57.5 -119h244v-121h-248q6 -47 20 -81t35 -55.5t47.5 -31.5t56.5 -10q86 0 136 92l106 -65q-43 -76 -106 -111t-148 -35q-65 0 -117.5 22.5t-90 66t-58 107t-20.5 146.5q0 91 24.5 157.5t65 110t94 64.5t110.5 21
q94 0 155 -39.5t96 -106.5z" />
    <glyph glyph-name="afii10101" unicode="&#x454;" horiz-adv-x="503" 
d="M481 74q-31 -38 -80.5 -61.5t-119.5 -23.5q-50 0 -93.5 15t-76 45.5t-51.5 76.5t-19 108q0 66 18.5 114.5t51 81t75.5 48.5t93 16q45 0 79 -10.5t58.5 -26t39.5 -33.5t22 -32l-94 -59q-19 27 -44.5 40.5t-60.5 13.5q-38 0 -69 -24.5t-37 -72.5h196v-94h-197
q5 -48 35.5 -75.5t78.5 -27.5q42 0 69 15.5t46 35.5l80 -70v0z" />
    <glyph glyph-name="afii10056" unicode="&#x407;" horiz-adv-x="289" 
d="M77 0v667h135v-667h-135zM304 797q0 -28 -18 -49.5t-47 -21.5q-28 0 -46.5 21.5t-18.5 49.5q0 29 18.5 50t46.5 21q29 0 47 -21t18 -50zM116 797q0 -28 -18.5 -49.5t-46.5 -21.5q-29 0 -47 21.5t-18 49.5q0 29 18 50t47 21q28 0 46.5 -21t18.5 -50z" />
    <glyph glyph-name="afii10104" unicode="&#x457;" horiz-adv-x="261" 
d="M65 0v477h131v-477h-131zM289 631q0 -28 -18 -49.5t-47 -21.5q-28 0 -46.5 21.5t-18.5 49.5q0 29 18.5 50t46.5 21q29 0 47 -21t18 -50zM101 631q0 -28 -18.5 -49.5t-46.5 -21.5q-29 0 -47 21.5t-18 49.5q0 29 18 50t47 21q28 0 46.5 -21t18.5 -50z" />
    <glyph glyph-name="afii10058" unicode="&#x409;" horiz-adv-x="972" 
d="M173 667h413v-224h105q60 0 106.5 -15.5t78.5 -44.5t49 -69.5t17 -89.5q0 -50 -17 -91t-49 -70.5t-78.5 -46t-106.5 -16.5h-238v548h-147v-14q0 -101 -2.5 -171.5t-9 -121t-18 -85.5t-29.5 -64q-32 -50 -82.5 -71t-109.5 -21h-37v121h23q29 0 56 9.5t43 39.5
q10 19 16.5 40t10 58.5t5 98t1.5 159.5v141zM801 224q0 50 -31 77.5t-87 27.5h-97v-215h96q56 0 87.5 28.5t31.5 81.5z" />
    <glyph glyph-name="afii10106" unicode="&#x459;" horiz-adv-x="803" 
d="M772 182q0 -36 -11.5 -69t-37 -58t-66 -40t-98.5 -15h-211v382h-105q-2 -82 -6.5 -145.5t-15.5 -108.5q-6 -25 -18.5 -48t-32 -41t-48 -28.5t-66.5 -10.5h-55v100h33q24 0 41 11.5t25 38.5q3 9 6.5 24.5t6 42.5t4.5 68t2 101v96h356v-122h84q58 0 98.5 -14.5t66 -38.5
t37 -56.5t11.5 -68.5zM632 182q0 35 -20.5 59t-66.5 24h-70v-170h70q46 0 66.5 25t20.5 62z" />
    <glyph glyph-name="afii10059" unicode="&#x40a;" horiz-adv-x="968" 
d="M938 216q0 -100 -65.5 -158t-185.5 -58h-240v309h-239v-309h-135v667h135v-244h239v244h135v-244h105q120 0 185.5 -53.5t65.5 -153.5zM800 212q0 50 -32.5 73.5t-88.5 23.5h-97v-195h96q56 0 89 22.5t33 75.5z" />
    <glyph glyph-name="afii10107" unicode="&#x45a;" horiz-adv-x="834" 
d="M803 162q0 -29 -8.5 -58t-30 -52t-59 -37.5t-95.5 -14.5h-249v221h-168v-221h-128v482h128v-162h168v162h128v-162h121q58 0 95.5 -14t59 -36.5t30 -51t8.5 -56.5zM668 158q0 12 -3.5 23.5t-12 20t-23.5 14t-38 5.5h-102v-126h102q46 0 61.5 18.5t15.5 44.5z" />
    <glyph glyph-name="afii10105" unicode="&#x458;" horiz-adv-x="270" 
d="M218 598q0 -27 -19.5 -49t-57.5 -22q-39 0 -58.5 22t-19.5 49q0 26 19.5 48t58.5 22q38 0 57.5 -22t19.5 -48zM205 19q0 -39 -8.5 -70.5t-26 -57.5t-44 -47t-62.5 -40l-72 80q25 17 41.5 31.5t25.5 30t12.5 33t3.5 40.5v463h130v-463z" />
    <glyph glyph-name="afii10054" unicode="&#x405;" horiz-adv-x="556" 
d="M523 180q0 -49 -20.5 -85.5t-54 -60.5t-77.5 -36t-90 -12q-182 0 -255 123l103 68q23 -38 62 -57.5t88 -19.5q51 0 81.5 20t30.5 53q0 21 -7 37t-24 30t-47 27.5t-76 29.5q-43 15 -77.5 32t-59 40t-37.5 53.5t-13 72.5q0 41 14.5 75t44 59t73.5 38.5t103 13.5
q49 0 86.5 -9.5t65 -25.5t47.5 -37t35 -44l-97 -69q-21 32 -53 53t-85 21q-51 0 -77.5 -18t-26.5 -47q0 -35 34 -57.5t102 -47.5q51 -18 89.5 -38t64.5 -45.5t39.5 -58.5t13.5 -78z" />
    <glyph glyph-name="afii10060" unicode="&#x40b;" horiz-adv-x="716" 
d="M511 0v243q0 44 -24 70t-75 26q-36 0 -67 -12.5t-51 -25.5v-301h-134v546h-160v121h461v-121h-167v-121q25 14 58.5 23.5t78.5 9.5q48 0 87 -11.5t67.5 -36t44 -63t15.5 -92.5v-255h-134z" />
    <glyph glyph-name="afii10108" unicode="&#x45b;" horiz-adv-x="573" 
d="M384 0v240q0 19 -1 34.5t-5 27.5q-8 24 -24.5 36.5t-50.5 12.5q-30 0 -60 -15.5t-47 -29.5v-306h-131v524h-65v83h65v60h131v-60h151v-83h-151v-111q23 17 58 31.5t82 14.5q65 0 105.5 -25t57.5 -70q9 -23 12.5 -53t3.5 -62v-249h-131z" />
    <glyph glyph-name="afii10061" unicode="&#x40c;" horiz-adv-x="622" 
d="M489 0l-215 316l-62 -62v-254h-135v667h135v-255l256 255h160l-262 -260l275 -407h-152zM253 704l-36 54l201 141l63 -83z" />
    <glyph glyph-name="afii10109" unicode="&#x45c;" 
d="M381 0l-134 213l-51 -58v-155h-131v482h131v-176l151 176h157l-162 -192l186 -290h-147zM191 538l-36 54l201 141l63 -83z" />
    <glyph glyph-name="afii10102" unicode="&#x455;" horiz-adv-x="485" 
d="M457 140q0 -39 -16 -67.5t-44 -47t-66 -27.5t-81 -9q-86 0 -139.5 32.5t-81.5 81.5l97 59q17 -32 47.5 -53.5t76.5 -21.5q40 0 62.5 12.5t22.5 34.5q0 21 -24 37t-89 28q-38 7 -69.5 18.5t-53.5 29.5t-34 43t-12 60q0 64 53.5 104t144.5 40q82 0 130 -26.5t74 -64.5
l-92 -63q-18 24 -46 40t-66 16q-42 0 -58 -12.5t-16 -32.5q0 -23 20 -33t74 -21q44 -9 78.5 -21t58.5 -30.5t36.5 -44.5t12.5 -61z" />
    <glyph glyph-name="afii10062" unicode="&#x40e;" horiz-adv-x="623" 
d="M517 867q-2 -41 -19 -71t-43.5 -50.5t-60.5 -30.5t-68 -10q-35 0 -68 10t-60 30.5t-44 50.5t-19 71h117q8 -33 29.5 -50t44.5 -17t44.5 17t29.5 50h117zM609 667q-27 -81 -52.5 -152t-51.5 -134.5t-53 -122t-57 -113.5q-20 -38 -41.5 -66.5t-48 -47t-60 -28t-77.5 -9.5
h-50v121h29q25 0 44 2t33 9.5t25 22t22 39.5l-263 479h151l184 -350q35 81 67.5 170t61.5 180h137z" />
    <glyph glyph-name="afii10110" unicode="&#x45e;" horiz-adv-x="517" 
d="M446 701q-2 -41 -19 -71t-43.5 -50.5t-60.5 -30.5t-68 -10q-35 0 -68 10t-60 30.5t-44 50.5t-19 71h117q8 -33 29.5 -50t44.5 -17t44.5 17t29.5 50h117zM267 -114q-11 -25 -26 -42t-33 -27t-38.5 -14t-40.5 -4q-26 0 -57.5 6.5t-64.5 20.5l41 93q19 -9 37.5 -13t31.5 -4
q12 0 24 7t22 28l37 83l-200 462h139l126 -329l120 329h132z" />
    <glyph glyph-name="afii10145" unicode="&#x40f;" horiz-adv-x="673" 
d="M402 0v-135h-132v135h-192v667h135v-548h247v548h135v-667h-193z" />
    <glyph glyph-name="afii10193" unicode="&#x45f;" horiz-adv-x="572" 
d="M348 0v-105h-123v105h-157v482h130v-377h176v377h130v-482h-156z" />
    <glyph glyph-name="afii61352" unicode="&#x2116;" horiz-adv-x="1085" 
d="M496 0l-290 451v-451h-133v667h138l270 -426v426h133v-667h-118zM1064 467q0 -37 -12 -72.5t-36 -64t-61 -46t-87 -17.5t-87 17.5t-61 46t-36 64t-12 72.5t12 72.5t36 64t61 46t87 17.5t87 -17.5t61 -46t36 -64t12 -72.5zM944 467q0 51 -20.5 79t-55.5 28t-55.5 -28
t-20.5 -79t20.5 -79t55.5 -28t55.5 28t20.5 79z" />
    <glyph glyph-name="afii10023" unicode="&#x401;" horiz-adv-x="586" 
d="M77 0v667h458v-121h-323v-152h267v-121h-267v-152h346v-121h-481zM466 797q0 -28 -18 -49.5t-47 -21.5q-28 0 -46.5 21.5t-18.5 49.5q0 29 18.5 50t46.5 21q29 0 47 -21t18 -50zM278 797q0 -28 -18.5 -49.5t-46.5 -21.5q-29 0 -47 21.5t-18 49.5q0 29 18 50t47 21
q28 0 46.5 -21t18.5 -50z" />
    <glyph glyph-name="afii10071" unicode="&#x451;" horiz-adv-x="525" 
d="M166 210q5 -61 37.5 -88t72.5 -27q35 0 63 12.5t58 54.5l97 -59q-41 -63 -95 -88.5t-127 -25.5q-48 0 -91 15t-75.5 46.5t-51.5 78.5t-19 112q0 61 18.5 108t50.5 79t74.5 49t90.5 17q101 0 162.5 -70.5t63.5 -213.5h-329zM362 299q-4 48 -32.5 72t-60.5 24
q-17 0 -33.5 -6.5t-30.5 -19t-23.5 -30.5t-12.5 -40h193zM429 631q0 -28 -18 -49.5t-47 -21.5q-28 0 -46.5 21.5t-18.5 49.5q0 29 18.5 50t46.5 21q29 0 47 -21t18 -50zM241 631q0 -28 -18.5 -49.5t-46.5 -21.5q-29 0 -47 21.5t-18 49.5q0 29 18 50t47 21q28 0 46.5 -21
t18.5 -50z" />
    <glyph glyph-name="afii10097" unicode="&#x44f;" 
d="M347 0v162h-88l-94 -162h-140l110 177q-22 8 -41 23.5t-32.5 35t-21 41.5t-7.5 43q0 29 8.5 58t30 52t59 37.5t95.5 14.5h249v-482h-128zM347 387h-106q-23 0 -38 -5.5t-23.5 -15t-12 -21.5t-3.5 -25q0 -12 3.5 -23.5t12 -20t23.5 -14t38 -5.5h106v130z" />
    <glyph glyph-name="afii10065" unicode="&#x430;" horiz-adv-x="514" 
d="M332 0l-6 36q-21 -22 -53.5 -34.5t-71.5 -12.5q-32 0 -62.5 10.5t-53.5 30t-37 48t-14 64.5t15 63.5t40 46.5t57.5 31t68.5 18q25 5 55 7.5t50 4.5v16q0 29 -20 47t-47 18q-17 0 -43 -9t-50 -34l-89 62q19 24 43.5 40t50 25t50.5 12.5t46 3.5q42 0 77 -10.5t60.5 -33
t39.5 -57t14 -83.5v-310h-120zM321 225q-20 -1 -42.5 -3.5t-42.5 -6.5q-42 -8 -58.5 -27.5t-16.5 -42.5q0 -24 18 -38.5t53 -14.5q25 0 48.5 10t40.5 25v98z" />
    <glyph glyph-name="afii10066" unicode="&#x431;" horiz-adv-x="570" 
d="M528 231q0 -47 -16 -90.5t-47 -77t-76.5 -54t-104.5 -20.5q-63 0 -109 21.5t-76 60t-44.5 91.5t-14.5 116q0 60 10 120t38.5 110t81 84.5t138.5 43.5l151 16l11 -98l-149 -18q-41 -5 -66.5 -14.5t-41 -25.5t-24 -38.5t-14.5 -53.5q7 12 21.5 21.5t32.5 17t39 11.5t42 4
q52 0 93 -17t68.5 -47.5t42 -72t14.5 -90.5zM400 225q0 54 -29 90.5t-86 36.5t-85.5 -36.5t-28.5 -90.5q0 -55 28.5 -91.5t85.5 -36.5t86 36.5t29 91.5z" />
    <glyph glyph-name="afii10067" unicode="&#x432;" horiz-adv-x="551" 
d="M516 147q0 -38 -14 -65.5t-38 -45.5t-57 -27t-70 -9h-272v482h263q77 0 121 -33.5t44 -93.5q0 -69 -54 -100q38 -16 57.5 -41.5t19.5 -66.5zM381 147q0 49 -58 49h-132v-99h132q29 0 43.5 13.5t14.5 36.5zM362 342q0 17 -11.5 30t-43.5 13h-116v-94h116q32 0 43.5 17
t11.5 34z" />
    <glyph glyph-name="afii10068" unicode="&#x433;" horiz-adv-x="425" 
d="M195 377v-377h-130v482h355v-105h-225z" />
    <glyph glyph-name="afii10069" unicode="&#x434;" horiz-adv-x="573" 
d="M511 105h54v-210h-123v105h-311v-105h-123v210h55l170 377h113zM200 105h181l-89 215z" />
    <glyph glyph-name="afii10070" unicode="&#x435;" horiz-adv-x="525" 
d="M166 210q5 -61 37.5 -88t72.5 -27q35 0 63 12.5t58 54.5l97 -59q-41 -63 -95 -88.5t-127 -25.5q-48 0 -91 15t-75.5 46.5t-51.5 78.5t-19 112q0 61 18.5 108t50.5 79t74.5 49t90.5 17q101 0 162.5 -70.5t63.5 -213.5h-329zM362 299q-4 48 -32.5 72t-60.5 24
q-17 0 -33.5 -6.5t-30.5 -19t-23.5 -30.5t-12.5 -40h193z" />
    <glyph glyph-name="afii10072" unicode="&#x436;" horiz-adv-x="773" 
d="M0 0l186 279l-162 203h157l139 -195v195h133v-195l139 195h157l-162 -203l186 -279h-147l-124 197l-49 -65v-132h-133v132l-49 65l-124 -197h-147z" />
    <glyph glyph-name="afii10073" unicode="&#x437;" horiz-adv-x="478" 
d="M446 139q0 -38 -16.5 -66t-45.5 -47t-69 -28t-87 -9q-88 0 -139.5 30.5t-77.5 76.5l94 60q19 -30 46 -47t77 -17q41 0 64.5 12t23.5 39q0 22 -19 36.5t-70 14.5h-47v93h48q24 0 39 5t23.5 13.5t11.5 18.5t3 20q0 29 -22 39.5t-54 10.5q-37 0 -65 -15t-45 -58l-98 46
q12 26 29.5 49t43 40.5t60.5 27.5t83 10q91 0 144 -35t53 -101q0 -32 -16 -62t-57 -46q46 -14 65.5 -41t19.5 -70z" />
    <glyph glyph-name="afii10074" unicode="&#x438;" horiz-adv-x="584" 
d="M389 0v271l-244 -271h-80v482h130v-271l244 271h80v-482h-130z" />
    <glyph glyph-name="afii10075" unicode="&#x439;" horiz-adv-x="584" 
d="M389 0v271l-244 -271h-80v482h130v-271l244 271h80v-482h-130zM491 698q-2 -41 -19 -71t-43.5 -50.5t-60.5 -30.5t-68 -10q-35 0 -68 10t-60 30.5t-44 50.5t-19 71h117q8 -33 29.5 -50t44.5 -17t44.5 17t29.5 50h117v0z" />
    <glyph glyph-name="afii10076" unicode="&#x43a;" 
d="M381 0l-134 213l-51 -58v-155h-131v482h131v-176l151 176h157l-162 -192l186 -290h-147z" />
    <glyph glyph-name="afii10077" unicode="&#x43b;" horiz-adv-x="533" 
d="M533 0h-133l-128 320l-133 -320h-139l213 482h113z" />
    <glyph glyph-name="afii10078" unicode="&#x43c;" horiz-adv-x="675" 
d="M484 0v271l-117 -271h-50l-126 271v-271h-126v482h131l145 -294l139 294h130v-482h-126z" />
    <glyph glyph-name="afii10079" unicode="&#x43d;" horiz-adv-x="584" 
d="M386 0v194h-188v-194h-130v482h130v-183h188v183h130v-482h-130z" />
    <glyph glyph-name="afii10080" unicode="&#x43e;" horiz-adv-x="556" 
d="M521 243q0 -47 -15 -92.5t-45.5 -81.5t-76 -58t-106.5 -22t-106.5 22t-76 58t-45.5 81.5t-15 92.5t15 92t45.5 80.5t76 57t106.5 21.5t106.5 -21.5t76 -57t45.5 -80.5t15 -92zM393 243q0 30 -7.5 57t-22 46.5t-36 31t-49.5 11.5t-49.5 -11.5t-36 -31t-22 -46.5t-7.5 -57
q0 -31 7.5 -57.5t21.5 -46.5t35.5 -31.5t50.5 -11.5q28 0 49.5 11.5t36 31.5t22 46.5t7.5 57.5z" />
    <glyph glyph-name="afii10081" unicode="&#x43f;" horiz-adv-x="584" 
d="M383 0v379h-182v-379h-130v482h442v-482h-130z" />
    <glyph glyph-name="afii10082" unicode="&#x440;" horiz-adv-x="554" 
d="M519 242q0 -47 -15 -92.5t-46.5 -81t-80 -57.5t-114.5 -22q-34 0 -67 14v-192h-131v671h119l6 -36q18 17 48 32.5t71 15.5q52 0 91.5 -21t65.5 -55.5t39.5 -80.5t13.5 -95zM392 240q0 28 -7 55t-20.5 48t-34 34t-48.5 13q-27 0 -51 -14.5t-36 -31.5v-233q31 -14 61 -14
q35 0 60.5 12t42.5 32.5t25 46t8 52.5z" />
    <glyph glyph-name="afii10083" unicode="&#x441;" horiz-adv-x="487" 
d="M476 116q-31 -65 -83.5 -96t-122.5 -31q-46 0 -88.5 16t-75 47.5t-52 78t-19.5 108.5q0 64 19 112t50.5 80t72.5 47.5t85 15.5t78.5 -12.5t60 -32.5t42 -45t25.5 -50l-103 -51q-17 48 -42.5 67.5t-57.5 19.5q-20 0 -38 -9t-32.5 -27t-23 -46t-8.5 -67q0 -69 30.5 -107
t79.5 -38q38 0 62 19t43 54l98 -53v0z" />
    <glyph glyph-name="afii10084" unicode="&#x442;" horiz-adv-x="449" 
d="M290 377v-377h-131v377h-154v105h439v-105h-154z" />
    <glyph glyph-name="afii10085" unicode="&#x443;" horiz-adv-x="517" 
d="M267 -114q-11 -25 -26 -42t-33 -27t-38.5 -14t-40.5 -4q-26 0 -57.5 6.5t-64.5 20.5l41 93q19 -9 37.5 -13t31.5 -4q12 0 24 7t22 28l37 83l-200 462h139l126 -329l120 329h132z" />
    <glyph glyph-name="afii10086" unicode="&#x444;" horiz-adv-x="702" 
d="M664 241q0 -58 -19 -102.5t-53 -74.5t-79.5 -46.5t-98.5 -17.5v-189h-126v189q-53 1 -98.5 17t-79.5 46.5t-53 74.5t-19 103q0 58 19 102t53 74t79.5 46t98.5 18v186h126v-186q53 -2 98.5 -17.5t79.5 -45.5t53 -74.5t19 -102.5zM537 241q0 63 -35.5 96.5t-87.5 38.5v-271
q52 5 87.5 39t35.5 97zM288 376q-52 -5 -87.5 -38.5t-35.5 -96.5t35.5 -97t87.5 -39v271z" />
    <glyph glyph-name="afii10087" unicode="&#x445;" horiz-adv-x="511" 
d="M364 0l-112 152l-113 -152h-136l181 238l-184 244h147l111 -149l111 149h134l-176 -235l184 -247h-147z" />
    <glyph glyph-name="afii10088" unicode="&#x446;" horiz-adv-x="578" 
d="M420 -105v105h-355v482h130v-379h170v379h130v-377h48v-210h-123z" />
    <glyph glyph-name="afii10089" unicode="&#x447;" horiz-adv-x="566" 
d="M370 0v140q-24 -6 -59 -10t-77 -4q-80 0 -125 35.5t-58 93.5q-3 14 -4.5 34t-1.5 36v157h131v-151q0 -25 4 -40q6 -26 26 -39t58 -13q31 0 59 3t47 11v229h131v-482h-131z" />
    <glyph glyph-name="afii10090" unicode="&#x448;" horiz-adv-x="844" 
d="M65 0v482h130v-379h164v379h126v-379h164v379h130v-482h-714z" />
    <glyph glyph-name="afii10091" unicode="&#x449;" horiz-adv-x="856" 
d="M698 -105v105h-633v482h130v-379h161v379h126v-379h161v379h130v-377h48v-210h-123z" />
    <glyph glyph-name="afii10092" unicode="&#x44a;" horiz-adv-x="568" 
d="M533 182q0 -36 -11.5 -69t-37 -58t-66 -40t-98.5 -15h-229v379h-86v103h214v-122h101q58 0 98.5 -14.5t66 -38.5t37 -56.5t11.5 -68.5zM393 182q0 35 -20.5 58t-66.5 23h-87v-168h87q46 0 66.5 25t20.5 62z" />
    <glyph glyph-name="afii10093" unicode="&#x44b;" horiz-adv-x="758" 
d="M507 182q0 -36 -11.5 -69t-37 -58t-66 -40t-98.5 -15h-229v482h128v-122h101q58 0 98.5 -14.5t66 -38.5t37 -56.5t11.5 -68.5zM562 0v482h131v-482h-131zM367 182q0 35 -20.5 58t-66.5 23h-87v-168h87q46 0 66.5 25t20.5 62z" />
    <glyph glyph-name="afii10094" unicode="&#x44c;" horiz-adv-x="555" 
d="M520 182q0 -36 -11.5 -69t-37 -58t-66 -40t-98.5 -15h-242v482h128v-122h114q58 0 98.5 -14.5t66 -38.5t37 -56.5t11.5 -68.5zM380 182q0 35 -20.5 58t-66.5 23h-100v-168h100q46 0 66.5 25t20.5 62z" />
    <glyph glyph-name="afii10095" unicode="&#x44d;" horiz-adv-x="503" 
d="M461 244q0 -67 -19 -115.5t-52 -79.5t-76.5 -45.5t-92.5 -14.5q-74 0 -121 23.5t-78 61.5l80 70q19 -20 46 -35.5t69 -15.5q48 0 78.5 26t35.5 77h-197v94h196q-2 24 -12 42t-24.5 30t-32.5 18t-37 6q-39 0 -63.5 -14t-41.5 -39l-94 59q8 13 24 31t40.5 33.5t59 26.5
t79.5 11q51 0 94 -15.5t73.5 -46.5t48 -78t17.5 -110z" />
    <glyph glyph-name="afii10096" unicode="&#x44e;" horiz-adv-x="790" 
d="M749 244q0 -48 -13.5 -94t-42 -81.5t-72.5 -57.5t-105 -22q-54 0 -94.5 16.5t-68 45t-44 65.5t-22.5 79h-92v-195h-130v482h130v-185h93q6 38 23 73.5t44.5 63t67.5 44t93 16.5q62 0 106 -21.5t72.5 -56.5t41.5 -80t13 -92zM620 243q0 30 -5.5 57t-18 46.5t-32.5 31
t-48 11.5t-48 -11.5t-32.5 -31t-18 -46.5t-5.5 -57q0 -31 5.5 -57.5t18 -46.5t32 -31.5t48.5 -11.5q28 0 48 11.5t32.5 31.5t18 46.5t5.5 57.5z" />
    <glyph glyph-name="afii10103" unicode="&#x456;" horiz-adv-x="260" 
d="M208 598q0 -27 -19.5 -49t-58.5 -22t-58.5 22t-19.5 49q0 26 19.5 48t58.5 22t58.5 -22t19.5 -48zM65 0v482h130v-482h-130z" />
    <glyph glyph-name="zerosuperior" unicode="&#x2070;" horiz-adv-x="315" 
d="M298 503q0 -37 -9 -68t-26.5 -54t-44 -36t-61.5 -13q-71 0 -106 48t-35 123q0 35 8.5 66t26 54.5t44 37t62.5 13.5t62.5 -14t44 -37.5t26 -54.5t8.5 -65zM214 504q0 16 -3.5 32t-10 28.5t-17.5 20.5t-26 8q-16 0 -27 -8t-17.5 -20.5t-9.5 -28.5t-3 -32q0 -17 3 -33.5
t9.5 -29.5t17.5 -21.5t27 -8.5q15 0 26 8.5t18 21.5t10 29.5t3 33.5z" />
    <glyph glyph-name="foursuperior" unicode="&#x2074;" horiz-adv-x="315" 
d="M262 408v-71h-97v71h-153v73l161 184h89v-187h41v-70h-41zM165 564l-74 -86h74v86z" />
    <glyph glyph-name="fivesuperior" unicode="&#x2075;" horiz-adv-x="315" 
d="M289 454q0 -32 -12 -55t-31.5 -38t-43.5 -22t-49 -7q-19 0 -38.5 3t-36.5 9t-31 15.5t-22 23.5l66 62q9 -14 23.5 -24.5t34.5 -10.5q17 0 29.5 10.5t12.5 27.5q0 23 -24.5 32t-66.5 9h-49v176h216v-74h-125v-32q29 -1 55.5 -7t47 -18t32.5 -31.5t12 -48.5z" />
    <glyph glyph-name="sixsuperior" unicode="&#x2076;" horiz-adv-x="315" 
d="M18 474q0 41 15.5 76.5t44.5 62.5t69.5 43.5t91.5 20.5l18 -69q-17 -2 -35.5 -6.5t-36.5 -11t-34 -16.5t-28 -23l1 -2q26 17 65 17q47 0 77 -30t30 -78q0 -56 -36.5 -91t-100.5 -35q-37 0 -63.5 12t-44 31.5t-25.5 45.5t-8 53zM116 465q0 -20 9.5 -39t34.5 -19
q17 0 29.5 11.5t12.5 31.5t-10.5 34t-33.5 14q-12 0 -21 -3t-20 -9q-1 -5 -1 -10.5v-10.5z" />
    <glyph glyph-name="sevensuperior" unicode="&#x2077;" horiz-adv-x="315" 
d="M161 337h-101l118 254h-147v74h252v-60z" />
    <glyph glyph-name="eightsuperior" unicode="&#x2078;" horiz-adv-x="315" 
d="M296 431q0 -50 -38 -74.5t-100 -24.5q-65 0 -102.5 24.5t-37.5 73.5q0 23 12 43.5t37 33.5q-20 14 -31 33.5t-11 40.5q0 45 35 68.5t98 23.5q59 0 95.5 -23.5t36.5 -66.5q0 -23 -10 -42.5t-31 -33.5q24 -11 35.5 -32.5t11.5 -43.5zM198 435q0 17 -11.5 25.5t-29.5 8.5
t-29.5 -9t-11.5 -25t11.5 -24t30.5 -8q17 0 28.5 8t11.5 24zM193 579q0 14 -9.5 21.5t-25.5 7.5t-26 -8t-10 -21q0 -14 9.5 -22.5t25.5 -8.5q17 0 26.5 8t9.5 23z" />
    <glyph glyph-name="ninesuperior" unicode="&#x2079;" horiz-adv-x="315" 
d="M295 534q0 -45 -16 -81t-45 -61.5t-69.5 -41.5t-90.5 -22l-18 71q38 5 72.5 16t58.5 34l-2 2q-12 -6 -25.5 -10t-30.5 -3q-47 2 -78 34.5t-31 83.5q0 48 35.5 82.5t98.5 34.5q38 0 65 -12t44 -31.5t24.5 -44.5t7.5 -51zM199 541q0 20 -9 38.5t-34 18.5q-17 0 -29 -11
t-12 -31t10 -34t33 -14q21 0 40 10q1 5 1 11.5v11.5z" />
    <glyph glyph-name="zeroinferior" unicode="&#x2080;" horiz-adv-x="315" 
d="M298 166q0 -37 -9 -68t-26.5 -54t-44 -36t-61.5 -13q-71 0 -106 48t-35 123q0 35 8.5 66t26 54.5t44 37t62.5 13.5t62.5 -14t44 -37.5t26 -54.5t8.5 -65zM214 167q0 16 -3.5 32t-10 28.5t-17.5 20.5t-26 8q-16 0 -27 -8t-17.5 -20.5t-9.5 -28.5t-3 -32q0 -17 3 -33.5
t9.5 -29.5t17.5 -21.5t27 -8.5q15 0 26 8.5t18 21.5t10 29.5t3 33.5z" />
    <glyph glyph-name="oneinferior" unicode="&#x2081;" horiz-adv-x="315" 
d="M162 0v218l-68 -36l-40 72l132 74h74v-328h-98z" />
    <glyph glyph-name="twoinferior" unicode="&#x2082;" horiz-adv-x="315" 
d="M39 0v57q35 32 63 57t55 55q14 15 21.5 28t7.5 27t-7.5 22.5t-21.5 8.5q-12 0 -27 -10.5t-32 -45.5l-78 40q53 97 154 97q48 0 81.5 -25t33.5 -76q0 -29 -12 -53.5t-32 -45.5q-15 -17 -28.5 -29t-29.5 -24h110v-83h-258z" />
    <glyph glyph-name="threeinferior" unicode="&#x2083;" horiz-adv-x="315" 
d="M298 102q0 -29 -12 -49t-31 -33t-43 -19t-49 -6q-40 0 -78 16.5t-69 63.5l78 41q17 -26 34 -34.5t32 -8.5q20 0 29.5 9t9.5 23q0 4 -1.5 9.5t-7.5 10.5t-17.5 8.5t-32.5 3.5v65q20 1 31 5t16 8.5t6 9.5t1 8q0 11 -8 18t-25 7q-14 0 -29 -8t-32 -35l-77 41
q29 45 67.5 62.5t82.5 17.5q22 0 43.5 -5.5t38.5 -17t27 -28.5t10 -40q0 -28 -11 -44.5t-27 -26.5q15 -8 29.5 -26t14.5 -46z" />
    <glyph glyph-name="fourinferior" unicode="&#x2084;" horiz-adv-x="315" 
d="M262 71v-71h-97v71h-153v73l161 184h89v-187h41v-70h-41zM165 227l-74 -86h74v86z" />
    <glyph glyph-name="fiveinferior" unicode="&#x2085;" horiz-adv-x="315" 
d="M289 117q0 -32 -12 -55t-31.5 -38t-43.5 -22t-49 -7q-19 0 -38.5 3t-36.5 9t-31 15.5t-22 23.5l66 62q9 -14 23.5 -24.5t34.5 -10.5q17 0 29.5 10.5t12.5 27.5q0 23 -24.5 32t-66.5 9h-49v176h216v-74h-125v-32q29 -1 55.5 -7t47 -18t32.5 -31.5t12 -48.5z" />
    <glyph glyph-name="sixinferior" unicode="&#x2086;" horiz-adv-x="315" 
d="M18 137q0 41 15.5 76.5t44.5 62.5t69.5 43.5t91.5 20.5l18 -69q-17 -2 -35.5 -6.5t-36.5 -11t-34 -16.5t-28 -23l1 -2q26 17 65 17q47 0 77 -30t30 -78q0 -56 -36.5 -91t-100.5 -35q-37 0 -63.5 12t-44 31.5t-25.5 45.5t-8 53zM116 128q0 -20 9.5 -39t34.5 -19
q17 0 29.5 11.5t12.5 31.5t-10.5 34t-33.5 14q-12 0 -21 -3t-20 -9q-1 -5 -1 -10.5v-10.5z" />
    <glyph glyph-name="seveninferior" unicode="&#x2087;" horiz-adv-x="315" 
d="M161 0h-101l118 254h-147v74h252v-60z" />
    <glyph glyph-name="eightinferior" unicode="&#x2088;" horiz-adv-x="315" 
d="M296 94q0 -50 -38 -74.5t-100 -24.5q-65 0 -102.5 24.5t-37.5 73.5q0 23 12 43.5t37 33.5q-20 14 -31 33.5t-11 40.5q0 45 35 68.5t98 23.5q59 0 95.5 -23.5t36.5 -66.5q0 -23 -10 -42.5t-31 -33.5q24 -11 35.5 -32.5t11.5 -43.5zM198 98q0 17 -11.5 25.5t-29.5 8.5
t-29.5 -9t-11.5 -25t11.5 -24t30.5 -8q17 0 28.5 8t11.5 24zM193 242q0 14 -9.5 21.5t-25.5 7.5t-26 -8t-10 -21q0 -14 9.5 -22.5t25.5 -8.5q17 0 26.5 8t9.5 23z" />
    <glyph glyph-name="nineinferior" unicode="&#x2089;" horiz-adv-x="315" 
d="M295 197q0 -45 -16 -81t-45 -61.5t-69.5 -41.5t-90.5 -22l-18 71q38 5 72.5 16t58.5 34l-2 2q-12 -6 -25.5 -10t-30.5 -3q-47 2 -78 34.5t-31 83.5q0 48 35.5 82.5t98.5 34.5q38 0 65 -12t44 -31.5t24.5 -44.5t7.5 -51zM199 204q0 20 -9 38.5t-34 18.5q-17 0 -29 -11
t-12 -31t10 -34t33 -14q21 0 40 10q1 5 1 11.5v11.5z" />
    <glyph glyph-name="onethird" unicode="&#x2153;" horiz-adv-x="774" 
d="M111 337v218l-68 -36l-40 72l132 74h74v-328h-98zM83 -12l-65 70l655 610l68 -69zM772 102q0 -29 -12 -49t-31 -33t-43 -19t-49 -6q-40 0 -78 16.5t-69 63.5l78 41q17 -26 34 -34.5t32 -8.5q20 0 29.5 9t9.5 23q0 4 -1.5 9.5t-7.5 10.5t-17.5 8.5t-32.5 3.5v65q20 1 31 5
t16 8.5t6 9.5t1 8q0 11 -8 18t-25 7q-14 0 -29 -8t-32 -35l-77 41q29 45 67.5 62.5t82.5 17.5q22 0 43.5 -5.5t38.5 -17t27 -28.5t10 -40q0 -28 -11 -44.5t-27 -26.5q15 -8 29.5 -26t14.5 -46z" />
    <glyph glyph-name="twothirds" unicode="&#x2154;" horiz-adv-x="774" 
d="M99 -12l-65 70l655 610l68 -69zM772 102q0 -29 -12 -49t-31 -33t-43 -19t-49 -6q-40 0 -78 16.5t-69 63.5l78 41q17 -26 34 -34.5t32 -8.5q20 0 29.5 9t9.5 23q0 4 -1.5 9.5t-7.5 10.5t-17.5 8.5t-32.5 3.5v65q20 1 31 5t16 8.5t6 9.5t1 8q0 11 -8 18t-25 7q-14 0 -29 -8
t-32 -35l-77 41q29 45 67.5 62.5t82.5 17.5q22 0 43.5 -5.5t38.5 -17t27 -28.5t10 -40q0 -28 -11 -44.5t-27 -26.5q15 -8 29.5 -26t14.5 -46zM5 337v57q35 32 63 57t55 55q14 15 21.5 28t7.5 27t-7.5 22.5t-21.5 8.5q-12 0 -27 -10.5t-32 -45.5l-78 40q53 97 154 97
q48 0 81.5 -25t33.5 -76q0 -29 -12 -53.5t-32 -45.5q-15 -17 -28.5 -29t-29.5 -24h110v-83h-258z" />
    <glyph glyph-name="oneeighth" unicode="&#x215b;" horiz-adv-x="774" 
d="M111 337v218l-68 -36l-40 72l132 74h74v-328h-98zM83 -12l-65 70l655 610l68 -69zM761 94q0 -50 -38 -74.5t-100 -24.5q-65 0 -102.5 24.5t-37.5 73.5q0 23 12 43.5t37 33.5q-20 14 -31 33.5t-11 40.5q0 45 35 68.5t98 23.5q59 0 95.5 -23.5t36.5 -66.5q0 -23 -10 -42.5
t-31 -33.5q24 -11 35.5 -32.5t11.5 -43.5zM663 98q0 17 -11.5 25.5t-29.5 8.5t-29.5 -9t-11.5 -25t11.5 -24t30.5 -8q17 0 28.5 8t11.5 24zM658 242q0 14 -9.5 21.5t-25.5 7.5t-26 -8t-10 -21q0 -14 9.5 -22.5t25.5 -8.5q17 0 26.5 8t9.5 23z" />
    <glyph glyph-name="threeeighths" unicode="&#x215c;" horiz-adv-x="774" 
d="M83 -12l-65 70l655 610l68 -69zM761 94q0 -50 -38 -74.5t-100 -24.5q-65 0 -102.5 24.5t-37.5 73.5q0 23 12 43.5t37 33.5q-20 14 -31 33.5t-11 40.5q0 45 35 68.5t98 23.5q59 0 95.5 -23.5t36.5 -66.5q0 -23 -10 -42.5t-31 -33.5q24 -11 35.5 -32.5t11.5 -43.5zM663 98
q0 17 -11.5 25.5t-29.5 8.5t-29.5 -9t-11.5 -25t11.5 -24t30.5 -8q17 0 28.5 8t11.5 24zM658 242q0 14 -9.5 21.5t-25.5 7.5t-26 -8t-10 -21q0 -14 9.5 -22.5t25.5 -8.5q17 0 26.5 8t9.5 23zM298 439q0 -29 -12 -49t-31 -33t-43 -19t-49 -6q-40 0 -78 16.5t-69 63.5l78 41
q17 -26 34 -34.5t32 -8.5q20 0 29.5 9t9.5 23q0 4 -1.5 9.5t-7.5 10.5t-17.5 8.5t-32.5 3.5v65q20 1 31 5t16 8.5t6 9.5t1 8q0 11 -8 18t-25 7q-14 0 -29 -8t-32 -35l-77 41q29 45 67.5 62.5t82.5 17.5q22 0 43.5 -5.5t38.5 -17t27 -28.5t10 -40q0 -28 -11 -44.5t-27 -26.5
q15 -8 29.5 -26t14.5 -46z" />
    <glyph glyph-name="fiveeighths" unicode="&#x215d;" horiz-adv-x="774" 
d="M83 -12l-65 70l655 610l68 -69zM761 94q0 -50 -38 -74.5t-100 -24.5q-65 0 -102.5 24.5t-37.5 73.5q0 23 12 43.5t37 33.5q-20 14 -31 33.5t-11 40.5q0 45 35 68.5t98 23.5q59 0 95.5 -23.5t36.5 -66.5q0 -23 -10 -42.5t-31 -33.5q24 -11 35.5 -32.5t11.5 -43.5zM663 98
q0 17 -11.5 25.5t-29.5 8.5t-29.5 -9t-11.5 -25t11.5 -24t30.5 -8q17 0 28.5 8t11.5 24zM658 242q0 14 -9.5 21.5t-25.5 7.5t-26 -8t-10 -21q0 -14 9.5 -22.5t25.5 -8.5q17 0 26.5 8t9.5 23zM289 454q0 -32 -12 -55t-31.5 -38t-43.5 -22t-49 -7q-19 0 -38.5 3t-36.5 9
t-31 15.5t-22 23.5l66 62q9 -14 23.5 -24.5t34.5 -10.5q17 0 29.5 10.5t12.5 27.5q0 23 -24.5 32t-66.5 9h-49v176h216v-74h-125v-32q29 -1 55.5 -7t47 -18t32.5 -31.5t12 -48.5z" />
    <glyph glyph-name="seveneighths" unicode="&#x215e;" horiz-adv-x="774" 
d="M83 -12l-65 70l655 610l68 -69zM761 94q0 -50 -38 -74.5t-100 -24.5q-65 0 -102.5 24.5t-37.5 73.5q0 23 12 43.5t37 33.5q-20 14 -31 33.5t-11 40.5q0 45 35 68.5t98 23.5q59 0 95.5 -23.5t36.5 -66.5q0 -23 -10 -42.5t-31 -33.5q24 -11 35.5 -32.5t11.5 -43.5zM663 98
q0 17 -11.5 25.5t-29.5 8.5t-29.5 -9t-11.5 -25t11.5 -24t30.5 -8q17 0 28.5 8t11.5 24zM658 242q0 14 -9.5 21.5t-25.5 7.5t-26 -8t-10 -21q0 -14 9.5 -22.5t25.5 -8.5q17 0 26.5 8t9.5 23zM186 337h-101l118 254h-147v74h252v-60z" />
    <glyph glyph-name="twoninths" unicode="&#xf507;" horiz-adv-x="774" 
d="M99 -12l-65 70l655 610l68 -69zM5 337v57q35 32 63 57t55 55q14 15 21.5 28t7.5 27t-7.5 22.5t-21.5 8.5q-12 0 -27 -10.5t-32 -45.5l-78 40q53 97 154 97q48 0 81.5 -25t33.5 -76q0 -29 -12 -53.5t-32 -45.5q-15 -17 -28.5 -29t-29.5 -24h110v-83h-258zM760 197
q0 -45 -16 -81t-45 -61.5t-69.5 -41.5t-90.5 -22l-18 71q38 5 72.5 16t58.5 34l-2 2q-12 -6 -25.5 -10t-30.5 -3q-47 2 -78 34.5t-31 83.5q0 48 35.5 82.5t98.5 34.5q38 0 65 -12t44 -31.5t24.5 -44.5t7.5 -51zM664 204q0 20 -9 38.5t-34 18.5q-17 0 -29 -11t-12 -31t10 -34
t33 -14q21 0 40 10q1 5 1 11.5v11.5z" />
    <glyph glyph-name="sixsevenths" unicode="&#xf505;" horiz-adv-x="774" 
d="M83 -12l-65 70l655 610l68 -69zM18 474q0 41 15.5 76.5t44.5 62.5t69.5 43.5t91.5 20.5l18 -69q-17 -2 -35.5 -6.5t-36.5 -11t-34 -16.5t-28 -23l1 -2q26 17 65 17q47 0 77 -30t30 -78q0 -56 -36.5 -91t-100.5 -35q-37 0 -63.5 12t-44 31.5t-25.5 45.5t-8 53zM116 465
q0 -20 9.5 -39t34.5 -19q17 0 29.5 11.5t12.5 31.5t-10.5 34t-33.5 14q-12 0 -21 -3t-20 -9q-1 -5 -1 -10.5v-10.5zM640 0h-101l118 254h-147v74h252v-60z" />
    <glyph glyph-name="twofifths" unicode="&#x2156;" horiz-adv-x="774" 
d="M99 -12l-65 70l655 610l68 -69zM5 337v57q35 32 63 57t55 55q14 15 21.5 28t7.5 27t-7.5 22.5t-21.5 8.5q-12 0 -27 -10.5t-32 -45.5l-78 40q53 97 154 97q48 0 81.5 -25t33.5 -76q0 -29 -12 -53.5t-32 -45.5q-15 -17 -28.5 -29t-29.5 -24h110v-83h-258zM769 117
q0 -32 -12 -55t-31.5 -38t-43.5 -22t-49 -7q-19 0 -38.5 3t-36.5 9t-31 15.5t-22 23.5l66 62q9 -14 23.5 -24.5t34.5 -10.5q17 0 29.5 10.5t12.5 27.5q0 23 -24.5 32t-66.5 9h-49v176h216v-74h-125v-32q29 -1 55.5 -7t47 -18t32.5 -31.5t12 -48.5z" />
    <glyph glyph-name="fiveninths" unicode="&#xf509;" horiz-adv-x="774" 
d="M99 -12l-65 70l655 610l68 -69zM760 197q0 -45 -16 -81t-45 -61.5t-69.5 -41.5t-90.5 -22l-18 71q38 5 72.5 16t58.5 34l-2 2q-12 -6 -25.5 -10t-30.5 -3q-47 2 -78 34.5t-31 83.5q0 48 35.5 82.5t98.5 34.5q38 0 65 -12t44 -31.5t24.5 -44.5t7.5 -51zM664 204
q0 20 -9 38.5t-34 18.5q-17 0 -29 -11t-12 -31t10 -34t33 -14q21 0 40 10q1 5 1 11.5v11.5zM289 454q0 -32 -12 -55t-31.5 -38t-43.5 -22t-49 -7q-19 0 -38.5 3t-36.5 9t-31 15.5t-22 23.5l66 62q9 -14 23.5 -24.5t34.5 -10.5q17 0 29.5 10.5t12.5 27.5q0 23 -24.5 32
t-66.5 9h-49v176h216v-74h-125v-32q29 -1 55.5 -7t47 -18t32.5 -31.5t12 -48.5z" />
    <glyph glyph-name="fourfifths" unicode="&#x2158;" horiz-adv-x="774" 
d="M99 -12l-65 70l655 610l68 -69zM769 117q0 -32 -12 -55t-31.5 -38t-43.5 -22t-49 -7q-19 0 -38.5 3t-36.5 9t-31 15.5t-22 23.5l66 62q9 -14 23.5 -24.5t34.5 -10.5q17 0 29.5 10.5t12.5 27.5q0 23 -24.5 32t-66.5 9h-49v176h216v-74h-125v-32q29 -1 55.5 -7t47 -18
t32.5 -31.5t12 -48.5zM262 408v-71h-97v71h-153v73l161 184h89v-187h41v-70h-41zM165 564l-74 -86h74v86z" />
    <glyph glyph-name="fivesixths" unicode="&#x215a;" horiz-adv-x="774" 
d="M83 -12l-65 70l655 610l68 -69zM289 454q0 -32 -12 -55t-31.5 -38t-43.5 -22t-49 -7q-19 0 -38.5 3t-36.5 9t-31 15.5t-22 23.5l66 62q9 -14 23.5 -24.5t34.5 -10.5q17 0 29.5 10.5t12.5 27.5q0 23 -24.5 32t-66.5 9h-49v176h216v-74h-125v-32q29 -1 55.5 -7t47 -18
t32.5 -31.5t12 -48.5zM458 137q0 41 15.5 76.5t44.5 62.5t69.5 43.5t91.5 20.5l18 -69q-17 -2 -35.5 -6.5t-36.5 -11t-34 -16.5t-28 -23l1 -2q26 17 65 17q47 0 77 -30t30 -78q0 -56 -36.5 -91t-100.5 -35q-37 0 -63.5 12t-44 31.5t-25.5 45.5t-8 53zM556 128q0 -20 9.5 -39
t34.5 -19q17 0 29.5 11.5t12.5 31.5t-10.5 34t-33.5 14q-12 0 -21 -3t-20 -9q-1 -5 -1 -10.5v-10.5z" />
    <glyph glyph-name="eightninths" unicode="&#xf50b;" horiz-adv-x="774" 
d="M83 -12l-65 70l655 610l68 -69zM296 431q0 -50 -38 -74.5t-100 -24.5q-65 0 -102.5 24.5t-37.5 73.5q0 23 12 43.5t37 33.5q-20 14 -31 33.5t-11 40.5q0 45 35 68.5t98 23.5q59 0 95.5 -23.5t36.5 -66.5q0 -23 -10 -42.5t-31 -33.5q24 -11 35.5 -32.5t11.5 -43.5z
M198 435q0 17 -11.5 25.5t-29.5 8.5t-29.5 -9t-11.5 -25t11.5 -24t30.5 -8q17 0 28.5 8t11.5 24zM193 579q0 14 -9.5 21.5t-25.5 7.5t-26 -8t-10 -21q0 -14 9.5 -22.5t25.5 -8.5q17 0 26.5 8t9.5 23zM760 197q0 -45 -16 -81t-45 -61.5t-69.5 -41.5t-90.5 -22l-18 71
q38 5 72.5 16t58.5 34l-2 2q-12 -6 -25.5 -10t-30.5 -3q-47 2 -78 34.5t-31 83.5q0 48 35.5 82.5t98.5 34.5q38 0 65 -12t44 -31.5t24.5 -44.5t7.5 -51zM664 204q0 20 -9 38.5t-34 18.5q-17 0 -29 -11t-12 -31t10 -34t33 -14q21 0 40 10q1 5 1 11.5v11.5z" />
    <glyph glyph-name="fourninths" unicode="&#xf508;" horiz-adv-x="774" 
d="M83 -12l-65 70l655 610l68 -69zM760 197q0 -45 -16 -81t-45 -61.5t-69.5 -41.5t-90.5 -22l-18 71q38 5 72.5 16t58.5 34l-2 2q-12 -6 -25.5 -10t-30.5 -3q-47 2 -78 34.5t-31 83.5q0 48 35.5 82.5t98.5 34.5q38 0 65 -12t44 -31.5t24.5 -44.5t7.5 -51zM664 204
q0 20 -9 38.5t-34 18.5q-17 0 -29 -11t-12 -31t10 -34t33 -14q21 0 40 10q1 5 1 11.5v11.5zM262 408v-71h-97v71h-153v73l161 184h89v-187h41v-70h-41zM165 564l-74 -86h74v86z" />
    <glyph glyph-name="twosevenths" unicode="&#xf501;" horiz-adv-x="774" 
d="M99 -12l-65 70l655 610l68 -69zM5 337v57q35 32 63 57t55 55q14 15 21.5 28t7.5 27t-7.5 22.5t-21.5 8.5q-12 0 -27 -10.5t-32 -45.5l-78 40q53 97 154 97q48 0 81.5 -25t33.5 -76q0 -29 -12 -53.5t-32 -45.5q-15 -17 -28.5 -29t-29.5 -24h110v-83h-258zM642 0h-101
l118 254h-147v74h252v-60z" />
    <glyph glyph-name="onefifth" unicode="&#x2155;" horiz-adv-x="774" 
d="M99 -12l-65 70l655 610l68 -69zM769 117q0 -32 -12 -55t-31.5 -38t-43.5 -22t-49 -7q-19 0 -38.5 3t-36.5 9t-31 15.5t-22 23.5l66 62q9 -14 23.5 -24.5t34.5 -10.5q17 0 29.5 10.5t12.5 27.5q0 23 -24.5 32t-66.5 9h-49v176h216v-74h-125v-32q29 -1 55.5 -7t47 -18
t32.5 -31.5t12 -48.5zM111 337v218l-68 -36l-40 72l132 74h74v-328h-98z" />
    <glyph glyph-name="sevenninths" unicode="&#xf50a;" horiz-adv-x="774" 
d="M83 -12l-65 70l655 610l68 -69zM760 197q0 -45 -16 -81t-45 -61.5t-69.5 -41.5t-90.5 -22l-18 71q38 5 72.5 16t58.5 34l-2 2q-12 -6 -25.5 -10t-30.5 -3q-47 2 -78 34.5t-31 83.5q0 48 35.5 82.5t98.5 34.5q38 0 65 -12t44 -31.5t24.5 -44.5t7.5 -51zM664 204
q0 20 -9 38.5t-34 18.5q-17 0 -29 -11t-12 -31t10 -34t33 -14q21 0 40 10q1 5 1 11.5v11.5zM161 337h-101l118 254h-147v74h252v-60z" />
    <glyph glyph-name="threefifths" unicode="&#x2157;" horiz-adv-x="774" 
d="M99 -12l-65 70l655 610l68 -69zM769 117q0 -32 -12 -55t-31.5 -38t-43.5 -22t-49 -7q-19 0 -38.5 3t-36.5 9t-31 15.5t-22 23.5l66 62q9 -14 23.5 -24.5t34.5 -10.5q17 0 29.5 10.5t12.5 27.5q0 23 -24.5 32t-66.5 9h-49v176h216v-74h-125v-32q29 -1 55.5 -7t47 -18
t32.5 -31.5t12 -48.5zM298 439q0 -29 -12 -49t-31 -33t-43 -19t-49 -6q-40 0 -78 16.5t-69 63.5l78 41q17 -26 34 -34.5t32 -8.5q20 0 29.5 9t9.5 23q0 4 -1.5 9.5t-7.5 10.5t-17.5 8.5t-32.5 3.5v65q20 1 31 5t16 8.5t6 9.5t1 8q0 11 -8 18t-25 7q-14 0 -29 -8t-32 -35
l-77 41q29 45 67.5 62.5t82.5 17.5q22 0 43.5 -5.5t38.5 -17t27 -28.5t10 -40q0 -28 -11 -44.5t-27 -26.5q15 -8 29.5 -26t14.5 -46z" />
    <glyph glyph-name="threesevenths" unicode="&#xf502;" horiz-adv-x="774" 
d="M99 -12l-65 70l655 610l68 -69zM642 0h-101l118 254h-147v74h252v-60zM298 439q0 -29 -12 -49t-31 -33t-43 -19t-49 -6q-40 0 -78 16.5t-69 63.5l78 41q17 -26 34 -34.5t32 -8.5q20 0 29.5 9t9.5 23q0 4 -1.5 9.5t-7.5 10.5t-17.5 8.5t-32.5 3.5v65q20 1 31 5t16 8.5
t6 9.5t1 8q0 11 -8 18t-25 7q-14 0 -29 -8t-32 -35l-77 41q29 45 67.5 62.5t82.5 17.5q22 0 43.5 -5.5t38.5 -17t27 -28.5t10 -40q0 -28 -11 -44.5t-27 -26.5q15 -8 29.5 -26t14.5 -46z" />
    <glyph glyph-name="oneninth" unicode="&#xf506;" horiz-adv-x="774" 
d="M83 -12l-65 70l655 610l68 -69zM760 197q0 -45 -16 -81t-45 -61.5t-69.5 -41.5t-90.5 -22l-18 71q38 5 72.5 16t58.5 34l-2 2q-12 -6 -25.5 -10t-30.5 -3q-47 2 -78 34.5t-31 83.5q0 48 35.5 82.5t98.5 34.5q38 0 65 -12t44 -31.5t24.5 -44.5t7.5 -51zM664 204
q0 20 -9 38.5t-34 18.5q-17 0 -29 -11t-12 -31t10 -34t33 -14q21 0 40 10q1 5 1 11.5v11.5zM111 337v218l-68 -36l-40 72l132 74h74v-328h-98z" />
    <glyph glyph-name="fivesevenths" unicode="&#xf504;" horiz-adv-x="774" 
d="M99 -12l-65 70l655 610l68 -69zM642 0h-101l118 254h-147v74h252v-60zM289 454q0 -32 -12 -55t-31.5 -38t-43.5 -22t-49 -7q-19 0 -38.5 3t-36.5 9t-31 15.5t-22 23.5l66 62q9 -14 23.5 -24.5t34.5 -10.5q17 0 29.5 10.5t12.5 27.5q0 23 -24.5 32t-66.5 9h-49v176h216
v-74h-125v-32q29 -1 55.5 -7t47 -18t32.5 -31.5t12 -48.5z" />
    <glyph glyph-name="onesixth" unicode="&#x2159;" horiz-adv-x="774" 
d="M83 -12l-65 70l655 610l68 -69zM458 137q0 41 15.5 76.5t44.5 62.5t69.5 43.5t91.5 20.5l18 -69q-17 -2 -35.5 -6.5t-36.5 -11t-34 -16.5t-28 -23l1 -2q26 17 65 17q47 0 77 -30t30 -78q0 -56 -36.5 -91t-100.5 -35q-37 0 -63.5 12t-44 31.5t-25.5 45.5t-8 53zM556 128
q0 -20 9.5 -39t34.5 -19q17 0 29.5 11.5t12.5 31.5t-10.5 34t-33.5 14q-12 0 -21 -3t-20 -9q-1 -5 -1 -10.5v-10.5zM111 337v218l-68 -36l-40 72l132 74h74v-328h-98z" />
    <glyph glyph-name="foursevenths" unicode="&#xf503;" horiz-adv-x="774" 
d="M99 -12l-65 70l655 610l68 -69zM642 0h-101l118 254h-147v74h252v-60zM262 408v-71h-97v71h-153v73l161 184h89v-187h41v-70h-41zM165 564l-74 -86h74v86z" />
    <glyph glyph-name="oneseventh" unicode="&#xf500;" horiz-adv-x="774" 
d="M99 -12l-65 70l655 610l68 -69zM642 0h-101l118 254h-147v74h252v-60zM111 337v218l-68 -36l-40 72l132 74h74v-328h-98z" />
    <glyph glyph-name="kratka" horiz-adv-x="500" 
d="M445 867q-2 -41 -19 -71t-43.5 -50.5t-60.5 -30.5t-68 -10q-35 0 -68 10t-60 30.5t-44 50.5t-19 71h117q8 -33 29.5 -50t44.5 -17t44.5 17t29.5 50h117v0z" />
    <glyph glyph-name="eth" unicode="&#xf0;" horiz-adv-x="569" 
d="M531 249q0 -57 -16 -104.5t-47 -82t-77 -53.5t-106 -19q-49 0 -93.5 15.5t-78.5 47t-54 78.5t-20 109q0 51 14 96t41.5 79t68.5 54t94 20q26 0 49 -6t43 -19q-12 25 -33.5 47t-48.5 39t-57.5 28.5t-60.5 16.5l25 85q44 -7 76.5 -17t64.5 -27l58 74l76 -58l-55 -71
q37 -32 63 -70.5t42.5 -81.5t24 -88.5t7.5 -91.5zM396 245q0 29 -6.5 62t-14.5 52q-47 25 -92 25q-51 0 -84 -35.5t-33 -107.5q0 -36 10 -63t26.5 -45.5t37 -27.5t42.5 -9q21 0 41.5 9t36.5 27.5t26 46.5t10 66z" />
    <glyph glyph-name="Lslash" unicode="&#x141;" horiz-adv-x="554" 
d="M77 0v250l-59 -35l-53 82l112 69v301h135v-218l92 58l57 -83l-149 -92v-211h337v-121h-472z" />
    <glyph glyph-name="uni0406" unicode="&#x406;" horiz-adv-x="289" 
d="M77 0v667h135v-667h-135z" />
    <glyph glyph-name="afii10050" unicode="&#x490;" horiz-adv-x="505" 
d="M208 546v-546h-135v667h299v97h128v-218h-292z" />
    <glyph glyph-name="afii10098" unicode="&#x491;" horiz-adv-x="425" 
d="M195 377v-377h-130v482h243v76h112v-181h-225z" />
    <glyph glyph-name="Cdotaccent" unicode="&#x10a;" horiz-adv-x="609" 
d="M584 133q-45 -80 -102 -113.5t-139 -33.5q-66 0 -121 23t-94.5 67.5t-61 108.5t-21.5 146q0 90 24.5 155.5t65 109t94 64.5t110.5 21q46 0 83 -10.5t66.5 -30.5t52 -49t39.5 -66l-109 -61q-20 43 -49.5 71t-79.5 28q-31 0 -60 -14t-51 -43t-35.5 -72.5t-13.5 -102.5
q0 -52 13 -94t35.5 -71t52.5 -45t65 -16q19 0 36.5 4t33.5 14.5t31 28t30 45.5l105 -64v0zM419 797q0 -31 -20 -54t-51 -23q-30 0 -50 23t-20 54t20 54t50 23q31 0 51 -23t20 -54z" />
    <glyph glyph-name="cdotaccent" unicode="&#x10b;" horiz-adv-x="487" 
d="M476 116q-31 -65 -83.5 -96t-122.5 -31q-46 0 -88.5 16t-75 47.5t-52 78t-19.5 108.5q0 64 19 112t50.5 80t72.5 47.5t85 15.5t78.5 -12.5t60 -32.5t42 -45t25.5 -50l-103 -51q-17 48 -42.5 67.5t-57.5 19.5q-20 0 -38 -9t-32.5 -27t-23 -46t-8.5 -67q0 -69 30.5 -107
t79.5 -38q38 0 62 19t43 54l98 -53v0zM334 631q0 -31 -20 -54t-51 -23q-30 0 -50 23t-20 54t20 54t50 23q31 0 51 -23t20 -54z" />
    <glyph glyph-name="Ebreve" unicode="&#x114;" horiz-adv-x="586" 
d="M77 0v667h458v-121h-323v-152h267v-121h-267v-152h346v-121h-481zM476 846q-1 -34 -16 -60t-38.5 -44t-53 -27.5t-59.5 -9.5q-33 0 -62.5 9t-52.5 26.5t-37.5 44t-15.5 61.5h103q6 -28 22 -44.5t43 -16.5t44 16.5t23 44.5h100v0z" />
    <glyph glyph-name="ebreve" unicode="&#x115;" horiz-adv-x="525" 
d="M166 210q5 -61 37.5 -88t72.5 -27q35 0 63 12.5t58 54.5l97 -59q-41 -63 -95 -88.5t-127 -25.5q-48 0 -91 15t-75.5 46.5t-51.5 78.5t-19 112q0 61 18.5 108t50.5 79t74.5 49t90.5 17q101 0 162.5 -70.5t63.5 -213.5h-329zM362 299q-4 48 -32.5 72t-60.5 24
q-17 0 -33.5 -6.5t-30.5 -19t-23.5 -30.5t-12.5 -40h193zM446 680q-1 -34 -16 -60t-38.5 -44t-53 -27.5t-59.5 -9.5q-33 0 -62.5 9t-52.5 26.5t-37.5 44t-15.5 61.5h103q6 -28 22 -44.5t43 -16.5t44 16.5t23 44.5h100v0z" />
    <glyph glyph-name="Gcircumflex" unicode="&#x11c;" horiz-adv-x="627" 
d="M587 30q-41 -18 -98 -31t-145 -13q-64 0 -119 23t-95 67.5t-62.5 108.5t-22.5 146q0 90 24 155.5t64.5 109t93.5 64.5t112 21q90 0 146.5 -36t91.5 -110l-109 -61q-20 42 -50.5 65.5t-75.5 23.5q-30 0 -59 -14t-51.5 -43t-36 -72.5t-13.5 -102.5q0 -52 14 -93.5t38 -71
t56 -45.5t69 -16q32 0 58.5 3t43.5 8v120h-109v115h235v-321v0zM442 711l-101 96l-101 -97l-67 45l121 130h96l121 -132z" />
    <glyph glyph-name="gcircumflex" unicode="&#x11d;" horiz-adv-x="533" 
d="M526 -52q0 -43 -21 -71.5t-55 -46t-78.5 -24.5t-90.5 -7t-90.5 7t-79.5 23.5t-56.5 44t-21.5 69.5q0 35 15 56.5t41 35.5q-14 11 -24.5 29t-10.5 40q0 26 15 46.5t40 34.5q-29 23 -46.5 56.5t-17.5 73.5q0 45 18.5 78.5t49 56t70 33.5t81.5 11q29 0 52 -5t49 -15l77 81
l73 -60l-70 -74q19 -21 29.5 -49t10.5 -57q0 -45 -18.5 -78.5t-49.5 -55.5t-71 -33t-82 -11q-19 0 -37.5 2.5t-31.5 5.5q-5 -3 -10 -10t-5 -13q0 -7 5 -12t19.5 -9t40.5 -7t69 -4q52 -2 92 -9.5t66.5 -24t40 -43t13.5 -65.5zM361 313q0 38 -27.5 61t-69.5 23t-68.5 -22.5
t-26.5 -60.5q0 -39 26.5 -59.5t68.5 -20.5t69.5 20.5t27.5 58.5zM412 -61q0 13 -5 22t-21.5 15t-46.5 9.5t-81 4.5q-20 1 -41 3.5t-41 5.5q-9 -6 -18 -17.5t-9 -27.5q0 -62 135 -62q60 0 94 12t34 35zM360 545l-101 96l-101 -97l-67 45l121 130h96l121 -132z" />
    <glyph glyph-name="Gdotaccent" unicode="&#x120;" horiz-adv-x="597" 
d="M587 30q-41 -18 -98 -31t-145 -13q-64 0 -119 23t-95 67.5t-62.5 108.5t-22.5 146q0 90 24 155.5t64.5 109t93.5 64.5t112 21q90 0 146.5 -36t91.5 -110l-109 -61q-20 42 -50.5 65.5t-75.5 23.5q-30 0 -59 -14t-51.5 -43t-36 -72.5t-13.5 -102.5q0 -52 14 -93.5t38 -71
t56 -45.5t69 -16q32 0 58.5 3t43.5 8v120h-109v115h235v-321v0zM408 797q0 -31 -20 -54t-51 -23q-30 0 -50 23t-20 54t20 54t50 23q31 0 51 -23t20 -54z" />
    <glyph glyph-name="gdotaccent" unicode="&#x121;" horiz-adv-x="533" 
d="M526 -52q0 -43 -21 -71.5t-55 -46t-78.5 -24.5t-90.5 -7t-90.5 7t-79.5 23.5t-56.5 44t-21.5 69.5q0 35 15 56.5t41 35.5q-14 11 -24.5 29t-10.5 40q0 26 15 46.5t40 34.5q-29 23 -46.5 56.5t-17.5 73.5q0 45 18.5 78.5t49 56t70 33.5t81.5 11q29 0 52 -5t49 -15l77 81
l73 -60l-70 -74q19 -21 29.5 -49t10.5 -57q0 -45 -18.5 -78.5t-49.5 -55.5t-71 -33t-82 -11q-19 0 -37.5 2.5t-31.5 5.5q-5 -3 -10 -10t-5 -13q0 -7 5 -12t19.5 -9t40.5 -7t69 -4q52 -2 92 -9.5t66.5 -24t40 -43t13.5 -65.5zM361 313q0 38 -27.5 61t-69.5 23t-68.5 -22.5
t-26.5 -60.5q0 -39 26.5 -59.5t68.5 -20.5t69.5 20.5t27.5 58.5zM412 -61q0 13 -5 22t-21.5 15t-46.5 9.5t-81 4.5q-20 1 -41 3.5t-41 5.5q-9 -6 -18 -17.5t-9 -27.5q0 -62 135 -62q60 0 94 12t34 35zM335 631q0 -31 -20 -54t-51 -23q-30 0 -50 23t-20 54t20 54t50 23
q31 0 51 -23t20 -54z" />
    <glyph glyph-name="Hcircumflex" unicode="&#x124;" horiz-adv-x="689" 
d="M477 0v282h-265v-282h-135v667h135v-264h265v264h135v-667h-135zM457 711l-101 96l-101 -97l-67 45l121 130h96l121 -132z" />
    <glyph glyph-name="hcircumflex" unicode="&#x125;" horiz-adv-x="577" 
d="M384 0v277q0 60 -24.5 86.5t-56.5 26.5t-61 -16.5t-46 -30.5v-343h-131v667h131v-217q24 18 57.5 31t80.5 13q49 0 83 -15t56 -42t32 -65.5t10 -85.5v-286h-131zM342 711l-101 96l-101 -97l-67 45l121 130h96l121 -132z" />
    <glyph glyph-name="Hbar" unicode="&#x126;" horiz-adv-x="689" 
d="M7 580h70v87h135v-87h265v87h135v-87h67v-97h-67v-483h-135v282h-265v-282h-135v483h-70v97zM477 403v80h-265v-80h265z" />
    <glyph glyph-name="hbar" unicode="&#x127;" horiz-adv-x="577" 
d="M3 621h62v46h131v-46h149v-87h-149v-84q24 18 57.5 31t80.5 13q49 0 83 -15t56 -42t32 -65.5t10 -85.5v-286h-131v277q0 60 -24.5 86.5t-56.5 26.5t-61 -16.5t-46 -30.5v-343h-131v534h-62v87z" />
    <glyph glyph-name="Itilde" unicode="&#x128;" horiz-adv-x="289" 
d="M77 0v667h135v-667h-135zM340 828q-18 -54 -50 -85t-77 -31q-21 0 -40.5 9.5t-36.5 20.5t-31.5 19t-26.5 8q-11 0 -27.5 -11.5t-33.5 -51.5l-69 36q17 51 49.5 83t77.5 32q20 0 39.5 -9t36.5 -20t32 -19.5t27 -8.5q10 0 27.5 11.5t34.5 51.5l68 -35v0z" />
    <glyph glyph-name="itilde" unicode="&#x129;" horiz-adv-x="261" 
d="M65 0v477h131v-477h-131zM326 662q-18 -54 -50 -85t-77 -31q-21 0 -40.5 9.5t-36.5 20.5t-31.5 19t-26.5 8q-11 0 -27.5 -11.5t-33.5 -51.5l-69 36q17 51 49.5 83t77.5 32q20 0 39.5 -9t36.5 -20t32 -19.5t27 -8.5q10 0 27.5 11.5t34.5 51.5l68 -35v0z" />
    <glyph glyph-name="Ibreve" unicode="&#x12c;" horiz-adv-x="289" 
d="M77 0v667h135v-667h-135zM311 846q-1 -34 -16 -60t-38.5 -44t-53 -27.5t-59.5 -9.5q-33 0 -62.5 9t-52.5 26.5t-37.5 44t-15.5 61.5h103q6 -28 22 -44.5t43 -16.5t44 16.5t23 44.5h100v0z" />
    <glyph glyph-name="ibreve" unicode="&#x12d;" horiz-adv-x="261" 
d="M65 0v477h131v-477h-131zM299 680q-1 -34 -16 -60t-38.5 -44t-53 -27.5t-59.5 -9.5q-33 0 -62.5 9t-52.5 26.5t-37.5 44t-15.5 61.5h103q6 -28 22 -44.5t43 -16.5t44 16.5t23 44.5h100v0z" />
    <glyph glyph-name="IJ" unicode="&#x132;" horiz-adv-x="579" 
d="M77 0v667h135v-667h-135zM502 67q0 -47 -17 -82.5t-48.5 -61t-75 -41.5t-97.5 -25l-25 114q70 14 99 43t29 75v578h135v-600v0z" />
    <glyph glyph-name="ij" unicode="&#x133;" horiz-adv-x="521" 
d="M208 598q0 -27 -19.5 -49t-58.5 -22t-58.5 22t-19.5 49q0 26 19.5 48t58.5 22t58.5 -22t19.5 -48zM65 0v482h130v-482h-130zM469 598q0 -27 -19.5 -49t-57.5 -22q-39 0 -58.5 22t-19.5 49q0 26 19.5 48t58.5 22q38 0 57.5 -22t19.5 -48zM456 19q0 -39 -8.5 -70.5
t-26 -57.5t-44 -47t-62.5 -40l-72 80q25 17 41.5 31.5t25.5 30t12.5 33t3.5 40.5v463h130v-463z" />
    <glyph glyph-name="Jcircumflex" unicode="&#x134;" horiz-adv-x="245" 
d="M220 67q0 -47 -17 -82.5t-48.5 -61t-75 -41.5t-97.5 -25l-25 114q70 14 99 43t29 75v578h135v-600v0zM252 711l-101 96l-101 -97l-67 45l121 130h96l121 -132z" />
    <glyph glyph-name="jcircumflex" unicode="&#x135;" horiz-adv-x="270" 
d="M205 19q0 -39 -8.5 -70.5t-26 -57.5t-44 -47t-62.5 -40l-72 80q25 17 41.5 31.5t25.5 30t12.5 33t3.5 40.5v463h130v-463v0zM241 545l-101 96l-101 -97l-67 45l121 130h96l121 -132z" />
    <glyph glyph-name="kgreenlandic" unicode="&#x138;" horiz-adv-x="522" 
d="M381 0l-138 206l-47 -53v-153h-131v482h131v-172l158 172h155l-173 -189l192 -293h-147z" />
    <glyph glyph-name="Ldot" unicode="&#x13f;" horiz-adv-x="479" 
d="M77 0v667h135v-546h336v-121h-471zM431 348q0 -31 -20 -54t-51 -23q-30 0 -50 23t-20 54t20 54t50 23q31 0 51 -23t20 -54z" />
    <glyph glyph-name="ldot" unicode="&#x140;" horiz-adv-x="368" 
d="M65 0v667h131v-667h-131zM388 348q0 -31 -20 -54t-51 -23q-30 0 -50 23t-20 54t20 54t50 23q31 0 51 -23t20 -54z" />
    <glyph glyph-name="napostrophe" unicode="&#x149;" horiz-adv-x="597" 
d="M404 0v275q0 55 -24 85t-67 30q-30 0 -56 -15t-45 -33v-342h-131v482h119l6 -38q30 24 69 37t78 13q40 0 73.5 -11.5t57.5 -36.5t37.5 -65t13.5 -96v-285h-131zM198 636q0 -17 -7.5 -35t-24 -34.5t-42 -31t-61.5 -23.5l-13 40q17 4 34 13t25 18q-11 8 -17.5 21.5
t-6.5 29.5q0 23 14 43t42 20q24 0 40.5 -17.5t16.5 -43.5z" />
    <glyph glyph-name="Eng" unicode="&#x14a;" horiz-adv-x="695" 
d="M405 -116q25 17 41 31.5t25.5 30t13 32.5t3.5 40l-278 423v-441h-133v667h138l270 -416v416h133v-648q0 -42 -9.5 -74t-27.5 -57.5t-44.5 -45.5t-59.5 -38z" />
    <glyph glyph-name="eng" unicode="&#x14b;" horiz-adv-x="581" 
d="M306 -116q45 30 62.5 55t19.5 61v275q0 55 -24 85t-67 30q-30 0 -56 -15t-45 -33v-342h-131v482h119l6 -38q30 24 69 37t78 13q40 0 73.5 -11.5t57.5 -36.5t37.5 -65t13.5 -96v-285q0 -37 -10 -66t-29 -52.5t-45 -42t-57 -35.5z" />
    <glyph glyph-name="Obreve" unicode="&#x14e;" horiz-adv-x="707" 
d="M662 334q0 -64 -19 -126.5t-58 -111.5t-97 -79.5t-136 -30.5q-77 0 -135 30.5t-96 79.5t-57 111.5t-19 126.5t19 126.5t57 111.5t96 79t135 30q78 0 136 -30t97 -79t58 -111.5t19 -126.5zM525 334q0 44 -11 85.5t-33 73.5t-54.5 51t-74.5 19t-73.5 -19t-53.5 -51
t-33 -73.5t-11 -85.5t11 -85.5t33 -73.5t53.5 -51t73.5 -19t74.5 19t54.5 51t33 73.5t11 85.5zM524 846q-1 -34 -16 -60t-38.5 -44t-53 -27.5t-59.5 -9.5q-33 0 -62.5 9t-52.5 26.5t-37.5 44t-15.5 61.5h103q6 -28 22 -44.5t43 -16.5t44 16.5t23 44.5h100v0z" />
    <glyph glyph-name="obreve" unicode="&#x14f;" horiz-adv-x="556" 
d="M521 243q0 -47 -15 -92.5t-45.5 -81.5t-76 -58t-106.5 -22t-106.5 22t-76 58t-45.5 81.5t-15 92.5t15 92t45.5 80.5t76 57t106.5 21.5t106.5 -21.5t76 -57t45.5 -80.5t15 -92zM393 243q0 30 -7.5 57t-22 46.5t-36 31t-49.5 11.5t-49.5 -11.5t-36 -31t-22 -46.5t-7.5 -57
q0 -31 7.5 -57.5t21.5 -46.5t35.5 -31.5t50.5 -11.5q28 0 49.5 11.5t36 31.5t22 46.5t7.5 57.5zM451 680q-1 -34 -16 -60t-38.5 -44t-53 -27.5t-59.5 -9.5q-33 0 -62.5 9t-52.5 26.5t-37.5 44t-15.5 61.5h103q6 -28 22 -44.5t43 -16.5t44 16.5t23 44.5h100v0z" />
    <glyph glyph-name="Scircumflex" unicode="&#x15c;" horiz-adv-x="556" 
d="M523 180q0 -49 -20.5 -85.5t-54 -60.5t-77.5 -36t-90 -12q-182 0 -255 123l103 68q23 -38 62 -57.5t88 -19.5q51 0 81.5 20t30.5 53q0 21 -7 37t-24 30t-47 27.5t-76 29.5q-43 15 -77.5 32t-59 40t-37.5 53.5t-13 72.5q0 41 14.5 75t44 59t73.5 38.5t103 13.5
q49 0 86.5 -9.5t65 -25.5t47.5 -37t35 -44l-97 -69q-21 32 -53 53t-85 21q-51 0 -77.5 -18t-26.5 -47q0 -35 34 -57.5t102 -47.5q51 -18 89.5 -38t64.5 -45.5t39.5 -58.5t13.5 -78zM384 711l-101 96l-101 -97l-67 45l121 130h96l121 -132z" />
    <glyph glyph-name="scircumflex" unicode="&#x15d;" horiz-adv-x="485" 
d="M457 140q0 -39 -16 -67.5t-44 -47t-66 -27.5t-81 -9q-86 0 -139.5 32.5t-81.5 81.5l97 59q17 -32 47.5 -53.5t76.5 -21.5q40 0 62.5 12.5t22.5 34.5q0 21 -24 37t-89 28q-38 7 -69.5 18.5t-53.5 29.5t-34 43t-12 60q0 64 53.5 104t144.5 40q82 0 130 -26.5t74 -64.5
l-92 -63q-18 24 -46 40t-66 16q-42 0 -58 -12.5t-16 -32.5q0 -23 20 -33t74 -21q44 -9 78.5 -21t58.5 -30.5t36.5 -44.5t12.5 -61zM349 545l-101 96l-101 -97l-67 45l121 130h96l121 -132z" />
    <glyph glyph-name="Tbar" unicode="&#x166;" horiz-adv-x="543" 
d="M340 546v-173h150v-97h-150v-276h-136v276h-154v97h154v173h-199v121h533v-121h-198z" />
    <glyph glyph-name="tbar" unicode="&#x167;" horiz-adv-x="368" 
d="M15 308h71v74h-71v100h71v125h130v-125h117v-100h-117v-74h117v-101h-117v-71q0 -23 10.5 -31.5t20.5 -8.5q20 0 39 10t33 21l47 -89q-33 -22 -69.5 -35.5t-77.5 -13.5q-25 0 -49 7t-42.5 22t-30 39.5t-11.5 59.5v90h-71v101z" />
    <glyph glyph-name="Utilde" unicode="&#x168;" horiz-adv-x="687" 
d="M614 229q0 -57 -21 -102t-58 -76.5t-86 -48t-106 -16.5q-56 0 -105.5 16.5t-86 48t-57.5 76.5t-21 102v438h135v-425q0 -60 35 -98.5t101 -38.5t100.5 38.5t34.5 98.5v425h135v-438v0zM542 828q-18 -54 -50 -85t-77 -31q-21 0 -40.5 9.5t-36.5 20.5t-31.5 19t-26.5 8
q-11 0 -27.5 -11.5t-33.5 -51.5l-69 36q17 51 49.5 83t77.5 32q20 0 39.5 -9t36.5 -20t32 -19.5t27 -8.5q10 0 27.5 11.5t34.5 51.5l68 -35v0z" />
    <glyph glyph-name="utilde" unicode="&#x169;" horiz-adv-x="579" 
d="M394 0l-5 38q-35 -28 -72 -38t-73 -10q-88 0 -135 51t-47 154v287h131v-274q0 -50 19 -81t65 -31q38 0 64 14.5t42 27.5v344h131v-482h-120zM484 662q-18 -54 -50 -85t-77 -31q-21 0 -40.5 9.5t-36.5 20.5t-31.5 19t-26.5 8q-11 0 -27.5 -11.5t-33.5 -51.5l-69 36
q17 51 49.5 83t77.5 32q20 0 39.5 -9t36.5 -20t32 -19.5t27 -8.5q10 0 27.5 11.5t34.5 51.5l68 -35v0z" />
    <glyph glyph-name="Ubreve" unicode="&#x16c;" horiz-adv-x="687" 
d="M614 229q0 -57 -21 -102t-58 -76.5t-86 -48t-106 -16.5q-56 0 -105.5 16.5t-86 48t-57.5 76.5t-21 102v438h135v-425q0 -60 35 -98.5t101 -38.5t100.5 38.5t34.5 98.5v425h135v-438v0zM520 846q-1 -34 -16 -60t-38.5 -44t-53 -27.5t-59.5 -9.5q-33 0 -62.5 9t-52.5 26.5
t-37.5 44t-15.5 61.5h103q6 -28 22 -44.5t43 -16.5t44 16.5t23 44.5h100v0z" />
    <glyph glyph-name="ubreve" unicode="&#x16d;" horiz-adv-x="579" 
d="M394 0l-5 38q-35 -28 -72 -38t-73 -10q-88 0 -135 51t-47 154v287h131v-274q0 -50 19 -81t65 -31q38 0 64 14.5t42 27.5v344h131v-482h-120zM458 680q-1 -34 -16 -60t-38.5 -44t-53 -27.5t-59.5 -9.5q-33 0 -62.5 9t-52.5 26.5t-37.5 44t-15.5 61.5h103q6 -28 22 -44.5
t43 -16.5t44 16.5t23 44.5h100v0z" />
    <glyph glyph-name="Wcircumflex" unicode="&#x174;" horiz-adv-x="778" 
d="M625 0h-85l-152 447l-151 -447h-85l-152 667h135l82 -396l130 396h83l130 -396l84 396h134zM491 711l-101 96l-101 -97l-67 45l121 130h96l121 -132z" />
    <glyph glyph-name="wcircumflex" unicode="&#x175;" horiz-adv-x="717" 
d="M545 0h-95l-92 279l-91 -279h-95l-172 482h136l87 -290l95 290h80l96 -290l87 290h136zM460 545l-101 96l-101 -97l-67 45l121 130h96l121 -132z" />
    <glyph glyph-name="Ycircumflex" unicode="&#x176;" horiz-adv-x="581" 
d="M360 268v-268h-135v268l-225 399h150l145 -265l138 265h148zM396 711l-101 96l-101 -97l-67 45l121 130h96l121 -132z" />
    <glyph glyph-name="ycircumflex" unicode="&#x177;" horiz-adv-x="517" 
d="M267 -114q-11 -25 -26 -42t-33 -27t-38.5 -14t-40.5 -4q-26 0 -57.5 6.5t-64.5 20.5l41 93q19 -9 37.5 -13t31.5 -4q12 0 24 7t22 28l37 83l-200 462h139l126 -329l120 329h132zM368 545l-101 96l-101 -97l-67 45l121 130h96l121 -132z" />
    <glyph glyph-name="longs" unicode="&#x17f;" horiz-adv-x="335" 
d="M361 551q-40 20 -89 20q-25 0 -41.5 -16t-16.5 -57v-498h-131v499q0 48 13 82t35.5 56t53 32.5t66.5 10.5q48 0 83.5 -7.5t64.5 -21.5z" />
    <glyph glyph-name="dotlessj" unicode="&#x237;" horiz-adv-x="270" 
d="M205 19q0 -39 -8.5 -70.5t-26 -57.5t-44 -47t-62.5 -40l-72 80q25 17 41.5 31.5t25.5 30t12.5 33t3.5 40.5v463h130v-463v0z" />
    <glyph glyph-name="uni03A9" unicode="&#x3a9;" horiz-adv-x="737" 
d="M424 0l-1 114q22 16 44 37.5t40 50.5t29 66t11 84q0 103 -49 157t-129 54q-81 0 -130 -54t-49 -157q0 -45 12 -82.5t30 -67t39.5 -51.5t41.5 -37v-114h-251v120h95q-43 38 -74 101t-31 150q0 69 23 126.5t65 98t101 63t131 22.5q73 0 131 -22t98.5 -62.5t62 -97
t21.5 -125.5q0 -42 -10 -81t-26 -72t-36.5 -59t-42.5 -42h105v-120h-251z" />
    <glyph glyph-name="uni0394" unicode="&#x394;" horiz-adv-x="665" 
d="M30 0v66l250 601h102l253 -601v-66h-605zM327 494l-143 -384h294z" />
    <glyph glyph-name="uni2219" unicode="&#x2219;" horiz-adv-x="326" 
d="M236 368q0 -27 -17.5 -49.5t-54.5 -22.5q-38 0 -56 22.5t-18 49.5q0 28 18 50.5t56 22.5q36 0 54 -22.5t18 -50.5z" />
    <glyph glyph-name="uni2215" unicode="&#x2215;" horiz-adv-x="543" 
d="M101 -32l-101 57l444 741l99 -53z" />
    <glyph glyph-name="estimated" unicode="&#x212e;" horiz-adv-x="647" 
d="M143 255q-6 0 -6 -8v-129q0 -10 4 -18.5t10 -15.5q0 -2 2 -2q33 -32 76 -49t92 -17q57 0 104.5 23t82.5 63h42q-39 -47 -98.5 -74.5t-130.5 -27.5q-60 0 -113 20.5t-93 56t-63 83.5t-23 102t23 101.5t63 83t93 56t113 20.5q61 0 114.5 -21t92.5 -57.5t61.5 -85.5
t22.5 -104h-469zM492 440q-35 34 -79 51.5t-92 17.5q-99 0 -170 -69q-6 -7 -10 -16t-4 -18v-131q0 -7 6 -7h354q7 0 7 7v131q0 9 -3.5 18t-8.5 16z" />
    <glyph glyph-name="Wgrave" unicode="&#x1e80;" horiz-adv-x="778" 
d="M625 0h-85l-152 447l-151 -447h-85l-152 667h135l82 -396l130 396h83l130 -396l84 396h134zM472 704l-229 112l63 83l201 -141z" />
    <glyph glyph-name="Wacute" unicode="&#x1e82;" horiz-adv-x="778" 
d="M625 0h-85l-152 447l-151 -447h-85l-152 667h135l82 -396l130 396h83l130 -396l84 396h134zM313 704l-36 54l201 141l63 -83z" />
    <glyph glyph-name="Wdieresis" unicode="&#x1e84;" horiz-adv-x="778" 
d="M625 0h-85l-152 447l-151 -447h-85l-152 667h135l82 -396l130 396h83l130 -396l84 396h134zM548 797q0 -28 -18 -49.5t-47 -21.5q-28 0 -46.5 21.5t-18.5 49.5q0 29 18.5 50t46.5 21q29 0 47 -21t18 -50zM360 797q0 -28 -18.5 -49.5t-46.5 -21.5q-29 0 -47 21.5t-18 49.5
q0 29 18 50t47 21q28 0 46.5 -21t18.5 -50z" />
    <glyph glyph-name="Ygrave" unicode="&#x1ef2;" horiz-adv-x="581" 
d="M360 268v-268h-135v268l-225 399h150l145 -265l138 265h148zM377 704l-229 112l63 83l201 -141z" />
    <glyph glyph-name="wgrave" unicode="&#x1e81;" horiz-adv-x="717" 
d="M545 0h-95l-92 279l-91 -279h-95l-172 482h136l87 -290l95 290h80l96 -290l87 290h136zM445 538l-229 112l63 83l201 -141z" />
    <glyph glyph-name="wacute" unicode="&#x1e83;" horiz-adv-x="717" 
d="M545 0h-95l-92 279l-91 -279h-95l-172 482h136l87 -290l95 290h80l96 -290l87 290h136zM282 538l-36 54l201 141l63 -83z" />
    <glyph glyph-name="wdieresis" unicode="&#x1e85;" horiz-adv-x="717" 
d="M545 0h-95l-92 279l-91 -279h-95l-172 482h136l87 -290l95 290h80l96 -290l87 290h136zM517 631q0 -28 -18 -49.5t-47 -21.5q-28 0 -46.5 21.5t-18.5 49.5q0 29 18.5 50t46.5 21q29 0 47 -21t18 -50zM329 631q0 -28 -18.5 -49.5t-46.5 -21.5q-29 0 -47 21.5t-18 49.5
q0 29 18 50t47 21q28 0 46.5 -21t18.5 -50z" />
    <glyph glyph-name="ygrave" unicode="&#x1ef3;" horiz-adv-x="517" 
d="M267 -114q-11 -25 -26 -42t-33 -27t-38.5 -14t-40.5 -4q-26 0 -57.5 6.5t-64.5 20.5l41 93q19 -9 37.5 -13t31.5 -4q12 0 24 7t22 28l37 83l-200 462h139l126 -329l120 329h132zM202 538l-36 54l201 141l63 -83z" />
    <glyph glyph-name="uni00AD" unicode="&#xad;" horiz-adv-x="330" 
d="M38 201v119h254v-119h-254z" />
    <glyph glyph-name="uni03BC" unicode="&#x3bc;" horiz-adv-x="609" 
d="M201 189q0 -41 21.5 -69.5t68.5 -28.5q33 0 59 14.5t37 41.5q3 7 4.5 17.5t2.5 21t1 19.5v15v258h130v-345q0 -26 7 -36t21 -10q7 0 14.5 1.5l17.5 3.5l14 -88q-13 -5 -36.5 -10t-42.5 -5q-75 0 -93 65q-24 -33 -58.5 -49t-75.5 -16q-31 0 -58.5 10.5t-42.5 26.5v-215
h-122v671h131v-293z" />
    <glyph glyph-name="uni02C9" unicode="&#x2c9;" horiz-adv-x="442" 
d="M40 578v89h363v-89h-363z" />
    <glyph glyph-name="commaaccent" unicode="&#xf6c3;" horiz-adv-x="442" 
d="M236 -181h-92l62 137h116z" />
    <glyph glyph-name="revcommaaccent" horiz-adv-x="442" 
d="M240 559h-109l85 130h83z" />
    <glyph glyph-name="one.alt" unicode="&#xf801;" horiz-adv-x="448" 
d="M222 0v508l-126 -76l-62 97l220 133h105v-662h-137z" />
    <glyph glyph-name="two.alt" unicode="&#xf802;" horiz-adv-x="530" 
d="M48 0v78q60 63 121.5 128t111.5 129q26 34 44.5 67.5t18.5 74.5q0 38 -22.5 60t-64.5 22q-37 0 -71.5 -27.5t-60.5 -71.5l-109 59q16 31 39.5 59.5t55 49.5t71.5 33.5t89 12.5q43 0 81.5 -12t67 -36t45.5 -59t17 -81q0 -56 -24.5 -110t-66.5 -105q-35 -43 -75 -83.5
t-72 -74.5h257v-113h-453z" />
    <glyph glyph-name="three.alt" unicode="&#xf803;" 
d="M504 195q0 -51 -20 -90t-53 -64.5t-76.5 -38.5t-90.5 -13q-75 0 -140 31t-110 109l107 62q32 -53 67.5 -71.5t74.5 -18.5q45 0 75.5 23.5t30.5 64.5q0 46 -38 70.5t-107 25.5v101q66 5 100 31t34 69q0 33 -24.5 52.5t-69.5 19.5q-35 0 -65.5 -19.5t-56.5 -67.5l-107 62
q41 75 105.5 108t141.5 33q43 0 81 -12.5t67 -35.5t46 -56.5t17 -75.5q0 -64 -24 -100.5t-62 -50.5q39 -15 68 -50t29 -98z" />
    <glyph glyph-name="four.alt" unicode="&#xf804;" 
d="M450 167v-167h-131v167h-292v99l315 396h108v-380h69v-115h-69zM319 459l-139 -177h139v177z" />
    <glyph glyph-name="five.alt" unicode="&#xf805;" 
d="M498 208q0 -54 -19.5 -95t-51.5 -68.5t-73.5 -41.5t-86.5 -14q-32 0 -64 6.5t-61.5 21t-56 38.5t-47.5 59l107 65q27 -43 55 -60t65 -17q41 0 70.5 26t29.5 74q0 30 -9.5 54t-32.5 40.5t-61.5 25.5t-95.5 9h-86v331h387v-112h-268v-113h4q64 0 118 -13t93.5 -41t61.5 -71
t22 -104z" />
    <glyph glyph-name="six.alt" unicode="&#xf806;" 
d="M498 215q0 -45 -14 -85.5t-41.5 -72t-69.5 -50t-97 -18.5q-44 0 -85 14t-72.5 44.5t-50.5 77.5t-19 113q0 70 22.5 141t67.5 132t113 104.5t160 58.5l27 -102q-78 -17 -139 -60.5t-88 -105.5q19 12 41.5 19t51.5 7q44 0 80 -16.5t61 -45.5t38.5 -69t13.5 -86zM363 205
q0 54 -25 84.5t-64 30.5q-24 0 -46 -7.5t-35 -15.5q-3 -11 -5 -32t-2 -35q0 -33 8 -57t21 -39.5t29.5 -23t33.5 -7.5q38 0 61.5 27t23.5 75z" />
    <glyph glyph-name="seven.alt" unicode="&#xf807;" horiz-adv-x="497" 
d="M228 0h-141l243 550h-319v112h477v-80z" />
    <glyph glyph-name="eight.alt" unicode="&#xf808;" 
d="M499 188q0 -38 -15 -74t-44.5 -63.5t-72 -44.5t-97.5 -17t-97.5 16.5t-72 44.5t-44.5 63.5t-15 73.5q0 21 5.5 43t16.5 43t27 39t37 30q-40 29 -57.5 67.5t-17.5 74.5q0 37 15.5 71t44 60.5t69 42.5t90.5 16q49 0 89.5 -15.5t69 -41.5t44 -60t15.5 -71q0 -36 -18.5 -76.5
t-56.5 -66.5q42 -25 63.5 -69t21.5 -86zM356 482q0 15 -6 30t-17 27t-27 19.5t-36 7.5t-35.5 -7.5t-26.5 -19.5t-17 -27.5t-6 -30.5q0 -16 5.5 -32t16.5 -29t26.5 -21t36.5 -8q20 0 36 8.5t27 21.5t17 29t6 32zM367 193q0 38 -26 66t-72 28q-45 0 -70 -27.5t-25 -64.5
q0 -38 24.5 -65.5t72.5 -27.5t72 26.5t24 64.5z" />
    <glyph glyph-name="nine.alt" unicode="&#xf809;" 
d="M493 422q0 -74 -22.5 -144.5t-68 -129t-113.5 -101t-159 -58.5l-27 103q78 17 139 63.5t89 109.5q-18 -12 -43.5 -19t-50.5 -7q-47 0 -83 18.5t-60.5 48.5t-37 68.5t-12.5 79.5t14 80.5t41.5 70.5t69 50t97.5 19q43 0 84 -14.5t72.5 -45.5t51 -78.5t19.5 -113.5zM356 430
q0 34 -8.5 58.5t-21.5 40t-29 23t-32 7.5q-20 0 -36 -9t-27 -23.5t-16.5 -33.5t-5.5 -38q0 -20 6 -38.5t17 -33t27.5 -23.5t37.5 -9q23 0 42.5 4.5t38.5 15.5q3 10 5 27.5t2 31.5z" />
    <glyph glyph-name="zero.alt" unicode="&#xf800;" 
d="M521 330q0 -60 -13 -121t-42 -110.5t-77.5 -81t-118.5 -31.5q-71 0 -119 31.5t-77 81t-42 110.5t-13 121t13 121t42 110.5t77 81t119 31.5q70 0 118.5 -31.5t77.5 -81t42 -110.5t13 -121zM384 331q0 48 -6.5 89.5t-20 72t-35.5 48.5t-52 18t-52 -18t-35.5 -48.5t-20 -72
t-6.5 -89.5t6.5 -89.5t20.5 -73t35.5 -49.5t51.5 -18t51.5 18t35.5 49.5t20.5 73t6.5 89.5z" />
    <glyph glyph-name="apostrophe" unicode="&#x2bc;" horiz-adv-x="230" 
d="M198 636q0 -17 -7.5 -35t-24 -34.5t-42 -31t-61.5 -23.5l-13 40q17 4 34 13t25 18q-11 8 -17.5 21.5t-6.5 29.5q0 23 14 43t42 20q24 0 40.5 -17.5t16.5 -43.5z" />
    <glyph glyph-name="afii61289" unicode="&#x2113;" horiz-adv-x="456" 
d="M180 289q54 60 85.5 123.5t31.5 132.5q0 48 -16 67.5t-38 19.5q-26 0 -44.5 -33t-18.5 -109v-201zM366 115l19.5 -19.5t20.5 -18.5q-27 -40 -65.5 -63t-90.5 -23q-70 0 -108 39.5t-38 127.5q-13 -10 -24.5 -18t-24.5 -17q-5 11 -11.5 22t-13.5 22q19 13 37 27.5t36 30.5
v212q0 71 9.5 119.5t28 78t45 42.5t61.5 13q51 0 84 -37.5t33 -106.5q0 -91 -48 -172.5t-136 -163.5v-20q0 -41 6 -66.5t16.5 -39.5t25 -19.5t31.5 -5.5q32 0 61.5 16.5t45.5 39.5z" />
    <glyph glyph-name="Gcommaaccent" unicode="&#x122;" horiz-adv-x="627" 
d="M587 30q-41 -18 -98 -31t-145 -13q-64 0 -119 23t-95 67.5t-62.5 108.5t-22.5 146q0 90 24 155.5t64.5 109t93.5 64.5t112 21q90 0 146.5 -36t91.5 -110l-109 -61q-20 42 -50.5 65.5t-75.5 23.5q-30 0 -59 -14t-51.5 -43t-36 -72.5t-13.5 -102.5q0 -52 14 -93.5t38 -71
t56 -45.5t69 -16q32 0 58.5 3t43.5 8v120h-109v115h235v-321v0zM328 -181h-92l62 137h116z" />
    <glyph glyph-name="Kcommaaccent" unicode="&#x136;" horiz-adv-x="639" 
d="M489 0l-215 316l-62 -62v-254h-135v667h135v-255l256 255h160l-262 -260l275 -407h-152zM334 -181h-92l62 137h116z" />
    <glyph glyph-name="kcommaaccent" unicode="&#x137;" horiz-adv-x="522" 
d="M381 0l-138 249l-47 -44v-205h-131v667h131v-321l151 136h157l-166 -149l190 -333h-147zM276 -181h-92l62 137h116z" />
    <glyph glyph-name="Lcommaaccent" unicode="&#x13b;" horiz-adv-x="553" 
d="M77 0v667h135v-546h336v-121h-471zM291 -181h-92l62 137h116z" />
    <glyph glyph-name="lcommaaccent" unicode="&#x13c;" horiz-adv-x="261" 
d="M65 0v667h131v-667h-131zM98 -181h-92l62 137h116z" />
    <glyph glyph-name="Ncommaaccent" unicode="&#x145;" horiz-adv-x="695" 
d="M500 0l-290 441v-441h-133v667h138l270 -416v416h133v-667h-118zM341 -181h-92l62 137h116z" />
    <glyph glyph-name="ncommaaccent" unicode="&#x146;" horiz-adv-x="581" 
d="M388 0v275q0 55 -24 85t-67 30q-30 0 -56 -15t-45 -33v-342h-131v482h119l6 -38q30 24 69 37t78 13q40 0 73.5 -11.5t57.5 -36.5t37.5 -65t13.5 -96v-285h-131zM268 -181h-92l62 137h116z" />
    <glyph glyph-name="Rcommaaccent" unicode="&#x156;" horiz-adv-x="623" 
d="M447 0l-165 250h-73v-250h-132v667h271q42 0 84 -9t75.5 -31.5t55 -60.5t21.5 -97q0 -36 -9 -69t-27.5 -60.5t-48 -48.5t-70.5 -33l171 -258h-153zM451 456q0 48 -31 71.5t-108 23.5h-103v-186h103q73 0 106 23t33 68zM306 -181h-92l62 137h116z" />
    <glyph glyph-name="rcommaaccent" unicode="&#x157;" horiz-adv-x="371" 
d="M354 364q-20 8 -37.5 12.5t-34.5 4.5q-28 0 -50.5 -13t-35.5 -30v-338h-131v482h119l6 -42q27 29 54.5 40.5t57.5 11.5q17 0 36 -4t39 -11zM98 -181h-92l62 137h116z" />
    <glyph glyph-name="Tcommaaccent" unicode="&#x162;" horiz-adv-x="543" 
d="M340 546v-546h-136v546h-199v121h533v-121h-198zM240 -181h-92l62 137h116z" />
    <glyph glyph-name="tcommaaccent" unicode="&#x163;" horiz-adv-x="368" 
d="M366 38q-33 -22 -69.5 -35.5t-77.5 -13.5q-25 0 -49 7t-42.5 22t-30 39.5t-11.5 59.5v265h-71v100h71v125h130v-125h117v-100h-117v-246q0 -23 10.5 -31.5t20.5 -8.5q20 0 39 10t33 21l47 -89v0zM200 -181h-92l62 137h116z" />
    <glyph glyph-name="Scommaaccent" unicode="&#x218;" horiz-adv-x="556" 
d="M523 180q0 -49 -20.5 -85.5t-54 -60.5t-77.5 -36t-90 -12q-182 0 -255 123l103 68q23 -38 62 -57.5t88 -19.5q51 0 81.5 20t30.5 53q0 21 -7 37t-24 30t-47 27.5t-76 29.5q-43 15 -77.5 32t-59 40t-37.5 53.5t-13 72.5q0 41 14.5 75t44 59t73.5 38.5t103 13.5
q49 0 86.5 -9.5t65 -25.5t47.5 -37t35 -44l-97 -69q-21 32 -53 53t-85 21q-51 0 -77.5 -18t-26.5 -47q0 -35 34 -57.5t102 -47.5q51 -18 89.5 -38t64.5 -45.5t39.5 -58.5t13.5 -78zM257 -181h-92l62 137h116z" />
    <glyph glyph-name="scommaaccent" unicode="&#x219;" horiz-adv-x="485" 
d="M457 140q0 -39 -16 -67.5t-44 -47t-66 -27.5t-81 -9q-86 0 -139.5 32.5t-81.5 81.5l97 59q17 -32 47.5 -53.5t76.5 -21.5q40 0 62.5 12.5t22.5 34.5q0 21 -24 37t-89 28q-38 7 -69.5 18.5t-53.5 29.5t-34 43t-12 60q0 64 53.5 104t144.5 40q82 0 130 -26.5t74 -64.5
l-92 -63q-18 24 -46 40t-66 16q-42 0 -58 -12.5t-16 -32.5q0 -23 20 -33t74 -21q44 -9 78.5 -21t58.5 -30.5t36.5 -44.5t12.5 -61zM228 -181h-92l62 137h116z" />
    <glyph glyph-name="uni021A" unicode="&#x21a;" horiz-adv-x="543" 
d="M340 546v-546h-136v546h-199v121h533v-121h-198zM240 -181h-92l62 137h116z" />
    <glyph glyph-name="uni021B" unicode="&#x21b;" horiz-adv-x="368" 
d="M366 38q-33 -22 -69.5 -35.5t-77.5 -13.5q-25 0 -49 7t-42.5 22t-30 39.5t-11.5 59.5v265h-71v100h71v125h130v-125h117v-100h-117v-246q0 -23 10.5 -31.5t20.5 -8.5q20 0 39 10t33 21l47 -89v0zM200 -181h-92l62 137h116z" />
  </font>
</defs>
</svg>
