<?xml version="1.0" standalone="no"?>
<!DOCTYPE svg PUBLIC "-//W3C//DTD SVG 1.1//EN" "http://www.w3.org/Graphics/SVG/1.1/DTD/svg11.dtd" >
<svg>
<metadata>
Created by FontForge 20120731 at Sat Dec 10 13:06:40 2016
 By www-data
(c) 2006  Dalton Maag Ltd. All rights reserved. This font may not be altered in any way without prior consent of Dalton Maag Ltd. DaMa is a trademark of Dalton Maag Ltd
</metadata>
<defs>
<font id="YotaInterFace" horiz-adv-x="540" >
  <font-face 
    font-family="Yota InterFace"
    font-weight="400"
    font-stretch="normal"
    units-per-em="1000"
    panose-1="2 0 6 6 8 0 0 2 0 4"
    ascent="800"
    descent="-200"
    x-height="477"
    cap-height="667"
    bbox="-239 -220 1106 899"
    underline-thickness="20"
    underline-position="-113"
    unicode-range="U+0020-FB04"
  />
<missing-glyph horiz-adv-x="1000" 
 />
    <glyph glyph-name="fi" unicode="fi" horiz-adv-x="490" 
d="M344 0v477h77v-477h-77zM361 579q-17 14 -43 27t-61 13q-42 0 -66 -24t-24 -84v-34h114v-63h-113v-414h-78v414h-70v63h71v35q0 43 13.5 75t36 52.5t52.5 30.5t63 10q55 0 87.5 -15.5t54.5 -34.5z" />
    <glyph glyph-name="fl" unicode="fl" horiz-adv-x="524" 
d="M377 0v606q-13 1 -25.5 1.5t-23.5 0.5q-34 0 -62.5 -5t-49.5 -18.5t-32.5 -37t-11.5 -60.5v-10h106v-63h-105v-414h-78v414h-65v63h65v13q0 49 17 84.5t46.5 58t70 33t87.5 10.5q48 0 83 -3.5t56 -5.5v-667h-78z" />
    <glyph glyph-name="ffl" unicode="ffl" horiz-adv-x="817" 
d="M322 595q-17 8 -37.5 14.5t-46.5 6.5q-17 0 -30 -4t-22 -15.5t-14 -32t-5 -53.5v-34h114v-63h-113v-414h-78v414h-70v63h71v35q0 46 10.5 78t29.5 52t45 29t58 9q38 0 64.5 -7.5t46.5 -18.5zM670 0v606q-13 1 -25.5 1.5t-23.5 0.5q-34 0 -62.5 -5t-49.5 -18.5t-32.5 -37
t-11.5 -60.5v-10h106v-63h-105v-414h-78v414h-65v63h65v13q0 49 17 84.5t46.5 58t70 33t87.5 10.5q48 0 83 -3.5t56 -5.5v-667h-78z" />
    <glyph glyph-name="ffi" unicode="ffi" horiz-adv-x="802" 
d="M322 595q-17 8 -37.5 14.5t-46.5 6.5q-17 0 -30 -4t-22 -15.5t-14 -32t-5 -53.5v-34h114v-63h-113v-414h-78v414h-70v63h71v35q0 46 10.5 78t29.5 52t45 29t58 9q38 0 64.5 -7.5t46.5 -18.5zM637 0v477h77v-477h-77zM654 579q-17 14 -43 27t-61 13q-42 0 -66 -24t-24 -84
v-34h114v-63h-113v-414h-78v414h-70v63h71v35q0 43 13.5 75t36 52.5t52.5 30.5t63 10q55 0 87.5 -15.5t54.5 -34.5z" />
    <glyph glyph-name="ff" unicode="ff" horiz-adv-x="586" 
d="M322 595q-17 8 -37.5 14.5t-46.5 6.5q-17 0 -30 -4t-22 -15.5t-14 -32t-5 -53.5v-34h114v-63h-113v-414h-78v414h-70v63h71v35q0 46 10.5 78t29.5 52t45 29t58 9q38 0 64.5 -7.5t46.5 -18.5zM615 595q-17 8 -37.5 14.5t-46.5 6.5q-17 0 -30 -4t-22 -15.5t-14 -32
t-5 -53.5v-34h114v-63h-113v-414h-78v414h-70v63h71v35q0 46 10.5 78t29.5 52t45 29t58 9q38 0 64.5 -7.5t46.5 -18.5z" />
    <glyph glyph-name=".notdef" horiz-adv-x="1000" 
 />
    <glyph glyph-name=".null" horiz-adv-x="0" 
 />
    <glyph glyph-name="nonmarkingreturn" horiz-adv-x="235" 
 />
    <glyph glyph-name="space" unicode=" " horiz-adv-x="200" 
 />
    <glyph glyph-name="numbersign" unicode="#" horiz-adv-x="592" 
d="M424 242v-168h-68v168h-120v-168h-68v168h-168v68h168v121h-168v67h168v169h68v-169h120v169h68v-169h168v-67h-168v-121h168v-68h-168zM356 431h-120v-121h120v121z" />
    <glyph glyph-name="dollar" unicode="$" 
d="M483 178q0 -42 -14 -75.5t-38.5 -57.5t-58 -38.5t-72.5 -18.5v-135h-64v135q-31 0 -61.5 8.5t-56.5 23t-46.5 35t-32.5 45.5l61 37q40 -79 136 -82v270q-35 15 -66.5 32t-55.5 39.5t-38 51.5t-14 68q0 37 14 66.5t37.5 50t55 32.5t67.5 14v132h64v-132q69 -5 113 -36.5
t65 -73.5l-60 -32q-19 32 -46 51t-72 24v-230q46 -22 80.5 -42.5t57.5 -43.5t34 -51.5t11 -66.5zM236 613q-42 -3 -70 -26.5t-28 -65.5q0 -25 8 -43t21.5 -31.5t31 -24t37.5 -19.5v210zM405 173q0 45 -27 74t-78 55v-248q43 4 74 34.5t31 84.5z" />
    <glyph glyph-name="percent" unicode="%" horiz-adv-x="740" 
d="M714 146q0 -32 -12 -59.5t-32.5 -48.5t-48.5 -33t-60 -12t-59.5 12t-48 33t-32.5 48.5t-12 59.5q0 31 12 59t32.5 49t48 33t59.5 12t60 -12t48.5 -33t32.5 -49t12 -59zM339 520q0 -32 -12 -59.5t-32.5 -48.5t-48.5 -33t-60 -12t-59.5 12t-48 33t-32.5 48.5t-12 59.5
q0 31 12 59t32.5 49t48 33t59.5 12t60 -12t48.5 -33t32.5 -49t12 -59zM75 -7l-49 52l634 626l47 -48zM648 147q0 18 -7 34.5t-19 29t-28 20t-34 7.5t-34 -7.5t-27.5 -20t-18.5 -29t-7 -34.5t7 -34.5t18.5 -29t27.5 -20t34 -7.5t34 7.5t28 20t19 29t7 34.5zM273 521
q0 18 -7 34.5t-19 29t-28 20t-34 7.5t-34 -7.5t-27.5 -20t-18.5 -29t-7 -34.5t7 -34.5t18.5 -29t27.5 -20t34 -7.5t34 7.5t28 20t19 29t7 34.5z" />
    <glyph glyph-name="ampersand" unicode="&#x26;" horiz-adv-x="614" 
d="M505 0l-83 115q-16 -26 -35 -48.5t-42.5 -40t-52 -27.5t-64.5 -10q-44 0 -78.5 16t-58.5 43t-36.5 61.5t-12.5 72.5q0 69 37 127.5t121 97.5l-23 34q-15 23 -27 47t-12 53q0 30 11.5 54.5t31.5 41.5t46.5 26t55.5 9q28 0 53.5 -8.5t44.5 -25t30.5 -40.5t11.5 -54
q0 -54 -32.5 -93.5t-86.5 -63.5l111 -150l30 58t31 55.5t33.5 49t37.5 37.5l38 -56q-40 -34 -68.5 -88.5t-57.5 -111.5l129 -181h-83zM354 544q0 32 -21 52t-51 20q-31 0 -50.5 -20t-19.5 -50q0 -18 10.5 -37t21.5 -36l24 -35q37 16 61.5 42t24.5 64zM238 356
q-63 -32 -92.5 -76.5t-29.5 -98.5q0 -25 8 -47.5t22.5 -40t35.5 -28t48 -10.5q25 0 45.5 9t38.5 24.5t33 36t29 43.5z" />
    <glyph glyph-name="quotesingle" unicode="'" horiz-adv-x="170" 
d="M50 371v296h70v-296h-70z" />
    <glyph glyph-name="parenleft" unicode="(" horiz-adv-x="264" 
d="M247 -48q-44 24 -81.5 60t-64.5 85t-42 109.5t-15 134.5q0 73 15 134t42 110t64.5 85t81.5 59l23 -49q-32 -24 -59 -56t-46.5 -73.5t-30.5 -93.5t-11 -116q0 -128 41.5 -210t105.5 -130z" />
    <glyph glyph-name="parenright" unicode=")" horiz-adv-x="264" 
d="M220 341q0 -74 -15 -134.5t-42 -109.5t-64.5 -85t-81.5 -60l-23 49q32 24 59 56.5t46.5 74.5t30.5 94t11 115q0 64 -11 116t-30.5 93.5t-46.5 73.5t-59 56l23 49q44 -23 81.5 -59t64.5 -85t42 -110t15 -134z" />
    <glyph glyph-name="asterisk" unicode="*" horiz-adv-x="425" 
d="M262 536l127 -87l-28 -52l-121 82v-140h-57v140l-120 -81l-28 53l127 84l-127 87l31 50l117 -80v133h57v-133l119 79l31 -48z" />
    <glyph glyph-name="plus" unicode="+" 
d="M305 297v-220h-70v220h-201v70h201v219h70v-219h201v-70h-201z" />
    <glyph glyph-name="comma" unicode="," horiz-adv-x="204" 
d="M159 43q0 -25 -12.5 -47.5t-32.5 -41.5t-44 -32.5t-48 -20.5l-9 33q18 5 40.5 20.5t30.5 33.5q-12 5 -22.5 20.5t-10.5 42.5q0 25 15 44t38 19q24 0 39.5 -19.5t15.5 -51.5z" />
    <glyph glyph-name="hyphen" unicode="-" horiz-adv-x="307" 
d="M45 225v71h217v-71h-217z" />
    <glyph glyph-name="period" unicode="." horiz-adv-x="198" 
d="M153 49q0 -25 -15.5 -42.5t-38.5 -17.5t-38.5 17.5t-15.5 42.5t15.5 42.5t38.5 17.5t38.5 -17.5t15.5 -42.5z" />
    <glyph glyph-name="slash" unicode="/" horiz-adv-x="480" 
d="M61 -23l-61 36l421 745l59 -33z" />
    <glyph glyph-name="zero" unicode="0" 
d="M508 330q0 -64 -14.5 -125.5t-43.5 -110t-74 -78.5t-106 -30q-62 0 -106.5 30t-74 78.5t-43.5 110t-14 125.5t14 125.5t43.5 110t74 78t106.5 29.5q61 0 106 -29.5t74.5 -78t43.5 -110t14 -125.5zM423 331q0 50 -8.5 98.5t-27.5 86.5t-48 61.5t-69 23.5q-41 0 -70 -23.5
t-48 -61.5t-27.5 -86.5t-8.5 -98.5t9 -99t27.5 -88t47.5 -63t70 -24q40 0 69 24t47.5 63t27.5 88t9 99z" />
    <glyph glyph-name="one" unicode="1" 
d="M268 0v569l-150 -96l-39 55l200 132h70v-660h-81z" />
    <glyph glyph-name="two" unicode="2" 
d="M75 0v47q55 63 105 121t92 112q24 31 43 57.5t32 51t19.5 48t6.5 49.5q0 57 -29.5 86.5t-77.5 29.5q-91 0 -149 -100l-63 37q35 64 88 99t129 35q43 0 77.5 -13t59 -36.5t38 -56t13.5 -71.5q0 -65 -32 -122.5t-76 -113.5q-39 -51 -81 -98.5t-84 -93.5h290v-68h-401z" />
    <glyph glyph-name="three" unicode="3" 
d="M468 185q0 -48 -19 -84.5t-50 -62t-71 -38.5t-82 -13q-31 0 -61 7t-57.5 22t-50.5 37.5t-39 52.5l63 39q26 -46 64.5 -67t78.5 -21q27 0 52.5 9t45 25.5t31 40t11.5 52.5q0 31 -12 54.5t-31.5 39.5t-46 24.5t-54.5 10.5v60q25 2 49 10t43 23t30 36t11 49q0 25 -10 45.5
t-27 34.5t-39 21.5t-46 7.5q-42 0 -76.5 -22.5t-53.5 -60.5l-63 39q29 57 84 87t118 30q38 0 73.5 -12.5t63 -35t44 -55t16.5 -72.5q0 -58 -27.5 -96.5t-69.5 -55.5q22 -9 41.5 -22t34.5 -32t23.5 -45.5t8.5 -61.5z" />
    <glyph glyph-name="four" unicode="4" 
d="M418 205v-205h-75v205h-304v71l328 383h51v-387h72v-67h-72zM343 524l-219 -252h219v252z" />
    <glyph glyph-name="five" unicode="5" 
d="M481 202q0 -53 -17 -93t-47 -67t-70 -41t-85 -14q-63 0 -116 25.5t-82 77.5l62 40q41 -71 137 -71q63 0 102.5 37t39.5 107q0 78 -61.5 119.5t-173.5 41.5h-73v295h355v-68h-280v-159h8q63 0 118 -12t95.5 -39t64 -71t23.5 -108z" />
    <glyph glyph-name="six" unicode="6" 
d="M488 207q0 -45 -14 -85t-40.5 -70t-64.5 -47.5t-85 -17.5q-57 0 -98 22.5t-67 59.5t-38.5 84.5t-12.5 97.5q0 81 23.5 152t68 126t107 92t140.5 50l16 -63q-43 -8 -83 -27t-73.5 -47.5t-58.5 -64t-39 -76.5q26 17 57 27t66 10q47 0 83.5 -18t61.5 -49t38 -71t13 -85z
M409 205q0 31 -8.5 59.5t-25 50t-41.5 34t-58 12.5q-35 0 -65.5 -11t-54.5 -29q-6 -35 -6 -70q0 -32 6.5 -67t22 -64t41.5 -47.5t65 -18.5q31 0 54.5 13t39 34.5t23 48.5t7.5 55z" />
    <glyph glyph-name="seven" unicode="7" 
d="M244 0h-84l244 591h-366v68h457v-54z" />
    <glyph glyph-name="eight" unicode="8" 
d="M479 182q0 -49 -18 -85.5t-47.5 -61t-67 -36.5t-76.5 -12t-76.5 12t-67.5 36.5t-48 61t-18 84.5q0 52 24 95t72 68q-39 26 -62.5 66t-23.5 85t17.5 78t46 55.5t64 33.5t72.5 11t72.5 -11t63.5 -32.5t45 -54t17 -75.5q0 -48 -22.5 -87.5t-60.5 -67.5q46 -23 70 -67.5
t24 -95.5zM391 495q0 28 -10.5 49t-28 35t-39 20.5t-43.5 6.5t-44 -7t-39 -20.5t-28 -34.5t-11 -49q0 -29 10.5 -51.5t28 -37.5t39 -22.5t43.5 -7.5t44 8t39 23t28 37t11 51zM402 180q0 31 -11.5 55t-30.5 41t-43 26t-48 9t-47.5 -9t-42.5 -25.5t-30.5 -40.5t-11.5 -54
q0 -32 12 -55.5t31 -39t43 -23.5t48 -8t47.5 7.5t42 23t30 38.5t11.5 55z" />
    <glyph glyph-name="nine" unicode="9" 
d="M482 408q0 -80 -25 -150.5t-70.5 -126t-109.5 -92.5t-142 -50l-16 63q45 10 86 29t74.5 46t59.5 61.5t41 75.5q-26 -17 -56 -26.5t-66 -9.5q-47 0 -83 18.5t-61 50t-38 71.5t-13 84q0 46 14 86t40.5 70t64 47.5t84.5 17.5q55 0 96 -22.5t67.5 -60t39.5 -85t13 -97.5z
M399 409q0 32 -6 66.5t-21.5 63.5t-41.5 47.5t-65 18.5q-32 0 -55.5 -13t-39 -34.5t-23.5 -48.5t-8 -55q0 -32 8.5 -60.5t25 -50.5t42 -35t59.5 -13q32 0 62.5 11.5t56.5 30.5q6 34 6 72z" />
    <glyph glyph-name="colon" unicode=":" horiz-adv-x="198" 
d="M153 417q0 -26 -15.5 -43.5t-38.5 -17.5t-38.5 17.5t-15.5 43.5q0 25 15.5 42.5t38.5 17.5t38.5 -17.5t15.5 -42.5zM153 49q0 -25 -15.5 -42.5t-38.5 -17.5t-38.5 17.5t-15.5 42.5t15.5 42.5t38.5 17.5t38.5 -17.5t15.5 -42.5z" />
    <glyph glyph-name="semicolon" unicode=";" horiz-adv-x="204" 
d="M156 417q0 -26 -15.5 -43.5t-37.5 -17.5q-23 0 -38.5 17.5t-15.5 43.5q0 25 15.5 42.5t38.5 17.5q22 0 37.5 -17.5t15.5 -42.5zM159 43q0 -25 -12.5 -47.5t-32.5 -41.5t-44 -32.5t-48 -20.5l-9 33q18 5 40.5 20.5t30.5 33.5q-12 5 -22.5 20.5t-10.5 42.5q0 25 15 44
t38 19q24 0 39.5 -19.5t15.5 -51.5z" />
    <glyph glyph-name="less" unicode="&#x3c;" 
d="M476 138l-422 166v58l408 156l29 -67l-310 -116l323 -125z" />
    <glyph glyph-name="equal" unicode="=" 
d="M34 373v69h472v-69h-472zM34 148v70h472v-70h-472z" />
    <glyph glyph-name="greater" unicode="&#x3e;" 
d="M81 138l-27 72l323 125l-311 116l30 67l408 -156v-58z" />
    <glyph glyph-name="question" unicode="?" horiz-adv-x="370" 
d="M364 499q0 -45 -21.5 -81.5t-50.5 -68.5q-22 -25 -37.5 -42.5t-25 -32t-13.5 -27t-4 -27.5v-36h-74v42q0 47 23 81t51 63q17 18 30.5 33.5t23 30.5t14.5 32t5 38q0 51 -27 78t-78 27q-45 0 -79 -26.5t-60 -64.5l-53 38q13 21 31 42t41.5 37.5t54 27t68.5 10.5
q90 0 135.5 -46.5t45.5 -127.5zM229 49q0 -25 -15.5 -42.5t-38.5 -17.5t-38.5 17.5t-15.5 42.5t15.5 42.5t38.5 17.5t38.5 -17.5t15.5 -42.5z" />
    <glyph glyph-name="A" unicode="A" horiz-adv-x="568" 
d="M481 0l-79 206h-242l-76 -206h-84l257 667h49l262 -667h-87zM279 532l-93 -255h190z" />
    <glyph glyph-name="B" unicode="B" horiz-adv-x="537" 
d="M507 186q0 -43 -14.5 -77.5t-40 -58.5t-61.5 -37t-78 -13h-232v667h190q100 0 151 -46t51 -124q0 -64 -36.5 -98.5t-93.5 -44.5q28 -3 57.5 -13t53 -29.5t38.5 -50t15 -75.5zM389 500q0 98 -115 98h-113v-214h103q60 0 92.5 32t32.5 84zM422 188q0 127 -155 127h-106
v-246h148q51 0 82 29.5t31 89.5z" />
    <glyph glyph-name="C" unicode="C" horiz-adv-x="569" 
d="M541 121q-13 -24 -32 -48t-45 -43t-60 -31t-77 -12q-59 0 -109.5 19.5t-88 61t-59 106.5t-21.5 157q0 93 23 159.5t60.5 108.5t85 61.5t96.5 19.5q76 0 135 -37t88 -100l-65 -39q-9 18 -23.5 36.5t-34 33t-43 24t-50.5 9.5q-88 0 -137.5 -72t-49.5 -205q0 -65 15 -115.5
t41 -85t61.5 -52t76.5 -17.5q29 0 51.5 8t41 21.5t33 32t26.5 38.5z" />
    <glyph glyph-name="D" unicode="D" horiz-adv-x="612" 
d="M576 343q0 -70 -16 -125.5t-44.5 -96.5t-67.5 -68t-84 -40q-23 -7 -54.5 -10t-56.5 -3h-172v667h172q39 0 81 -6.5t78 -23.5t66 -43.5t51.5 -63.5t34 -83.5t12.5 -103.5zM491 339q0 87 -26.5 140t-72.5 83q-29 19 -68.5 27.5t-76.5 8.5h-86v-529h82q22 0 50 2.5t51 11.5
q30 13 56.5 34t47 51.5t32 72.5t11.5 98z" />
    <glyph glyph-name="E" unicode="E" horiz-adv-x="514" 
d="M81 0v667h389v-69h-309v-214h221v-69h-222v-246h334v-69h-413z" />
    <glyph glyph-name="F" unicode="F" horiz-adv-x="461" 
d="M161 598v-225h220v-69h-221v-304h-79v667h378v-69h-298z" />
    <glyph glyph-name="G" unicode="G" horiz-adv-x="597" 
d="M547 25q-15 -6 -37 -13t-50 -12.5t-60 -9t-66 -3.5q-59 0 -110.5 19.5t-90.5 61t-61.5 106.5t-22.5 157q0 94 22.5 160t60 108t86 61.5t100.5 19.5q45 0 79 -9t60 -26t45 -41t34 -54l-64 -39q-23 45 -58.5 71.5t-95.5 26.5q-35 0 -68.5 -16t-59 -50t-41 -87t-15.5 -126
q0 -65 16 -116t43.5 -86t64 -53t77.5 -18q45 0 78 5.5t54 12.5v174h-110v70h190v-294z" />
    <glyph glyph-name="H" unicode="H" horiz-adv-x="655" 
d="M495 0v307h-334v-307h-80v667h80v-289h334v289h79v-667h-79z" />
    <glyph glyph-name="I" unicode="I" horiz-adv-x="242" 
d="M81 0v667h80v-667h-80z" />
    <glyph glyph-name="J" unicode="J" horiz-adv-x="239" 
d="M164 43q0 -82 -51 -124.5t-138 -52.5l-14 67q60 10 91.5 35t31.5 73v626h80v-624z" />
    <glyph glyph-name="K" unicode="K" horiz-adv-x="562" 
d="M461 0l-231 347l-69 -71v-276h-80v667h80v-293l287 293h95l-257 -262l271 -405h-96z" />
    <glyph glyph-name="L" unicode="L" horiz-adv-x="490" 
d="M81 0v667h80v-598h309v-69h-389z" />
    <glyph glyph-name="M" unicode="M" horiz-adv-x="743" 
d="M585 0v509l-207 -520h-16l-203 519v-508h-78v667h94l194 -515l200 515h93v-667h-77z" />
    <glyph glyph-name="N" unicode="N" horiz-adv-x="658" 
d="M518 0l-358 529v-529h-79v667h81l336 -497v497h79v-667h-59z" />
    <glyph glyph-name="O" unicode="O" horiz-adv-x="661" 
d="M612 334q0 -65 -16.5 -127.5t-51 -111t-87.5 -78.5t-126 -30q-74 0 -127 30t-87.5 78.5t-51 111t-16.5 127.5t16.5 127t51 111t87.5 78.5t127 29.5q73 0 126 -29.5t87.5 -78.5t51 -111t16.5 -127zM528 334q0 51 -11.5 100.5t-35.5 88.5t-61.5 62.5t-88.5 23.5
t-88.5 -23.5t-62 -62.5t-36 -88.5t-11.5 -100.5q0 -52 12 -101.5t36.5 -88.5t61.5 -62.5t88 -23.5t88 23.5t61 62.5t36 88.5t12 101.5z" />
    <glyph glyph-name="P" unicode="P" horiz-adv-x="534" 
d="M515 465q0 -97 -58.5 -147t-170.5 -50h-125v-268h-80v667h208q115 0 170.5 -51t55.5 -151zM429 467q0 69 -36 100t-102 31h-130v-260h131q61 0 99 30t38 99z" />
    <glyph glyph-name="Q" unicode="Q" horiz-adv-x="661" 
d="M612 334q0 -60 -14 -117.5t-42.5 -104.5t-73.5 -79.5t-106 -42.5q11 -29 44.5 -43.5t97.5 -18.5l-9 -66q-46 3 -81 10.5t-61.5 22t-46 37.5t-34.5 58q-62 9 -106.5 41.5t-73.5 80t-43 105t-14 117.5q0 65 16.5 127t51 111t87.5 78.5t127 29.5q73 0 126 -29.5t87.5 -78.5
t51 -111t16.5 -127zM528 334q0 51 -11.5 100.5t-35.5 88.5t-61.5 62.5t-88.5 23.5t-88.5 -23.5t-62 -62.5t-36 -88.5t-11.5 -100.5q0 -52 12 -101.5t36.5 -88.5t61.5 -62.5t88 -23.5t88 23.5t61 62.5t36 88.5t12 101.5z" />
    <glyph glyph-name="R" unicode="R" horiz-adv-x="551" 
d="M438 0l-180 292h-97v-292h-80v667h214q112 0 165 -50t53 -132q0 -44 -12.5 -76.5t-35 -55t-53 -36.5t-65.5 -20l182 -297h-91zM429 485q0 57 -34 85t-98 28h-136v-237h129q139 0 139 124z" />
    <glyph glyph-name="S" unicode="S" horiz-adv-x="516" 
d="M479 181q0 -51 -17.5 -88t-47.5 -61t-69.5 -35t-84.5 -11q-34 0 -67.5 7.5t-64 21.5t-56 34.5t-42.5 46.5l63 47q29 -42 76 -63t96 -21q26 0 49.5 6.5t41 20t28 35.5t10.5 52q0 28 -13 49.5t-35 38.5t-50 30.5t-58 26.5q-34 15 -67 30.5t-59.5 37.5t-43 51t-16.5 71
q0 43 17.5 75t47 53.5t67 32t78.5 10.5q63 0 121 -25t94 -79l-61 -48q-26 36 -66.5 58.5t-88.5 22.5q-59 0 -91.5 -26t-32.5 -70q0 -25 11.5 -42.5t32 -32t49.5 -27.5t65 -29q34 -15 67 -32t59 -40t42 -54t16 -74z" />
    <glyph glyph-name="T" unicode="T" horiz-adv-x="511" 
d="M295 598v-598h-79v598h-207v69h493v-69h-207z" />
    <glyph glyph-name="U" unicode="U" horiz-adv-x="647" 
d="M570 223q0 -59 -20.5 -103t-55 -73.5t-79.5 -44.5t-94 -15q-52 0 -96.5 15t-77.5 44.5t-51.5 73.5t-18.5 103v444h80v-429q0 -85 44 -132.5t122 -47.5q79 0 123 46t44 134v429h80v-444z" />
    <glyph glyph-name="V" unicode="V" horiz-adv-x="555" 
d="M302 0h-47l-255 667h88l193 -508l189 508h85z" />
    <glyph glyph-name="W" unicode="W" horiz-adv-x="751" 
d="M583 0h-48l-160 497l-159 -497h-48l-168 667h81l123 -471l150 471h42l152 -471l121 471h82z" />
    <glyph glyph-name="X" unicode="X" horiz-adv-x="516" 
d="M416 0l-160 286l-164 -286h-92l207 342l-189 325h97l143 -262l146 262h92l-190 -319l210 -348h-100z" />
    <glyph glyph-name="Y" unicode="Y" horiz-adv-x="543" 
d="M307 321v-321h-80v320l-227 347h91l178 -270l187 270h87z" />
    <glyph glyph-name="Z" unicode="Z" horiz-adv-x="535" 
d="M38 0v74l376 524h-359v69h432v-86l-366 -512h381v-69h-464z" />
    <glyph glyph-name="bracketleft" unicode="[" horiz-adv-x="222" 
d="M70 -143v879h148v-63h-76v-752h76v-64h-148z" />
    <glyph glyph-name="backslash" unicode="\" horiz-adv-x="473" 
d="M410 -11l-410 736l65 36l408 -731z" />
    <glyph glyph-name="bracketright" unicode="]" horiz-adv-x="222" 
d="M4 -143v64h76v752h-76v63h148v-879h-148z" />
    <glyph glyph-name="asciicircum" unicode="^" horiz-adv-x="502" 
d="M373 303l-125 257l-116 -268l-71 26l159 351h58l163 -337z" />
    <glyph glyph-name="underscore" unicode="_" horiz-adv-x="507" 
d="M0 -220v60h507v-60h-507z" />
    <glyph glyph-name="grave" unicode="`" horiz-adv-x="442" 
d="M294 544l-182 124l51 52l167 -139z" />
    <glyph glyph-name="a" unicode="a" horiz-adv-x="470" 
d="M334 0l-4 41q-25 -25 -57.5 -38.5t-71.5 -13.5q-31 0 -60.5 9.5t-52 28t-36.5 46.5t-14 65q0 51 27.5 84t69.5 52.5t93 27.5t99 8v6q0 60 -25.5 86t-73.5 26q-33 0 -60.5 -14.5t-46.5 -38.5l-54 38q29 39 68.5 57.5t99.5 18.5q80 0 124.5 -41t44.5 -137v-311h-70z
M327 249q-33 -1 -70 -5t-68.5 -15.5t-52 -33.5t-20.5 -58q0 -23 9 -39t22.5 -26.5t30 -15t32.5 -4.5q35 0 64.5 14.5t52.5 34.5v148z" />
    <glyph glyph-name="b" unicode="b" horiz-adv-x="524" 
d="M478 238q0 -57 -18 -103t-50 -78.5t-75.5 -50t-94.5 -17.5q-55 0 -98.5 11.5t-72.5 24.5v642h77v-205q31 14 59.5 20t56.5 6q46 0 86 -16.5t68.5 -48t45 -78t16.5 -107.5zM403 240q0 43 -12 77.5t-33 58.5t-49 36.5t-61 12.5q-24 0 -50 -6.5t-52 -23.5v-327q19 -8 41 -13
t42 -5q40 0 72.5 13.5t55 38.5t34.5 60t12 78z" />
    <glyph glyph-name="c" unicode="c" horiz-adv-x="474" 
d="M448 102q-28 -58 -76.5 -85.5t-102.5 -27.5q-42 0 -82.5 15t-71.5 46t-50 77.5t-19 109.5q0 67 19 115t50 78.5t70 44.5t78 14q40 0 70.5 -12t52 -30t35 -38t19.5 -36l-57 -36q-21 48 -53 69t-67 21q-27 0 -52 -12.5t-45 -36.5t-32 -59t-12 -80t12 -80t32.5 -59t48 -36.5
t58.5 -12.5q35 0 67.5 20t53.5 65z" />
    <glyph glyph-name="d" unicode="d" horiz-adv-x="524" 
d="M387 0l-6 39q-26 -27 -56.5 -38.5t-66.5 -11.5q-51 0 -90.5 19.5t-66.5 53.5t-41 80.5t-14 100.5q0 46 14.5 90.5t43 79t71.5 55.5t100 21q36 0 62 -5.5t44 -12.5v196h77v-667h-71zM381 404q-6 4 -16.5 8t-23.5 7.5t-27 5.5t-27 2q-42 0 -73 -16t-51.5 -42.5t-30.5 -60.5
t-10 -69q0 -40 9 -74.5t27.5 -59.5t46 -39.5t65.5 -14.5q30 0 59 12.5t52 41.5v299z" />
    <glyph glyph-name="e" unicode="e" horiz-adv-x="508" 
d="M122 243q0 -90 41 -141t119 -51q45 0 76 22t50 54l51 -34q-26 -45 -67.5 -74.5t-111.5 -29.5q-54 0 -97 16.5t-73.5 48t-47 78.5t-16.5 109q0 57 15.5 102.5t43 78t67 50t87.5 17.5q53 0 92.5 -18t65.5 -50.5t39 -78t13 -99.5h-347zM382 304q-1 31 -12 54.5t-28 39
t-39 23t-44 7.5q-48 0 -82.5 -28.5t-47.5 -95.5h253z" />
    <glyph glyph-name="f" unicode="f" horiz-adv-x="293" 
d="M322 595q-17 8 -37.5 14.5t-46.5 6.5q-17 0 -30 -4t-22 -15.5t-14 -32t-5 -53.5v-34h114v-63h-113v-414h-78v414h-70v63h71v35q0 46 10.5 78t29.5 52t45 29t58 9q38 0 64.5 -7.5t46.5 -18.5z" />
    <glyph glyph-name="g" unicode="g" horiz-adv-x="520" 
d="M509 -46q0 -39 -18 -68t-49 -48.5t-72.5 -29.5t-87.5 -10q-115 0 -178.5 35t-63.5 110q0 77 70 114q-18 8 -30 22t-12 36q0 28 21.5 46t53.5 26q-12 6 -27.5 17t-29 28t-22.5 39.5t-9 52.5q0 42 17.5 73t46.5 51.5t65.5 30.5t74.5 10q30 0 58.5 -5.5t54.5 -17.5l71 71
l49 -45l-65 -65q18 -20 29 -45.5t11 -57.5q0 -42 -17.5 -73.5t-46.5 -52.5t-67 -31t-78 -10q-13 0 -32.5 2t-30.5 4q-16 -2 -30 -10.5t-14 -22.5q0 -16 23.5 -23.5t85.5 -8.5q60 -1 106 -8t78 -23t48.5 -43.5t16.5 -69.5zM390 325q0 25 -11 44.5t-29 32t-41.5 19t-48.5 6.5
q-24 0 -47.5 -6.5t-41.5 -19t-29 -32t-11 -45.5q0 -21 8.5 -40t25 -34t39.5 -24t52 -9q24 0 47.5 5.5t43 18t31.5 33.5t12 51zM438 -50q0 21 -8 36t-28.5 25t-55 15t-87.5 6q-67 2 -92 6q-26 -13 -42 -34t-16 -54q0 -23 13 -40t36 -28.5t54.5 -17.5t69.5 -6q69 0 112.5 25
t43.5 67z" />
    <glyph glyph-name="h" unicode="h" horiz-adv-x="539" 
d="M395 0v298q0 66 -27 97.5t-87 31.5q-38 0 -73.5 -17.5t-61.5 -36.5v-373h-77v667h77v-228q29 21 66 35.5t83 14.5q97 0 137.5 -49t40.5 -143v-297h-78z" />
    <glyph glyph-name="i" unicode="i" horiz-adv-x="216" 
d="M159 610q0 -24 -15 -40.5t-36 -16.5t-36 16.5t-15 40.5q0 23 15 40t36 17t36 -17t15 -40zM69 0v477h78v-477h-78z" />
    <glyph glyph-name="j" unicode="j" horiz-adv-x="214" 
d="M155 610q0 -24 -15 -40.5t-36 -16.5t-36 16.5t-15 40.5q0 23 15 40t36 17t36 -17t15 -40zM143 -2q0 -77 -29 -121.5t-80 -73.5l-38 55q18 13 31.5 26.5t21.5 29.5t12 36.5t4 47.5v479h78v-479z" />
    <glyph glyph-name="k" unicode="k" horiz-adv-x="477" 
d="M390 0l-173 270l-71 -65v-205h-77v667h77v-371l193 181h98l-163 -154l205 -323h-89z" />
    <glyph glyph-name="l" unicode="l" horiz-adv-x="215" 
d="M69 0v667h77v-667h-77z" />
    <glyph glyph-name="m" unicode="m" horiz-adv-x="828" 
d="M684 0v298q0 60 -23 93.5t-84 33.5q-20 0 -40 -5.5t-37.5 -13.5t-32 -17t-24.5 -17q5 -17 7.5 -35.5t2.5 -48.5v-288h-77v298q0 26 -4.5 49t-16 40.5t-30.5 27.5t-49 10q-35 0 -69.5 -17.5t-60.5 -35.5v-372h-77v477h71l5 -38q24 17 62 33.5t83 16.5q38 0 73.5 -13
t59.5 -48q30 25 73 43t94 18q50 0 83.5 -13.5t53 -39t27.5 -63t8 -85.5v-288h-78z" />
    <glyph glyph-name="n" unicode="n" horiz-adv-x="541" 
d="M398 0v299q0 60 -27 94t-88 34q-38 0 -74.5 -16.5t-62.5 -36.5v-374h-77v477h71l5 -38q29 22 68.5 36t82.5 14q98 0 138.5 -48.5t40.5 -143.5v-297h-77z" />
    <glyph glyph-name="o" unicode="o" horiz-adv-x="536" 
d="M490 239q0 -47 -14 -92t-41.5 -80t-69.5 -56.5t-97 -21.5t-96.5 21.5t-69.5 57t-42 81t-14 92.5t13.5 91.5t41.5 79.5t69.5 56t97.5 21q55 0 97 -21.5t69.5 -56.5t41.5 -80t14 -92zM415 240q0 35 -9 69t-27.5 60.5t-46 42.5t-64.5 16t-64.5 -16t-45.5 -42.5t-27 -60
t-9 -68.5q0 -36 9 -70t27.5 -60.5t46 -43t63.5 -16.5q37 0 64.5 16.5t46 43t27.5 60.5t9 69z" />
    <glyph glyph-name="p" unicode="p" horiz-adv-x="524" 
d="M478 244q0 -58 -18 -105t-49.5 -80.5t-75.5 -51.5t-95 -18q-56 0 -94 16v-194h-77v666h70l6 -35q31 25 65.5 36t72.5 11q53 0 90 -20t60.5 -54t34 -78.5t10.5 -92.5zM401 241q0 33 -7 66.5t-23 60t-42.5 43t-65.5 16.5q-32 0 -62 -14t-55 -37v-304q11 -8 32 -14.5
t47 -6.5q38 0 70.5 13t56 37t36.5 59.5t13 80.5z" />
    <glyph glyph-name="q" unicode="q" horiz-adv-x="527" 
d="M381 -189v204q-23 -12 -52.5 -19.5t-62.5 -7.5q-46 0 -86 17.5t-70 50t-47 79t-17 104.5q0 56 18.5 102t51.5 79t79 51t102 18q38 0 83 -4t78 -9v-665h-77zM381 420q-14 3 -36 5t-47 2q-32 0 -63.5 -12t-56 -36t-40 -59.5t-15.5 -82.5q0 -41 13 -75t34.5 -58.5t50.5 -38
t62 -13.5q28 0 54 9t44 20v339z" />
    <glyph glyph-name="r" unicode="r" horiz-adv-x="322" 
d="M310 409q-25 11 -63 11q-29 0 -55.5 -16t-45.5 -33v-371h-77v476h70l6 -41q19 20 49 37t61 17q22 0 40.5 -3t28.5 -6z" />
    <glyph glyph-name="s" unicode="s" horiz-adv-x="412" 
d="M380 131q0 -34 -13 -60.5t-35.5 -44.5t-53.5 -27.5t-68 -9.5q-71 0 -111 26t-64 66l60 37q17 -32 43.5 -49.5t71.5 -17.5q98 0 98 70q0 21 -6.5 35.5t-21 26t-37.5 22t-56 22.5q-36 12 -61 25.5t-41 29.5t-23.5 36t-7.5 47q0 58 42.5 91t112.5 33q58 0 97 -19.5t66 -55.5
l-54 -43q-20 24 -47 40t-61 16q-42 0 -62.5 -16.5t-20.5 -40.5q0 -15 5.5 -26.5t19.5 -21t36.5 -19t57.5 -21.5q66 -23 100 -58t34 -93z" />
    <glyph glyph-name="t" unicode="t" horiz-adv-x="328" 
d="M322 26q-23 -17 -45.5 -27t-63.5 -10q-54 0 -83 27.5t-29 84.5v313h-82v63h82v130h77v-130h125v-63h-126v-305q0 -35 13.5 -46.5t34.5 -11.5q19 0 36 8t31 19z" />
    <glyph glyph-name="u" unicode="u" horiz-adv-x="538" 
d="M398 0l-5 37q-29 -22 -63 -35t-85 -13q-94 0 -136.5 46t-42.5 140v302h77v-306q0 -63 29 -91.5t86 -28.5q37 0 73.5 15.5t59.5 37.5v373h78v-477h-71z" />
    <glyph glyph-name="v" unicode="v" horiz-adv-x="446" 
d="M267 0h-88l-179 477h83l142 -389l143 389h78z" />
    <glyph glyph-name="w" unicode="w" horiz-adv-x="661" 
d="M503 0h-60l-113 344l-112 -344h-60l-158 477h83l108 -359l117 359h44l118 -359l108 359h83z" />
    <glyph glyph-name="x" unicode="x" horiz-adv-x="403" 
d="M316 0l-117 178l-116 -178h-83l160 243l-153 234h87l108 -171l109 171h82l-152 -232l158 -245h-83z" />
    <glyph glyph-name="y" unicode="y" horiz-adv-x="453" 
d="M209 -126q-18 -44 -50.5 -60t-67.5 -16q-23 0 -48.5 6.5t-39.5 12.5l22 57q11 -4 27.5 -7.5t33.5 -3.5q23 0 36 11t27 43l39 95l-188 465h88l141 -367l141 367h83z" />
    <glyph glyph-name="z" unicode="z" horiz-adv-x="452" 
d="M40 0v75l284 339h-273v63h352v-79l-285 -335h292v-63h-370z" />
    <glyph glyph-name="braceleft" unicode="{" horiz-adv-x="238" 
d="M234 -62q-66 1 -98.5 27.5t-32.5 94.5v149q0 49 -23.5 74t-60.5 30v43q37 5 60.5 30t23.5 74v149q0 68 32.5 94t98.5 28l6 -51q-24 -1 -38 -7t-21.5 -16.5t-9.5 -26t-2 -36.5v-134q0 -54 -19 -82.5t-64 -43.5q45 -14 64 -42.5t19 -82.5v-135q0 -20 2 -35.5t9.5 -26.5
t21.5 -17t38 -7z" />
    <glyph glyph-name="bar" unicode="|" horiz-adv-x="212" 
d="M70 -74v812h72v-812h-72z" />
    <glyph glyph-name="braceright" unicode="}" horiz-adv-x="239" 
d="M220 313q-38 -5 -61 -30t-23 -74v-149q0 -68 -32.5 -94.5t-98.5 -27.5l-6 50q23 1 37 7t21.5 17t10 26.5t2.5 35.5v135q0 54 18.5 82.5t63.5 42.5q-45 15 -63.5 43.5t-18.5 82.5v134q0 21 -2.5 36.5t-10 26t-21.5 16.5t-37 7l6 51q66 -2 98.5 -28t32.5 -94v-149
q0 -49 23 -74t61 -30v-43z" />
    <glyph glyph-name="asciitilde" unicode="~" horiz-adv-x="445" 
d="M447 652q-2 -39 -15 -67t-32 -46.5t-42 -27.5t-45 -9q-30 0 -50.5 9t-37.5 22q-13 10 -23.5 18.5t-19.5 14.5q-9 7 -19.5 11.5t-21.5 4.5q-42 0 -58.5 -21.5t-20.5 -53.5h-64q8 67 43 105t98 38q33 0 54 -9t41 -23q11 -7 20.5 -14.5t18.5 -14.5t18 -12t17 -5
q41 0 55.5 23t18.5 57h65z" />
    <glyph glyph-name="exclamdown" unicode="&#xa1;" horiz-adv-x="198" 
d="M153 429q0 -26 -15.5 -43t-38.5 -17t-38.5 17t-15.5 43q0 25 15.5 42.5t38.5 17.5t38.5 -17.5t15.5 -42.5zM59 -190v444h77v-444h-77z" />
    <glyph glyph-name="cent" unicode="&#xa2;" 
d="M398 430q-20 17 -41 26t-45 9v-260q21 1 41.5 7.5t36.5 15.5l25 -58q-19 -12 -47.5 -21t-55.5 -10v-143h-55v145q-79 11 -123 64t-44 132q0 42 13 75.5t35.5 57.5t53 38.5t65.5 19.5v139h55v-139q39 -1 69 -15.5t48 -29.5zM257 464q-40 -5 -65 -37.5t-25 -89.5
q0 -54 23.5 -84.5t66.5 -44.5v256z" />
    <glyph glyph-name="sterling" unicode="&#xa3;" 
d="M115 0v251h-69v68h69v150q0 100 48.5 152t139.5 52q74 0 117 -33t66 -83l-76 -37q-13 31 -37.5 55.5t-70.5 24.5q-55 0 -83 -31.5t-28 -103.5v-146h221v-68h-221v-183h295v-68h-371z" />
    <glyph glyph-name="yen" unicode="&#xa5;" 
d="M382 433h67v-68h-110l-33 -52v-28h139v-68h-139v-217h-80v217h-143v68h143v27l-32 53h-111v68h70l-137 226h91l162 -270l170 270h87z" />
    <glyph glyph-name="section" unicode="&#xa7;" horiz-adv-x="421" 
d="M376 251q0 -24 -9.5 -44.5t-24.5 -36t-34.5 -27t-39.5 -17.5q20 -15 36.5 -29t28.5 -29t18.5 -33t6.5 -41q0 -33 -13.5 -58.5t-36 -43t-51 -27t-57.5 -9.5q-51 0 -86.5 15.5t-61.5 42.5l38 53q20 -23 47 -37.5t59 -14.5q42 0 66 19t24 52q0 17 -6 32t-20 30.5t-37.5 33.5
t-58.5 41q-52 34 -82 71t-30 91t36 85t89 43q-19 16 -35.5 31t-29 32t-19.5 37.5t-7 47.5q0 55 40.5 87t104.5 32q51 0 83 -17t52 -40l-42 -45q-17 20 -42 32t-53 12q-75 0 -75 -61q0 -30 27.5 -59t78.5 -73q34 -29 56.5 -51t35.5 -42t18.5 -40t5.5 -45zM307 248
q0 17 -4.5 31.5t-15 29.5t-28 31.5t-42.5 37.5q-42 -7 -68 -28.5t-26 -63.5q0 -38 27 -65.5t75 -62.5q38 11 60 34.5t22 55.5z" />
    <glyph glyph-name="dieresis" unicode="&#xa8;" horiz-adv-x="442" 
d="M357 646q0 -23 -14.5 -39.5t-35.5 -16.5q-20 0 -34.5 16.5t-14.5 39.5t14.5 39t34.5 16q21 0 35.5 -16t14.5 -39zM184 646q0 -23 -14.5 -39.5t-34.5 -16.5q-21 0 -35.5 16.5t-14.5 39.5t14.5 39t35.5 16q20 0 34.5 -16t14.5 -39z" />
    <glyph glyph-name="copyright" unicode="&#xa9;" horiz-adv-x="776" 
d="M731 297q0 -71 -21.5 -138t-64.5 -119.5t-107.5 -84.5t-149.5 -32q-86 0 -150 32t-107 84.5t-64.5 119.5t-21.5 138q0 70 21.5 136.5t65 119t107.5 84.5t150 32q85 0 149 -32t107 -84.5t64.5 -119t21.5 -136.5zM669 297q0 59 -17.5 115.5t-53 101t-88 71.5t-121.5 27
q-70 0 -123 -27t-88 -71.5t-53 -101t-18 -115.5t18 -116t53.5 -101.5t88 -71.5t122.5 -27q69 0 121.5 27t88 71.5t53 101.5t17.5 116zM537 153q-23 -38 -57.5 -61t-88.5 -23q-39 0 -73 13t-58.5 40.5t-39 70t-14.5 102.5t14.5 103.5t39.5 72t59 42t73 13.5q56 0 90 -25.5
t53 -59.5l-47 -30q-15 28 -37.5 44.5t-60.5 16.5q-54 0 -87.5 -44.5t-33.5 -132.5q0 -85 35.5 -129t87.5 -44q33 0 56.5 17.5t42.5 45.5z" />
    <glyph glyph-name="ordfeminine" unicode="&#xaa;" horiz-adv-x="342" 
d="M248 373l-2 24q-14 -11 -38 -22t-51 -11q-23 0 -45 7t-39 21.5t-27.5 35.5t-10.5 49q0 38 19 63t49 39.5t67 20.5t73 6q0 42 -17.5 59.5t-49.5 17.5q-48 0 -76 -39l-47 29q20 30 51.5 46.5t76.5 16.5q60 0 93 -30.5t33 -102.5v-230h-59zM243 553q-27 0 -52.5 -4t-46 -13
t-33 -23.5t-12.5 -36.5q0 -30 21 -43.5t43 -13.5q24 0 45 9.5t35 21.5v103z" />
    <glyph glyph-name="guillemotleft" unicode="&#xab;" horiz-adv-x="481" 
d="M410 54l-217 196l200 204l50 -37l-144 -162l158 -158zM227 54l-212 196l194 204l52 -39l-145 -160l159 -157z" />
    <glyph glyph-name="logicalnot" unicode="&#xac;" 
d="M428 146v297h-400v70h472v-367h-72z" />
    <glyph glyph-name="registered" unicode="&#xae;" horiz-adv-x="776" 
d="M731 297q0 -71 -21.5 -138t-64.5 -119.5t-107.5 -84.5t-149.5 -32q-86 0 -150 32t-107 84.5t-64.5 119.5t-21.5 138q0 70 21.5 136.5t65 119t107.5 84.5t150 32q85 0 149 -32t107 -84.5t64.5 -119t21.5 -136.5zM669 297q0 59 -17.5 115.5t-53 101t-88 71.5t-121.5 27
q-70 0 -123 -27t-88 -71.5t-53 -101t-18 -115.5t18 -116t53.5 -101.5t88 -71.5t122.5 -27q69 0 121.5 27t88 71.5t53 101.5t17.5 116zM483 80l-117 189h-57v-189h-60v441h143q75 0 110.5 -33.5t35.5 -88.5q0 -57 -30 -86.5t-75 -38.5l119 -194h-69zM475 399q0 69 -82 69h-84
v-145h80q86 0 86 76z" />
    <glyph glyph-name="degree" unicode="&#xb0;" horiz-adv-x="363" 
d="M323 523q0 -30 -11 -56t-30 -45.5t-45 -31t-55 -11.5t-55 11.5t-45.5 31t-30.5 45.5t-11 56q0 28 11 54.5t30.5 46t45.5 31.5t55 12t55 -11.5t45 -31t30 -46t11 -55.5zM264 523q0 33 -23 58.5t-59 25.5q-35 0 -58.5 -24.5t-23.5 -59.5q0 -18 6.5 -33t18 -26.5t26 -18
t31.5 -6.5q36 0 59 25.5t23 58.5z" />
    <glyph glyph-name="plusminus" unicode="&#xb1;" 
d="M307 375v-220h-70v220h-201v70h201v219h70v-219h201v-70h-201zM31 0v67h478v-67h-478z" />
    <glyph glyph-name="acute" unicode="&#xb4;" horiz-adv-x="442" 
d="M149 544l-37 37l167 139l51 -52z" />
    <glyph glyph-name="paragraph" unicode="&#xb6;" horiz-adv-x="506" 
d="M368 -145v812h72v-812h-72zM230 -145v421q-41 0 -76.5 15.5t-61.5 41.5t-41.5 61.5t-15.5 76.5q0 40 15.5 76t41.5 62.5t61.5 42t76.5 15.5h71v-812h-71z" />
    <glyph glyph-name="cedilla" unicode="&#xb8;" horiz-adv-x="442" 
d="M61 -174h-61l51 130h82z" />
    <glyph glyph-name="ordmasculine" unicode="&#xba;" horiz-adv-x="401" 
d="M366 554q0 -35 -10.5 -68t-31 -59.5t-51.5 -42.5t-73 -16q-41 0 -72 16.5t-51.5 43t-31 60t-10.5 68.5q0 34 10 67.5t30.5 59.5t51.5 42t73 16t73 -16t51.5 -42.5t31 -60t10.5 -68.5zM302 555q0 25 -6.5 49t-19.5 42.5t-32 29.5t-44 11t-44 -11t-31.5 -29.5t-19 -42
t-6.5 -48.5q0 -26 6.5 -50t19 -43t31.5 -30t44 -11t44 11t32 30t19.5 42.5t6.5 49.5z" />
    <glyph glyph-name="guillemotright" unicode="&#xbb;" horiz-adv-x="481" 
d="M254 54l-48 44l159 157l-145 160l52 39l194 -204zM70 54l-46 43l158 158l-144 162l50 37l200 -204z" />
    <glyph glyph-name="questiondown" unicode="&#xbf;" horiz-adv-x="370" 
d="M249 429q0 -26 -15.5 -43t-38.5 -17t-38.5 17t-15.5 43q0 25 15.5 42.5t38.5 17.5t38.5 -17.5t15.5 -42.5zM382 -79q-13 -21 -30.5 -41.5t-41.5 -37t-54.5 -27t-69.5 -10.5q-88 0 -134 46.5t-46 127.5q0 45 21.5 81.5t50.5 68.5q22 25 37.5 42.5t25 32t13.5 27t4 27.5v36
h73v-43q0 -46 -23 -80t-50 -63q-34 -36 -53.5 -64.5t-19.5 -70.5q0 -49 27 -76.5t78 -27.5q45 0 79 26.5t59 64.5z" />
    <glyph glyph-name="Agrave" unicode="&#xc0;" horiz-adv-x="568" 
d="M481 0l-79 206h-242l-76 -206h-84l257 667h49l262 -667h-87zM279 532l-93 -255h190zM326 710l-182 124l51 52l167 -139z" />
    <glyph glyph-name="Aacute" unicode="&#xc1;" horiz-adv-x="568" 
d="M481 0l-79 206h-242l-76 -206h-84l257 667h49l262 -667h-87zM279 532l-93 -255h190zM221 710l-37 37l167 139l51 -52z" />
    <glyph glyph-name="Acircumflex" unicode="&#xc2;" horiz-adv-x="568" 
d="M481 0l-79 206h-242l-76 -206h-84l257 667h49l262 -667h-87zM279 532l-93 -255h190zM388 710l-106 112l-105 -112l-45 30l126 144h48l126 -144z" />
    <glyph glyph-name="Atilde" unicode="&#xc3;" horiz-adv-x="568" 
d="M481 0l-79 206h-242l-76 -206h-84l257 667h49l262 -667h-87zM279 532l-93 -255h190zM452 835q-16 -46 -43 -72t-62 -26q-19 0 -37 8.5t-35 19.5q-11 6 -29 17.5t-34 11.5q-17 0 -30.5 -13.5t-27.5 -45.5l-49 23q14 45 41.5 72t62.5 27q22 0 43 -11.5t41 -23.5
q9 -6 23 -14t28 -8q15 0 30 13t29 46z" />
    <glyph glyph-name="Adieresis" unicode="&#xc4;" horiz-adv-x="568" 
d="M418 811q0 -23 -14.5 -39.5t-35.5 -16.5q-20 0 -34.5 16.5t-14.5 39.5t14.5 39t34.5 16q21 0 35.5 -16t14.5 -39zM245 811q0 -23 -14.5 -39.5t-34.5 -16.5q-21 0 -35.5 16.5t-14.5 39.5t14.5 39t35.5 16q20 0 34.5 -16t14.5 -39zM481 0l-79 206h-242l-76 -206h-84
l257 667h49l262 -667h-87zM279 532l-93 -255h190z" />
    <glyph glyph-name="Aring" unicode="&#xc5;" horiz-adv-x="568" 
d="M481 0l-79 206h-242l-76 -206h-84l257 667h49l262 -667h-87zM279 532l-93 -255h190zM377 761q0 -18 -6 -36t-18 -32t-29.5 -22.5t-40.5 -8.5t-40.5 8.5t-29 22.5t-17.5 31.5t-6 36.5t6 37t17.5 32t29 22.5t40.5 8.5t40.5 -8.5t29.5 -22.5t18 -32t6 -37zM334 761
q0 23 -13 41.5t-38 18.5t-38 -18.5t-13 -41.5q0 -22 13 -40.5t38 -18.5t38 18.5t13 40.5z" />
    <glyph glyph-name="AE" unicode="&#xc6;" horiz-adv-x="845" 
d="M427 0v206h-222l-116 -206h-89l376 667h421v-69h-290v-214h201v-69h-201v-246h313v-69h-393zM427 600l-182 -323h182v323z" />
    <glyph glyph-name="Ccedilla" unicode="&#xc7;" horiz-adv-x="569" 
d="M541 121q-13 -24 -32 -48t-45 -43t-60 -31t-77 -12q-59 0 -109.5 19.5t-88 61t-59 106.5t-21.5 157q0 93 23 159.5t60.5 108.5t85 61.5t96.5 19.5q76 0 135 -37t88 -100l-65 -39q-9 18 -23.5 36.5t-34 33t-43 24t-50.5 9.5q-88 0 -137.5 -72t-49.5 -205q0 -65 15 -115.5
t41 -85t61.5 -52t76.5 -17.5q29 0 51.5 8t41 21.5t33 32t26.5 38.5zM293 -174h-61l51 130h82z" />
    <glyph glyph-name="Egrave" unicode="&#xc8;" horiz-adv-x="514" 
d="M81 0v667h389v-69h-309v-214h221v-69h-222v-246h334v-69h-413zM341 710l-182 124l51 52l167 -139z" />
    <glyph glyph-name="Eacute" unicode="&#xc9;" horiz-adv-x="514" 
d="M81 0v667h389v-69h-309v-214h221v-69h-222v-246h334v-69h-413zM224 710l-37 37l167 139l51 -52z" />
    <glyph glyph-name="Ecircumflex" unicode="&#xca;" horiz-adv-x="514" 
d="M81 0v667h389v-69h-309v-214h221v-69h-222v-246h334v-69h-413zM390 710l-106 112l-105 -112l-45 30l126 144h48l126 -144z" />
    <glyph glyph-name="Edieresis" unicode="&#xcb;" horiz-adv-x="514" 
d="M81 0v667h389v-69h-309v-214h221v-69h-222v-246h334v-69h-413zM415 812q0 -23 -14.5 -39.5t-35.5 -16.5q-20 0 -34.5 16.5t-14.5 39.5t14.5 39t34.5 16q21 0 35.5 -16t14.5 -39zM242 812q0 -23 -14.5 -39.5t-34.5 -16.5q-21 0 -35.5 16.5t-14.5 39.5t14.5 39t35.5 16
q20 0 34.5 -16t14.5 -39z" />
    <glyph glyph-name="Igrave" unicode="&#xcc;" horiz-adv-x="242" 
d="M81 0v667h80v-667h-80zM185 710l-182 124l51 52l167 -139z" />
    <glyph glyph-name="Iacute" unicode="&#xcd;" horiz-adv-x="242" 
d="M81 0v667h80v-667h-80zM58 710l-37 37l167 139l51 -52z" />
    <glyph glyph-name="Icircumflex" unicode="&#xce;" horiz-adv-x="242" 
d="M81 0v667h80v-667h-80zM234 710l-106 112l-105 -112l-45 30l126 144h48l126 -144z" />
    <glyph glyph-name="Idieresis" unicode="&#xcf;" horiz-adv-x="242" 
d="M81 0v667h80v-667h-80zM261 812q0 -23 -14.5 -39.5t-35.5 -16.5q-20 0 -34.5 16.5t-14.5 39.5t14.5 39t34.5 16q21 0 35.5 -16t14.5 -39zM88 812q0 -23 -14.5 -39.5t-34.5 -16.5q-21 0 -35.5 16.5t-14.5 39.5t14.5 39t35.5 16q20 0 34.5 -16t14.5 -39z" />
    <glyph glyph-name="Ntilde" unicode="&#xd1;" horiz-adv-x="658" 
d="M518 0l-358 529v-529h-79v667h81l336 -497v497h79v-667h-59zM515 835q-16 -46 -43 -72t-62 -26q-19 0 -37 8.5t-35 19.5q-11 6 -29 17.5t-34 11.5q-17 0 -30.5 -13.5t-27.5 -45.5l-49 23q14 45 41.5 72t62.5 27q22 0 43 -11.5t41 -23.5q9 -6 23 -14t28 -8q15 0 30 13
t29 46z" />
    <glyph glyph-name="Ograve" unicode="&#xd2;" horiz-adv-x="661" 
d="M612 334q0 -65 -16.5 -127.5t-51 -111t-87.5 -78.5t-126 -30q-74 0 -127 30t-87.5 78.5t-51 111t-16.5 127.5t16.5 127t51 111t87.5 78.5t127 29.5q73 0 126 -29.5t87.5 -78.5t51 -111t16.5 -127zM528 334q0 51 -11.5 100.5t-35.5 88.5t-61.5 62.5t-88.5 23.5
t-88.5 -23.5t-62 -62.5t-36 -88.5t-11.5 -100.5q0 -52 12 -101.5t36.5 -88.5t61.5 -62.5t88 -23.5t88 23.5t61 62.5t36 88.5t12 101.5zM403 710l-182 124l51 52l167 -139z" />
    <glyph glyph-name="Oacute" unicode="&#xd3;" horiz-adv-x="661" 
d="M612 334q0 -65 -16.5 -127.5t-51 -111t-87.5 -78.5t-126 -30q-74 0 -127 30t-87.5 78.5t-51 111t-16.5 127.5t16.5 127t51 111t87.5 78.5t127 29.5q73 0 126 -29.5t87.5 -78.5t51 -111t16.5 -127zM528 334q0 51 -11.5 100.5t-35.5 88.5t-61.5 62.5t-88.5 23.5
t-88.5 -23.5t-62 -62.5t-36 -88.5t-11.5 -100.5q0 -52 12 -101.5t36.5 -88.5t61.5 -62.5t88 -23.5t88 23.5t61 62.5t36 88.5t12 101.5zM267 710l-37 37l167 139l51 -52z" />
    <glyph glyph-name="Ocircumflex" unicode="&#xd4;" horiz-adv-x="661" 
d="M612 334q0 -65 -16.5 -127.5t-51 -111t-87.5 -78.5t-126 -30q-74 0 -127 30t-87.5 78.5t-51 111t-16.5 127.5t16.5 127t51 111t87.5 78.5t127 29.5q73 0 126 -29.5t87.5 -78.5t51 -111t16.5 -127zM528 334q0 51 -11.5 100.5t-35.5 88.5t-61.5 62.5t-88.5 23.5
t-88.5 -23.5t-62 -62.5t-36 -88.5t-11.5 -100.5q0 -52 12 -101.5t36.5 -88.5t61.5 -62.5t88 -23.5t88 23.5t61 62.5t36 88.5t12 101.5zM437 710l-106 112l-105 -112l-45 30l126 144h48l126 -144z" />
    <glyph glyph-name="Otilde" unicode="&#xd5;" horiz-adv-x="661" 
d="M612 334q0 -65 -16.5 -127.5t-51 -111t-87.5 -78.5t-126 -30q-74 0 -127 30t-87.5 78.5t-51 111t-16.5 127.5t16.5 127t51 111t87.5 78.5t127 29.5q73 0 126 -29.5t87.5 -78.5t51 -111t16.5 -127zM528 334q0 51 -11.5 100.5t-35.5 88.5t-61.5 62.5t-88.5 23.5
t-88.5 -23.5t-62 -62.5t-36 -88.5t-11.5 -100.5q0 -52 12 -101.5t36.5 -88.5t61.5 -62.5t88 -23.5t88 23.5t61 62.5t36 88.5t12 101.5zM500 835q-16 -46 -43 -72t-62 -26q-19 0 -37 8.5t-35 19.5q-11 6 -29 17.5t-34 11.5q-17 0 -30.5 -13.5t-27.5 -45.5l-49 23
q14 45 41.5 72t62.5 27q22 0 43 -11.5t41 -23.5q9 -6 23 -14t28 -8q15 0 30 13t29 46z" />
    <glyph glyph-name="Odieresis" unicode="&#xd6;" horiz-adv-x="661" 
d="M612 334q0 -65 -16.5 -127.5t-51 -111t-87.5 -78.5t-126 -30q-74 0 -127 30t-87.5 78.5t-51 111t-16.5 127.5t16.5 127t51 111t87.5 78.5t127 29.5q73 0 126 -29.5t87.5 -78.5t51 -111t16.5 -127zM528 334q0 51 -11.5 100.5t-35.5 88.5t-61.5 62.5t-88.5 23.5
t-88.5 -23.5t-62 -62.5t-36 -88.5t-11.5 -100.5q0 -52 12 -101.5t36.5 -88.5t61.5 -62.5t88 -23.5t88 23.5t61 62.5t36 88.5t12 101.5zM468 812q0 -23 -14.5 -39.5t-35.5 -16.5q-20 0 -34.5 16.5t-14.5 39.5t14.5 39t34.5 16q21 0 35.5 -16t14.5 -39zM295 812
q0 -23 -14.5 -39.5t-34.5 -16.5q-21 0 -35.5 16.5t-14.5 39.5t14.5 39t35.5 16q20 0 34.5 -16t14.5 -39z" />
    <glyph glyph-name="Oslash" unicode="&#xd8;" horiz-adv-x="661" 
d="M558 548q26 -48 40 -102.5t14 -111.5q0 -65 -16.5 -127.5t-51 -111t-87.5 -78.5t-126 -30q-52 0 -95 16t-76 43l-54 -68l-49 44l60 75q-33 49 -50.5 111t-17.5 126q0 65 16.5 127t51 111t87.5 78.5t127 29.5q60 0 107 -21t82 -56l62 78l49 -42zM470 541q-24 31 -59 49.5
t-80 18.5q-51 0 -88.5 -23.5t-62 -62.5t-36 -88.5t-11.5 -100.5q0 -45 10 -88t28 -81zM528 334q0 36 -7 72.5t-19 69.5l-293 -368q23 -23 54 -36.5t68 -13.5q51 0 88 23.5t61 62.5t36 88.5t12 101.5z" />
    <glyph glyph-name="Ugrave" unicode="&#xd9;" horiz-adv-x="647" 
d="M570 223q0 -59 -20.5 -103t-55 -73.5t-79.5 -44.5t-94 -15q-52 0 -96.5 15t-77.5 44.5t-51.5 73.5t-18.5 103v444h80v-429q0 -85 44 -132.5t122 -47.5q79 0 123 46t44 134v429h80v-444zM374 710l-182 124l51 52l167 -139z" />
    <glyph glyph-name="Uacute" unicode="&#xda;" horiz-adv-x="647" 
d="M570 223q0 -59 -20.5 -103t-55 -73.5t-79.5 -44.5t-94 -15q-52 0 -96.5 15t-77.5 44.5t-51.5 73.5t-18.5 103v444h80v-429q0 -85 44 -132.5t122 -47.5q79 0 123 46t44 134v429h80v-444zM269 710l-37 37l167 139l51 -52z" />
    <glyph glyph-name="Ucircumflex" unicode="&#xdb;" horiz-adv-x="647" 
d="M570 223q0 -59 -20.5 -103t-55 -73.5t-79.5 -44.5t-94 -15q-52 0 -96.5 15t-77.5 44.5t-51.5 73.5t-18.5 103v444h80v-429q0 -85 44 -132.5t122 -47.5q79 0 123 46t44 134v429h80v-444zM437 710l-106 112l-105 -112l-45 30l126 144h48l126 -144z" />
    <glyph glyph-name="Udieresis" unicode="&#xdc;" horiz-adv-x="647" 
d="M570 223q0 -59 -20.5 -103t-55 -73.5t-79.5 -44.5t-94 -15q-52 0 -96.5 15t-77.5 44.5t-51.5 73.5t-18.5 103v444h80v-429q0 -85 44 -132.5t122 -47.5q79 0 123 46t44 134v429h80v-444zM465 812q0 -23 -14.5 -39.5t-35.5 -16.5q-20 0 -34.5 16.5t-14.5 39.5t14.5 39
t34.5 16q21 0 35.5 -16t14.5 -39zM292 812q0 -23 -14.5 -39.5t-34.5 -16.5q-21 0 -35.5 16.5t-14.5 39.5t14.5 39t35.5 16q20 0 34.5 -16t14.5 -39z" />
    <glyph glyph-name="germandbls" unicode="&#xdf;" horiz-adv-x="528" 
d="M510 131q0 -33 -12 -59.5t-33 -45t-49 -28t-61 -9.5t-57 6t-42 18t-32 29t-27 39l63 33q16 -32 38 -47.5t57 -15.5q38 0 60 18t22 52q0 17 -5 31.5t-17 27.5t-33 25.5t-52 25.5q-51 21 -82 52t-31 85q0 60 42.5 88.5t117.5 30.5q0 67 -29.5 99.5t-75.5 32.5t-75.5 -32.5
t-29.5 -109.5v-477h-78v414h-69v63h69q2 100 49.5 151.5t134.5 51.5q81 0 128.5 -49t47.5 -134v-73h-77q-42 0 -62 -15.5t-20 -40.5q0 -14 4.5 -25t15.5 -21t29.5 -19.5t46.5 -21.5q64 -27 94 -62.5t30 -87.5z" />
    <glyph glyph-name="agrave" unicode="&#xe0;" horiz-adv-x="470" 
d="M334 0l-4 41q-25 -25 -57.5 -38.5t-71.5 -13.5q-31 0 -60.5 9.5t-52 28t-36.5 46.5t-14 65q0 51 27.5 84t69.5 52.5t93 27.5t99 8v6q0 60 -25.5 86t-73.5 26q-33 0 -60.5 -14.5t-46.5 -38.5l-54 38q29 39 68.5 57.5t99.5 18.5q80 0 124.5 -41t44.5 -137v-311h-70z
M327 249q-33 -1 -70 -5t-68.5 -15.5t-52 -33.5t-20.5 -58q0 -23 9 -39t22.5 -26.5t30 -15t32.5 -4.5q35 0 64.5 14.5t52.5 34.5v148zM306 544l-182 124l51 52l167 -139z" />
    <glyph glyph-name="aacute" unicode="&#xe1;" horiz-adv-x="470" 
d="M334 0l-4 41q-25 -25 -57.5 -38.5t-71.5 -13.5q-31 0 -60.5 9.5t-52 28t-36.5 46.5t-14 65q0 51 27.5 84t69.5 52.5t93 27.5t99 8v6q0 60 -25.5 86t-73.5 26q-33 0 -60.5 -14.5t-46.5 -38.5l-54 38q29 39 68.5 57.5t99.5 18.5q80 0 124.5 -41t44.5 -137v-311h-70z
M327 249q-33 -1 -70 -5t-68.5 -15.5t-52 -33.5t-20.5 -58q0 -23 9 -39t22.5 -26.5t30 -15t32.5 -4.5q35 0 64.5 14.5t52.5 34.5v148zM166 544l-37 37l167 139l51 -52z" />
    <glyph glyph-name="acircumflex" unicode="&#xe2;" horiz-adv-x="470" 
d="M334 0l-4 41q-25 -25 -57.5 -38.5t-71.5 -13.5q-31 0 -60.5 9.5t-52 28t-36.5 46.5t-14 65q0 51 27.5 84t69.5 52.5t93 27.5t99 8v6q0 60 -25.5 86t-73.5 26q-33 0 -60.5 -14.5t-46.5 -38.5l-54 38q29 39 68.5 57.5t99.5 18.5q80 0 124.5 -41t44.5 -137v-311h-70z
M327 249q-33 -1 -70 -5t-68.5 -15.5t-52 -33.5t-20.5 -58q0 -23 9 -39t22.5 -26.5t30 -15t32.5 -4.5q35 0 64.5 14.5t52.5 34.5v148zM340 544l-106 112l-105 -112l-45 30l126 144h48l126 -144z" />
    <glyph glyph-name="atilde" unicode="&#xe3;" horiz-adv-x="470" 
d="M334 0l-4 41q-25 -25 -57.5 -38.5t-71.5 -13.5q-31 0 -60.5 9.5t-52 28t-36.5 46.5t-14 65q0 51 27.5 84t69.5 52.5t93 27.5t99 8v6q0 60 -25.5 86t-73.5 26q-33 0 -60.5 -14.5t-46.5 -38.5l-54 38q29 39 68.5 57.5t99.5 18.5q80 0 124.5 -41t44.5 -137v-311h-70z
M327 249q-33 -1 -70 -5t-68.5 -15.5t-52 -33.5t-20.5 -58q0 -23 9 -39t22.5 -26.5t30 -15t32.5 -4.5q35 0 64.5 14.5t52.5 34.5v148zM411 669q-16 -46 -43 -72t-62 -26q-19 0 -37 8.5t-35 19.5q-11 6 -29 17.5t-34 11.5q-17 0 -30.5 -13.5t-27.5 -45.5l-49 23q14 45 41.5 72
t62.5 27q22 0 43 -11.5t41 -23.5q9 -6 23 -14t28 -8q15 0 30 13t29 46z" />
    <glyph glyph-name="adieresis" unicode="&#xe4;" horiz-adv-x="470" 
d="M334 0l-4 41q-25 -25 -57.5 -38.5t-71.5 -13.5q-31 0 -60.5 9.5t-52 28t-36.5 46.5t-14 65q0 51 27.5 84t69.5 52.5t93 27.5t99 8v6q0 60 -25.5 86t-73.5 26q-33 0 -60.5 -14.5t-46.5 -38.5l-54 38q29 39 68.5 57.5t99.5 18.5q80 0 124.5 -41t44.5 -137v-311h-70z
M327 249q-33 -1 -70 -5t-68.5 -15.5t-52 -33.5t-20.5 -58q0 -23 9 -39t22.5 -26.5t30 -15t32.5 -4.5q35 0 64.5 14.5t52.5 34.5v148zM372 646q0 -23 -14.5 -39.5t-35.5 -16.5q-20 0 -34.5 16.5t-14.5 39.5t14.5 39t34.5 16q21 0 35.5 -16t14.5 -39zM199 646
q0 -23 -14.5 -39.5t-34.5 -16.5q-21 0 -35.5 16.5t-14.5 39.5t14.5 39t35.5 16q20 0 34.5 -16t14.5 -39z" />
    <glyph glyph-name="aring" unicode="&#xe5;" horiz-adv-x="470" 
d="M334 0l-4 41q-25 -25 -57.5 -38.5t-71.5 -13.5q-31 0 -60.5 9.5t-52 28t-36.5 46.5t-14 65q0 51 27.5 84t69.5 52.5t93 27.5t99 8v6q0 60 -25.5 86t-73.5 26q-33 0 -60.5 -14.5t-46.5 -38.5l-54 38q29 39 68.5 57.5t99.5 18.5q80 0 124.5 -41t44.5 -137v-311h-70z
M327 249q-33 -1 -70 -5t-68.5 -15.5t-52 -33.5t-20.5 -58q0 -23 9 -39t22.5 -26.5t30 -15t32.5 -4.5q35 0 64.5 14.5t52.5 34.5v148zM330 633q0 -18 -6 -36t-18 -32t-29.5 -22.5t-40.5 -8.5t-40.5 8.5t-29 22.5t-17.5 31.5t-6 36.5t6 37t17.5 32t29 22.5t40.5 8.5t40.5 -8.5
t29.5 -22.5t18 -32t6 -37zM287 633q0 23 -13 41.5t-38 18.5t-38 -18.5t-13 -41.5q0 -22 13 -40.5t38 -18.5t38 18.5t13 40.5z" />
    <glyph glyph-name="ae" unicode="&#xe6;" horiz-adv-x="765" 
d="M402 243q0 -94 34 -143t103 -49q45 0 74 18.5t52 56.5l50 -32q-26 -48 -70.5 -76.5t-107.5 -28.5q-36 0 -63.5 8t-47.5 20.5t-33.5 27.5t-21.5 29q-9 -15 -23 -30t-34 -27.5t-46 -20t-59 -7.5q-35 0 -66 10t-54.5 29t-37 46.5t-13.5 63.5q0 51 27.5 84t69.5 52.5t93 27.5
t99 8v6q0 60 -25.5 86t-73.5 26q-33 0 -60.5 -14.5t-46.5 -38.5l-55 37q29 38 69 57.5t100 19.5q54 0 87 -18t54 -54q24 34 60 53t91 19q52 0 90 -18t62 -50.5t35.5 -78t11.5 -99.5h-324zM639 304q-3 63 -34.5 93.5t-77.5 30.5q-49 0 -82.5 -28.5t-41.5 -95.5h236zM327 249
q-33 -1 -70 -5t-68.5 -15.5t-52 -33.5t-20.5 -58q0 -42 24.5 -63.5t69.5 -21.5q57 0 87 25t30 67v105z" />
    <glyph glyph-name="ccedilla" unicode="&#xe7;" horiz-adv-x="474" 
d="M448 102q-28 -58 -76.5 -85.5t-102.5 -27.5q-42 0 -82.5 15t-71.5 46t-50 77.5t-19 109.5q0 67 19 115t50 78.5t70 44.5t78 14q40 0 70.5 -12t52 -30t35 -38t19.5 -36l-57 -36q-21 48 -53 69t-67 21q-27 0 -52 -12.5t-45 -36.5t-32 -59t-12 -80t12 -80t32.5 -59t48 -36.5
t58.5 -12.5q35 0 67.5 20t53.5 65zM234 -174h-61l51 130h82z" />
    <glyph glyph-name="egrave" unicode="&#xe8;" horiz-adv-x="508" 
d="M122 243q0 -90 41 -141t119 -51q45 0 76 22t50 54l51 -34q-26 -45 -67.5 -74.5t-111.5 -29.5q-54 0 -97 16.5t-73.5 48t-47 78.5t-16.5 109q0 57 15.5 102.5t43 78t67 50t87.5 17.5q53 0 92.5 -18t65.5 -50.5t39 -78t13 -99.5h-347zM382 304q-1 31 -12 54.5t-28 39
t-39 23t-44 7.5q-48 0 -82.5 -28.5t-47.5 -95.5h253zM321 544l-182 124l51 52l167 -139z" />
    <glyph glyph-name="eacute" unicode="&#xe9;" horiz-adv-x="508" 
d="M122 243q0 -90 41 -141t119 -51q45 0 76 22t50 54l51 -34q-26 -45 -67.5 -74.5t-111.5 -29.5q-54 0 -97 16.5t-73.5 48t-47 78.5t-16.5 109q0 57 15.5 102.5t43 78t67 50t87.5 17.5q53 0 92.5 -18t65.5 -50.5t39 -78t13 -99.5h-347zM382 304q-1 31 -12 54.5t-28 39
t-39 23t-44 7.5q-48 0 -82.5 -28.5t-47.5 -95.5h253zM197 544l-37 37l167 139l51 -52z" />
    <glyph glyph-name="ecircumflex" unicode="&#xea;" horiz-adv-x="508" 
d="M122 243q0 -90 41 -141t119 -51q45 0 76 22t50 54l51 -34q-26 -45 -67.5 -74.5t-111.5 -29.5q-54 0 -97 16.5t-73.5 48t-47 78.5t-16.5 109q0 57 15.5 102.5t43 78t67 50t87.5 17.5q53 0 92.5 -18t65.5 -50.5t39 -78t13 -99.5h-347zM382 304q-1 31 -12 54.5t-28 39
t-39 23t-44 7.5q-48 0 -82.5 -28.5t-47.5 -95.5h253zM370 544l-106 112l-105 -112l-45 30l126 144h48l126 -144z" />
    <glyph glyph-name="edieresis" unicode="&#xeb;" horiz-adv-x="508" 
d="M122 243q0 -90 41 -141t119 -51q45 0 76 22t50 54l51 -34q-26 -45 -67.5 -74.5t-111.5 -29.5q-54 0 -97 16.5t-73.5 48t-47 78.5t-16.5 109q0 57 15.5 102.5t43 78t67 50t87.5 17.5q53 0 92.5 -18t65.5 -50.5t39 -78t13 -99.5h-347zM382 304q-1 31 -12 54.5t-28 39
t-39 23t-44 7.5q-48 0 -82.5 -28.5t-47.5 -95.5h253zM399 646q0 -23 -14.5 -39.5t-35.5 -16.5q-20 0 -34.5 16.5t-14.5 39.5t14.5 39t34.5 16q21 0 35.5 -16t14.5 -39zM226 646q0 -23 -14.5 -39.5t-34.5 -16.5q-21 0 -35.5 16.5t-14.5 39.5t14.5 39t35.5 16q20 0 34.5 -16
t14.5 -39z" />
    <glyph glyph-name="igrave" unicode="&#xec;" horiz-adv-x="215" 
d="M69 0v477h77v-477h-77zM133 544l-182 124l51 52l167 -139z" />
    <glyph glyph-name="iacute" unicode="&#xed;" horiz-adv-x="215" 
d="M69 0v477h77v-477h-77zM88 544l-37 37l167 139l51 -52z" />
    <glyph glyph-name="icircumflex" unicode="&#xee;" horiz-adv-x="215" 
d="M69 0v477h77v-477h-77zM215 544l-106 112l-105 -112l-45 30l126 144h48l126 -144z" />
    <glyph glyph-name="idieresis" unicode="&#xef;" horiz-adv-x="215" 
d="M69 0v477h77v-477h-77zM245 646q0 -23 -14.5 -39.5t-35.5 -16.5q-20 0 -34.5 16.5t-14.5 39.5t14.5 39t34.5 16q21 0 35.5 -16t14.5 -39zM72 646q0 -23 -14.5 -39.5t-34.5 -16.5q-21 0 -35.5 16.5t-14.5 39.5t14.5 39t35.5 16q20 0 34.5 -16t14.5 -39z" />
    <glyph glyph-name="ntilde" unicode="&#xf1;" horiz-adv-x="541" 
d="M398 0v299q0 60 -27 94t-88 34q-38 0 -74.5 -16.5t-62.5 -36.5v-374h-77v477h71l5 -38q29 22 68.5 36t82.5 14q98 0 138.5 -48.5t40.5 -143.5v-297h-77zM452 669q-16 -46 -43 -72t-62 -26q-19 0 -37 8.5t-35 19.5q-11 6 -29 17.5t-34 11.5q-17 0 -30.5 -13.5t-27.5 -45.5
l-49 23q14 45 41.5 72t62.5 27q22 0 43 -11.5t41 -23.5q9 -6 23 -14t28 -8q15 0 30 13t29 46z" />
    <glyph glyph-name="ograve" unicode="&#xf2;" horiz-adv-x="536" 
d="M490 239q0 -47 -14 -92t-41.5 -80t-69.5 -56.5t-97 -21.5t-96.5 21.5t-69.5 57t-42 81t-14 92.5t13.5 91.5t41.5 79.5t69.5 56t97.5 21q55 0 97 -21.5t69.5 -56.5t41.5 -80t14 -92zM415 240q0 35 -9 69t-27.5 60.5t-46 42.5t-64.5 16t-64.5 -16t-45.5 -42.5t-27 -60
t-9 -68.5q0 -36 9 -70t27.5 -60.5t46 -43t63.5 -16.5q37 0 64.5 16.5t46 43t27.5 60.5t9 69zM319 544l-182 124l51 52l167 -139z" />
    <glyph glyph-name="oacute" unicode="&#xf3;" horiz-adv-x="536" 
d="M490 239q0 -47 -14 -92t-41.5 -80t-69.5 -56.5t-97 -21.5t-96.5 21.5t-69.5 57t-42 81t-14 92.5t13.5 91.5t41.5 79.5t69.5 56t97.5 21q55 0 97 -21.5t69.5 -56.5t41.5 -80t14 -92zM415 240q0 35 -9 69t-27.5 60.5t-46 42.5t-64.5 16t-64.5 -16t-45.5 -42.5t-27 -60
t-9 -68.5q0 -36 9 -70t27.5 -60.5t46 -43t63.5 -16.5q37 0 64.5 16.5t46 43t27.5 60.5t9 69zM203 544l-37 37l167 139l51 -52z" />
    <glyph glyph-name="ocircumflex" unicode="&#xf4;" horiz-adv-x="536" 
d="M490 239q0 -47 -14 -92t-41.5 -80t-69.5 -56.5t-97 -21.5t-96.5 21.5t-69.5 57t-42 81t-14 92.5t13.5 91.5t41.5 79.5t69.5 56t97.5 21q55 0 97 -21.5t69.5 -56.5t41.5 -80t14 -92zM415 240q0 35 -9 69t-27.5 60.5t-46 42.5t-64.5 16t-64.5 -16t-45.5 -42.5t-27 -60
t-9 -68.5q0 -36 9 -70t27.5 -60.5t46 -43t63.5 -16.5q37 0 64.5 16.5t46 43t27.5 60.5t9 69zM371 544l-106 112l-105 -112l-45 30l126 144h48l126 -144z" />
    <glyph glyph-name="otilde" unicode="&#xf5;" horiz-adv-x="536" 
d="M490 239q0 -47 -14 -92t-41.5 -80t-69.5 -56.5t-97 -21.5t-96.5 21.5t-69.5 57t-42 81t-14 92.5t13.5 91.5t41.5 79.5t69.5 56t97.5 21q55 0 97 -21.5t69.5 -56.5t41.5 -80t14 -92zM415 240q0 35 -9 69t-27.5 60.5t-46 42.5t-64.5 16t-64.5 -16t-45.5 -42.5t-27 -60
t-9 -68.5q0 -36 9 -70t27.5 -60.5t46 -43t63.5 -16.5q37 0 64.5 16.5t46 43t27.5 60.5t9 69zM438 669q-16 -46 -43 -72t-62 -26q-19 0 -37 8.5t-35 19.5q-11 6 -29 17.5t-34 11.5q-17 0 -30.5 -13.5t-27.5 -45.5l-49 23q14 45 41.5 72t62.5 27q22 0 43 -11.5t41 -23.5
q9 -6 23 -14t28 -8q15 0 30 13t29 46z" />
    <glyph glyph-name="odieresis" unicode="&#xf6;" horiz-adv-x="536" 
d="M490 239q0 -47 -14 -92t-41.5 -80t-69.5 -56.5t-97 -21.5t-96.5 21.5t-69.5 57t-42 81t-14 92.5t13.5 91.5t41.5 79.5t69.5 56t97.5 21q55 0 97 -21.5t69.5 -56.5t41.5 -80t14 -92zM415 240q0 35 -9 69t-27.5 60.5t-46 42.5t-64.5 16t-64.5 -16t-45.5 -42.5t-27 -60
t-9 -68.5q0 -36 9 -70t27.5 -60.5t46 -43t63.5 -16.5q37 0 64.5 16.5t46 43t27.5 60.5t9 69zM408 646q0 -23 -14.5 -39.5t-35.5 -16.5q-20 0 -34.5 16.5t-14.5 39.5t14.5 39t34.5 16q21 0 35.5 -16t14.5 -39zM235 646q0 -23 -14.5 -39.5t-34.5 -16.5q-21 0 -35.5 16.5
t-14.5 39.5t14.5 39t35.5 16q20 0 34.5 -16t14.5 -39z" />
    <glyph glyph-name="divide" unicode="&#xf7;" 
d="M323 518q0 -25 -15.5 -42.5t-38.5 -17.5t-38.5 17.5t-15.5 42.5q0 26 15.5 43.5t38.5 17.5t38.5 -17.5t15.5 -43.5zM34 297v70h472v-70h-472zM323 154q0 -25 -15.5 -42.5t-38.5 -17.5t-38.5 17.5t-15.5 42.5q0 26 15.5 43.5t38.5 17.5t38.5 -17.5t15.5 -43.5z" />
    <glyph glyph-name="oslash" unicode="&#xf8;" horiz-adv-x="536" 
d="M490 239q0 -47 -14 -92t-41.5 -80t-69.5 -56.5t-97 -21.5q-29 0 -55 6.5t-47 17.5l-48 -81l-49 32l50 86q-35 36 -54 86.5t-19 104.5q0 47 13.5 91.5t41.5 79.5t69.5 56t97.5 21q25 0 49.5 -5.5t46.5 -15.5l47 80l49 -29l-49 -83q39 -36 59 -88t20 -109zM415 240
q0 36 -10.5 71t-29.5 61l-176 -302q14 -8 31.5 -13.5t37.5 -5.5q37 0 64.5 16.5t46 43t27.5 60.5t9 69zM331 412q-13 7 -29.5 11.5t-33.5 4.5q-37 0 -64.5 -16t-45.5 -42.5t-27 -60t-9 -68.5q0 -34 9.5 -67t25.5 -59z" />
    <glyph glyph-name="ugrave" unicode="&#xf9;" horiz-adv-x="538" 
d="M398 0l-5 37q-29 -22 -63 -35t-85 -13q-94 0 -136.5 46t-42.5 140v302h77v-306q0 -63 29 -91.5t86 -28.5q37 0 73.5 15.5t59.5 37.5v373h78v-477h-71zM318 544l-182 124l51 52l167 -139z" />
    <glyph glyph-name="uacute" unicode="&#xfa;" horiz-adv-x="538" 
d="M398 0l-5 37q-29 -22 -63 -35t-85 -13q-94 0 -136.5 46t-42.5 140v302h77v-306q0 -63 29 -91.5t86 -28.5q37 0 73.5 15.5t59.5 37.5v373h78v-477h-71zM217 544l-37 37l167 139l51 -52z" />
    <glyph glyph-name="ucircumflex" unicode="&#xfb;" horiz-adv-x="538" 
d="M398 0l-5 37q-29 -22 -63 -35t-85 -13q-94 0 -136.5 46t-42.5 140v302h77v-306q0 -63 29 -91.5t86 -28.5q37 0 73.5 15.5t59.5 37.5v373h78v-477h-71zM379 544l-106 112l-105 -112l-45 30l126 144h48l126 -144z" />
    <glyph glyph-name="udieresis" unicode="&#xfc;" horiz-adv-x="538" 
d="M398 0l-5 37q-29 -22 -63 -35t-85 -13q-94 0 -136.5 46t-42.5 140v302h77v-306q0 -63 29 -91.5t86 -28.5q37 0 73.5 15.5t59.5 37.5v373h78v-477h-71zM408 646q0 -23 -14.5 -39.5t-35.5 -16.5q-20 0 -34.5 16.5t-14.5 39.5t14.5 39t34.5 16q21 0 35.5 -16t14.5 -39z
M235 646q0 -23 -14.5 -39.5t-34.5 -16.5q-21 0 -35.5 16.5t-14.5 39.5t14.5 39t35.5 16q20 0 34.5 -16t14.5 -39z" />
    <glyph glyph-name="ydieresis" unicode="&#xff;" horiz-adv-x="453" 
d="M209 -126q-18 -44 -50.5 -60t-67.5 -16q-23 0 -48.5 6.5t-39.5 12.5l22 57q11 -4 27.5 -7.5t33.5 -3.5q23 0 36 11t27 43l39 95l-188 465h88l141 -367l141 367h83zM372 646q0 -23 -14.5 -39.5t-35.5 -16.5q-20 0 -34.5 16.5t-14.5 39.5t14.5 39t34.5 16q21 0 35.5 -16
t14.5 -39zM199 646q0 -23 -14.5 -39.5t-34.5 -16.5q-21 0 -35.5 16.5t-14.5 39.5t14.5 39t35.5 16q20 0 34.5 -16t14.5 -39z" />
    <glyph glyph-name="dotlessi" unicode="&#x131;" horiz-adv-x="215" 
d="M69 0v477h77v-477h-77z" />
    <glyph glyph-name="OE" unicode="&#x152;" horiz-adv-x="875" 
d="M405 0q-85 0 -151 23.5t-111.5 68t-69.5 108t-24 143.5q0 156 93 240t263 84h422v-69h-290v-214h202v-69h-202v-246h313v-69h-445zM456 598h-52q-129 0 -200 -65t-71 -194q0 -133 73 -201.5t202 -68.5h48v529z" />
    <glyph glyph-name="oe" unicode="&#x153;" horiz-adv-x="830" 
d="M463 243q0 -43 9 -78.5t27 -60.5t46 -39t67 -14q43 0 70.5 20t44.5 52l54 -29q-26 -48 -70 -76.5t-101 -28.5q-70 0 -114 26.5t-68 68.5q-26 -42 -68 -68.5t-103 -26.5q-55 0 -95 21.5t-65.5 57t-38 81t-12.5 92.5t12 91.5t37.5 79.5t66 56t96.5 21q34 0 60.5 -7.5
t47 -20t35.5 -29.5t26 -36q23 38 62 65.5t100 27.5q52 0 90.5 -19t63 -52t36.5 -78t12 -97h-328zM704 304q-3 63 -36 93.5t-79 30.5t-82 -32t-44 -92h241zM393 240q0 35 -7.5 69t-24 60.5t-42 42.5t-62.5 16t-62.5 -16t-41.5 -42.5t-23.5 -60t-7.5 -68.5q0 -36 7.5 -70
t23.5 -60.5t42 -43t62 -16.5q37 0 62.5 16.5t42 43t24 60.5t7.5 69z" />
    <glyph glyph-name="Ydieresis" unicode="&#x178;" horiz-adv-x="543" 
d="M404 811q0 -23 -14.5 -39t-34.5 -16q-21 0 -35.5 16t-14.5 39t14.5 39.5t35.5 16.5q20 0 34.5 -16.5t14.5 -39.5zM247 811q0 -23 -14.5 -39t-34.5 -16q-21 0 -35.5 16t-14.5 39t14.5 39.5t35.5 16.5q20 0 34.5 -16.5t14.5 -39.5zM307 321v-321h-80v320l-227 347h91
l178 -270l187 270h87z" />
    <glyph glyph-name="circumflex" unicode="&#x2c6;" horiz-adv-x="442" 
d="M327 544l-106 112l-105 -112l-45 30l126 144h48l126 -144z" />
    <glyph glyph-name="caron" unicode="&#x2c7;" horiz-adv-x="442" 
d="M245 544h-48l-126 144l45 30l105 -112l106 112l44 -30z" />
    <glyph glyph-name="breve" unicode="&#x2d8;" horiz-adv-x="442" 
d="M362 682q-3 -36 -16.5 -60.5t-34 -39.5t-45 -21.5t-48.5 -6.5t-48 6.5t-43.5 21.5t-32.5 39.5t-14 60.5h63q3 -22 11 -36t18.5 -22.5t23.5 -11.5t26 -3q26 0 49 14.5t31 58.5h60z" />
    <glyph glyph-name="dotaccent" unicode="&#x2d9;" horiz-adv-x="442" 
d="M275 646q0 -26 -15.5 -43.5t-38.5 -17.5t-38.5 17.5t-15.5 43.5q0 25 15.5 42.5t38.5 17.5t38.5 -17.5t15.5 -42.5z" />
    <glyph glyph-name="ring" unicode="&#x2da;" horiz-adv-x="442" 
d="M315 633q0 -18 -6 -36t-18 -32t-29.5 -22.5t-40.5 -8.5t-40.5 8.5t-29 22.5t-17.5 31.5t-6 36.5t6 37t17.5 32t29 22.5t40.5 8.5t40.5 -8.5t29.5 -22.5t18 -32t6 -37zM272 633q0 23 -13 41.5t-38 18.5t-38 -18.5t-13 -41.5q0 -22 13 -40.5t38 -18.5t38 18.5t13 40.5z" />
    <glyph glyph-name="ogonek" unicode="&#x2db;" horiz-adv-x="442" 
d="M255 11q-29 -19 -51.5 -45.5t-22.5 -57.5q0 -14 7 -23.5t23 -9.5q14 0 23.5 4t17.5 9l18 -49q-12 -8 -29 -13t-38 -5q-38 0 -62 19.5t-24 58.5q0 22 7.5 40.5t19 34.5t25.5 28t27 20z" />
    <glyph glyph-name="tilde" unicode="&#x2dc;" horiz-adv-x="442" 
d="M395 669q-16 -46 -43 -72t-62 -26q-19 0 -37 8.5t-35 19.5q-11 6 -29 17.5t-34 11.5q-17 0 -30.5 -13.5t-27.5 -45.5l-49 23q14 45 41.5 72t62.5 27q22 0 43 -11.5t41 -23.5q9 -6 23 -14t28 -8q15 0 30 13t29 46z" />
    <glyph glyph-name="hungarumlaut" unicode="&#x2dd;" horiz-adv-x="442" 
d="M241 544l-36 37l166 139l52 -52zM56 544l-36 37l167 139l51 -52z" />
    <glyph glyph-name="pi" unicode="&#x3c0;" horiz-adv-x="664" 
d="M501 118q0 -34 7.5 -51t34.5 -17q10 0 19.5 2t17.5 4l12 -55q-11 -5 -29 -8.5t-32 -3.5q-51 0 -78 27t-27 85v314h-206v-415h-75v415h-8q-29 0 -46 -12.5t-34 -36.5l-52 36q23 36 47 50t43 19q16 4 34.5 5t37.5 1h437v-63h-103v-296z" />
    <glyph glyph-name="endash" unicode="&#x2013;" horiz-adv-x="553" 
d="M0 226v72h553v-72h-553z" />
    <glyph glyph-name="emdash" unicode="&#x2014;" horiz-adv-x="1106" 
d="M0 226v72h1106v-72h-1106z" />
    <glyph glyph-name="quoteleft" unicode="&#x2018;" horiz-adv-x="192" 
d="M171 644q-17 -8 -38 -23.5t-30 -32.5q10 -5 22 -20t14 -42q1 -26 -11.5 -45.5t-38.5 -20.5q-27 -2 -42 16.5t-16 47.5q-2 27 9 50t29.5 42t42 34t46.5 25z" />
    <glyph glyph-name="quoteright" unicode="&#x2019;" horiz-adv-x="192" 
d="M174 606q0 -27 -12 -49.5t-31.5 -40.5t-43 -32t-47.5 -23l-12 32q18 7 39.5 21.5t31.5 31.5q-10 5 -21.5 20.5t-11.5 42.5q0 26 13.5 45t39.5 19q27 0 41 -19t14 -48z" />
    <glyph glyph-name="quotesinglbase" unicode="&#x201a;" horiz-adv-x="192" 
d="M174 53q0 -27 -12 -49.5t-31.5 -40.5t-43 -32t-47.5 -23l-12 32q18 7 39.5 21.5t31.5 31.5q-10 5 -21.5 20.5t-11.5 42.5q0 26 13.5 45t39.5 19q27 0 41 -19t14 -48z" />
    <glyph glyph-name="quotedblleft" unicode="&#x201c;" horiz-adv-x="379" 
d="M199 644q-17 -8 -38 -23.5t-30 -32.5q10 -5 22 -20t14 -42q1 -26 -11.5 -45.5t-38.5 -20.5q-27 -2 -42 16.5t-16 47.5q-2 27 9 50t29.5 42t42 34t46.5 25zM339 644q-17 -8 -38 -23.5t-30 -32.5q10 -5 22 -20t14 -42q1 -26 -11.5 -45.5t-38.5 -20.5q-27 -2 -42 16.5
t-16 47.5q-2 27 9 50t29.5 42t42 34t46.5 25z" />
    <glyph glyph-name="quotedblright" unicode="&#x201d;" horiz-adv-x="379" 
d="M196 606q0 -27 -12 -49.5t-31.5 -40.5t-43 -32t-47.5 -23l-12 32q18 7 39.5 21.5t31.5 31.5q-10 5 -21.5 20.5t-11.5 42.5q0 26 13.5 45t39.5 19q27 0 41 -19t14 -48zM336 606q0 -27 -12 -49.5t-31.5 -40.5t-43 -32t-47.5 -23l-12 32q18 7 39.5 21.5t31.5 31.5
q-10 5 -21.5 20.5t-11.5 42.5q0 26 13.5 45t39.5 19q27 0 41 -19t14 -48z" />
    <glyph glyph-name="quotedblbase" unicode="&#x201e;" horiz-adv-x="379" 
d="M196 53q0 -27 -12 -49.5t-31.5 -40.5t-43 -32t-47.5 -23l-12 32q18 7 39.5 21.5t31.5 31.5q-10 5 -21.5 20.5t-11.5 42.5q0 26 13.5 45t39.5 19q27 0 41 -19t14 -48zM336 53q0 -27 -12 -49.5t-31.5 -40.5t-43 -32t-47.5 -23l-12 32q18 7 39.5 21.5t31.5 31.5
q-10 5 -21.5 20.5t-11.5 42.5q0 26 13.5 45t39.5 19q27 0 41 -19t14 -48z" />
    <glyph glyph-name="dagger" unicode="&#x2020;" horiz-adv-x="446" 
d="M260 370v-516h-72v516h-148v72h148v225h72v-225h146v-72h-146z" />
    <glyph glyph-name="daggerdbl" unicode="&#x2021;" horiz-adv-x="446" 
d="M260 79v-225h-72v225h-148v71h148v220h-148v72h148v225h72v-225h146v-72h-146v-220h146v-71h-146z" />
    <glyph glyph-name="bullet" unicode="&#x2022;" horiz-adv-x="487" 
d="M437 387q0 -40 -15 -75t-41.5 -61.5t-61.5 -41.5t-75 -15t-75.5 15t-61.5 41t-41.5 61t-15.5 76q0 40 15 75.5t41 61.5t61.5 41.5t76.5 15.5q40 0 75 -15.5t61.5 -41.5t41.5 -61.5t15 -75.5z" />
    <glyph glyph-name="ellipsis" unicode="&#x2026;" horiz-adv-x="555" 
d="M517 49q0 -25 -16 -42.5t-38 -17.5q-23 0 -38.5 17.5t-15.5 42.5t15.5 42.5t38.5 17.5q22 0 38 -17.5t16 -42.5zM331 49q0 -25 -15.5 -42.5t-37.5 -17.5q-23 0 -38.5 17.5t-15.5 42.5t15.5 42.5t38.5 17.5q22 0 37.5 -17.5t15.5 -42.5zM146 49q0 -25 -15.5 -42.5
t-38.5 -17.5t-38.5 17.5t-15.5 42.5t15.5 42.5t38.5 17.5t38.5 -17.5t15.5 -42.5z" />
    <glyph glyph-name="perthousand" unicode="&#x2030;" horiz-adv-x="1100" 
d="M1072 146q0 -32 -12 -59.5t-32.5 -48.5t-48.5 -33t-60 -12t-59.5 12t-48 33t-32.5 48.5t-12 59.5q0 31 12 59t32.5 49t48 33t59.5 12t60 -12t48.5 -33t32.5 -49t12 -59zM718 146q0 -32 -12 -59.5t-32.5 -48.5t-48.5 -33t-60 -12t-59.5 12t-48 33t-32.5 48.5t-12 59.5
q0 31 12 59t32.5 49t48 33t59.5 12t60 -12t48.5 -33t32.5 -49t12 -59zM343 520q0 -32 -12 -59.5t-32.5 -48.5t-48.5 -33t-60 -12t-59.5 12t-48 33t-32.5 48.5t-12 59.5q0 31 12 59t32.5 49t48 33t59.5 12t60 -12t48.5 -33t32.5 -49t12 -59zM79 -7l-49 52l634 626l47 -48z
M1006 147q0 18 -7 34.5t-19 29t-28 20t-34 7.5t-34 -7.5t-27.5 -20t-18.5 -29t-7 -34.5t7 -34.5t18.5 -29t27.5 -20t34 -7.5t34 7.5t28 20t19 29t7 34.5zM652 147q0 18 -7 34.5t-19 29t-28 20t-34 7.5t-34 -7.5t-27.5 -20t-18.5 -29t-7 -34.5t7 -34.5t18.5 -29t27.5 -20
t34 -7.5t34 7.5t28 20t19 29t7 34.5zM277 521q0 18 -7 34.5t-19 29t-28 20t-34 7.5t-34 -7.5t-27.5 -20t-18.5 -29t-7 -34.5t7 -34.5t18.5 -29t27.5 -20t34 -7.5t34 7.5t28 20t19 29t7 34.5z" />
    <glyph glyph-name="guilsinglleft" unicode="&#x2039;" horiz-adv-x="299" 
d="M227 54l-212 196l194 204l52 -39l-145 -160l159 -157z" />
    <glyph glyph-name="guilsinglright" unicode="&#x203a;" horiz-adv-x="299" 
d="M72 54l-48 44l159 157l-145 160l52 39l194 -204z" />
    <glyph glyph-name="fraction" unicode="&#x2044;" horiz-adv-x="222" 
d="M-201 -16l-38 44l638 642l44 -46z" />
    <glyph glyph-name="trademark" unicode="&#x2122;" horiz-adv-x="620" 
d="M509 380v178l-75 -180h-16l-82 181v-179h-56v287h56l90 -200l84 200h55v-287h-56zM154 617v-237h-55v237h-80v50h215v-50h-80z" />
    <glyph glyph-name="partialdiff" unicode="&#x2202;" horiz-adv-x="537" 
d="M491 277q0 -72 -18 -126t-49 -90t-72.5 -54t-89.5 -18q-47 0 -87 17t-68.5 49t-44.5 79t-16 107q0 58 16 104t44.5 78t69 49t90.5 17q39 0 64.5 -7.5t45.5 -17.5q-15 30 -41.5 55.5t-60.5 45t-73 32.5t-79 19l15 57q66 -6 127 -32.5t109 -71.5q54 -51 86 -126t32 -166z
M415 276q0 38 -7 68.5t-13 48.5q-28 17 -58 26t-69 9q-66 0 -105.5 -48.5t-39.5 -138.5q0 -93 38 -141.5t101 -48.5q30 0 57.5 13.5t48.5 41t34 70t13 100.5z" />
    <glyph glyph-name="product" unicode="&#x220f;" horiz-adv-x="645" 
d="M545 598v-723h-79v723h-286v-723h-80v723h-80v69h605v-69h-80z" />
    <glyph glyph-name="summation" unicode="&#x2211;" horiz-adv-x="498" 
d="M40 -125v70l253 336l-253 315v71h434v-69h-340l253 -317l-253 -337h342v-69h-436z" />
    <glyph glyph-name="radical" unicode="&#x221a;" 
d="M276 0h-63l-112 237h-74v65h124l89 -197l207 619l68 -21z" />
    <glyph glyph-name="integral" unicode="&#x222b;" horiz-adv-x="367" 
d="M357 605q-30 0 -54.5 -6t-42 -21t-26.5 -40t-9 -63v-473q0 -104 -53.5 -149.5t-160.5 -45.5v67q64 2 98 29.5t34 101.5v474q0 104 53.5 148t160.5 45v-67z" />
    <glyph glyph-name="approxequal" unicode="&#x2248;" 
d="M507 397q-20 -14 -53.5 -27t-70.5 -13q-26 0 -55 5t-57 13q-34 9 -60.5 14t-52.5 5q-27 0 -50 -8t-44 -19l-31 57q22 14 55.5 26t66.5 12q30 0 59.5 -5.5t64.5 -14.5q29 -8 53.5 -12.5t48.5 -4.5q28 0 50 8t44 21zM507 174q-20 -14 -53.5 -27t-70.5 -13q-26 0 -55 5
t-57 13q-34 9 -60.5 14t-52.5 5q-27 0 -50 -8.5t-44 -19.5l-31 58q22 14 55.5 26t66.5 12q30 0 59.5 -5.5t64.5 -14.5q29 -8 53.5 -12.5t48.5 -4.5q28 0 50 8t44 21z" />
    <glyph glyph-name="notequal" unicode="&#x2260;" 
d="M178 148l-74 -84l-47 43l36 41h-59v70h120l136 155h-256v69h317l77 88l49 -43l-40 -45h69v-69h-130l-136 -155h266v-70h-328z" />
    <glyph glyph-name="lessequal" unicode="&#x2264;" 
d="M476 138l-422 166v58l408 156l29 -67l-310 -116l323 -125zM31 0v67h478v-67h-478z" />
    <glyph glyph-name="greaterequal" unicode="&#x2265;" 
d="M64 138l-28 72l323 125l-310 116l29 67l408 -156v-58zM31 0v67h478v-67h-478z" />
    <glyph glyph-name="infinity" unicode="&#x221e;" horiz-adv-x="532" 
d="M516 359q0 -26 -7 -53t-22.5 -49t-39 -36t-56.5 -14q-17 0 -33 3.5t-31.5 14t-31 29t-30.5 48.5q-14 -30 -29.5 -48.5t-31 -29t-31.5 -14t-31 -3.5q-33 0 -56.5 12.5t-39 33.5t-23 48.5t-7.5 57.5q0 75 34.5 113.5t91.5 38.5q18 0 35 -4t32 -14.5t29 -29.5t27 -48
q26 55 54 75t72 20q54 0 89.5 -39.5t35.5 -111.5zM455 360q0 45 -20 70.5t-49 25.5q-31 0 -50 -28t-37 -70q9 -19 18 -36t20 -30t23.5 -21t27.5 -8q19 0 31.5 10t20.5 24.5t11.5 31.5t3.5 31zM231 359q-22 48 -41 72t-45 24q-18 0 -31 -9t-21.5 -23t-12.5 -31t-4 -33
q0 -45 18.5 -70.5t50.5 -25.5q17 0 31 10.5t24.5 25.5t18 31.5t12.5 28.5z" />
    <glyph glyph-name="lozenge" unicode="&#x25ca;" horiz-adv-x="532" 
d="M265 -16l-210 373l210 363l212 -363zM265 590l-133 -232l136 -246l132 245z" />
    <glyph glyph-name="quotedbl" unicode="&#x22;" horiz-adv-x="319" 
d="M197 371v296h72v-296h-72zM50 371v296h72v-296h-72z" />
    <glyph glyph-name="exclam" unicode="!" horiz-adv-x="198" 
d="M62 223v444h76v-444h-76zM153 49q0 -25 -15.5 -42.5t-38.5 -17.5t-38.5 17.5t-15.5 42.5t15.5 42.5t38.5 17.5t38.5 -17.5t15.5 -42.5z" />
    <glyph glyph-name="periodcentered" unicode="&#xb7;" horiz-adv-x="288" 
d="M198 369q0 -25 -15.5 -42.5t-38.5 -17.5t-38.5 17.5t-15.5 42.5t15.5 42.5t38.5 17.5t38.5 -17.5t15.5 -42.5z" />
    <glyph glyph-name="Euro" unicode="&#x20ac;" 
d="M504 110q-13 -26 -29 -48.5t-37.5 -38.5t-50 -25t-67.5 -9q-90 0 -147.5 53.5t-74.5 172.5h-86v68h80q-1 11 -1 21v21v24t1 23h-80v69h86q33 232 214 232q40 0 70 -8.5t52.5 -24.5t38.5 -39t29 -52l-73 -31q-15 34 -41.5 58.5t-75.5 24.5q-60 0 -90 -39.5t-40 -120.5h163
v-69h-169q0 -11 -0.5 -22.5t-0.5 -24.5q0 -11 0.5 -21t0.5 -21h169v-68h-162q14 -84 48.5 -119.5t89.5 -35.5q50 0 75.5 23.5t46.5 65.5z" />
    <glyph glyph-name="florin" unicode="&#x192;" 
d="M283 382l-47 -219q-7 -30 -15 -64t-20 -66t-29 -61.5t-41 -50.5q-30 -27 -71.5 -41.5t-101.5 -16.5v68q54 2 88.5 18.5t56 47.5t34.5 75.5t25 103.5l42 206h-107v69h122q13 70 37.5 113.5t57 67.5t71 32.5t79.5 8.5v-69q-33 0 -59 -6t-46 -22.5t-35.5 -46.5t-27.5 -78
h168v-69h-181z" />
    <glyph glyph-name="macron" unicode="&#xaf;" horiz-adv-x="442" 
d="M74 590v62h294v-62h-294z" />
    <glyph glyph-name="Omega" unicode="&#x2126;" horiz-adv-x="692" 
d="M406 0v69q29 19 55.5 48t47 65.5t32.5 80t12 91.5q0 58 -14 105t-40.5 80.5t-65 51.5t-87.5 18t-88 -19t-66.5 -53.5t-42.5 -82.5t-15 -106q0 -48 13.5 -90t35 -77.5t48.5 -63.5t54 -48v-69h-234v69h137q-24 20 -48.5 46.5t-44.5 61t-32.5 77.5t-12.5 96q0 69 20.5 129
t59 104.5t93.5 70.5t123 26q67 0 121 -24t91.5 -66t57.5 -100t20 -127q0 -54 -12 -99t-31.5 -81.5t-44.5 -64.5t-50 -49h139v-69h-231z" />
    <glyph glyph-name="Delta" unicode="&#x2206;" horiz-adv-x="608" 
d="M10 0l260 667h58l270 -667h-588zM297 547l-179 -482h368z" />
    <glyph glyph-name="mu" unicode="&#xb5;" horiz-adv-x="574" 
d="M483 118q0 -34 6.5 -50t30.5 -16q15 0 27 4l12 -56q-11 -5 -26.5 -8t-25.5 -3q-34 0 -56.5 12.5t-34.5 46.5q-30 -31 -63 -45t-84 -14q-37 0 -66.5 11.5t-48.5 34.5v-224h-74v666h78v-304q0 -66 30 -94t87 -28q46 0 77 18.5t44 44.5q7 14 8 33t1 36v294h78v-359z" />
    <glyph glyph-name="uni00A0" unicode="&#xa0;" horiz-adv-x="200" 
 />
    <glyph glyph-name="at" unicode="@" horiz-adv-x="956" 
d="M712 7q-35 0 -67 20t-47 67q-24 -52 -66 -69.5t-98 -17.5q-32 0 -62 13.5t-53 40.5t-37 67.5t-14 94.5q0 41 13 79t38.5 67.5t64 47t88.5 17.5q16 0 33.5 -5t34 -13t29.5 -19.5t19 -24.5l5 54h67v-280q0 -11 1.5 -25t7 -26t17 -20.5t31.5 -8.5q30 0 51.5 21.5t35.5 56
t20.5 78t6.5 86.5q0 51 -18.5 104t-58.5 95.5t-103.5 70t-154.5 27.5q-90 0 -158.5 -32t-114 -86t-69 -125t-23.5 -149q0 -75 26.5 -139.5t74.5 -111.5t114 -73.5t145 -26.5q36 0 73.5 2.5t70.5 7.5t59 12.5t41 16.5v-67q-13 -8 -39.5 -14.5t-60.5 -11.5t-72.5 -8t-76.5 -3
q-101 0 -181 32t-135 88.5t-84 132.5t-29 164q0 94 30.5 177.5t88.5 145t140 97.5t186 36q82 0 155.5 -24.5t128.5 -71t87 -114t32 -152.5q0 -57 -9 -111t-31.5 -96t-59.5 -68t-93 -26zM583 228q0 45 -12.5 73.5t-30 45t-36.5 22.5t-32 6q-26 0 -49 -8t-39.5 -26t-26 -47
t-9.5 -71q0 -54 12 -85.5t30 -47t38 -20t36 -4.5q23 0 44.5 10.5t38 31.5t26.5 51t10 69z" />
    <glyph glyph-name="at.alt" horiz-adv-x="783" 
d="M839 -123q-13 -7 -38 -14.5t-59 -7.5q-55 0 -91.5 31.5t-36.5 99.5v76q-22 -17 -56.5 -28.5t-72.5 -11.5q-41 0 -75 15.5t-59 44t-39 68t-14 87.5t14.5 86.5t39.5 65.5t59 41.5t74 14.5q42 0 74 -10.5t55 -24.5v58q0 72 -45.5 109t-141.5 37q-77 0 -132.5 -25.5t-91 -73
t-52.5 -116t-17 -155.5q0 -37 7.5 -73.5t19.5 -69.5t27.5 -60.5t31.5 -47.5l-62 -44q-19 22 -37.5 54t-33.5 71t-24 83t-9 90q0 103 24 183.5t71 136t116.5 84.5t161.5 29q77 0 128 -18.5t81 -48t42 -65.5t12 -72v-490q0 -35 17.5 -51.5t48.5 -16.5q23 0 37 6t25 12z
M613 344q-22 11 -49 21t-70 10q-55 0 -85 -36t-30 -102q0 -32 7.5 -59t21.5 -47t34 -31.5t46 -11.5q42 0 72 10t53 27v219z" />
    <glyph glyph-name="nonbreakingspace" horiz-adv-x="296" 
 />
    <glyph glyph-name="currency" unicode="&#xa4;" horiz-adv-x="668" 
d="M617 29l-152 153q-28 -18 -59.5 -28t-66.5 -10q-37 0 -70 11t-61 31l-156 -157l-52 48l157 160q-21 29 -32.5 62.5t-11.5 70.5q0 35 10.5 67.5t29.5 60.5l-153 154l57 50l147 -151q29 21 63 33t72 12q73 0 129 -41l143 147l57 -50l-147 -148q21 -29 32.5 -62.5
t11.5 -71.5q0 -79 -48 -139l151 -154zM493 369q0 32 -12 60.5t-33 49.5t-49 33t-60 12t-60 -12t-49 -33t-33 -49.5t-12 -60.5t12 -60t33 -49t49 -33t60 -12t60 12t49 33t33 49t12 60z" />
    <glyph glyph-name="brokenbar" unicode="&#xa6;" horiz-adv-x="192" 
d="M60 462v276h72v-276h-72zM60 -74v275h72v-275h-72z" />
    <glyph glyph-name="twosuperior" unicode="&#xb2;" horiz-adv-x="300" 
d="M41 336v36q30 32 56 59.5t47 52.5q25 30 37 49.5t12 41.5t-12.5 33t-31.5 11q-20 0 -37 -10.5t-35 -39.5l-50 27q23 38 51 57.5t73 19.5q48 0 77 -25.5t29 -67.5q0 -34 -17.5 -63t-39.5 -55q-17 -19 -34 -37t-34 -37h133v-52h-224z" />
    <glyph glyph-name="threesuperior" unicode="&#xb3;" horiz-adv-x="300" 
d="M270 435q0 -26 -11 -45t-28.5 -32t-40 -19.5t-44.5 -6.5q-34 0 -66 15.5t-55 52.5l49 28q16 -26 34.5 -35.5t36.5 -9.5q26 0 44.5 14t18.5 37q0 24 -20 37t-55 15v45q32 2 50.5 14.5t18.5 32.5q0 19 -15.5 31t-37.5 12q-42 0 -64 -43l-49 28q20 35 51.5 51t65.5 16
q21 0 41 -6t35.5 -18t25.5 -29t10 -39q0 -23 -10.5 -41t-28.5 -30q20 -11 32 -28.5t12 -46.5z" />
    <glyph glyph-name="onesuperior" unicode="&#xb9;" horiz-adv-x="300" 
d="M137 337v262l-61 -34l-27 48l99 56h50v-332h-61z" />
    <glyph glyph-name="onequarter" unicode="&#xbc;" horiz-adv-x="740" 
d="M64 -16l-38 44l638 642l44 -46zM137 337v262l-61 -34l-27 48l99 56h50v-332h-61zM646 89v-87h-61v87h-148v47l161 194h48v-197h41v-44h-41zM585 244l-89 -111h89v111z" />
    <glyph glyph-name="onehalf" unicode="&#xbd;" horiz-adv-x="740" 
d="M50 -16l-38 44l638 642l44 -46zM128 337v262l-61 -34l-27 48l99 56h50v-332h-61zM449 1v36q30 32 56 59.5t47 52.5q25 30 37 49.5t12 41.5t-12.5 33t-31.5 11q-20 0 -37 -10.5t-35 -39.5l-50 27q23 38 51 57.5t73 19.5q48 0 77 -25.5t29 -67.5q0 -34 -17.5 -63t-39.5 -55
q-17 -19 -34 -37t-34 -37h133v-52h-224z" />
    <glyph glyph-name="threequarters" unicode="&#xbe;" horiz-adv-x="740" 
d="M75 -16l-38 44l638 642l44 -46zM270 435q0 -26 -11 -45t-28.5 -32t-40 -19.5t-44.5 -6.5q-34 0 -66 15.5t-55 52.5l49 28q16 -26 34.5 -35.5t36.5 -9.5q26 0 44.5 14t18.5 37q0 24 -20 37t-55 15v45q32 2 50.5 14.5t18.5 32.5q0 19 -15.5 31t-37.5 12q-42 0 -64 -43
l-49 28q20 35 51.5 51t65.5 16q21 0 41 -6t35.5 -18t25.5 -29t10 -39q0 -23 -10.5 -41t-28.5 -30q20 -11 32 -28.5t12 -46.5zM652 89v-87h-61v87h-148v47l161 194h48v-197h41v-44h-41zM591 244l-89 -111h89v111z" />
    <glyph glyph-name="Eth" unicode="&#xd0;" horiz-adv-x="623" 
d="M576 343q0 -70 -16 -125.5t-44 -96.5t-67 -68t-84 -40q-23 -7 -54.5 -10t-56.5 -3h-173v316h-82v62h82v289h173q38 0 80.5 -6.5t77.5 -23.5q72 -34 118 -107t46 -187zM492 339q0 87 -27 140t-73 83q-29 19 -68 27.5t-76 8.5h-87v-220h160v-62h-160v-247h82q23 0 50.5 2.5
t50.5 11.5q30 13 57 33.5t47 51.5t32 73t12 98z" />
    <glyph glyph-name="multiply" unicode="&#xd7;" 
d="M408 144l-138 138l-137 -138l-50 55l135 135l-135 134l51 54l136 -136l137 136l50 -54l-135 -134l135 -135z" />
    <glyph glyph-name="Yacute" unicode="&#xdd;" horiz-adv-x="543" 
d="M307 321v-321h-80v320l-227 347h91l178 -270l187 270h87zM219 710l-37 37l167 139l51 -52z" />
    <glyph glyph-name="Thorn" unicode="&#xde;" horiz-adv-x="534" 
d="M508 348q0 -97 -59 -147.5t-170 -50.5h-118v-150h-80v667h80v-118h120q227 0 227 -201zM421 349q0 69 -36 100.5t-102 31.5h-122v-261h123q61 0 99 30.5t38 98.5z" />
    <glyph glyph-name="eth" unicode="&#xf0;" horiz-adv-x="537" 
d="M491 267q0 -73 -18 -125.5t-48 -86.5t-70 -50t-85 -16q-47 0 -88 17t-71 49t-47.5 79t-17.5 107q0 58 16.5 104t45.5 78t70 49t91 17q39 0 64.5 -8.5t42.5 -16.5q-12 28 -29.5 53.5t-40.5 42.5l-31 -41l-44 29l30 41q-18 10 -45 19.5t-52 14.5l15 57q34 -4 66.5 -15
t52.5 -24l31 43l45 -30l-32 -43q30 -24 57.5 -56t47.5 -74t32 -95t12 -119zM415 266q0 38 -6.5 72.5t-13.5 54.5q-24 13 -55 24t-69 11q-66 0 -107 -48.5t-41 -138.5q0 -45 11 -80.5t31 -60t46.5 -37t58.5 -12.5q30 0 56.5 12t46 38t31 66.5t11.5 98.5z" />
    <glyph glyph-name="yacute" unicode="&#xfd;" horiz-adv-x="453" 
d="M209 -126q-18 -44 -50.5 -60t-67.5 -16q-23 0 -48.5 6.5t-39.5 12.5l22 57q11 -4 27.5 -7.5t33.5 -3.5q23 0 36 11t27 43l39 95l-188 465h88l141 -367l141 367h83zM176 544l-37 37l167 139l51 -52z" />
    <glyph glyph-name="thorn" unicode="&#xfe;" horiz-adv-x="525" 
d="M479 244q0 -58 -18 -105t-49.5 -80.5t-75.5 -51.5t-95 -18q-58 0 -94 16v-194h-78v856h76v-224q27 21 64 33.5t75 12.5q53 0 90 -20t60.5 -54t34 -78.5t10.5 -92.5zM402 241q0 33 -7 66.5t-23 60t-42.5 43t-65.5 16.5q-32 0 -62.5 -14t-54.5 -37v-304q11 -8 32 -14.5
t47 -6.5q38 0 70.5 13t56 37t36.5 59.5t13 80.5z" />
    <glyph glyph-name="Amacron" unicode="&#x100;" horiz-adv-x="568" 
d="M481 0l-79 206h-242l-76 -206h-84l257 667h49l262 -667h-87zM279 532l-93 -255h190zM136 774v62h294v-62h-294z" />
    <glyph glyph-name="amacron" unicode="&#x101;" horiz-adv-x="470" 
d="M334 0l-4 41q-25 -25 -57.5 -38.5t-71.5 -13.5q-31 0 -60.5 9.5t-52 28t-36.5 46.5t-14 65q0 51 27.5 84t69.5 52.5t93 27.5t99 8v6q0 60 -25.5 86t-73.5 26q-33 0 -60.5 -14.5t-46.5 -38.5l-54 38q29 39 68.5 57.5t99.5 18.5q80 0 124.5 -41t44.5 -137v-311h-70z
M327 249q-33 -1 -70 -5t-68.5 -15.5t-52 -33.5t-20.5 -58q0 -23 9 -39t22.5 -26.5t30 -15t32.5 -4.5q35 0 64.5 14.5t52.5 34.5v148zM83 590v62h294v-62h-294z" />
    <glyph glyph-name="Abreve" unicode="&#x102;" horiz-adv-x="568" 
d="M481 0l-79 206h-242l-76 -206h-84l257 667h49l262 -667h-87zM279 532l-93 -255h190zM424 848q-3 -36 -16.5 -60.5t-34 -39.5t-45 -21.5t-48.5 -6.5t-48 6.5t-43.5 21.5t-32.5 39.5t-14 60.5h63q3 -22 11 -36t18.5 -22.5t23.5 -11.5t26 -3q26 0 49 14.5t31 58.5h60z" />
    <glyph glyph-name="abreve" unicode="&#x103;" horiz-adv-x="470" 
d="M334 0l-4 41q-25 -25 -57.5 -38.5t-71.5 -13.5q-31 0 -60.5 9.5t-52 28t-36.5 46.5t-14 65q0 51 27.5 84t69.5 52.5t93 27.5t99 8v6q0 60 -25.5 86t-73.5 26q-33 0 -60.5 -14.5t-46.5 -38.5l-54 38q29 39 68.5 57.5t99.5 18.5q80 0 124.5 -41t44.5 -137v-311h-70z
M327 249q-33 -1 -70 -5t-68.5 -15.5t-52 -33.5t-20.5 -58q0 -23 9 -39t22.5 -26.5t30 -15t32.5 -4.5q35 0 64.5 14.5t52.5 34.5v148zM379 682q-3 -36 -16.5 -60.5t-34 -39.5t-45 -21.5t-48.5 -6.5t-48 6.5t-43.5 21.5t-32.5 39.5t-14 60.5h63q3 -22 11 -36t18.5 -22.5
t23.5 -11.5t26 -3q26 0 49 14.5t31 58.5h60z" />
    <glyph glyph-name="Aogonek" unicode="&#x104;" horiz-adv-x="568" 
d="M481 0l-79 206h-242l-76 -206h-84l257 667h49l262 -667h-87zM279 532l-93 -255h190zM563 11q-29 -19 -51.5 -45.5t-22.5 -57.5q0 -14 7 -23.5t23 -9.5q14 0 23.5 4t17.5 9l18 -49q-12 -8 -29 -13t-38 -5q-38 0 -62 19.5t-24 58.5q0 22 7.5 40.5t19 34.5t25.5 28t27 20z
" />
    <glyph glyph-name="aogonek" unicode="&#x105;" horiz-adv-x="470" 
d="M334 0l-4 41q-25 -25 -57.5 -38.5t-71.5 -13.5q-31 0 -60.5 9.5t-52 28t-36.5 46.5t-14 65q0 51 27.5 84t69.5 52.5t93 27.5t99 8v6q0 60 -25.5 86t-73.5 26q-33 0 -60.5 -14.5t-46.5 -38.5l-54 38q29 39 68.5 57.5t99.5 18.5q80 0 124.5 -41t44.5 -137v-311h-70z
M327 249q-33 -1 -70 -5t-68.5 -15.5t-52 -33.5t-20.5 -58q0 -23 9 -39t22.5 -26.5t30 -15t32.5 -4.5q35 0 64.5 14.5t52.5 34.5v148zM403 11q-29 -19 -51.5 -45.5t-22.5 -57.5q0 -14 7 -23.5t23 -9.5q14 0 23.5 4t17.5 9l18 -49q-12 -8 -29 -13t-38 -5q-38 0 -62 19.5
t-24 58.5q0 22 7.5 40.5t19 34.5t25.5 28t27 20z" />
    <glyph glyph-name="Cacute" unicode="&#x106;" horiz-adv-x="569" 
d="M541 121q-13 -24 -32 -48t-45 -43t-60 -31t-77 -12q-59 0 -109.5 19.5t-88 61t-59 106.5t-21.5 157q0 93 23 159.5t60.5 108.5t85 61.5t96.5 19.5q76 0 135 -37t88 -100l-65 -39q-9 18 -23.5 36.5t-34 33t-43 24t-50.5 9.5q-88 0 -137.5 -72t-49.5 -205q0 -65 15 -115.5
t41 -85t61.5 -52t76.5 -17.5q29 0 51.5 8t41 21.5t33 32t26.5 38.5zM230 710l-37 37l167 139l51 -52z" />
    <glyph glyph-name="cacute" unicode="&#x107;" horiz-adv-x="474" 
d="M448 102q-28 -58 -76.5 -85.5t-102.5 -27.5q-42 0 -82.5 15t-71.5 46t-50 77.5t-19 109.5q0 67 19 115t50 78.5t70 44.5t78 14q40 0 70.5 -12t52 -30t35 -38t19.5 -36l-57 -36q-21 48 -53 69t-67 21q-27 0 -52 -12.5t-45 -36.5t-32 -59t-12 -80t12 -80t32.5 -59t48 -36.5
t58.5 -12.5q35 0 67.5 20t53.5 65zM190 544l-37 37l167 139l51 -52z" />
    <glyph glyph-name="Ccircumflex" unicode="&#x108;" horiz-adv-x="569" 
d="M541 121q-13 -24 -32 -48t-45 -43t-60 -31t-77 -12q-59 0 -109.5 19.5t-88 61t-59 106.5t-21.5 157q0 93 23 159.5t60.5 108.5t85 61.5t96.5 19.5q76 0 135 -37t88 -100l-65 -39q-9 18 -23.5 36.5t-34 33t-43 24t-50.5 9.5q-88 0 -137.5 -72t-49.5 -205q0 -65 15 -115.5
t41 -85t61.5 -52t76.5 -17.5q29 0 51.5 8t41 21.5t33 32t26.5 38.5zM417 710l-106 112l-105 -112l-45 30l126 144h48l126 -144z" />
    <glyph glyph-name="ccircumflex" unicode="&#x109;" horiz-adv-x="474" 
d="M448 102q-28 -58 -76.5 -85.5t-102.5 -27.5q-42 0 -82.5 15t-71.5 46t-50 77.5t-19 109.5q0 67 19 115t50 78.5t70 44.5t78 14q40 0 70.5 -12t52 -30t35 -38t19.5 -36l-57 -36q-21 48 -53 69t-67 21q-27 0 -52 -12.5t-45 -36.5t-32 -59t-12 -80t12 -80t32.5 -59t48 -36.5
t58.5 -12.5q35 0 67.5 20t53.5 65zM365 544l-106 112l-105 -112l-45 30l126 144h48l126 -144z" />
    <glyph glyph-name="Ccaron" unicode="&#x10c;" horiz-adv-x="569" 
d="M541 121q-13 -24 -32 -48t-45 -43t-60 -31t-77 -12q-59 0 -109.5 19.5t-88 61t-59 106.5t-21.5 157q0 93 23 159.5t60.5 108.5t85 61.5t96.5 19.5q76 0 135 -37t88 -100l-65 -39q-9 18 -23.5 36.5t-34 33t-43 24t-50.5 9.5q-88 0 -137.5 -72t-49.5 -205q0 -65 15 -115.5
t41 -85t61.5 -52t76.5 -17.5q29 0 51.5 8t41 21.5t33 32t26.5 38.5zM334 710h-48l-126 144l45 30l105 -112l106 112l44 -30z" />
    <glyph glyph-name="ccaron" unicode="&#x10d;" horiz-adv-x="474" 
d="M448 102q-28 -58 -76.5 -85.5t-102.5 -27.5q-42 0 -82.5 15t-71.5 46t-50 77.5t-19 109.5q0 67 19 115t50 78.5t70 44.5t78 14q40 0 70.5 -12t52 -30t35 -38t19.5 -36l-57 -36q-21 48 -53 69t-67 21q-27 0 -52 -12.5t-45 -36.5t-32 -59t-12 -80t12 -80t32.5 -59t48 -36.5
t58.5 -12.5q35 0 67.5 20t53.5 65zM282 544h-48l-126 144l45 30l105 -112l106 112l44 -30z" />
    <glyph glyph-name="Dcaron" unicode="&#x10e;" horiz-adv-x="612" 
d="M576 343q0 -70 -16 -125.5t-44.5 -96.5t-67.5 -68t-84 -40q-23 -7 -54.5 -10t-56.5 -3h-172v667h172q39 0 81 -6.5t78 -23.5t66 -43.5t51.5 -63.5t34 -83.5t12.5 -103.5zM491 339q0 87 -26.5 140t-72.5 83q-29 19 -68.5 27.5t-76.5 8.5h-86v-529h82q22 0 50 2.5t51 11.5
q30 13 56.5 34t47 51.5t32 72.5t11.5 98zM293 710h-48l-126 144l45 30l105 -112l106 112l44 -30z" />
    <glyph glyph-name="dcaron" unicode="&#x10f;" horiz-adv-x="524" 
d="M561 497h-47v170h75zM387 0l-6 39q-26 -27 -56.5 -38.5t-66.5 -11.5q-51 0 -90.5 19.5t-66.5 53.5t-41 80.5t-14 100.5q0 46 14.5 90.5t43 79t71.5 55.5t100 21q36 0 62 -5.5t44 -12.5v196h77v-667h-71zM381 404q-6 4 -16.5 8t-23.5 7.5t-27 5.5t-27 2q-42 0 -73 -16
t-51.5 -42.5t-30.5 -60.5t-10 -69q0 -40 9 -74.5t27.5 -59.5t46 -39.5t65.5 -14.5q30 0 59 12.5t52 41.5v299z" />
    <glyph glyph-name="Dcroat" unicode="&#x110;" horiz-adv-x="623" 
d="M576 343q0 -70 -16 -125.5t-44 -96.5t-67 -68t-84 -40q-23 -7 -54.5 -10t-56.5 -3h-173v316h-82v62h82v289h173q38 0 80.5 -6.5t77.5 -23.5q72 -34 118 -107t46 -187zM492 339q0 87 -27 140t-73 83q-29 19 -68 27.5t-76 8.5h-87v-220h160v-62h-160v-247h82q23 0 50.5 2.5
t50.5 11.5q30 13 57 33.5t47 51.5t32 73t12 98z" />
    <glyph glyph-name="dcroat" unicode="&#x111;" horiz-adv-x="524" 
d="M458 541v-541h-71l-6 39q-26 -27 -56.5 -38.5t-66.5 -11.5q-51 0 -90.5 19.5t-66.5 53.5t-41 80.5t-14 100.5q0 46 14.5 90.5t43 79t71.5 55.5t100 21q36 0 62 -5.5t44 -12.5v70h-140v58h140v68h77v-68h65v-58h-65zM381 404q-6 4 -16.5 8t-23.5 7.5t-27 5.5t-27 2
q-42 0 -73 -16t-51.5 -42.5t-30.5 -60.5t-10 -69q0 -40 9 -74.5t27.5 -59.5t46 -39.5t65.5 -14.5q30 0 59 12.5t52 41.5v299z" />
    <glyph glyph-name="Emacron" unicode="&#x112;" horiz-adv-x="514" 
d="M81 0v667h389v-69h-309v-214h221v-69h-222v-246h334v-69h-413zM130 774v62h294v-62h-294z" />
    <glyph glyph-name="emacron" unicode="&#x113;" horiz-adv-x="508" 
d="M122 243q0 -90 41 -141t119 -51q45 0 76 22t50 54l51 -34q-26 -45 -67.5 -74.5t-111.5 -29.5q-54 0 -97 16.5t-73.5 48t-47 78.5t-16.5 109q0 57 15.5 102.5t43 78t67 50t87.5 17.5q53 0 92.5 -18t65.5 -50.5t39 -78t13 -99.5h-347zM382 304q-1 31 -12 54.5t-28 39
t-39 23t-44 7.5q-48 0 -82.5 -28.5t-47.5 -95.5h253zM120 590v62h294v-62h-294z" />
    <glyph glyph-name="Edotaccent" unicode="&#x116;" horiz-adv-x="514" 
d="M81 0v667h389v-69h-309v-214h221v-69h-222v-246h334v-69h-413zM328 812q0 -26 -15.5 -43.5t-38.5 -17.5t-38.5 17.5t-15.5 43.5q0 25 15.5 42.5t38.5 17.5t38.5 -17.5t15.5 -42.5z" />
    <glyph glyph-name="edotaccent" unicode="&#x117;" horiz-adv-x="508" 
d="M122 243q0 -90 41 -141t119 -51q45 0 76 22t50 54l51 -34q-26 -45 -67.5 -74.5t-111.5 -29.5q-54 0 -97 16.5t-73.5 48t-47 78.5t-16.5 109q0 57 15.5 102.5t43 78t67 50t87.5 17.5q53 0 92.5 -18t65.5 -50.5t39 -78t13 -99.5h-347zM382 304q-1 31 -12 54.5t-28 39
t-39 23t-44 7.5q-48 0 -82.5 -28.5t-47.5 -95.5h253zM307 646q0 -26 -15.5 -43.5t-38.5 -17.5t-38.5 17.5t-15.5 43.5q0 25 15.5 42.5t38.5 17.5t38.5 -17.5t15.5 -42.5z" />
    <glyph glyph-name="Eogonek" unicode="&#x118;" horiz-adv-x="514" 
d="M81 0v667h389v-69h-309v-214h221v-69h-222v-246h334v-69h-413zM487 11q-29 -19 -51.5 -45.5t-22.5 -57.5q0 -14 7 -23.5t23 -9.5q14 0 23.5 4t17.5 9l18 -49q-12 -8 -29 -13t-38 -5q-38 0 -62 19.5t-24 58.5q0 22 7.5 40.5t19 34.5t25.5 28t27 20z" />
    <glyph glyph-name="eogonek" unicode="&#x119;" horiz-adv-x="508" 
d="M122 243q0 -90 41 -141t119 -51q45 0 76 22t50 54l51 -34q-26 -45 -67.5 -74.5t-111.5 -29.5q-54 0 -97 16.5t-73.5 48t-47 78.5t-16.5 109q0 57 15.5 102.5t43 78t67 50t87.5 17.5q53 0 92.5 -18t65.5 -50.5t39 -78t13 -99.5h-347zM382 304q-1 31 -12 54.5t-28 39
t-39 23t-44 7.5q-48 0 -82.5 -28.5t-47.5 -95.5h253zM378 11q-29 -19 -51.5 -45.5t-22.5 -57.5q0 -14 7 -23.5t23 -9.5q14 0 23.5 4t17.5 9l18 -49q-12 -8 -29 -13t-38 -5q-38 0 -62 19.5t-24 58.5q0 22 7.5 40.5t19 34.5t25.5 28t27 20z" />
    <glyph glyph-name="Ecaron" unicode="&#x11a;" horiz-adv-x="514" 
d="M81 0v667h389v-69h-309v-214h221v-69h-222v-246h334v-69h-413zM302 710h-48l-126 144l45 30l105 -112l106 112l44 -30z" />
    <glyph glyph-name="ecaron" unicode="&#x11b;" horiz-adv-x="508" 
d="M122 243q0 -90 41 -141t119 -51q45 0 76 22t50 54l51 -34q-26 -45 -67.5 -74.5t-111.5 -29.5q-54 0 -97 16.5t-73.5 48t-47 78.5t-16.5 109q0 57 15.5 102.5t43 78t67 50t87.5 17.5q53 0 92.5 -18t65.5 -50.5t39 -78t13 -99.5h-347zM382 304q-1 31 -12 54.5t-28 39
t-39 23t-44 7.5q-48 0 -82.5 -28.5t-47.5 -95.5h253zM284 544h-48l-126 144l45 30l105 -112l106 112l44 -30z" />
    <glyph glyph-name="Gbreve" unicode="&#x11e;" horiz-adv-x="597" 
d="M547 25q-15 -6 -37 -13t-50 -12.5t-60 -9t-66 -3.5q-59 0 -110.5 19.5t-90.5 61t-61.5 106.5t-22.5 157q0 94 22.5 160t60 108t86 61.5t100.5 19.5q45 0 79 -9t60 -26t45 -41t34 -54l-64 -39q-23 45 -58.5 71.5t-95.5 26.5q-35 0 -68.5 -16t-59 -50t-41 -87t-15.5 -126
q0 -65 16 -116t43.5 -86t64 -53t77.5 -18q45 0 78 5.5t54 12.5v174h-110v70h190v-294zM455 848q-3 -36 -16.5 -60.5t-34 -39.5t-45 -21.5t-48.5 -6.5t-48 6.5t-43.5 21.5t-32.5 39.5t-14 60.5h63q3 -22 11 -36t18.5 -22.5t23.5 -11.5t26 -3q26 0 49 14.5t31 58.5h60z" />
    <glyph glyph-name="gbreve" unicode="&#x11f;" horiz-adv-x="520" 
d="M509 -46q0 -39 -18 -68t-49 -48.5t-72.5 -29.5t-87.5 -10q-115 0 -178.5 35t-63.5 110q0 77 70 114q-18 8 -30 22t-12 36q0 28 21.5 46t53.5 26q-12 6 -27.5 17t-29 28t-22.5 39.5t-9 52.5q0 42 17.5 73t46.5 51.5t65.5 30.5t74.5 10q30 0 58.5 -5.5t54.5 -17.5l71 71
l49 -45l-65 -65q18 -20 29 -45.5t11 -57.5q0 -42 -17.5 -73.5t-46.5 -52.5t-67 -31t-78 -10q-13 0 -32.5 2t-30.5 4q-16 -2 -30 -10.5t-14 -22.5q0 -16 23.5 -23.5t85.5 -8.5q60 -1 106 -8t78 -23t48.5 -43.5t16.5 -69.5zM390 325q0 25 -11 44.5t-29 32t-41.5 19t-48.5 6.5
q-24 0 -47.5 -6.5t-41.5 -19t-29 -32t-11 -45.5q0 -21 8.5 -40t25 -34t39.5 -24t52 -9q24 0 47.5 5.5t43 18t31.5 33.5t12 51zM438 -50q0 21 -8 36t-28.5 25t-55 15t-87.5 6q-67 2 -92 6q-26 -13 -42 -34t-16 -54q0 -23 13 -40t36 -28.5t54.5 -17.5t69.5 -6q69 0 112.5 25
t43.5 67zM400 682q-3 -36 -16.5 -60.5t-34 -39.5t-45 -21.5t-48.5 -6.5t-48 6.5t-43.5 21.5t-32.5 39.5t-14 60.5h63q3 -22 11 -36t18.5 -22.5t23.5 -11.5t26 -3q26 0 49 14.5t31 58.5h60z" />
    <glyph glyph-name="gcommaaccent" unicode="&#x123;" horiz-adv-x="520" 
d="M509 -46q0 -39 -18 -68t-49 -48.5t-72.5 -29.5t-87.5 -10q-115 0 -178.5 35t-63.5 110q0 77 70 114q-18 8 -30 22t-12 36q0 28 21.5 46t53.5 26q-12 6 -27.5 17t-29 28t-22.5 39.5t-9 52.5q0 42 17.5 73t46.5 51.5t65.5 30.5t74.5 10q30 0 58.5 -5.5t54.5 -17.5l71 71
l49 -45l-65 -65q18 -20 29 -45.5t11 -57.5q0 -42 -17.5 -73.5t-46.5 -52.5t-67 -31t-78 -10q-13 0 -32.5 2t-30.5 4q-16 -2 -30 -10.5t-14 -22.5q0 -16 23.5 -23.5t85.5 -8.5q60 -1 106 -8t78 -23t48.5 -43.5t16.5 -69.5zM390 325q0 25 -11 44.5t-29 32t-41.5 19t-48.5 6.5
q-24 0 -47.5 -6.5t-41.5 -19t-29 -32t-11 -45.5q0 -21 8.5 -40t25 -34t39.5 -24t52 -9q24 0 47.5 5.5t43 18t31.5 33.5t12 51zM438 -50q0 21 -8 36t-28.5 25t-55 15t-87.5 6q-67 2 -92 6q-26 -13 -42 -34t-16 -54q0 -23 13 -40t36 -28.5t54.5 -17.5t69.5 -6q69 0 112.5 25
t43.5 67zM304 569h-82l72 130h61z" />
    <glyph glyph-name="Imacron" unicode="&#x12a;" horiz-adv-x="242" 
d="M81 0v667h80v-667h-80zM-28 774v62h294v-62h-294z" />
    <glyph glyph-name="imacron" unicode="&#x12b;" horiz-adv-x="215" 
d="M69 0v477h77v-477h-77zM-35 590v62h294v-62h-294z" />
    <glyph glyph-name="Iogonek" unicode="&#x12e;" horiz-adv-x="242" 
d="M81 0v667h80v-667h-80zM161 11q-29 -19 -51.5 -45.5t-22.5 -57.5q0 -14 7 -23.5t23 -9.5q14 0 23.5 4t17.5 9l18 -49q-12 -8 -29 -13t-38 -5q-38 0 -62 19.5t-24 58.5q0 22 7.5 40.5t19 34.5t25.5 28t27 20z" />
    <glyph glyph-name="iogonek" unicode="&#x12f;" horiz-adv-x="216" 
d="M159 610q0 -24 -15 -40.5t-36 -16.5t-36 16.5t-15 40.5q0 23 15 40t36 17t36 -17t15 -40zM69 0v477h78v-477h-78zM145 11q-29 -19 -51.5 -45.5t-22.5 -57.5q0 -14 7 -23.5t23 -9.5q14 0 23.5 4t17.5 9l18 -49q-12 -8 -29 -13t-38 -5q-38 0 -62 19.5t-24 58.5
q0 22 7.5 40.5t19 34.5t25.5 28t27 20z" />
    <glyph glyph-name="Idotaccent" unicode="&#x130;" horiz-adv-x="242" 
d="M81 0v667h80v-667h-80zM177 812q0 -26 -15.5 -43.5t-38.5 -17.5t-38.5 17.5t-15.5 43.5q0 25 15.5 42.5t38.5 17.5t38.5 -17.5t15.5 -42.5z" />
    <glyph glyph-name="Lacute" unicode="&#x139;" horiz-adv-x="479" 
d="M81 0v667h80v-598h309v-69h-389zM120 710l-37 37l167 139l51 -52z" />
    <glyph glyph-name="lacute" unicode="&#x13a;" horiz-adv-x="215" 
d="M69 0v667h77v-667h-77zM58 710l-37 37l167 139l51 -52z" />
    <glyph glyph-name="Lcaron" unicode="&#x13d;" horiz-adv-x="490" 
d="M81 0v667h80v-598h309v-69h-389zM278 497h-47v170h75z" />
    <glyph glyph-name="lcaron" unicode="&#x13e;" horiz-adv-x="252" 
d="M69 0v667h77v-667h-77zM244 497h-47v170h75z" />
    <glyph glyph-name="Lslash" unicode="&#x141;" horiz-adv-x="498" 
d="M81 0v290l-80 -53l-28 48l108 72v310h80v-258l121 80l31 -48l-152 -99v-273h309v-69h-389z" />
    <glyph glyph-name="lslash" unicode="&#x142;" horiz-adv-x="231" 
d="M154 329v-329h-77v280l-79 -51l-28 50l107 69v319h77v-269l78 50l31 -49z" />
    <glyph glyph-name="Nacute" unicode="&#x143;" horiz-adv-x="658" 
d="M518 0l-358 529v-529h-79v667h81l336 -497v497h79v-667h-59zM258 710l-37 37l167 139l51 -52z" />
    <glyph glyph-name="nacute" unicode="&#x144;" horiz-adv-x="541" 
d="M398 0v299q0 60 -27 94t-88 34q-38 0 -74.5 -16.5t-62.5 -36.5v-374h-77v477h71l5 -38q29 22 68.5 36t82.5 14q98 0 138.5 -48.5t40.5 -143.5v-297h-77zM211 544l-37 37l167 139l51 -52z" />
    <glyph glyph-name="Ncaron" unicode="&#x147;" horiz-adv-x="658" 
d="M518 0l-358 529v-529h-79v667h81l336 -497v497h79v-667h-59zM343 710h-48l-126 144l45 30l105 -112l106 112l44 -30z" />
    <glyph glyph-name="ncaron" unicode="&#x148;" horiz-adv-x="541" 
d="M398 0v299q0 60 -27 94t-88 34q-38 0 -74.5 -16.5t-62.5 -36.5v-374h-77v477h71l5 -38q29 22 68.5 36t82.5 14q98 0 138.5 -48.5t40.5 -143.5v-297h-77zM304 544h-48l-126 144l45 30l105 -112l106 112l44 -30z" />
    <glyph glyph-name="Omacron" unicode="&#x14c;" horiz-adv-x="661" 
d="M612 334q0 -65 -16.5 -127.5t-51 -111t-87.5 -78.5t-126 -30q-74 0 -127 30t-87.5 78.5t-51 111t-16.5 127.5t16.5 127t51 111t87.5 78.5t127 29.5q73 0 126 -29.5t87.5 -78.5t51 -111t16.5 -127zM528 334q0 51 -11.5 100.5t-35.5 88.5t-61.5 62.5t-88.5 23.5
t-88.5 -23.5t-62 -62.5t-36 -88.5t-11.5 -100.5q0 -52 12 -101.5t36.5 -88.5t61.5 -62.5t88 -23.5t88 23.5t61 62.5t36 88.5t12 101.5zM180 774v62h294v-62h-294z" />
    <glyph glyph-name="omacron" unicode="&#x14d;" horiz-adv-x="536" 
d="M490 239q0 -47 -14 -92t-41.5 -80t-69.5 -56.5t-97 -21.5t-96.5 21.5t-69.5 57t-42 81t-14 92.5t13.5 91.5t41.5 79.5t69.5 56t97.5 21q55 0 97 -21.5t69.5 -56.5t41.5 -80t14 -92zM415 240q0 35 -9 69t-27.5 60.5t-46 42.5t-64.5 16t-64.5 -16t-45.5 -42.5t-27 -60
t-9 -68.5q0 -36 9 -70t27.5 -60.5t46 -43t63.5 -16.5q37 0 64.5 16.5t46 43t27.5 60.5t9 69zM130 590v62h294v-62h-294z" />
    <glyph glyph-name="Ohungarumlaut" unicode="&#x150;" horiz-adv-x="661" 
d="M612 334q0 -65 -16.5 -127.5t-51 -111t-87.5 -78.5t-126 -30q-74 0 -127 30t-87.5 78.5t-51 111t-16.5 127.5t16.5 127t51 111t87.5 78.5t127 29.5q73 0 126 -29.5t87.5 -78.5t51 -111t16.5 -127zM528 334q0 51 -11.5 100.5t-35.5 88.5t-61.5 62.5t-88.5 23.5
t-88.5 -23.5t-62 -62.5t-36 -88.5t-11.5 -100.5q0 -52 12 -101.5t36.5 -88.5t61.5 -62.5t88 -23.5t88 23.5t61 62.5t36 88.5t12 101.5zM392 710l-36 37l166 139l52 -52zM207 710l-36 37l167 139l51 -52z" />
    <glyph glyph-name="ohungarumlaut" unicode="&#x151;" horiz-adv-x="536" 
d="M490 239q0 -47 -14 -92t-41.5 -80t-69.5 -56.5t-97 -21.5t-96.5 21.5t-69.5 57t-42 81t-14 92.5t13.5 91.5t41.5 79.5t69.5 56t97.5 21q55 0 97 -21.5t69.5 -56.5t41.5 -80t14 -92zM415 240q0 35 -9 69t-27.5 60.5t-46 42.5t-64.5 16t-64.5 -16t-45.5 -42.5t-27 -60
t-9 -68.5q0 -36 9 -70t27.5 -60.5t46 -43t63.5 -16.5q37 0 64.5 16.5t46 43t27.5 60.5t9 69zM324 544l-36 37l166 139l52 -52zM139 544l-36 37l167 139l51 -52z" />
    <glyph glyph-name="Racute" unicode="&#x154;" horiz-adv-x="551" 
d="M438 0l-180 292h-97v-292h-80v667h214q112 0 165 -50t53 -132q0 -44 -12.5 -76.5t-35 -55t-53 -36.5t-65.5 -20l182 -297h-91zM429 485q0 57 -34 85t-98 28h-136v-237h129q139 0 139 124zM201 710l-37 37l167 139l51 -52z" />
    <glyph glyph-name="racute" unicode="&#x155;" horiz-adv-x="325" 
d="M310 409q-25 11 -63 11q-29 0 -55.5 -16t-45.5 -33v-371h-77v476h70l6 -41q19 20 49 37t61 17q22 0 40.5 -3t28.5 -6zM143 544l-37 37l167 139l51 -52z" />
    <glyph glyph-name="Rcaron" unicode="&#x158;" horiz-adv-x="551" 
d="M438 0l-180 292h-97v-292h-80v667h214q112 0 165 -50t53 -132q0 -44 -12.5 -76.5t-35 -55t-53 -36.5t-65.5 -20l182 -297h-91zM429 485q0 57 -34 85t-98 28h-136v-237h129q139 0 139 124zM293 710h-48l-126 144l45 30l105 -112l106 112l44 -30z" />
    <glyph glyph-name="rcaron" unicode="&#x159;" horiz-adv-x="322" 
d="M310 409q-25 11 -63 11q-29 0 -55.5 -16t-45.5 -33v-371h-77v476h70l6 -41q19 20 49 37t61 17q22 0 40.5 -3t28.5 -6zM245 544h-48l-126 144l45 30l105 -112l106 112l44 -30z" />
    <glyph glyph-name="Sacute" unicode="&#x15a;" horiz-adv-x="516" 
d="M479 181q0 -51 -17.5 -88t-47.5 -61t-69.5 -35t-84.5 -11q-34 0 -67.5 7.5t-64 21.5t-56 34.5t-42.5 46.5l63 47q29 -42 76 -63t96 -21q26 0 49.5 6.5t41 20t28 35.5t10.5 52q0 28 -13 49.5t-35 38.5t-50 30.5t-58 26.5q-34 15 -67 30.5t-59.5 37.5t-43 51t-16.5 71
q0 43 17.5 75t47 53.5t67 32t78.5 10.5q63 0 121 -25t94 -79l-61 -48q-26 36 -66.5 58.5t-88.5 22.5q-59 0 -91.5 -26t-32.5 -70q0 -25 11.5 -42.5t32 -32t49.5 -27.5t65 -29q34 -15 67 -32t59 -40t42 -54t16 -74zM194 710l-37 37l167 139l51 -52z" />
    <glyph glyph-name="sacute" unicode="&#x15b;" horiz-adv-x="412" 
d="M380 131q0 -34 -13 -60.5t-35.5 -44.5t-53.5 -27.5t-68 -9.5q-71 0 -111 26t-64 66l60 37q17 -32 43.5 -49.5t71.5 -17.5q98 0 98 70q0 21 -6.5 35.5t-21 26t-37.5 22t-56 22.5q-36 12 -61 25.5t-41 29.5t-23.5 36t-7.5 47q0 58 42.5 91t112.5 33q58 0 97 -19.5t66 -55.5
l-54 -43q-20 24 -47 40t-61 16q-42 0 -62.5 -16.5t-20.5 -40.5q0 -15 5.5 -26.5t19.5 -21t36.5 -19t57.5 -21.5q66 -23 100 -58t34 -93zM140 544l-37 37l167 139l51 -52z" />
    <glyph glyph-name="Scedilla" unicode="&#x15e;" horiz-adv-x="516" 
d="M479 181q0 -51 -17.5 -88t-47.5 -61t-69.5 -35t-84.5 -11q-34 0 -67.5 7.5t-64 21.5t-56 34.5t-42.5 46.5l63 47q29 -42 76 -63t96 -21q26 0 49.5 6.5t41 20t28 35.5t10.5 52q0 28 -13 49.5t-35 38.5t-50 30.5t-58 26.5q-34 15 -67 30.5t-59.5 37.5t-43 51t-16.5 71
q0 43 17.5 75t47 53.5t67 32t78.5 10.5q63 0 121 -25t94 -79l-61 -48q-26 36 -66.5 58.5t-88.5 22.5q-59 0 -91.5 -26t-32.5 -70q0 -25 11.5 -42.5t32 -32t49.5 -27.5t65 -29q34 -15 67 -32t59 -40t42 -54t16 -74zM228 -174h-61l51 130h82z" />
    <glyph glyph-name="scedilla" unicode="&#x15f;" horiz-adv-x="412" 
d="M380 131q0 -34 -13 -60.5t-35.5 -44.5t-53.5 -27.5t-68 -9.5q-71 0 -111 26t-64 66l60 37q17 -32 43.5 -49.5t71.5 -17.5q98 0 98 70q0 21 -6.5 35.5t-21 26t-37.5 22t-56 22.5q-36 12 -61 25.5t-41 29.5t-23.5 36t-7.5 47q0 58 42.5 91t112.5 33q58 0 97 -19.5t66 -55.5
l-54 -43q-20 24 -47 40t-61 16q-42 0 -62.5 -16.5t-20.5 -40.5q0 -15 5.5 -26.5t19.5 -21t36.5 -19t57.5 -21.5q66 -23 100 -58t34 -93zM174 -174h-61l51 130h82z" />
    <glyph glyph-name="Scaron" unicode="&#x160;" horiz-adv-x="516" 
d="M292 710h-48l-126 144l45 30l105 -112l106 112l44 -30zM479 175q0 -49 -17.5 -84.5t-47.5 -59t-69.5 -34.5t-84.5 -11q-34 0 -67.5 7.5t-64 21.5t-56 34.5t-42.5 46.5l63 47q29 -42 76 -63t96 -21q26 0 49.5 6.5t41 20t28 35.5t10.5 52q0 26 -10.5 46t-31.5 37t-52 32.5
t-73 32.5q-32 12 -63 27.5t-56 37.5t-40.5 52t-15.5 70q0 43 17.5 75t47 53.5t67 32t78.5 10.5q63 0 121 -25t94 -79l-61 -48q-26 36 -67.5 58.5t-84.5 22.5q-23 0 -45.5 -7t-40.5 -19.5t-29.5 -30t-11.5 -39.5q0 -21 8 -37t20.5 -28t28.5 -21t32 -17q12 -5 24.5 -10.5
t25.5 -10.5q52 -22 90.5 -42.5t63.5 -44.5t37 -54t12 -72z" />
    <glyph glyph-name="scaron" unicode="&#x161;" horiz-adv-x="412" 
d="M242 544h-48l-126 144l44 30l106 -112l105 112l45 -30zM380 131q0 -34 -13 -60.5t-35.5 -44.5t-53.5 -27.5t-68 -9.5q-71 0 -111 26t-64 66l60 37q17 -32 43.5 -49.5t71.5 -17.5q98 0 98 70q0 21 -6.5 35.5t-21 26t-37.5 22t-56 22.5q-36 12 -61 25.5t-41 29.5t-23.5 36
t-7.5 47q0 58 42.5 91t112.5 33q58 0 97 -19.5t66 -55.5l-54 -43q-20 24 -47 40t-61 16q-42 0 -62.5 -16.5t-20.5 -40.5q0 -15 5.5 -26.5t19.5 -21t36.5 -19t57.5 -21.5q66 -23 100 -58t34 -93z" />
    <glyph glyph-name="Tcaron" unicode="&#x164;" horiz-adv-x="511" 
d="M295 598v-598h-79v598h-207v69h493v-69h-207zM279 710h-48l-126 144l45 30l105 -112l106 112l44 -30z" />
    <glyph glyph-name="tcaron" unicode="&#x165;" horiz-adv-x="328" 
d="M322 26q-23 -17 -45.5 -27t-63.5 -10q-54 0 -83 27.5t-29 84.5v313h-82v63h82v130h77v-130h125v-63h-126v-305q0 -35 13.5 -46.5t34.5 -11.5q19 0 36 8t31 19zM283 511h-47v156h75z" />
    <glyph glyph-name="Umacron" unicode="&#x16a;" horiz-adv-x="647" 
d="M570 223q0 -59 -20.5 -103t-55 -73.5t-79.5 -44.5t-94 -15q-52 0 -96.5 15t-77.5 44.5t-51.5 73.5t-18.5 103v444h80v-429q0 -85 44 -132.5t122 -47.5q79 0 123 46t44 134v429h80v-444zM174 774v62h294v-62h-294z" />
    <glyph glyph-name="umacron" unicode="&#x16b;" horiz-adv-x="538" 
d="M398 0l-5 37q-29 -22 -63 -35t-85 -13q-94 0 -136.5 46t-42.5 140v302h77v-306q0 -63 29 -91.5t86 -28.5q37 0 73.5 15.5t59.5 37.5v373h78v-477h-71zM123 590v62h294v-62h-294z" />
    <glyph glyph-name="Uring" unicode="&#x16e;" horiz-adv-x="647" 
d="M570 223q0 -59 -20.5 -103t-55 -73.5t-79.5 -44.5t-94 -15q-52 0 -96.5 15t-77.5 44.5t-51.5 73.5t-18.5 103v444h80v-429q0 -85 44 -132.5t122 -47.5q79 0 123 46t44 134v429h80v-444zM424 799q0 -18 -6 -36t-18 -32t-29.5 -22.5t-40.5 -8.5t-40.5 8.5t-29 22.5
t-17.5 31.5t-6 36.5t6 37t17.5 32t29 22.5t40.5 8.5t40.5 -8.5t29.5 -22.5t18 -32t6 -37zM381 799q0 23 -13 41.5t-38 18.5t-38 -18.5t-13 -41.5q0 -22 13 -40.5t38 -18.5t38 18.5t13 40.5z" />
    <glyph glyph-name="uring" unicode="&#x16f;" horiz-adv-x="538" 
d="M398 0l-5 37q-29 -22 -63 -35t-85 -13q-94 0 -136.5 46t-42.5 140v302h77v-306q0 -63 29 -91.5t86 -28.5q37 0 73.5 15.5t59.5 37.5v373h78v-477h-71zM363 633q0 -18 -6 -36t-18 -32t-29.5 -22.5t-40.5 -8.5t-40.5 8.5t-29 22.5t-17.5 31.5t-6 36.5t6 37t17.5 32t29 22.5
t40.5 8.5t40.5 -8.5t29.5 -22.5t18 -32t6 -37zM320 633q0 23 -13 41.5t-38 18.5t-38 -18.5t-13 -41.5q0 -22 13 -40.5t38 -18.5t38 18.5t13 40.5z" />
    <glyph glyph-name="Uhungarumlaut" unicode="&#x170;" horiz-adv-x="648" 
d="M570 223q0 -59 -20.5 -103t-55 -73.5t-79.5 -44.5t-94 -15q-52 0 -96.5 15t-77.5 44.5t-51.5 73.5t-18.5 103v444h80v-429q0 -85 44 -132.5t122 -47.5q79 0 123 46t44 134v429h80v-444zM389 710l-36 37l166 139l52 -52zM204 710l-36 37l167 139l51 -52z" />
    <glyph glyph-name="uhungarumlaut" unicode="&#x171;" horiz-adv-x="581" 
d="M398 0l-5 37q-29 -22 -63 -35t-85 -13q-94 0 -136.5 46t-42.5 140v302h77v-306q0 -63 29 -91.5t86 -28.5q37 0 73.5 15.5t59.5 37.5v373h78v-477h-71zM330 544l-36 37l166 139l52 -52zM145 544l-36 37l167 139l51 -52z" />
    <glyph glyph-name="Uogonek" unicode="&#x172;" horiz-adv-x="647" 
d="M570 223q0 -59 -20.5 -103t-55 -73.5t-79.5 -44.5t-94 -15q-52 0 -96.5 15t-77.5 44.5t-51.5 73.5t-18.5 103v444h80v-429q0 -85 44 -132.5t122 -47.5q79 0 123 46t44 134v429h80v-444zM439 11q-29 -19 -51.5 -45.5t-22.5 -57.5q0 -14 7 -23.5t23 -9.5q14 0 23.5 4
t17.5 9l18 -49q-12 -8 -29 -13t-38 -5q-38 0 -62 19.5t-24 58.5q0 22 7.5 40.5t19 34.5t25.5 28t27 20z" />
    <glyph glyph-name="uogonek" unicode="&#x173;" horiz-adv-x="538" 
d="M398 0l-5 37q-29 -22 -63 -35t-85 -13q-94 0 -136.5 46t-42.5 140v302h77v-306q0 -63 29 -91.5t86 -28.5q37 0 73.5 15.5t59.5 37.5v373h78v-477h-71zM466 11q-29 -19 -51.5 -45.5t-22.5 -57.5q0 -14 7 -23.5t23 -9.5q14 0 23.5 4t17.5 9l18 -49q-12 -8 -29 -13t-38 -5
q-38 0 -62 19.5t-24 58.5q0 22 7.5 40.5t19 34.5t25.5 28t27 20z" />
    <glyph glyph-name="Zacute" unicode="&#x179;" horiz-adv-x="535" 
d="M38 0v74l376 524h-359v69h432v-86l-366 -512h381v-69h-464zM197 710l-37 37l167 139l51 -52z" />
    <glyph glyph-name="zacute" unicode="&#x17a;" horiz-adv-x="452" 
d="M40 0v75l284 339h-273v63h352v-79l-285 -335h292v-63h-370zM149 544l-37 37l167 139l51 -52z" />
    <glyph glyph-name="Zdotaccent" unicode="&#x17b;" horiz-adv-x="535" 
d="M38 0v74l376 524h-359v69h432v-86l-366 -512h381v-69h-464zM322 812q0 -26 -15.5 -43.5t-38.5 -17.5t-38.5 17.5t-15.5 43.5q0 25 15.5 42.5t38.5 17.5t38.5 -17.5t15.5 -42.5z" />
    <glyph glyph-name="zdotaccent" unicode="&#x17c;" horiz-adv-x="452" 
d="M40 0v75l284 339h-273v63h352v-79l-285 -335h292v-63h-370zM284 646q0 -26 -15.5 -43.5t-38.5 -17.5t-38.5 17.5t-15.5 43.5q0 25 15.5 42.5t38.5 17.5t38.5 -17.5t15.5 -42.5z" />
    <glyph glyph-name="Zcaron" unicode="&#x17d;" horiz-adv-x="535" 
d="M295 710h-47l-126 144l44 30l106 -112l105 112l44 -30zM38 0v74l376 524h-359v69h432v-86l-366 -512h381v-69h-464z" />
    <glyph glyph-name="zcaron" unicode="&#x17e;" horiz-adv-x="452" 
d="M256 544h-47l-126 144l44 30l106 -112l105 112l45 -30zM40 0v75l284 339h-273v63h352v-79l-285 -335h292v-63h-370z" />
    <glyph glyph-name="minus" unicode="&#x2212;" 
d="M34 297v70h472v-70h-472z" />
    <glyph glyph-name="caron.alt" horiz-adv-x="442" 
d="M231 497h-47v170h75z" />
    <glyph glyph-name="onethird" unicode="&#x2153;" horiz-adv-x="740" 
d="M129 337v262l-61 -34l-27 48l99 56h50v-332h-61zM59 -16l-38 44l638 642l44 -46zM672 100q0 -26 -11 -45t-28.5 -32t-40 -19.5t-44.5 -6.5q-34 0 -66 15.5t-55 52.5l49 28q16 -26 34.5 -35.5t36.5 -9.5q26 0 44.5 14t18.5 37q0 24 -20 37t-55 15v45q32 2 50.5 14.5
t18.5 32.5q0 19 -15.5 31t-37.5 12q-42 0 -64 -43l-49 28q20 35 51.5 51t65.5 16q21 0 41 -6t35.5 -18t25.5 -29t10 -39q0 -23 -10.5 -41t-28.5 -30q20 -11 32 -28.5t12 -46.5z" />
    <glyph glyph-name="twothirds" unicode="&#x2154;" horiz-adv-x="740" 
d="M41 336v36q30 32 56 59.5t47 52.5q25 30 37 49.5t12 41.5t-12.5 33t-31.5 11q-20 0 -37 -10.5t-35 -39.5l-50 27q23 38 51 57.5t73 19.5q48 0 77 -25.5t29 -67.5q0 -34 -17.5 -63t-39.5 -55q-17 -19 -34 -37t-34 -37h133v-52h-224zM670 100q0 -26 -11 -45t-28.5 -32
t-40 -19.5t-44.5 -6.5q-34 0 -66 15.5t-55 52.5l49 28q16 -26 34.5 -35.5t36.5 -9.5q26 0 44.5 14t18.5 37q0 24 -20 37t-55 15v45q32 2 50.5 14.5t18.5 32.5q0 19 -15.5 31t-37.5 12q-42 0 -64 -43l-49 28q20 35 51.5 51t65.5 16q21 0 41 -6t35.5 -18t25.5 -29t10 -39
q0 -23 -10.5 -41t-28.5 -30q20 -11 32 -28.5t12 -46.5zM59 -16l-38 44l638 642l44 -46z" />
    <glyph glyph-name="onefifth" unicode="&#x2155;" horiz-adv-x="740" 
d="M129 337v262l-61 -34l-27 48l99 56h50v-332h-61zM59 -16l-38 44l638 642l44 -46zM666 113q0 -29 -10 -51t-27 -36.5t-39 -21.5t-46 -7q-36 0 -65 12.5t-44 38.5l34 35q9 -14 28 -24.5t43 -10.5q29 0 46.5 14.5t17.5 44.5q0 39 -27.5 54t-84.5 15h-38v154h190v-50h-136
v-56h4q33 0 61 -5.5t49 -18.5t32.5 -34.5t11.5 -52.5z" />
    <glyph glyph-name="twofifths" unicode="&#x2156;" horiz-adv-x="740" 
d="M59 -16l-38 44l638 642l44 -46zM41 336v36q30 32 56 59.5t47 52.5q25 30 37 49.5t12 41.5t-12.5 33t-31.5 11q-20 0 -37 -10.5t-35 -39.5l-50 27q23 38 51 57.5t73 19.5q48 0 77 -25.5t29 -67.5q0 -34 -17.5 -63t-39.5 -55q-17 -19 -34 -37t-34 -37h133v-52h-224z
M677 113q0 -29 -10 -51t-27 -36.5t-39 -21.5t-46 -7q-36 0 -65 12.5t-44 38.5l34 35q9 -14 28 -24.5t43 -10.5q29 0 46.5 14.5t17.5 44.5q0 39 -27.5 54t-84.5 15h-38v154h190v-50h-136v-56h4q33 0 61 -5.5t49 -18.5t32.5 -34.5t11.5 -52.5z" />
    <glyph glyph-name="threefifths" unicode="&#x2157;" horiz-adv-x="740" 
d="M59 -16l-38 44l638 642l44 -46zM270 435q0 -26 -11 -45t-28.5 -32t-40 -19.5t-44.5 -6.5q-34 0 -66 15.5t-55 52.5l49 28q16 -26 34.5 -35.5t36.5 -9.5q26 0 44.5 14t18.5 37q0 24 -20 37t-55 15v45q32 2 50.5 14.5t18.5 32.5q0 19 -15.5 31t-37.5 12q-42 0 -64 -43
l-49 28q20 35 51.5 51t65.5 16q21 0 41 -6t35.5 -18t25.5 -29t10 -39q0 -23 -10.5 -41t-28.5 -30q20 -11 32 -28.5t12 -46.5zM676 113q0 -29 -10 -51t-27 -36.5t-39 -21.5t-46 -7q-36 0 -65 12.5t-44 38.5l34 35q9 -14 28 -24.5t43 -10.5q29 0 46.5 14.5t17.5 44.5
q0 39 -27.5 54t-84.5 15h-38v154h190v-50h-136v-56h4q33 0 61 -5.5t49 -18.5t32.5 -34.5t11.5 -52.5z" />
    <glyph glyph-name="fourfifths" unicode="&#x2158;" horiz-adv-x="740" 
d="M59 -16l-38 44l638 642l44 -46zM250 424v-87h-61v87h-148v47l161 194h48v-197h41v-44h-41zM189 579l-89 -111h89v111zM678 113q0 -29 -10 -51t-27 -36.5t-39 -21.5t-46 -7q-36 0 -65 12.5t-44 38.5l34 35q9 -14 28 -24.5t43 -10.5q29 0 46.5 14.5t17.5 44.5
q0 39 -27.5 54t-84.5 15h-38v154h190v-50h-136v-56h4q33 0 61 -5.5t49 -18.5t32.5 -34.5t11.5 -52.5z" />
    <glyph glyph-name="onesixth" unicode="&#x2159;" horiz-adv-x="740" 
d="M69 -16l-38 44l638 642l44 -46zM137 337v262l-61 -34l-27 48l99 56h50v-332h-61zM443 136q0 41 14.5 75.5t40.5 61t61.5 44t78.5 24.5l12 -48q-42 -8 -76.5 -25t-57.5 -52q9 8 26 12t30 4q51 0 79.5 -33t28.5 -81q0 -26 -8.5 -48t-24 -38t-37 -25.5t-48.5 -9.5
q-32 0 -54.5 12t-36.5 31.5t-21 44.5t-7 51zM618 113q0 29 -13 50t-44 21q-29 0 -54 -14q-3 -14 -3 -33q0 -15 3 -31.5t9.5 -29.5t18 -21.5t29.5 -8.5q23 0 38.5 20t15.5 47z" />
    <glyph glyph-name="fivesixths" unicode="&#x215a;" horiz-adv-x="740" 
d="M286 448q0 -29 -10 -51t-27 -36.5t-39 -21.5t-46 -7q-36 0 -65 12.5t-44 38.5l34 35q9 -14 28 -24.5t43 -10.5q29 0 46.5 14.5t17.5 44.5q0 39 -27.5 54t-84.5 15h-38v154h190v-50h-136v-56h4q33 0 61 -5.5t49 -18.5t32.5 -34.5t11.5 -52.5zM69 -16l-38 44l638 642
l44 -46zM440 136q0 41 14.5 75.5t40.5 61t61.5 44t78.5 24.5l12 -48q-42 -8 -76.5 -25t-57.5 -52q9 8 26 12t30 4q51 0 79.5 -33t28.5 -81q0 -26 -8.5 -48t-24 -38t-37 -25.5t-48.5 -9.5q-32 0 -54.5 12t-36.5 31.5t-21 44.5t-7 51zM615 113q0 29 -13 50t-44 21
q-29 0 -54 -14q-3 -14 -3 -33q0 -15 3 -31.5t9.5 -29.5t18 -21.5t29.5 -8.5q23 0 38.5 20t15.5 47z" />
    <glyph glyph-name="oneeighth" unicode="&#x215b;" horiz-adv-x="740" 
d="M129 337v262l-61 -34l-27 48l99 56h50v-332h-61zM59 -16l-38 44l638 642l44 -46zM691 96q0 -25 -10.5 -43.5t-27 -31t-38 -18.5t-43.5 -6q-23 0 -45 6t-39 18.5t-27 31t-10 42.5q0 23 10.5 43.5t33.5 33.5q-38 30 -38 74q0 22 10 39t26.5 29t37 18t41.5 6t41.5 -6
t36.5 -17.5t26 -28.5t10 -38q0 -48 -37 -76q22 -13 32 -33.5t10 -42.5zM629 95q0 25 -17 39.5t-41 14.5q-23 0 -40.5 -14.5t-17.5 -38.5q0 -26 17.5 -37.5t41.5 -11.5q23 0 40 11t17 37zM624 246q0 23 -15 33.5t-37 10.5t-37.5 -11t-15.5 -33q0 -24 15 -36t37 -12
q23 0 38 12t15 36z" />
    <glyph glyph-name="threeeighths" unicode="&#x215c;" horiz-adv-x="740" 
d="M270 435q0 -26 -11 -45t-28.5 -32t-40 -19.5t-44.5 -6.5q-34 0 -66 15.5t-55 52.5l49 28q16 -26 34.5 -35.5t36.5 -9.5q26 0 44.5 14t18.5 37q0 24 -20 37t-55 15v45q32 2 50.5 14.5t18.5 32.5q0 19 -15.5 31t-37.5 12q-42 0 -64 -43l-49 28q20 35 51.5 51t65.5 16
q21 0 41 -6t35.5 -18t25.5 -29t10 -39q0 -23 -10.5 -41t-28.5 -30q20 -11 32 -28.5t12 -46.5zM59 -16l-38 44l638 642l44 -46zM689 96q0 -25 -10.5 -43.5t-27 -31t-38 -18.5t-43.5 -6q-23 0 -45 6t-39 18.5t-27 31t-10 42.5q0 23 10.5 43.5t33.5 33.5q-38 30 -38 74
q0 22 10 39t26.5 29t37 18t41.5 6t41.5 -6t36.5 -17.5t26 -28.5t10 -38q0 -48 -37 -76q22 -13 32 -33.5t10 -42.5zM627 95q0 25 -17 39.5t-41 14.5q-23 0 -40.5 -14.5t-17.5 -38.5q0 -26 17.5 -37.5t41.5 -11.5q23 0 40 11t17 37zM622 246q0 23 -15 33.5t-37 10.5t-37.5 -11
t-15.5 -33q0 -24 15 -36t37 -12q23 0 38 12t15 36z" />
    <glyph glyph-name="fiveeighths" unicode="&#x215d;" horiz-adv-x="740" 
d="M59 -16l-38 44l638 642l44 -46zM296 448q0 -29 -10 -51t-27 -36.5t-39 -21.5t-46 -7q-36 0 -65 12.5t-44 38.5l34 35q9 -14 28 -24.5t43 -10.5q29 0 46.5 14.5t17.5 44.5q0 39 -27.5 54t-84.5 15h-38v154h190v-50h-136v-56h4q33 0 61 -5.5t49 -18.5t32.5 -34.5
t11.5 -52.5zM691 96q0 -25 -10.5 -43.5t-27 -31t-38 -18.5t-43.5 -6q-23 0 -45 6t-39 18.5t-27 31t-10 42.5q0 23 10.5 43.5t33.5 33.5q-38 30 -38 74q0 22 10 39t26.5 29t37 18t41.5 6t41.5 -6t36.5 -17.5t26 -28.5t10 -38q0 -48 -37 -76q22 -13 32 -33.5t10 -42.5zM629 95
q0 25 -17 39.5t-41 14.5q-23 0 -40.5 -14.5t-17.5 -38.5q0 -26 17.5 -37.5t41.5 -11.5q23 0 40 11t17 37zM624 246q0 23 -15 33.5t-37 10.5t-37.5 -11t-15.5 -33q0 -24 15 -36t37 -12q23 0 38 12t15 36z" />
    <glyph glyph-name="seveneighths" unicode="&#x215e;" horiz-adv-x="740" 
d="M59 -16l-38 44l638 642l44 -46zM171 336h-65l125 277h-183v52h252v-38zM690 96q0 -25 -10.5 -43.5t-27 -31t-38 -18.5t-43.5 -6q-23 0 -45 6t-39 18.5t-27 31t-10 42.5q0 23 10.5 43.5t33.5 33.5q-38 30 -38 74q0 22 10 39t26.5 29t37 18t41.5 6t41.5 -6t36.5 -17.5
t26 -28.5t10 -38q0 -48 -37 -76q22 -13 32 -33.5t10 -42.5zM628 95q0 25 -17 39.5t-41 14.5q-23 0 -40.5 -14.5t-17.5 -38.5q0 -26 17.5 -37.5t41.5 -11.5q23 0 40 11t17 37zM623 246q0 23 -15 33.5t-37 10.5t-37.5 -11t-15.5 -33q0 -24 15 -36t37 -12q23 0 38 12t15 36z
" />
    <glyph glyph-name="foursuperior" unicode="&#x2074;" horiz-adv-x="300" 
d="M235 424v-87h-61v87h-148v47l161 194h48v-197h41v-44h-41zM174 579l-89 -111h89v111z" />
    <glyph glyph-name="fivesuperior" unicode="&#x2075;" horiz-adv-x="300" 
d="M266 448q0 -29 -10 -51t-27 -36.5t-39 -21.5t-46 -7q-36 0 -65 12.5t-44 38.5l34 35q9 -14 28 -24.5t43 -10.5q29 0 46.5 14.5t17.5 44.5q0 39 -27.5 54t-84.5 15h-38v154h190v-50h-136v-56h4q33 0 61 -5.5t49 -18.5t32.5 -34.5t11.5 -52.5z" />
    <glyph glyph-name="sixsuperior" unicode="&#x2076;" horiz-adv-x="300" 
d="M26 471q0 41 14.5 75.5t40.5 61t61.5 44t78.5 24.5l12 -48q-42 -8 -76.5 -25t-57.5 -52q9 8 26 12t30 4q51 0 79.5 -33t28.5 -81q0 -26 -8.5 -48t-24 -38t-37 -25.5t-48.5 -9.5q-32 0 -54.5 12t-36.5 31.5t-21 44.5t-7 51zM201 448q0 29 -13 50t-44 21q-29 0 -54 -14
q-3 -14 -3 -33q0 -15 3 -31.5t9.5 -29.5t18 -21.5t29.5 -8.5q23 0 38.5 20t15.5 47z" />
    <glyph glyph-name="sevensuperior" unicode="&#x2077;" horiz-adv-x="300" 
d="M151 336h-65l125 277h-183v52h252v-38z" />
    <glyph glyph-name="eightsuperior" unicode="&#x2078;" horiz-adv-x="300" 
d="M268 431q0 -25 -10.5 -43.5t-27 -31t-38 -18.5t-43.5 -6q-23 0 -45 6t-39 18.5t-27 31t-10 42.5q0 23 10.5 43.5t33.5 33.5q-38 30 -38 74q0 22 10 39t26.5 29t37 18t41.5 6t41.5 -6t36.5 -17.5t26 -28.5t10 -38q0 -48 -37 -76q22 -13 32 -33.5t10 -42.5zM206 430
q0 25 -17 39.5t-41 14.5q-23 0 -40.5 -14.5t-17.5 -38.5q0 -26 17.5 -37.5t41.5 -11.5q23 0 40 11t17 37zM201 581q0 23 -15 33.5t-37 10.5t-37.5 -11t-15.5 -33q0 -24 15 -36t37 -12q23 0 38 12t15 36z" />
    <glyph glyph-name="ninesuperior" unicode="&#x2079;" horiz-adv-x="300" 
d="M266 534q0 -42 -14.5 -78t-40.5 -63t-61.5 -44.5t-78.5 -24.5l-12 49q42 8 78 27t55 51q-14 -8 -27.5 -10.5t-26.5 -2.5q-50 0 -79.5 33t-29.5 84q0 24 8.5 45.5t24.5 37.5t37 25.5t47 9.5q32 0 54.5 -11.5t37 -30.5t21.5 -44.5t7 -52.5zM91 557q0 -31 13.5 -51t47.5 -20
q25 0 50 13q1 8 1.5 16t0.5 17q0 16 -3 32.5t-9.5 29.5t-18 21.5t-28.5 8.5q-23 0 -38.5 -20t-15.5 -47z" />
    <glyph glyph-name="zerosuperior" unicode="&#x2070;" horiz-adv-x="300" 
d="M290 503q0 -37 -9 -68t-26 -54t-43 -36t-60 -13q-69 0 -103.5 48t-34.5 123q0 35 8.5 66t26 54.5t43 37t60.5 13.5q34 0 60 -14.5t43.5 -38.5t26 -55t8.5 -63zM228 504q0 23 -4.5 45t-13.5 39t-23.5 27t-34.5 10t-34.5 -10t-23.5 -27t-13.5 -39t-4.5 -45q0 -24 4.5 -46
t13.5 -39t23.5 -27.5t34.5 -10.5t34.5 10.5t23.5 27.5t13.5 39t4.5 46z" />
    <glyph glyph-name="oneinferior" unicode="&#x2081;" horiz-adv-x="300" 
d="M137 1v262l-61 -34l-27 48l99 56h50v-332h-61z" />
    <glyph glyph-name="twoinferior" unicode="&#x2082;" horiz-adv-x="300" 
d="M41 1v36q30 32 56 59.5t47 52.5q25 30 37 49.5t12 41.5t-12.5 33t-31.5 11q-20 0 -37 -10.5t-35 -39.5l-50 27q23 38 51 57.5t73 19.5q48 0 77 -25.5t29 -67.5q0 -34 -17.5 -63t-39.5 -55q-17 -19 -34 -37t-34 -37h133v-52h-224z" />
    <glyph glyph-name="threeinferior" unicode="&#x2083;" horiz-adv-x="300" 
d="M270 99q0 -26 -11 -45t-28.5 -32t-40 -19.5t-44.5 -6.5q-34 0 -66 15.5t-55 52.5l49 28q16 -26 34.5 -35.5t36.5 -9.5q26 0 44.5 14t18.5 37q0 24 -20 37t-55 15v45q32 2 50.5 14.5t18.5 32.5q0 19 -15.5 31t-37.5 12q-42 0 -64 -43l-49 28q20 35 51.5 51t65.5 16
q21 0 41 -6t35.5 -18t25.5 -29t10 -39q0 -23 -10.5 -41t-28.5 -30q20 -11 32 -28.5t12 -46.5z" />
    <glyph glyph-name="fourinferior" unicode="&#x2084;" horiz-adv-x="300" 
d="M235 88v-87h-61v87h-148v47l161 194h48v-197h41v-44h-41zM174 243l-89 -111h89v111z" />
    <glyph glyph-name="fiveinferior" unicode="&#x2085;" horiz-adv-x="300" 
d="M266 112q0 -29 -10 -51t-27 -36.5t-39 -21.5t-46 -7q-36 0 -65 12.5t-44 38.5l34 35q9 -14 28 -24.5t43 -10.5q29 0 46.5 14.5t17.5 44.5q0 39 -27.5 54t-84.5 15h-38v154h190v-50h-136v-56h4q33 0 61 -5.5t49 -18.5t32.5 -34.5t11.5 -52.5z" />
    <glyph glyph-name="sixinferior" unicode="&#x2086;" horiz-adv-x="300" 
d="M26 135q0 41 14.5 75.5t40.5 61t61.5 44t78.5 24.5l12 -48q-42 -8 -76.5 -25t-57.5 -52q9 8 26 12t30 4q51 0 79.5 -33t28.5 -81q0 -26 -8.5 -48t-24 -38t-37 -25.5t-48.5 -9.5q-32 0 -54.5 12t-36.5 31.5t-21 44.5t-7 51zM201 112q0 29 -13 50t-44 21q-29 0 -54 -14
q-3 -14 -3 -33q0 -15 3 -31.5t9.5 -29.5t18 -21.5t29.5 -8.5q23 0 38.5 20t15.5 47z" />
    <glyph glyph-name="seveninferior" unicode="&#x2087;" horiz-adv-x="300" 
d="M151 1h-65l125 277h-183v52h252v-38z" />
    <glyph glyph-name="eightinferior" unicode="&#x2088;" horiz-adv-x="300" 
d="M268 95q0 -25 -10.5 -43.5t-27 -31t-38 -18.5t-43.5 -6q-23 0 -45 6t-39 18.5t-27 31t-10 42.5q0 23 10.5 43.5t33.5 33.5q-38 30 -38 74q0 22 10 39t26.5 29t37 18t41.5 6t41.5 -6t36.5 -17.5t26 -28.5t10 -38q0 -48 -37 -76q22 -13 32 -33.5t10 -42.5zM206 94
q0 25 -17 39.5t-41 14.5q-23 0 -40.5 -14.5t-17.5 -38.5q0 -26 17.5 -37.5t41.5 -11.5q23 0 40 11t17 37zM201 245q0 23 -15 33.5t-37 10.5t-37.5 -11t-15.5 -33q0 -24 15 -36t37 -12q23 0 38 12t15 36z" />
    <glyph glyph-name="nineinferior" unicode="&#x2089;" horiz-adv-x="300" 
d="M266 198q0 -42 -14.5 -78t-40.5 -63t-61.5 -44.5t-78.5 -24.5l-12 49q42 8 78 27t55 51q-14 -8 -27.5 -10.5t-26.5 -2.5q-50 0 -79.5 33t-29.5 84q0 24 8.5 45.5t24.5 37.5t37 25.5t47 9.5q32 0 54.5 -11.5t37 -30.5t21.5 -44.5t7 -52.5zM91 221q0 -31 13.5 -51t47.5 -20
q25 0 50 13q1 8 1.5 16t0.5 17q0 16 -3 32.5t-9.5 29.5t-18 21.5t-28.5 8.5q-23 0 -38.5 -20t-15.5 -47z" />
    <glyph glyph-name="zeroinferior" unicode="&#x2080;" horiz-adv-x="300" 
d="M290 167q0 -37 -9 -68t-26 -54t-43 -36t-60 -13q-69 0 -103.5 48t-34.5 123q0 35 8.5 66t26 54.5t43 37t60.5 13.5q34 0 60 -14.5t43.5 -38.5t26 -55t8.5 -63zM228 168q0 23 -4.5 45t-13.5 39t-23.5 27t-34.5 10t-34.5 -10t-23.5 -27t-13.5 -39t-4.5 -45q0 -24 4.5 -46
t13.5 -39t23.5 -27.5t34.5 -10.5t34.5 10.5t23.5 27.5t13.5 39t4.5 46z" />
    <glyph glyph-name="oneseventh" unicode="&#xf500;" horiz-adv-x="740" 
d="M69 -16l-38 44l638 642l44 -46zM137 337v262l-61 -34l-27 48l99 56h50v-332h-61zM578 1h-65l125 277h-183v52h252v-38z" />
    <glyph glyph-name="twosevenths" unicode="&#xf501;" horiz-adv-x="740" 
d="M69 -16l-38 44l638 642l44 -46zM41 336v36q30 32 56 59.5t47 52.5q25 30 37 49.5t12 41.5t-12.5 33t-31.5 11q-20 0 -37 -10.5t-35 -39.5l-50 27q23 38 51 57.5t73 19.5q48 0 77 -25.5t29 -67.5q0 -34 -17.5 -63t-39.5 -55q-17 -19 -34 -37t-34 -37h133v-52h-224zM578 1
h-65l125 277h-183v52h252v-38z" />
    <glyph glyph-name="threesevenths" unicode="&#xf502;" horiz-adv-x="740" 
d="M69 -16l-38 44l638 642l44 -46zM270 435q0 -26 -11 -45t-28.5 -32t-40 -19.5t-44.5 -6.5q-34 0 -66 15.5t-55 52.5l49 28q16 -26 34.5 -35.5t36.5 -9.5q26 0 44.5 14t18.5 37q0 24 -20 37t-55 15v45q32 2 50.5 14.5t18.5 32.5q0 19 -15.5 31t-37.5 12q-42 0 -64 -43
l-49 28q20 35 51.5 51t65.5 16q21 0 41 -6t35.5 -18t25.5 -29t10 -39q0 -23 -10.5 -41t-28.5 -30q20 -11 32 -28.5t12 -46.5zM578 1h-65l125 277h-183v52h252v-38z" />
    <glyph glyph-name="foursevenths" unicode="&#xf503;" horiz-adv-x="740" 
d="M69 -16l-38 44l638 642l44 -46zM235 424v-87h-61v87h-148v47l161 194h48v-197h41v-44h-41zM174 579l-89 -111h89v111zM578 1h-65l125 277h-183v52h252v-38z" />
    <glyph glyph-name="fivesevenths" unicode="&#xf504;" horiz-adv-x="740" 
d="M69 -16l-38 44l638 642l44 -46zM266 448q0 -29 -10 -51t-27 -36.5t-39 -21.5t-46 -7q-36 0 -65 12.5t-44 38.5l34 35q9 -14 28 -24.5t43 -10.5q29 0 46.5 14.5t17.5 44.5q0 39 -27.5 54t-84.5 15h-38v154h190v-50h-136v-56h4q33 0 61 -5.5t49 -18.5t32.5 -34.5
t11.5 -52.5zM578 1h-65l125 277h-183v52h252v-38z" />
    <glyph glyph-name="sixsevenths" unicode="&#xf505;" horiz-adv-x="740" 
d="M69 -16l-38 44l638 642l44 -46zM26 471q0 41 14.5 75.5t40.5 61t61.5 44t78.5 24.5l12 -48q-42 -8 -76.5 -25t-57.5 -52q9 8 26 12t30 4q51 0 79.5 -33t28.5 -81q0 -26 -8.5 -48t-24 -38t-37 -25.5t-48.5 -9.5q-32 0 -54.5 12t-36.5 31.5t-21 44.5t-7 51zM201 448
q0 29 -13 50t-44 21q-29 0 -54 -14q-3 -14 -3 -33q0 -15 3 -31.5t9.5 -29.5t18 -21.5t29.5 -8.5q23 0 38.5 20t15.5 47zM578 1h-65l125 277h-183v52h252v-38z" />
    <glyph glyph-name="oneninth" unicode="&#xf506;" horiz-adv-x="740" 
d="M69 -16l-38 44l638 642l44 -46zM137 337v262l-61 -34l-27 48l99 56h50v-332h-61zM693 199q0 -42 -14.5 -78t-40.5 -63t-61.5 -44.5t-78.5 -24.5l-12 49q42 8 78 27t55 51q-14 -8 -27.5 -10.5t-26.5 -2.5q-50 0 -79.5 33t-29.5 84q0 24 8.5 45.5t24.5 37.5t37 25.5t47 9.5
q32 0 54.5 -11.5t37 -30.5t21.5 -44.5t7 -52.5zM518 222q0 -31 13.5 -51t47.5 -20q25 0 50 13q1 8 1.5 16t0.5 17q0 16 -3 32.5t-9.5 29.5t-18 21.5t-28.5 8.5q-23 0 -38.5 -20t-15.5 -47z" />
    <glyph glyph-name="twoninths" unicode="&#xf507;" horiz-adv-x="740" 
d="M69 -16l-38 44l638 642l44 -46zM41 336v36q30 32 56 59.5t47 52.5q25 30 37 49.5t12 41.5t-12.5 33t-31.5 11q-20 0 -37 -10.5t-35 -39.5l-50 27q23 38 51 57.5t73 19.5q48 0 77 -25.5t29 -67.5q0 -34 -17.5 -63t-39.5 -55q-17 -19 -34 -37t-34 -37h133v-52h-224z
M693 199q0 -42 -14.5 -78t-40.5 -63t-61.5 -44.5t-78.5 -24.5l-12 49q42 8 78 27t55 51q-14 -8 -27.5 -10.5t-26.5 -2.5q-50 0 -79.5 33t-29.5 84q0 24 8.5 45.5t24.5 37.5t37 25.5t47 9.5q32 0 54.5 -11.5t37 -30.5t21.5 -44.5t7 -52.5zM518 222q0 -31 13.5 -51t47.5 -20
q25 0 50 13q1 8 1.5 16t0.5 17q0 16 -3 32.5t-9.5 29.5t-18 21.5t-28.5 8.5q-23 0 -38.5 -20t-15.5 -47z" />
    <glyph glyph-name="fourninths" unicode="&#xf508;" horiz-adv-x="740" 
d="M69 -16l-38 44l638 642l44 -46zM235 424v-87h-61v87h-148v47l161 194h48v-197h41v-44h-41zM174 579l-89 -111h89v111zM693 199q0 -42 -14.5 -78t-40.5 -63t-61.5 -44.5t-78.5 -24.5l-12 49q42 8 78 27t55 51q-14 -8 -27.5 -10.5t-26.5 -2.5q-50 0 -79.5 33t-29.5 84
q0 24 8.5 45.5t24.5 37.5t37 25.5t47 9.5q32 0 54.5 -11.5t37 -30.5t21.5 -44.5t7 -52.5zM518 222q0 -31 13.5 -51t47.5 -20q25 0 50 13q1 8 1.5 16t0.5 17q0 16 -3 32.5t-9.5 29.5t-18 21.5t-28.5 8.5q-23 0 -38.5 -20t-15.5 -47z" />
    <glyph glyph-name="fiveninths" unicode="&#xf509;" horiz-adv-x="740" 
d="M69 -16l-38 44l638 642l44 -46zM266 448q0 -29 -10 -51t-27 -36.5t-39 -21.5t-46 -7q-36 0 -65 12.5t-44 38.5l34 35q9 -14 28 -24.5t43 -10.5q29 0 46.5 14.5t17.5 44.5q0 39 -27.5 54t-84.5 15h-38v154h190v-50h-136v-56h4q33 0 61 -5.5t49 -18.5t32.5 -34.5
t11.5 -52.5zM693 199q0 -42 -14.5 -78t-40.5 -63t-61.5 -44.5t-78.5 -24.5l-12 49q42 8 78 27t55 51q-14 -8 -27.5 -10.5t-26.5 -2.5q-50 0 -79.5 33t-29.5 84q0 24 8.5 45.5t24.5 37.5t37 25.5t47 9.5q32 0 54.5 -11.5t37 -30.5t21.5 -44.5t7 -52.5zM518 222
q0 -31 13.5 -51t47.5 -20q25 0 50 13q1 8 1.5 16t0.5 17q0 16 -3 32.5t-9.5 29.5t-18 21.5t-28.5 8.5q-23 0 -38.5 -20t-15.5 -47z" />
    <glyph glyph-name="sevenninths" unicode="&#xf50a;" horiz-adv-x="740" 
d="M69 -16l-38 44l638 642l44 -46zM151 336h-65l125 277h-183v52h252v-38zM693 199q0 -42 -14.5 -78t-40.5 -63t-61.5 -44.5t-78.5 -24.5l-12 49q42 8 78 27t55 51q-14 -8 -27.5 -10.5t-26.5 -2.5q-50 0 -79.5 33t-29.5 84q0 24 8.5 45.5t24.5 37.5t37 25.5t47 9.5
q32 0 54.5 -11.5t37 -30.5t21.5 -44.5t7 -52.5zM518 222q0 -31 13.5 -51t47.5 -20q25 0 50 13q1 8 1.5 16t0.5 17q0 16 -3 32.5t-9.5 29.5t-18 21.5t-28.5 8.5q-23 0 -38.5 -20t-15.5 -47z" />
    <glyph glyph-name="eightninths" unicode="&#xf50b;" horiz-adv-x="740" 
d="M69 -16l-38 44l638 642l44 -46zM268 431q0 -25 -10.5 -43.5t-27 -31t-38 -18.5t-43.5 -6q-23 0 -45 6t-39 18.5t-27 31t-10 42.5q0 23 10.5 43.5t33.5 33.5q-38 30 -38 74q0 22 10 39t26.5 29t37 18t41.5 6t41.5 -6t36.5 -17.5t26 -28.5t10 -38q0 -48 -37 -76
q22 -13 32 -33.5t10 -42.5zM206 430q0 25 -17 39.5t-41 14.5q-23 0 -40.5 -14.5t-17.5 -38.5q0 -26 17.5 -37.5t41.5 -11.5q23 0 40 11t17 37zM201 581q0 23 -15 33.5t-37 10.5t-37.5 -11t-15.5 -33q0 -24 15 -36t37 -12q23 0 38 12t15 36zM693 199q0 -42 -14.5 -78
t-40.5 -63t-61.5 -44.5t-78.5 -24.5l-12 49q42 8 78 27t55 51q-14 -8 -27.5 -10.5t-26.5 -2.5q-50 0 -79.5 33t-29.5 84q0 24 8.5 45.5t24.5 37.5t37 25.5t47 9.5q32 0 54.5 -11.5t37 -30.5t21.5 -44.5t7 -52.5zM518 222q0 -31 13.5 -51t47.5 -20q25 0 50 13q1 8 1.5 16
t0.5 17q0 16 -3 32.5t-9.5 29.5t-18 21.5t-28.5 8.5q-23 0 -38.5 -20t-15.5 -47z" />
    <glyph glyph-name="afii10017" unicode="&#x410;" horiz-adv-x="578" 
d="M487 0l-79 206h-242l-76 -206h-84l257 667h49l262 -667h-87zM285 532l-93 -255h190z" />
    <glyph glyph-name="afii10018" unicode="&#x411;" horiz-adv-x="561" 
d="M516 202q0 -100 -55.5 -151t-170.5 -51h-204v667h362v-71h-282v-197h121q112 0 170.5 -50t58.5 -147zM430 200q0 69 -38 99.5t-99 30.5h-127v-261h126q66 0 102 31t36 100z" />
    <glyph glyph-name="afii10019" unicode="&#x412;" horiz-adv-x="547" 
d="M512 186q0 -43 -14.5 -77.5t-40 -58.5t-61.5 -37t-78 -13h-232v667h190q100 0 151 -46t51 -124q0 -64 -36.5 -98.5t-93.5 -44.5q28 -3 57.5 -13t53 -29.5t38.5 -50t15 -75.5zM427 188q0 127 -155 127h-106v-246h148q51 0 82 29.5t31 89.5zM394 500q0 98 -115 98h-113
v-214h103q60 0 92.5 32t32.5 84z" />
    <glyph glyph-name="afii10020" unicode="&#x413;" horiz-adv-x="485" 
d="M166 594v-594h-80v667h389v-73h-309z" />
    <glyph glyph-name="afii10021" unicode="&#x414;" horiz-adv-x="684" 
d="M584 -140v140h-484v-140h-80v209h67l227 598h51l235 -598h64v-209h-80zM165 67l348 2l-176 468z" />
    <glyph glyph-name="afii10022" unicode="&#x415;" horiz-adv-x="514" 
d="M81 0v667h389v-69h-309v-214h221v-69h-222v-246h334v-69h-413z" />
    <glyph glyph-name="afii10024" unicode="&#x416;" horiz-adv-x="871" 
d="M0 0l271 379l-257 288h91l290 -327v327h81v-327l290 327h91l-257 -288l271 -379h-93l-231 324l-71 -73v-251h-81v251l-70 73l-232 -324h-93z" />
    <glyph glyph-name="afii10025" unicode="&#x417;" horiz-adv-x="527" 
d="M487 183q0 -47 -17 -83.5t-48 -61.5t-74.5 -38.5t-96.5 -13.5q-75 0 -135 26t-98 88l64 46q29 -42 71 -67.5t99 -25.5q77 0 114.5 35.5t37.5 92.5t-41 89.5t-104 35.5q-19 1 -48 1h-48v67h23t32.5 0.5l35 1t30.5 1.5q21 3 40.5 13.5t34.5 27t23.5 37.5t8.5 44
q0 48 -32 80.5t-95 32.5t-101.5 -25t-60.5 -73l-64 37q62 129 228 129q53 0 92 -13.5t64.5 -36.5t38 -54t12.5 -66q0 -32 -9 -59t-24 -48.5t-34.5 -37t-40.5 -24.5q26 -9 48.5 -21t39 -30t25.5 -44t9 -63z" />
    <glyph glyph-name="afii10026" unicode="&#x418;" horiz-adv-x="668" 
d="M86 0v667h79v-507l346 507h71v-667h-79v529l-358 -529h-59z" />
    <glyph glyph-name="afii10027" unicode="&#x419;" horiz-adv-x="668" 
d="M499 867q-1 -39 -17 -67t-39.5 -45.5t-52 -26t-53.5 -8.5q-26 0 -54 8.5t-51.5 26t-39 45.5t-16.5 67h64q4 -23 15 -39t25 -25.5t29 -14t28 -4.5t28 4.5t29.5 14t25.5 25.5t15 39h64zM86 0v667h79v-508l346 508h71v-667h-79v529l-358 -529h-59z" />
    <glyph glyph-name="afii10028" unicode="&#x41a;" horiz-adv-x="562" 
d="M461 0l-231 347l-69 -71v-276h-80v667h80v-293l287 293h95l-257 -262l271 -405h-96z" />
    <glyph glyph-name="afii10029" unicode="&#x41b;" horiz-adv-x="566" 
d="M81 0h-81l253 667h53l260 -667h-87l-202 539z" />
    <glyph glyph-name="afii10030" unicode="&#x41c;" horiz-adv-x="753" 
d="M590 0v509l-198 -520h-16l-212 519v-508h-78v667h94l203 -515l191 515h93v-667h-77z" />
    <glyph glyph-name="afii10031" unicode="&#x41d;" horiz-adv-x="665" 
d="M497 0v307h-333v-307h-81v667h81v-289h333v289h80v-667h-80z" />
    <glyph glyph-name="afii10032" unicode="&#x41e;" horiz-adv-x="671" 
d="M617 334q0 -65 -16.5 -127.5t-51 -111t-87.5 -78.5t-126 -30q-74 0 -127 30t-87.5 78.5t-51 111t-16.5 127.5t16.5 127t51 111t87.5 78.5t127 29.5q73 0 126 -29.5t87.5 -78.5t51 -111t16.5 -127zM533 334q0 51 -11.5 100.5t-35.5 88.5t-61.5 62.5t-88.5 23.5
t-88.5 -23.5t-62 -62.5t-36 -88.5t-11.5 -100.5q0 -52 12 -101.5t36.5 -88.5t61.5 -62.5t88 -23.5t88 23.5t61 62.5t36 88.5t12 101.5z" />
    <glyph glyph-name="afii10033" unicode="&#x41f;" horiz-adv-x="660" 
d="M495 0v595h-328v-595h-81v667h489v-667h-80z" />
    <glyph glyph-name="afii10034" unicode="&#x420;" horiz-adv-x="544" 
d="M520 465q0 -97 -58.5 -147t-170.5 -50h-125v-268h-80v667h208q115 0 170.5 -51t55.5 -151zM434 467q0 69 -36 100t-102 31h-130v-260h131q61 0 99 30t38 99z" />
    <glyph glyph-name="afii10035" unicode="&#x421;" horiz-adv-x="579" 
d="M546 121q-13 -24 -32 -48t-45 -43t-60 -31t-77 -12q-59 0 -109.5 19.5t-88 61t-59 106.5t-21.5 157q0 93 23 159.5t60.5 108.5t85 61.5t96.5 19.5q76 0 135 -37t88 -100l-65 -39q-9 18 -23.5 36.5t-34 33t-43 24t-50.5 9.5q-88 0 -137.5 -72t-49.5 -205q0 -65 15 -115.5
t41 -85t61.5 -52t76.5 -17.5q29 0 51.5 8t41 21.5t33 32t26.5 38.5z" />
    <glyph glyph-name="afii10036" unicode="&#x422;" horiz-adv-x="521" 
d="M300 598v-598h-79v598h-207v69h493v-69h-207z" />
    <glyph glyph-name="afii10037" unicode="&#x423;" horiz-adv-x="553" 
d="M555 667q-45 -135 -103.5 -267.5t-121.5 -250.5q-16 -30 -33 -57.5t-38.5 -49.5t-49.5 -35t-66 -13h-59v69h36q18 0 36.5 3t36.5 15t36 37t36 69l-253 480h93l204 -399q19 38 41 87.5t44.5 103t43 107.5t35.5 101h82z" />
    <glyph glyph-name="afii10038" unicode="&#x424;" horiz-adv-x="710" 
d="M667 334q0 -113 -69 -179.5t-203 -71.5v-94h-80v94q-133 5 -202.5 70.5t-69.5 180.5t71 179.5t201 69.5v97h80v-97q134 -5 203 -69.5t69 -179.5zM587 334q0 45 -14.5 79t-40 57t-60.5 35t-77 12v-367q87 1 139.5 46t52.5 138zM315 517q-88 -2 -139.5 -47.5t-51.5 -135.5
q0 -92 53 -137.5t138 -46.5v367z" />
    <glyph glyph-name="afii10039" unicode="&#x425;" horiz-adv-x="526" 
d="M421 0l-160 286l-164 -286h-92l207 342l-189 325h97l143 -262l146 262h92l-190 -319l210 -348h-100z" />
    <glyph glyph-name="afii10040" unicode="&#x426;" horiz-adv-x="663" 
d="M543 -140v140h-453v667h80v-598h320v598h79v-598h54v-209h-80z" />
    <glyph glyph-name="afii10041" unicode="&#x427;" horiz-adv-x="614" 
d="M449 0v290q-32 -11 -83 -18t-102 -7q-100 0 -148 38t-57 117q-2 21 -3 39.5t-1 38.5v169h80v-160q0 -14 0.5 -32t2.5 -32q3 -30 11 -50t24 -32.5t42.5 -17.5t66.5 -5q19 0 41.5 1.5t45 5t43.5 8.5t37 11v303h79v-667h-79z" />
    <glyph glyph-name="afii10042" unicode="&#x428;" horiz-adv-x="892" 
d="M93 0v667h80v-598h231v598h80v-598h231v598h80v-667h-702z" />
    <glyph glyph-name="afii10043" unicode="&#x429;" horiz-adv-x="895" 
d="M764 -140v140h-662v667h80v-598h222v598h80v-598h227v598h79v-598h54v-209h-80z" />
    <glyph glyph-name="afii10044" unicode="&#x42a;" horiz-adv-x="609" 
d="M569 220q0 -49 -14 -89.5t-42 -69.5t-71 -45t-101 -16h-226v598h-100v69h180v-233h146q115 0 171.5 -59t56.5 -155zM484 220q0 69 -40 107t-106 38h-143v-296h142q69 0 108 41t39 110z" />
    <glyph glyph-name="afii10045" unicode="&#x42b;" horiz-adv-x="789" 
d="M523 220q0 -49 -13.5 -89.5t-41.5 -69.5t-71 -45t-102 -16h-209v667h80v-233h129q59 0 102 -15.5t71 -43.5t41.5 -67.5t13.5 -87.5zM438 220q0 69 -38.5 107t-107.5 38h-126v-296h125q72 0 109.5 41t37.5 110zM623 0v667h80v-667h-80z" />
    <glyph glyph-name="afii10046" unicode="&#x42c;" horiz-adv-x="579" 
d="M539 213q0 -98 -56 -155.5t-172 -57.5h-225v667h80v-253h145q117 0 172.5 -52t55.5 -149zM454 213q0 69 -40 100.5t-106 31.5h-142v-276h141q69 0 108 37.5t39 106.5z" />
    <glyph glyph-name="afii10047" unicode="&#x42d;" horiz-adv-x="597" 
d="M543 342q0 -96 -21.5 -163t-59.5 -110t-89.5 -62.5t-111.5 -19.5q-44 0 -79.5 11t-63.5 29.5t-48.5 41.5t-34.5 47l61 45q27 -43 70 -73t103 -30q89 0 137 65t52 190h-246v70h244q-8 106 -52 165t-131 59q-30 0 -57 -9t-49 -23.5t-39 -33t-28 -37.5l-65 39q38 65 100 101
t147 36q57 0 105 -19.5t82.5 -60.5t54 -105t19.5 -153z" />
    <glyph glyph-name="afii10048" unicode="&#x42e;" horiz-adv-x="903" 
d="M845 334q0 -67 -16.5 -129.5t-50.5 -111t-85.5 -77.5t-121.5 -29q-66 0 -115 26t-82 70t-51 101t-21 120h-136v-304h-80v667h80v-293h136q5 60 23 115.5t51 98t81.5 67.5t113.5 25q70 0 122 -29t85.5 -77.5t50 -111t16.5 -128.5zM761 334q0 53 -11.5 102.5t-35 88
t-59 61.5t-84.5 23t-84.5 -23t-59 -61.5t-35 -88t-11.5 -102.5t11.5 -103t35.5 -88.5t59.5 -61.5t83.5 -23t83.5 23t59.5 61.5t35.5 88.5t11.5 103z" />
    <glyph glyph-name="afii10049" unicode="&#x42f;" horiz-adv-x="551" 
d="M22 0l182 297q-35 6 -65.5 20t-53 36.5t-35 55t-12.5 76.5q0 82 53 132t165 50h214v-667h-80v292h-97l-180 -292h-91zM390 598h-136q-64 0 -98 -28t-34 -85q0 -124 139 -124h129v237z" />
    <glyph glyph-name="afii10051" unicode="&#x402;" horiz-adv-x="675" 
d="M630 231q0 -58 -17.5 -101.5t-49 -72t-74 -43t-91.5 -14.5h-49v69h49q31 0 58 8.5t47 27.5t32 49t12 72q0 76 -40 116.5t-109 40.5q-25 0 -48 -5.5t-43 -13.5t-35.5 -17.5t-25.5 -18.5v-328h-79v598h-167v69h423v-69h-177v-191q23 16 64 32t96 16q50 0 91.5 -14t71 -42
t45.5 -70t16 -98z" />
    <glyph glyph-name="afii10099" unicode="&#x452;" horiz-adv-x="539" 
d="M473 32q0 -46 -9 -82t-25.5 -63.5t-39.5 -48t-50 -35.5l-39 56q24 16 40.5 33t26.5 37.5t14 45.5t4 57v234q0 66 -27 97.5t-87 31.5q-38 0 -73.5 -17.5t-61.5 -36.5v-341h-77v554h-78v58h78v55h77v-55h149v-58h-149v-147q29 21 66 35.5t83 14.5q97 0 137.5 -49t40.5 -143
v-233z" />
    <glyph glyph-name="afii10052" unicode="&#x403;" horiz-adv-x="485" 
d="M166 594v-594h-80v667h389v-73h-309zM206 710l-37 37l167 139l51 -52z" />
    <glyph glyph-name="afii10100" unicode="&#x453;" horiz-adv-x="378" 
d="M378 477v-63h-231v-414h-78v477h309zM149 544l-37 37l167 139l51 -52z" />
    <glyph glyph-name="afii10053" unicode="&#x404;" horiz-adv-x="591" 
d="M561 121q-15 -25 -35.5 -49t-48.5 -43t-65 -30.5t-84 -11.5q-59 0 -109.5 19.5t-88.5 61.5t-59.5 107t-21.5 156q0 93 24 159.5t63 108.5t89.5 61.5t103.5 19.5q85 0 140.5 -37t87.5 -100l-65 -39q-10 19 -25.5 37.5t-35.5 33t-45 23.5t-55 9q-88 0 -136 -58t-59 -166
h244v-70h-246q2 -62 17.5 -109t41.5 -79.5t61.5 -49t77.5 -16.5q62 0 101.5 28.5t66.5 73.5z" />
    <glyph glyph-name="afii10101" unicode="&#x454;" horiz-adv-x="488" 
d="M462 102q-29 -60 -78.5 -86.5t-113.5 -26.5q-48 0 -89 15.5t-71 46.5t-47 77.5t-17 108.5q0 64 18.5 111.5t49.5 79t71.5 46.5t84.5 15q40 0 71 -11t53.5 -28t37 -37.5t22.5 -39.5l-59 -33q-20 45 -54 66t-74 21q-58 0 -97 -37.5t-46 -111.5h216v-63h-217
q5 -82 46.5 -123t106.5 -41q45 0 78 20t53 62z" />
    <glyph glyph-name="afii10056" unicode="&#x407;" horiz-adv-x="242" 
d="M81 0v667h80v-667h-80zM92 812q0 -23 -14.5 -39.5t-34.5 -16.5q-21 0 -35.5 16.5t-14.5 39.5t14.5 39t35.5 16q20 0 34.5 -16t14.5 -39zM249 812q0 -23 -14.5 -39.5t-35.5 -16.5q-20 0 -34.5 16.5t-14.5 39.5t14.5 39t34.5 16q21 0 35.5 -16t14.5 -39z" />
    <glyph glyph-name="afii10104" unicode="&#x457;" horiz-adv-x="215" 
d="M69 0v477h77v-477h-77zM75 646q0 -23 -14.5 -39.5t-34.5 -16.5q-21 0 -35.5 16.5t-14.5 39.5t14.5 39t35.5 16q20 0 34.5 -16t14.5 -39zM232 646q0 -23 -14.5 -39.5t-35.5 -16.5q-20 0 -34.5 16.5t-14.5 39.5t14.5 39t34.5 16q21 0 35.5 -16t14.5 -39z" />
    <glyph glyph-name="afii10058" unicode="&#x409;" horiz-adv-x="933" 
d="M182 667h353v-243h130q54 0 96.5 -15t72 -42.5t44.5 -66t15 -85.5q0 -48 -15 -87.5t-44.5 -68t-72 -44t-96.5 -15.5h-210v598h-195v-78q0 -166 -12.5 -270.5t-45.5 -161.5q-28 -48 -68 -68t-91 -20h-30v69h20q14 0 28.5 2t28.5 8t26.5 18t22.5 33q31 63 37 161.5t6 234.5
v141zM808 215q0 66 -40 103t-106 37h-127v-286h126q67 0 107 38.5t40 107.5z" />
    <glyph glyph-name="afii10106" unicode="&#x459;" horiz-adv-x="762" 
d="M726 172q0 -35 -11.5 -66t-35 -54.5t-60 -37.5t-87.5 -14h-186v414h-146q-2 -93 -6 -167.5t-16 -125.5q-13 -57 -44.5 -89t-88.5 -32h-40v63h22q9 0 20 2t21.5 9.5t19.5 21.5t15 37q8 28 12 62.5t6 76.5t2 92.5v112.5h301v-146h107q51 0 87.5 -12t60.5 -33t35.5 -50.5
t11.5 -63.5zM642 172q0 52 -28.5 74t-85.5 22h-104v-205h103q57 0 86 28.5t29 80.5z" />
    <glyph glyph-name="afii10059" unicode="&#x40a;" horiz-adv-x="930" 
d="M890 210q0 -100 -60.5 -155t-171.5 -55h-202v341h-295v-341h-80v667h80v-256h295v256h80v-256h122q111 0 171.5 -52t60.5 -149zM805 210q0 34 -11.5 58.5t-31.5 40.5t-47.5 24t-60.5 8h-118v-272h117q69 0 110.5 36t41.5 105z" />
    <glyph glyph-name="afii10107" unicode="&#x45a;" horiz-adv-x="776" 
d="M741 159q0 -75 -45 -117t-139 -42h-188v238h-222v-238h-78v477h78v-176h222v176h78v-176h110q93 0 138.5 -38t45.5 -104zM660 153q0 48 -28.5 66.5t-77.5 18.5h-107v-175h106q51 0 79 20.5t28 69.5z" />
    <glyph glyph-name="afii10105" unicode="&#x458;" horiz-adv-x="214" 
d="M143 -2q0 -77 -29 -121.5t-80 -73.5l-38 55q18 13 31.5 26.5t21.5 29.5t12 36.5t4 47.5v479h78v-479zM155 610q0 -24 -15 -40.5t-36 -16.5t-36 16.5t-15 40.5q0 23 15 40t36 17t36 -17t15 -40z" />
    <glyph glyph-name="afii10054" unicode="&#x405;" horiz-adv-x="516" 
d="M479 175q0 -49 -17.5 -84.5t-47.5 -59t-69.5 -34.5t-84.5 -11q-34 0 -67.5 7.5t-64 21.5t-56 34.5t-42.5 46.5l63 47q29 -42 76 -63t96 -21q26 0 49.5 6.5t41 20t28 35.5t10.5 52q0 26 -10.5 46t-31.5 37t-52 32.5t-73 32.5q-32 12 -63 27.5t-56 37.5t-40.5 52t-15.5 70
q0 43 17.5 75t47 53.5t67 32t78.5 10.5q63 0 121 -25t94 -79l-61 -48q-26 36 -67.5 58.5t-84.5 22.5q-23 0 -45.5 -7t-40.5 -19.5t-29.5 -30t-11.5 -39.5q0 -21 8 -37t20.5 -28t28.5 -21t32 -17q12 -5 24.5 -10t25.5 -10q52 -22 90.5 -42.5t63.5 -44.5t37 -54.5t12 -72.5z
" />
    <glyph glyph-name="afii10057" unicode="&#x408;" horiz-adv-x="245" 
d="M164 43q0 -82 -51 -124.5t-138 -52.5l-14 67q60 10 91.5 35t31.5 73v626h80v-624z" />
    <glyph glyph-name="afii10062" unicode="&#x40e;" horiz-adv-x="543" 
d="M555 667q-45 -135 -103.5 -267.5t-121.5 -250.5q-16 -30 -33 -57.5t-38.5 -49.5t-49.5 -35t-66 -13h-59v69h36q18 0 36.5 3t36.5 15t36 37t36 69l-253 480h93l204 -399q19 38 41 87.5t44.5 103t43 107.5t35.5 101h82zM453 867q-1 -39 -17 -67t-39.5 -45.5t-52 -26
t-53.5 -8.5q-26 0 -54 8.5t-51.5 26t-39 45.5t-16.5 67h64q4 -23 15 -39t25 -25.5t29 -14t28 -4.5t28 4.5t29.5 14t25.5 25.5t15 39h64z" />
    <glyph glyph-name="afii10110" unicode="&#x45e;" horiz-adv-x="453" 
d="M209 -126q-18 -44 -50.5 -60t-67.5 -16q-23 0 -48.5 6.5t-39.5 12.5l22 57q11 -4 27.5 -7.5t33.5 -3.5q23 0 36 11t27 43l39 95l-188 465h88l141 -367l141 367h83zM389 701q-1 -39 -17 -67t-39.5 -45.5t-52 -26t-53.5 -8.5q-26 0 -54 8.5t-51.5 26t-39 45.5t-16.5 67h64
q4 -23 15 -39t25 -25.5t29 -14t28 -4.5t28 4.5t29.5 14t25.5 25.5t15 39h64z" />
    <glyph glyph-name="afii10145" unicode="&#x40f;" horiz-adv-x="655" 
d="M371 0v-140h-80v140h-206v667h81v-596h323v596h80v-667h-198z" />
    <glyph glyph-name="afii10193" unicode="&#x45f;" horiz-adv-x="536" 
d="M306 0v-108h-76v108h-157v477h78v-417h234v417h78v-477h-157z" />
    <glyph glyph-name="afii61352" unicode="&#x2116;" horiz-adv-x="1010" 
d="M518 0l-358 529v-529h-79v667h81l336 -497v497h79v-667h-59zM985 476q0 -35 -10.5 -69t-31.5 -61t-53 -43.5t-74 -16.5t-73.5 16.5t-52.5 43.5t-31.5 61.5t-10.5 70.5q0 35 10.5 69t31.5 60.5t52.5 43t73.5 16.5t74 -16.5t53 -43.5t31.5 -61t10.5 -70zM913 477
q0 25 -6 48t-18 41t-30 28.5t-43 10.5t-43 -10.5t-30 -28t-17.5 -40.5t-5.5 -48t6 -48.5t18 -41.5t30 -29t42 -11q25 0 43 10.5t30 28.5t18 41t6 49z" />
    <glyph glyph-name="afii10023" unicode="&#x401;" horiz-adv-x="519" 
d="M81 0v667h389v-69h-309v-214h221v-69h-222v-246h334v-69h-413zM248 812q0 -23 -14.5 -39.5t-34.5 -16.5q-21 0 -35.5 16.5t-14.5 39.5t14.5 39t35.5 16q20 0 34.5 -16t14.5 -39zM405 812q0 -23 -14.5 -39.5t-35.5 -16.5q-20 0 -34.5 16.5t-14.5 39.5t14.5 39t34.5 16
q21 0 35.5 -16t14.5 -39z" />
    <glyph glyph-name="afii10071" unicode="&#x451;" horiz-adv-x="508" 
d="M122 243q0 -90 41 -141t119 -51q45 0 76 22t50 54l51 -34q-26 -45 -67.5 -74.5t-111.5 -29.5q-54 0 -97 16.5t-73.5 48t-47 78.5t-16.5 109q0 57 15.5 102.5t43 78t67 50t87.5 17.5q53 0 92.5 -18t65.5 -50.5t39 -78t13 -99.5h-347zM382 304q-1 31 -12 54.5t-28 39
t-39 23t-44 7.5q-48 0 -82.5 -28.5t-47.5 -95.5h253zM227 646q0 -23 -14.5 -39.5t-34.5 -16.5q-21 0 -35.5 16.5t-14.5 39.5t14.5 39t35.5 16q20 0 34.5 -16t14.5 -39zM384 646q0 -23 -14.5 -39.5t-35.5 -16.5q-20 0 -34.5 16.5t-14.5 39.5t14.5 39t34.5 16q21 0 35.5 -16
t14.5 -39z" />
    <glyph glyph-name="afii10097" unicode="&#x44f;" horiz-adv-x="490" 
d="M30 0l118 187q-47 12 -77.5 48t-30.5 96q0 72 49.5 109t140.5 37h191v-477h-74v181h-123l-114 -181h-80zM118 332q0 -48 28.5 -69t79.5 -21h121v172h-121q-48 0 -78 -19.5t-30 -62.5z" />
    <glyph glyph-name="afii10065" unicode="&#x430;" horiz-adv-x="470" 
d="M334 0l-4 41q-25 -25 -57.5 -38.5t-71.5 -13.5q-31 0 -60.5 9.5t-52 28t-36.5 46.5t-14 65q0 51 27.5 84t69.5 52.5t93 27.5t99 8v6q0 60 -25.5 86t-73.5 26q-33 0 -60.5 -14.5t-46.5 -38.5l-54 38q29 39 68.5 57.5t99.5 18.5q80 0 124.5 -41t44.5 -137v-311h-70z
M327 249q-33 -1 -70 -5t-68.5 -15.5t-52 -33.5t-20.5 -58q0 -23 9 -39t22.5 -26.5t30 -15t32.5 -4.5q35 0 64.5 14.5t52.5 34.5v148z" />
    <glyph glyph-name="afii10066" unicode="&#x431;" horiz-adv-x="538" 
d="M492 227q0 -45 -14 -87.5t-42 -76t-70.5 -54t-98.5 -20.5q-58 0 -99.5 21t-68 58.5t-39 89t-12.5 112.5q0 90 14 155.5t42 109.5t71 68.5t100 32.5l143 20l9 -62l-135 -18q-51 -7 -80.5 -23t-46 -40t-24.5 -56t-16 -71q26 35 63.5 57t97.5 22q49 0 87.5 -18t65 -50
t40 -75.5t13.5 -94.5zM415 228q0 32 -9 63.5t-27 56t-45.5 39.5t-63.5 15t-63 -14.5t-45 -39t-26.5 -55.5t-8.5 -64q0 -32 9 -63.5t27 -56.5t44.5 -40.5t62.5 -15.5t63.5 15t45.5 40t27 56.5t9 63.5z" />
    <glyph glyph-name="afii10067" unicode="&#x432;" horiz-adv-x="491" 
d="M451 136q0 -33 -11.5 -58.5t-31.5 -42.5t-47.5 -26t-60.5 -9h-226v477h205q75 0 113 -30.5t38 -87.5q0 -45 -21.5 -75t-54.5 -38q19 -3 36.5 -9.5t31 -19.5t21.5 -32.5t8 -48.5zM375 137q0 32 -23 53t-68 21h-133v-148h141q16 0 31 3.5t26.5 12t18.5 23t7 35.5zM354 349
q0 65 -73 65h-130v-140h123q42 0 61 21.5t19 53.5z" />
    <glyph glyph-name="afii10068" unicode="&#x433;" horiz-adv-x="378" 
d="M378 477v-63h-231v-414h-78v477h309z" />
    <glyph glyph-name="afii10069" unicode="&#x434;" horiz-adv-x="544" 
d="M457 -108v108h-359v-108h-76v171h53l161 414h88l161 -414h48v-171h-76zM153 63h254l-127 342z" />
    <glyph glyph-name="afii10070" unicode="&#x435;" horiz-adv-x="508" 
d="M124 243q0 -88 41 -139t117 -51q44 0 75 21t51 53l51 -34q-26 -45 -69.5 -74.5t-113.5 -29.5q-108 0 -169 64t-61 188q0 57 15.5 102.5t43 78t67 50t87.5 17.5q53 0 93 -17.5t66 -50t38.5 -78t10.5 -100.5h-343zM380 304q-1 31 -12 54t-28 38t-38 22.5t-43 7.5
q-46 0 -80.5 -28t-47.5 -94h249z" />
    <glyph glyph-name="afii10072" unicode="&#x436;" horiz-adv-x="677" 
d="M0 0l199 275l-158 202h88l171 -221v221h77v-221l171 221h88l-158 -202l199 -275h-86l-165 225l-49 -58v-167h-77v167l-49 58l-165 -225h-86z" />
    <glyph glyph-name="afii10073" unicode="&#x437;" horiz-adv-x="431" 
d="M393 142q0 -75 -51 -114t-139 -39q-41 0 -71 8.5t-52.5 23t-38 34.5t-27.5 44l58 34q8 -16 18.5 -31.5t26 -27.5t37.5 -19t54 -7q56 0 83 22.5t27 61.5t-21 58t-63 24q-14 2 -36.5 2h-40.5v57q18 0 37.5 0.5t33.5 2.5q42 6 61 28t19 54q0 37 -29.5 54.5t-71.5 17.5
q-90 0 -121 -94l-60 28q25 63 68 94t118 31q81 0 125 -33t44 -90q0 -46 -23.5 -77t-66.5 -42q48 -6 75 -31t27 -74z" />
    <glyph glyph-name="afii10060" unicode="&#x40b;" horiz-adv-x="685" 
d="M530 0v244q0 63 -31.5 101t-100.5 38q-25 0 -48 -5.5t-43 -13.5t-35.5 -17.5t-25.5 -18.5v-328h-79v598h-167v69h423v-69h-177v-191q23 16 63 33t97 17q97 0 150.5 -52t53.5 -161v-244h-80z" />
    <glyph glyph-name="afii10108" unicode="&#x45b;" horiz-adv-x="539" 
d="M395 0v266q0 66 -27 97.5t-87 31.5q-38 0 -73.5 -17.5t-61.5 -36.5v-341h-77v554h-78v58h78v55h77v-55h149v-58h-149v-147q29 21 66 35.5t83 14.5q97 0 137.5 -49t40.5 -143v-265h-78z" />
    <glyph glyph-name="afii10061" unicode="&#x40c;" horiz-adv-x="560" 
d="M461 0l-231 347l-69 -71v-276h-80v667h80v-293l287 293h95l-257 -262l271 -405h-96zM252 710l-37 37l167 139l51 -52z" />
    <glyph glyph-name="afii10109" unicode="&#x45c;" horiz-adv-x="479" 
d="M390 0l-189 242l-55 -55v-187h-77v477h77v-199l193 199h98l-183 -188l225 -289h-89zM220 544l-37 37l167 139l51 -52z" />
    <glyph glyph-name="afii10102" unicode="&#x455;" horiz-adv-x="412" 
d="M382 131q0 -34 -13 -60.5t-36 -44.5t-54.5 -27.5t-68.5 -9.5q-71 0 -111 26t-64 66l60 37q17 -32 43.5 -49.5t71.5 -17.5q48 0 74 18t26 55q0 19 -6 33.5t-20.5 26.5t-38 22t-58.5 21q-72 23 -106 54t-34 84q0 29 12 52t34 39t51.5 24.5t64.5 8.5q58 0 97 -19.5t66 -55.5
l-54 -43q-20 24 -47 40t-61 16q-42 0 -66 -16.5t-24 -40.5q0 -15 7 -26t22 -20.5t39 -19.5t58 -23q67 -25 101.5 -58.5t34.5 -91.5z" />
    <glyph glyph-name="afii10074" unicode="&#x438;" horiz-adv-x="536" 
d="M386 0v357l-243 -357h-71v477h75v-362l242 362h72v-477h-75z" />
    <glyph glyph-name="afii10075" unicode="&#x439;" horiz-adv-x="536" 
d="M386 0v357l-243 -357h-71v477h75v-362l242 362h72v-477h-75zM437 701q-1 -39 -17 -67t-39.5 -45.5t-52 -26t-53.5 -8.5q-26 0 -54 8.5t-51.5 26t-39 45.5t-16.5 67h64q4 -23 15 -39t25 -25.5t29 -14t28 -4.5t28 4.5t29.5 14t25.5 25.5t15 39h64z" />
    <glyph glyph-name="afii10076" unicode="&#x43a;" horiz-adv-x="479" 
d="M390 0l-189 242l-55 -55v-187h-77v477h77v-199l193 199h98l-183 -188l225 -289h-89z" />
    <glyph glyph-name="afii10077" unicode="&#x43b;" horiz-adv-x="475" 
d="M475 0h-78l-160 389l-154 -389h-83l193 477h88z" />
    <glyph glyph-name="afii10078" unicode="&#x43c;" horiz-adv-x="627" 
d="M475 0v348l-153 -348h-18l-152 348v-348h-76v477h90l150 -349l148 349h89v-477h-78z" />
    <glyph glyph-name="afii10079" unicode="&#x43d;" horiz-adv-x="533" 
d="M385 0v217h-237v-217h-78v477h78v-197h237v197h78v-477h-78z" />
    <glyph glyph-name="afii10080" unicode="&#x43e;" horiz-adv-x="536" 
d="M490 239q0 -47 -14 -92t-41.5 -80t-69.5 -56.5t-97 -21.5t-96.5 21.5t-69.5 57t-42 81t-14 92.5t13.5 91.5t41.5 79.5t69.5 56t97.5 21q55 0 97 -21.5t69.5 -56.5t41.5 -80t14 -92zM413 240q0 34 -9 67.5t-27 60t-45.5 42.5t-63.5 16t-63 -16t-45 -42t-27 -59.5t-9 -67.5
q0 -35 9 -68.5t27 -60t45 -43t63 -16.5t63.5 16.5t45.5 43t27 60t9 67.5z" />
    <glyph glyph-name="afii10081" unicode="&#x43f;" horiz-adv-x="536" 
d="M383 0v412h-236v-412h-78v477h392v-477h-78z" />
    <glyph glyph-name="afii10082" unicode="&#x440;" horiz-adv-x="524" 
d="M478 244q0 -58 -18 -105t-49.5 -80.5t-75.5 -51.5t-95 -18q-56 0 -94 16v-194h-77v666h70l6 -35q31 25 65.5 36t72.5 11q53 0 90 -20t60.5 -54t34 -78.5t10.5 -92.5zM401 241q0 33 -7 66.5t-23 60t-42.5 43t-65.5 16.5q-32 0 -62 -14t-55 -37v-304q11 -8 32 -14.5
t47 -6.5q38 0 70.5 13t56 37t36.5 59.5t13 80.5z" />
    <glyph glyph-name="afii10083" unicode="&#x441;" horiz-adv-x="474" 
d="M448 102q-28 -58 -76.5 -85.5t-102.5 -27.5q-42 0 -82.5 15t-71.5 46t-50 77.5t-19 109.5q0 67 19 115t50 78.5t70 44.5t78 14q40 0 70.5 -12t52 -30t35 -38t19.5 -36l-57 -36q-23 48 -54.5 68t-65.5 20q-26 0 -51 -12.5t-44.5 -36.5t-31.5 -58.5t-12 -78.5t12 -78.5
t32 -58.5t47.5 -36.5t57.5 -12.5q34 0 66 19t55 64z" />
    <glyph glyph-name="afii10084" unicode="&#x442;" horiz-adv-x="393" 
d="M236 414v-414h-78v414h-153v63h383v-63h-152z" />
    <glyph glyph-name="afii10085" unicode="&#x443;" horiz-adv-x="453" 
d="M209 -126q-18 -44 -50.5 -60t-67.5 -16q-23 0 -48.5 6.5t-39.5 12.5l22 57q11 -4 27.5 -7.5t33.5 -3.5q23 0 36 11t27 43l39 95l-188 465h88l141 -367l141 367h83z" />
    <glyph glyph-name="afii10086" unicode="&#x444;" horiz-adv-x="660" 
d="M616 241q0 -59 -19 -103t-53 -74t-79.5 -46t-99.5 -18v-189h-71v189q-54 2 -99.5 18.5t-79 47t-52.5 74.5t-19 101t19 100t52 72.5t79 45.5t100 18v190h71v-190q54 -2 100 -17.5t79.5 -45t52.5 -73t19 -100.5zM540 241q0 43 -14 75t-38 53.5t-55.5 32.5t-67.5 13v-353
q35 2 67 14t56 34t38 54.5t14 76.5zM294 415q-36 -2 -67.5 -13.5t-55 -33t-37.5 -53t-14 -74.5q0 -44 14 -76.5t38 -54.5t55.5 -34t66.5 -14v353z" />
    <glyph glyph-name="afii10087" unicode="&#x445;" horiz-adv-x="414" 
d="M323 0l-116 181l-116 -181h-86l160 243l-153 234h85l110 -171l109 171h82l-153 -234l159 -243h-81z" />
    <glyph glyph-name="afii10088" unicode="&#x446;" horiz-adv-x="556" 
d="M448 -108v108h-370v477h77v-417h229v417h78v-417h54v-168h-68z" />
    <glyph glyph-name="afii10089" unicode="&#x447;" horiz-adv-x="517" 
d="M371 0v173q-33 -11 -70.5 -18t-79.5 -7q-78 0 -117.5 27.5t-48.5 81.5q-2 13 -3 30.5t-1 33.5v156h77v-156q0 -31 4 -51q8 -32 34.5 -44t71.5 -12q39 0 73 7t60 18v238h77v-477h-77z" />
    <glyph glyph-name="afii10090" unicode="&#x448;" horiz-adv-x="808" 
d="M84 0v477h77v-416h206v416h75v-416h206v416h77v-477h-641z" />
    <glyph glyph-name="afii10091" unicode="&#x449;" horiz-adv-x="828" 
d="M709 -108v108h-622v477h77v-416h203v416h74v-416h203v416h78v-416h54v-169h-67z" />
    <glyph glyph-name="afii10092" unicode="&#x44a;" horiz-adv-x="530" 
d="M490 170q0 -35 -11.5 -66t-35.5 -54t-60.5 -36.5t-87.5 -13.5h-193v414h-97v63h176v-146h114q51 0 87.5 -12t60.5 -34t35.5 -51.5t11.5 -63.5zM406 170q0 52 -28.5 75t-85.5 23h-111v-205h110q57 0 86 27.5t29 79.5z" />
    <glyph glyph-name="afii10093" unicode="&#x44b;" horiz-adv-x="677" 
d="M450 169q0 -35 -11 -65.5t-34 -53.5t-59 -36.5t-87 -13.5h-190v477h79v-146h111q51 0 87 -12.5t59 -34t34 -51.5t11 -64zM366 169q0 52 -26.5 75.5t-83.5 23.5h-108v-205h107q57 0 84 27t27 79zM527 0v477h77v-477h-77z" />
    <glyph glyph-name="afii10094" unicode="&#x44c;" horiz-adv-x="512" 
d="M472 169q0 -35 -11.5 -65.5t-35.5 -53.5t-60.5 -36.5t-87.5 -13.5h-198v477h79v-146h119q51 0 87.5 -12.5t60.5 -34t35.5 -51.5t11.5 -64zM388 169q0 52 -28.5 75.5t-85.5 23.5h-116v-205h115q115 0 115 106z" />
    <glyph glyph-name="afii10095" unicode="&#x44d;" horiz-adv-x="488" 
d="M442 239q0 -63 -17.5 -110t-48.5 -78t-73.5 -46.5t-91.5 -15.5q-64 0 -110.5 26t-76.5 82l57 36q47 -83 133 -83q69 0 108.5 42t44.5 123h-219v63h218q-4 37 -17.5 65t-33.5 46.5t-45 28t-52 9.5q-40 0 -75 -21t-55 -66l-59 33q8 19 24 39.5t40 37.5t56 28t72 11
q45 0 85.5 -13.5t70.5 -43.5t47.5 -77.5t17.5 -115.5z" />
    <glyph glyph-name="afii10096" unicode="&#x44e;" horiz-adv-x="737" 
d="M687 246q0 -53 -12.5 -99.5t-38 -81.5t-66 -55t-95.5 -21q-54 -1 -92.5 17t-64.5 49.5t-39.5 73t-16.5 88.5h-116v-217h-77v477h77v-197h118q5 43 19.5 81.5t40.5 66.5t63.5 44.5t88.5 16.5q58 0 98.5 -20t65.5 -53.5t36 -77.5t11 -92zM611 240q0 39 -7.5 72.5t-23.5 59
t-42 40t-62 14.5t-62 -14.5t-43.5 -39.5t-25.5 -59t-8 -72q0 -39 8.5 -73t25.5 -59.5t43 -40.5t62 -15t62 15t42 40.5t23.5 59.5t7.5 72z" />
    <glyph glyph-name="afii10103" unicode="&#x456;" horiz-adv-x="216" 
d="M69 0v477h78v-477h-78zM159 610q0 -24 -15 -40.5t-36 -16.5t-36 16.5t-15 40.5q0 23 15 40t36 17t36 -17t15 -40z" />
    <glyph glyph-name="kratka" horiz-adv-x="460" 
d="M389 701q-1 -39 -17 -67t-39.5 -45.5t-52 -26t-53.5 -8.5q-26 0 -54 8.5t-51.5 26t-39 45.5t-16.5 67h64q4 -23 15 -39t25 -25.5t29 -14t28 -4.5t28 4.5t29.5 14t25.5 25.5t15 39h64z" />
    <glyph glyph-name="uni0406" unicode="&#x406;" horiz-adv-x="242" 
d="M81 0v667h80v-667h-80z" />
    <glyph glyph-name="afii10050" unicode="&#x490;" horiz-adv-x="479" 
d="M161 598v-598h-80v667h313v82h76v-151h-309z" />
    <glyph glyph-name="afii10098" unicode="&#x491;" horiz-adv-x="378" 
d="M304 477v65h74v-128h-231v-414h-78v477h235z" />
    <glyph glyph-name="afii00208" unicode="&#x2015;" horiz-adv-x="1106" 
d="M0 226v72h1106v-72h-1106z" />
    <glyph glyph-name="cdotaccent" unicode="&#x10b;" horiz-adv-x="474" 
d="M448 102q-28 -58 -76.5 -85.5t-102.5 -27.5q-42 0 -82.5 15t-71.5 46t-50 77.5t-19 109.5q0 67 19 115t50 78.5t70 44.5t78 14q40 0 70.5 -12t52 -30t35 -38t19.5 -36l-57 -36q-21 48 -53 69t-67 21q-27 0 -52 -12.5t-45 -36.5t-32 -59t-12 -80t12 -80t32.5 -59t48 -36.5
t58.5 -12.5q35 0 67.5 20t53.5 65zM317 646q0 -26 -15.5 -43.5t-38.5 -17.5t-38.5 17.5t-15.5 43.5q0 25 15.5 42.5t38.5 17.5t38.5 -17.5t15.5 -42.5z" />
    <glyph glyph-name="ebreve" unicode="&#x115;" horiz-adv-x="508" 
d="M122 243q0 -90 41 -141t119 -51q45 0 76 22t50 54l51 -34q-26 -45 -67.5 -74.5t-111.5 -29.5q-54 0 -97 16.5t-73.5 48t-47 78.5t-16.5 109q0 57 15.5 102.5t43 78t67 50t87.5 17.5q53 0 92.5 -18t65.5 -50.5t39 -78t13 -99.5h-347zM382 304q-1 31 -12 54.5t-28 39
t-39 23t-44 7.5q-48 0 -82.5 -28.5t-47.5 -95.5h253zM395 682q-3 -36 -16.5 -60.5t-34 -39.5t-45 -21.5t-48.5 -6.5t-48 6.5t-43.5 21.5t-32.5 39.5t-14 60.5h63q3 -22 11 -36t18.5 -22.5t23.5 -11.5t26 -3q26 0 49 14.5t31 58.5h60z" />
    <glyph glyph-name="gdotaccent" unicode="&#x121;" horiz-adv-x="520" 
d="M509 -46q0 -39 -18 -68t-49 -48.5t-72.5 -29.5t-87.5 -10q-115 0 -178.5 35t-63.5 110q0 77 70 114q-18 8 -30 22t-12 36q0 28 21.5 46t53.5 26q-12 6 -27.5 17t-29 28t-22.5 39.5t-9 52.5q0 42 17.5 73t46.5 51.5t65.5 30.5t74.5 10q30 0 58.5 -5.5t54.5 -17.5l71 71
l49 -45l-65 -65q18 -20 29 -45.5t11 -57.5q0 -42 -17.5 -73.5t-46.5 -52.5t-67 -31t-78 -10q-13 0 -32.5 2t-30.5 4q-16 -2 -30 -10.5t-14 -22.5q0 -16 23.5 -23.5t85.5 -8.5q60 -1 106 -8t78 -23t48.5 -43.5t16.5 -69.5zM390 325q0 25 -11 44.5t-29 32t-41.5 19t-48.5 6.5
q-24 0 -47.5 -6.5t-41.5 -19t-29 -32t-11 -45.5q0 -21 8.5 -40t25 -34t39.5 -24t52 -9q24 0 47.5 5.5t43 18t31.5 33.5t12 51zM438 -50q0 21 -8 36t-28.5 25t-55 15t-87.5 6q-67 2 -92 6q-26 -13 -42 -34t-16 -54q0 -23 13 -40t36 -28.5t54.5 -17.5t69.5 -6q69 0 112.5 25
t43.5 67zM318 646q0 -26 -15.5 -43.5t-38.5 -17.5t-38.5 17.5t-15.5 43.5q0 25 15.5 42.5t38.5 17.5t38.5 -17.5t15.5 -42.5z" />
    <glyph glyph-name="gcircumflex" unicode="&#x11d;" horiz-adv-x="520" 
d="M509 -46q0 -39 -18 -68t-49 -48.5t-72.5 -29.5t-87.5 -10q-115 0 -178.5 35t-63.5 110q0 77 70 114q-18 8 -30 22t-12 36q0 28 21.5 46t53.5 26q-12 6 -27.5 17t-29 28t-22.5 39.5t-9 52.5q0 42 17.5 73t46.5 51.5t65.5 30.5t74.5 10q30 0 58.5 -5.5t54.5 -17.5l71 71
l49 -45l-65 -65q18 -20 29 -45.5t11 -57.5q0 -42 -17.5 -73.5t-46.5 -52.5t-67 -31t-78 -10q-13 0 -32.5 2t-30.5 4q-16 -2 -30 -10.5t-14 -22.5q0 -16 23.5 -23.5t85.5 -8.5q60 -1 106 -8t78 -23t48.5 -43.5t16.5 -69.5zM390 325q0 25 -11 44.5t-29 32t-41.5 19t-48.5 6.5
q-24 0 -47.5 -6.5t-41.5 -19t-29 -32t-11 -45.5q0 -21 8.5 -40t25 -34t39.5 -24t52 -9q24 0 47.5 5.5t43 18t31.5 33.5t12 51zM438 -50q0 21 -8 36t-28.5 25t-55 15t-87.5 6q-67 2 -92 6q-26 -13 -42 -34t-16 -54q0 -23 13 -40t36 -28.5t54.5 -17.5t69.5 -6q69 0 112.5 25
t43.5 67zM366 544l-106 112l-105 -112l-45 30l126 144h48l126 -144z" />
    <glyph glyph-name="hcircumflex" unicode="&#x125;" horiz-adv-x="539" 
d="M395 0v298q0 66 -27 97.5t-87 31.5q-38 0 -73.5 -17.5t-61.5 -36.5v-373h-77v667h77v-228q29 21 66 35.5t83 14.5q97 0 137.5 -49t40.5 -143v-297h-78zM348 710l-106 112l-105 -112l-45 30l126 144h48l126 -144z" />
    <glyph glyph-name="hbar" unicode="&#x127;" horiz-adv-x="539" 
d="M3 609h66v58h77v-58h199v-62h-199v-108q29 21 66 35.5t83 14.5q97 0 137.5 -49t40.5 -143v-297h-78v298q0 66 -27 97.5t-87 31.5q-38 0 -73.5 -17.5t-61.5 -36.5v-373h-77v547h-66v62z" />
    <glyph glyph-name="itilde" unicode="&#x129;" horiz-adv-x="215" 
d="M69 0v477h77v-477h-77zM282 669q-16 -46 -43 -72t-62 -26q-19 0 -37 8.5t-35 19.5q-11 6 -29 17.5t-34 11.5q-17 0 -30.5 -13.5t-27.5 -45.5l-49 23q14 45 41.5 72t62.5 27q22 0 43 -11.5t41 -23.5q9 -6 23 -14t28 -8q15 0 30 13t29 46z" />
    <glyph glyph-name="ibreve" unicode="&#x12d;" horiz-adv-x="215" 
d="M69 0v477h77v-477h-77zM250 682q-3 -36 -16.5 -60.5t-34 -39.5t-45 -21.5t-48.5 -6.5t-48 6.5t-43.5 21.5t-32.5 39.5t-14 60.5h63q3 -22 11 -36t18.5 -22.5t23.5 -11.5t26 -3q26 0 49 14.5t31 58.5h60z" />
    <glyph glyph-name="jcircumflex" unicode="&#x135;" horiz-adv-x="214" 
d="M143 -2q0 -77 -29 -121.5t-80 -73.5l-38 55q18 13 31.5 26.5t21.5 29.5t12 36.5t4 47.5v479h78v-479zM214 544l-106 112l-105 -112l-45 30l126 144h48l126 -144z" />
    <glyph glyph-name="kgreenlandic" unicode="&#x138;" horiz-adv-x="477" 
d="M390 0l-168 228l-76 -89v-139h-77v477h77v-235l201 235h90l-163 -192l205 -285h-89z" />
    <glyph glyph-name="ldot" unicode="&#x140;" horiz-adv-x="307" 
d="M69 0v667h77v-667h-77zM315 363q0 -26 -15.5 -43.5t-38.5 -17.5t-38.5 17.5t-15.5 43.5q0 25 15.5 42.5t38.5 17.5t38.5 -17.5t15.5 -42.5z" />
    <glyph glyph-name="napostrophe" unicode="&#x149;" horiz-adv-x="585" 
d="M442 0v299q0 60 -27 94t-88 34q-38 0 -74.5 -16.5t-62.5 -36.5v-374h-77v477h71l5 -38q29 22 68.5 36t82.5 14q98 0 138.5 -48.5t40.5 -143.5v-297h-77zM203 642q0 -21 -9 -38.5t-24 -31.5t-33.5 -24.5t-36.5 -17.5l-9 25q14 5 30.5 16t24.5 24q-8 5 -17 16.5t-9 32.5
q0 20 10.5 34.5t30.5 14.5q21 0 31.5 -14t10.5 -37z" />
    <glyph glyph-name="obreve" unicode="&#x14f;" horiz-adv-x="536" 
d="M490 239q0 -47 -14 -92t-41.5 -80t-69.5 -56.5t-97 -21.5t-96.5 21.5t-69.5 57t-42 81t-14 92.5t13.5 91.5t41.5 79.5t69.5 56t97.5 21q55 0 97 -21.5t69.5 -56.5t41.5 -80t14 -92zM415 240q0 35 -9 69t-27.5 60.5t-46 42.5t-64.5 16t-64.5 -16t-45.5 -42.5t-27 -60
t-9 -68.5q0 -36 9 -70t27.5 -60.5t46 -43t63.5 -16.5q37 0 64.5 16.5t46 43t27.5 60.5t9 69zM409 682q-3 -36 -16.5 -60.5t-34 -39.5t-45 -21.5t-48.5 -6.5t-48 6.5t-43.5 21.5t-32.5 39.5t-14 60.5h63q3 -22 11 -36t18.5 -22.5t23.5 -11.5t26 -3q26 0 49 14.5t31 58.5h60z
" />
    <glyph glyph-name="scircumflex" unicode="&#x15d;" horiz-adv-x="412" 
d="M380 131q0 -34 -13 -60.5t-35.5 -44.5t-53.5 -27.5t-68 -9.5q-71 0 -111 26t-64 66l60 37q17 -32 43.5 -49.5t71.5 -17.5q98 0 98 70q0 21 -6.5 35.5t-21 26t-37.5 22t-56 22.5q-36 12 -61 25.5t-41 29.5t-23.5 36t-7.5 47q0 58 42.5 91t112.5 33q58 0 97 -19.5t66 -55.5
l-54 -43q-20 24 -47 40t-61 16q-42 0 -62.5 -16.5t-20.5 -40.5q0 -15 5.5 -26.5t19.5 -21t36.5 -19t57.5 -21.5q66 -23 100 -58t34 -93zM313 544l-106 112l-105 -112l-45 30l126 144h48l126 -144z" />
    <glyph glyph-name="tbar" unicode="&#x167;" horiz-adv-x="328" 
d="M322 26q-23 -17 -45.5 -27t-63.5 -10q-54 0 -83 27.5t-29 84.5v131h-82v62h82v120h-82v63h82v130h77v-130h125v-63h-126v-120h126v-62h-126v-123q0 -35 13.5 -46.5t34.5 -11.5q19 0 36 8t31 19z" />
    <glyph glyph-name="utilde" unicode="&#x169;" horiz-adv-x="538" 
d="M398 0l-5 37q-29 -22 -63 -35t-85 -13q-94 0 -136.5 46t-42.5 140v302h77v-306q0 -63 29 -91.5t86 -28.5q37 0 73.5 15.5t59.5 37.5v373h78v-477h-71zM452 669q-16 -46 -43 -72t-62 -26q-19 0 -37 8.5t-35 19.5q-11 6 -29 17.5t-34 11.5q-17 0 -30.5 -13.5t-27.5 -45.5
l-49 23q14 45 41.5 72t62.5 27q22 0 43 -11.5t41 -23.5q9 -6 23 -14t28 -8q15 0 30 13t29 46z" />
    <glyph glyph-name="ubreve" unicode="&#x16d;" horiz-adv-x="538" 
d="M398 0l-5 37q-29 -22 -63 -35t-85 -13q-94 0 -136.5 46t-42.5 140v302h77v-306q0 -63 29 -91.5t86 -28.5q37 0 73.5 15.5t59.5 37.5v373h78v-477h-71zM418 682q-3 -36 -16.5 -60.5t-34 -39.5t-45 -21.5t-48.5 -6.5t-48 6.5t-43.5 21.5t-32.5 39.5t-14 60.5h63
q3 -22 11 -36t18.5 -22.5t23.5 -11.5t26 -3q26 0 49 14.5t31 58.5h60z" />
    <glyph glyph-name="wcircumflex" unicode="&#x175;" horiz-adv-x="661" 
d="M503 0h-60l-113 344l-112 -344h-60l-158 477h83l108 -359l117 359h44l118 -359l108 359h83zM436 544l-106 112l-105 -112l-45 30l126 144h48l126 -144z" />
    <glyph glyph-name="ycircumflex" unicode="&#x177;" horiz-adv-x="453" 
d="M209 -126q-18 -44 -50.5 -60t-67.5 -16q-23 0 -48.5 6.5t-39.5 12.5l22 57q11 -4 27.5 -7.5t33.5 -3.5q23 0 36 11t27 43l39 95l-188 465h88l141 -367l141 367h83zM332 544l-106 112l-105 -112l-45 30l126 144h48l126 -144z" />
    <glyph glyph-name="Cdotaccent" unicode="&#x10a;" horiz-adv-x="569" 
d="M541 121q-13 -24 -32 -48t-45 -43t-60 -31t-77 -12q-59 0 -109.5 19.5t-88 61t-59 106.5t-21.5 157q0 93 23 159.5t60.5 108.5t85 61.5t96.5 19.5q76 0 135 -37t88 -100l-65 -39q-9 18 -23.5 36.5t-34 33t-43 24t-50.5 9.5q-88 0 -137.5 -72t-49.5 -205q0 -65 15 -115.5
t41 -85t61.5 -52t76.5 -17.5q29 0 51.5 8t41 21.5t33 32t26.5 38.5zM372 812q0 -26 -15.5 -43.5t-38.5 -17.5t-38.5 17.5t-15.5 43.5q0 25 15.5 42.5t38.5 17.5t38.5 -17.5t15.5 -42.5z" />
    <glyph glyph-name="Ebreve" unicode="&#x114;" horiz-adv-x="514" 
d="M81 0v667h389v-69h-309v-214h221v-69h-222v-246h334v-69h-413zM420 848q-3 -36 -16.5 -60.5t-34 -39.5t-45 -21.5t-48.5 -6.5t-48 6.5t-43.5 21.5t-32.5 39.5t-14 60.5h63q3 -22 11 -36t18.5 -22.5t23.5 -11.5t26 -3q26 0 49 14.5t31 58.5h60z" />
    <glyph glyph-name="Gdotaccent" unicode="&#x120;" horiz-adv-x="597" 
d="M547 25q-15 -6 -37 -13t-50 -12.5t-60 -9t-66 -3.5q-59 0 -110.5 19.5t-90.5 61t-61.5 106.5t-22.5 157q0 94 22.5 160t60 108t86 61.5t100.5 19.5q45 0 79 -9t60 -26t45 -41t34 -54l-64 -39q-23 45 -58.5 71.5t-95.5 26.5q-35 0 -68.5 -16t-59 -50t-41 -87t-15.5 -126
q0 -65 16 -116t43.5 -86t64 -53t77.5 -18q45 0 78 5.5t54 12.5v174h-110v70h190v-294zM382 812q0 -26 -15.5 -43.5t-38.5 -17.5t-38.5 17.5t-15.5 43.5q0 25 15.5 42.5t38.5 17.5t38.5 -17.5t15.5 -42.5z" />
    <glyph glyph-name="Gcircumflex" unicode="&#x11c;" horiz-adv-x="597" 
d="M547 25q-15 -6 -37 -13t-50 -12.5t-60 -9t-66 -3.5q-59 0 -110.5 19.5t-90.5 61t-61.5 106.5t-22.5 157q0 94 22.5 160t60 108t86 61.5t100.5 19.5q45 0 79 -9t60 -26t45 -41t34 -54l-64 -39q-23 45 -58.5 71.5t-95.5 26.5q-35 0 -68.5 -16t-59 -50t-41 -87t-15.5 -126
q0 -65 16 -116t43.5 -86t64 -53t77.5 -18q45 0 78 5.5t54 12.5v174h-110v70h190v-294zM434 710l-106 112l-105 -112l-45 30l126 144h48l126 -144z" />
    <glyph glyph-name="Hcircumflex" unicode="&#x124;" horiz-adv-x="655" 
d="M495 0v307h-334v-307h-80v667h80v-289h334v289h79v-667h-79zM445 710l-106 112l-105 -112l-45 30l126 144h48l126 -144z" />
    <glyph glyph-name="Hbar" unicode="&#x126;" horiz-adv-x="655" 
d="M-9 550h90v117h80v-117h334v117h79v-117h89v-62h-89v-488h-79v307h-334v-307h-80v488h-90v62zM495 378v110h-334v-110h334z" />
    <glyph glyph-name="Itilde" unicode="&#x128;" horiz-adv-x="242" 
d="M81 0v667h80v-667h-80zM296 835q-16 -46 -43 -72t-62 -26q-19 0 -37 8.5t-35 19.5q-11 6 -29 17.5t-34 11.5q-17 0 -30.5 -13.5t-27.5 -45.5l-49 23q14 45 41.5 72t62.5 27q22 0 43 -11.5t41 -23.5q9 -6 23 -14t28 -8q15 0 30 13t29 46z" />
    <glyph glyph-name="Ibreve" unicode="&#x12c;" horiz-adv-x="242" 
d="M81 0v667h80v-667h-80zM263 848q-3 -36 -16.5 -60.5t-34 -39.5t-45 -21.5t-48.5 -6.5t-48 6.5t-43.5 21.5t-32.5 39.5t-14 60.5h63q3 -22 11 -36t18.5 -22.5t23.5 -11.5t26 -3q26 0 49 14.5t31 58.5h60z" />
    <glyph glyph-name="Jcircumflex" unicode="&#x134;" horiz-adv-x="245" 
d="M164 43q0 -82 -51 -124.5t-138 -52.5l-14 67q60 10 91.5 35t31.5 73v626h80v-624zM230 710l-106 112l-105 -112l-45 30l126 144h48l126 -144z" />
    <glyph glyph-name="Ldot" unicode="&#x13f;" horiz-adv-x="479" 
d="M81 0v667h80v-598h309v-69h-389zM414 363q0 -26 -15.5 -43.5t-38.5 -17.5t-38.5 17.5t-15.5 43.5q0 25 15.5 42.5t38.5 17.5t38.5 -17.5t15.5 -42.5z" />
    <glyph glyph-name="Obreve" unicode="&#x14e;" horiz-adv-x="661" 
d="M612 334q0 -65 -16.5 -127.5t-51 -111t-87.5 -78.5t-126 -30q-74 0 -127 30t-87.5 78.5t-51 111t-16.5 127.5t16.5 127t51 111t87.5 78.5t127 29.5q73 0 126 -29.5t87.5 -78.5t51 -111t16.5 -127zM528 334q0 51 -11.5 100.5t-35.5 88.5t-61.5 62.5t-88.5 23.5
t-88.5 -23.5t-62 -62.5t-36 -88.5t-11.5 -100.5q0 -52 12 -101.5t36.5 -88.5t61.5 -62.5t88 -23.5t88 23.5t61 62.5t36 88.5t12 101.5zM471 848q-3 -36 -16.5 -60.5t-34 -39.5t-45 -21.5t-48.5 -6.5t-48 6.5t-43.5 21.5t-32.5 39.5t-14 60.5h63q3 -22 11 -36t18.5 -22.5
t23.5 -11.5t26 -3q26 0 49 14.5t31 58.5h60z" />
    <glyph glyph-name="Scircumflex" unicode="&#x15c;" horiz-adv-x="516" 
d="M479 181q0 -51 -17.5 -88t-47.5 -61t-69.5 -35t-84.5 -11q-34 0 -67.5 7.5t-64 21.5t-56 34.5t-42.5 46.5l63 47q29 -42 76 -63t96 -21q26 0 49.5 6.5t41 20t28 35.5t10.5 52q0 28 -13 49.5t-35 38.5t-50 30.5t-58 26.5q-34 15 -67 30.5t-59.5 37.5t-43 51t-16.5 71
q0 43 17.5 75t47 53.5t67 32t78.5 10.5q63 0 121 -25t94 -79l-61 -48q-26 36 -66.5 58.5t-88.5 22.5q-59 0 -91.5 -26t-32.5 -70q0 -25 11.5 -42.5t32 -32t49.5 -27.5t65 -29q34 -15 67 -32t59 -40t42 -54t16 -74zM374 710l-106 112l-105 -112l-45 30l126 144h48l126 -144z
" />
    <glyph glyph-name="Tbar" unicode="&#x166;" horiz-adv-x="511" 
d="M57 357h159v241h-207v69h493v-69h-207v-241h163v-62h-163v-295h-79v295h-159v62z" />
    <glyph glyph-name="Utilde" unicode="&#x168;" horiz-adv-x="647" 
d="M570 223q0 -59 -20.5 -103t-55 -73.5t-79.5 -44.5t-94 -15q-52 0 -96.5 15t-77.5 44.5t-51.5 73.5t-18.5 103v444h80v-429q0 -85 44 -132.5t122 -47.5q79 0 123 46t44 134v429h80v-444zM504 835q-16 -46 -43 -72t-62 -26q-19 0 -37 8.5t-35 19.5q-11 6 -29 17.5t-34 11.5
q-17 0 -30.5 -13.5t-27.5 -45.5l-49 23q14 45 41.5 72t62.5 27q22 0 43 -11.5t41 -23.5q9 -6 23 -14t28 -8q15 0 30 13t29 46z" />
    <glyph glyph-name="Ubreve" unicode="&#x16c;" horiz-adv-x="647" 
d="M570 223q0 -59 -20.5 -103t-55 -73.5t-79.5 -44.5t-94 -15q-52 0 -96.5 15t-77.5 44.5t-51.5 73.5t-18.5 103v444h80v-429q0 -85 44 -132.5t122 -47.5q79 0 123 46t44 134v429h80v-444zM474 848q-3 -36 -16.5 -60.5t-34 -39.5t-45 -21.5t-48.5 -6.5t-48 6.5t-43.5 21.5
t-32.5 39.5t-14 60.5h63q3 -22 11 -36t18.5 -22.5t23.5 -11.5t26 -3q26 0 49 14.5t31 58.5h60z" />
    <glyph glyph-name="Wcircumflex" unicode="&#x174;" horiz-adv-x="751" 
d="M583 0h-48l-160 497l-159 -497h-48l-168 667h81l123 -471l150 471h42l152 -471l121 471h82zM483 710l-106 112l-105 -112l-45 30l126 144h48l126 -144z" />
    <glyph glyph-name="Ycircumflex" unicode="&#x176;" horiz-adv-x="543" 
d="M307 321v-321h-80v320l-227 347h91l178 -270l187 270h87zM382 710l-106 112l-105 -112l-45 30l126 144h48l126 -144z" />
    <glyph glyph-name="longs" unicode="&#x17f;" horiz-adv-x="293" 
d="M322 595q-17 8 -37.5 14.5t-46.5 6.5q-17 0 -30 -4t-22 -15.5t-13.5 -32t-4.5 -53.5v-511h-78v512q0 46 10.5 78t30 52t45.5 29t58 9q38 0 64.5 -7.5t46.5 -18.5z" />
    <glyph glyph-name="eng" unicode="&#x14b;" horiz-adv-x="541" 
d="M475 -2q0 -77 -29 -121.5t-80 -73.5l-38 55q18 13 31.5 26.5t22 29.5t12.5 36.5t4 47.5v301q0 60 -27 94t-88 34q-38 0 -74.5 -16.5t-62.5 -36.5v-374h-77v477h71l5 -38q29 22 68.5 36t82.5 14q98 0 138.5 -48.5t40.5 -143.5v-299z" />
    <glyph glyph-name="Eng" unicode="&#x14a;" horiz-adv-x="658" 
d="M577 -2q0 -77 -29 -121.5t-80 -73.5l-38 55q18 13 31.5 26.5t22 29.5t12.5 36.5t4 47.5v28l-340 503v-529h-79v667h81l336 -497v497h79v-669z" />
    <glyph glyph-name="IJ" unicode="&#x132;" horiz-adv-x="487" 
d="M81 0v667h80v-667h-80zM406 43q0 -82 -51 -124.5t-138 -52.5l-14 67q60 10 91.5 35t31.5 73v626h80v-624z" />
    <glyph glyph-name="ij" unicode="&#x133;" horiz-adv-x="425" 
d="M159 610q0 -24 -15 -40.5t-36 -16.5t-36 16.5t-15 40.5q0 23 15 40t36 17t36 -17t15 -40zM69 0v477h78v-477h-78zM366 610q0 -24 -15 -40.5t-36 -16.5t-36 16.5t-15 40.5q0 23 15 40t36 17t36 -17t15 -40zM354 -2q0 -77 -29 -121.5t-80 -73.5l-38 55q18 13 31.5 26.5
t21.5 29.5t12 36.5t4 47.5v479h78v-479z" />
    <glyph glyph-name="uni0394" unicode="&#x394;" horiz-adv-x="608" 
d="M10 0l260 667h58l270 -667h-588zM297 547l-179 -482h368z" />
    <glyph glyph-name="uni03A9" unicode="&#x3a9;" horiz-adv-x="692" 
d="M406 0v69q29 19 55.5 48t47 65.5t32.5 80t12 91.5q0 58 -14 105t-40.5 80.5t-65 51.5t-87.5 18t-88 -19t-66.5 -53.5t-42.5 -82.5t-15 -106q0 -48 13.5 -90t35 -77.5t48.5 -63.5t54 -48v-69h-234v69h137q-24 20 -48.5 46.5t-44.5 61t-32.5 77.5t-12.5 96q0 69 20.5 129
t59 104.5t93.5 70.5t123 26q67 0 121 -24t91.5 -66t57.5 -100t20 -127q0 -54 -12 -99t-31.5 -81.5t-44.5 -64.5t-50 -49h139v-69h-231z" />
    <glyph glyph-name="dotlessj" unicode="&#x237;" horiz-adv-x="214" 
d="M143 -2q0 -77 -29 -121.5t-80 -73.5l-38 55q18 13 31.5 26.5t21.5 29.5t12 36.5t4 47.5v479h78v-479z" />
    <glyph glyph-name="uni03BC" unicode="&#x3bc;" horiz-adv-x="574" 
d="M483 118q0 -34 6.5 -50t30.5 -16q15 0 27 4l12 -56q-11 -5 -26.5 -8t-25.5 -3q-34 0 -56.5 12.5t-34.5 46.5q-30 -31 -63 -45t-84 -14q-37 0 -66.5 11.5t-48.5 34.5v-224h-74v666h78v-304q0 -66 30 -94t87 -28q46 0 77 18.5t44 44.5q7 14 8 33t1 36v294h78v-359z" />
    <glyph glyph-name="uni02C9" unicode="&#x2c9;" horiz-adv-x="442" 
d="M74 590v62h294v-62h-294z" />
    <glyph glyph-name="estimated" unicode="&#x212e;" horiz-adv-x="647" 
d="M143 255q-6 0 -6 -8v-129q0 -10 4 -18.5t10 -15.5q0 -2 2 -2q33 -32 76 -49t92 -17q57 0 104.5 23t82.5 63h42q-39 -47 -98.5 -74.5t-130.5 -27.5q-60 0 -113 20.5t-93 56t-63 83.5t-23 102t23 101.5t63 83t93 56t113 20.5q61 0 114.5 -21t92.5 -57.5t61.5 -85.5
t22.5 -104h-469zM492 440q-35 34 -79 51.5t-92 17.5q-99 0 -170 -69q-6 -7 -10 -16t-4 -18v-131q0 -7 6 -7h354q7 0 7 7v131q0 9 -3.5 18t-8.5 16z" />
    <glyph glyph-name="wgrave" unicode="&#x1e81;" horiz-adv-x="661" 
d="M503 0h-60l-113 344l-112 -344h-60l-158 477h83l108 -359l117 359h44l118 -359l108 359h83zM403 544l-182 124l51 52l167 -139z" />
    <glyph glyph-name="wacute" unicode="&#x1e83;" horiz-adv-x="661" 
d="M503 0h-60l-113 344l-112 -344h-60l-158 477h83l108 -359l117 359h44l118 -359l108 359h83zM258 544l-37 37l167 139l51 -52z" />
    <glyph glyph-name="wdieresis" unicode="&#x1e85;" horiz-adv-x="661" 
d="M503 0h-60l-113 344l-112 -344h-60l-158 477h83l108 -359l117 359h44l118 -359l108 359h83zM466 646q0 -23 -14.5 -39.5t-35.5 -16.5q-20 0 -34.5 16.5t-14.5 39.5t14.5 39t34.5 16q21 0 35.5 -16t14.5 -39zM293 646q0 -23 -14.5 -39.5t-34.5 -16.5q-21 0 -35.5 16.5
t-14.5 39.5t14.5 39t35.5 16q20 0 34.5 -16t14.5 -39z" />
    <glyph glyph-name="ygrave" unicode="&#x1ef3;" horiz-adv-x="453" 
d="M209 -126q-18 -44 -50.5 -60t-67.5 -16q-23 0 -48.5 6.5t-39.5 12.5l22 57q11 -4 27.5 -7.5t33.5 -3.5q23 0 36 11t27 43l39 95l-188 465h88l141 -367l141 367h83zM282 544l-182 124l51 52l167 -139z" />
    <glyph glyph-name="Wgrave" unicode="&#x1e80;" horiz-adv-x="751" 
d="M583 0h-48l-160 497l-159 -497h-48l-168 667h81l123 -471l150 471h42l152 -471l121 471h82zM448 710l-182 124l51 52l167 -139z" />
    <glyph glyph-name="Wacute" unicode="&#x1e82;" horiz-adv-x="751" 
d="M583 0h-48l-160 497l-159 -497h-48l-168 667h81l123 -471l150 471h42l152 -471l121 471h82zM313 710l-37 37l167 139l51 -52z" />
    <glyph glyph-name="Wdieresis" unicode="&#x1e84;" horiz-adv-x="751" 
d="M583 0h-48l-160 497l-159 -497h-48l-168 667h81l123 -471l150 471h42l152 -471l121 471h82zM511 812q0 -23 -14.5 -39.5t-35.5 -16.5q-20 0 -34.5 16.5t-14.5 39.5t14.5 39t34.5 16q21 0 35.5 -16t14.5 -39zM338 812q0 -23 -14.5 -39.5t-34.5 -16.5q-21 0 -35.5 16.5
t-14.5 39.5t14.5 39t35.5 16q20 0 34.5 -16t14.5 -39z" />
    <glyph glyph-name="Ygrave" unicode="&#x1ef2;" horiz-adv-x="543" 
d="M307 321v-321h-80v320l-227 347h91l178 -270l187 270h87zM341 710l-182 124l51 52l167 -139z" />
    <glyph glyph-name="commaaccent" unicode="&#xf6c3;" horiz-adv-x="442" 
d="M221 -174h-61l51 130h82z" />
    <glyph glyph-name="uni00AD" unicode="&#xad;" horiz-adv-x="307" 
d="M45 225v71h217v-71h-217z" />
    <glyph glyph-name="revcommaaccent" horiz-adv-x="442" 
d="M230 569h-82l72 130h61z" />
    <glyph glyph-name="one.alt" unicode="&#xf801;" horiz-adv-x="370" 
d="M210 0v569l-150 -96l-39 55l200 132h70v-660h-81z" />
    <glyph glyph-name="two.alt" unicode="&#xf802;" horiz-adv-x="464" 
d="M39 0v47q55 63 105 121t92 112q24 31 43 57.5t32 51t19.5 48t6.5 49.5q0 57 -29.5 86.5t-77.5 29.5q-91 0 -149 -100l-63 37q35 64 88 99t129 35q43 0 77.5 -13t59 -36.5t38 -56t13.5 -71.5q0 -65 -32 -122.5t-76 -113.5q-39 -51 -81 -98.5t-84 -93.5h290v-68h-401z" />
    <glyph glyph-name="three.alt" unicode="&#xf803;" horiz-adv-x="500" 
d="M451 185q0 -48 -19 -84.5t-50 -62t-71 -38.5t-82 -13q-31 0 -61 7t-57.5 22t-50.5 37.5t-39 52.5l63 39q26 -46 64.5 -67t78.5 -21q27 0 52.5 9t45 25.5t31 40t11.5 52.5q0 31 -12 54.5t-31.5 39.5t-46 24.5t-54.5 10.5v60q25 2 49 10t43 23t30 36t11 49q0 25 -10 45.5
t-27 34.5t-39 21.5t-46 7.5q-42 0 -76.5 -22.5t-53.5 -60.5l-63 39q29 57 84 87t118 30q38 0 73.5 -12.5t63 -35t44 -55t16.5 -72.5q0 -58 -27.5 -96.5t-69.5 -55.5q22 -9 41.5 -22t34.5 -32t23.5 -45.5t8.5 -61.5z" />
    <glyph glyph-name="four.alt" unicode="&#xf804;" 
d="M424 205v-205h-75v205h-304v71l328 383h51v-387h72v-67h-72zM349 524l-219 -252h219v252z" />
    <glyph glyph-name="five.alt" unicode="&#xf805;" horiz-adv-x="494" 
d="M452 202q0 -53 -17 -93t-47 -67t-70 -41t-85 -14q-63 0 -116 25.5t-82 77.5l62 40q41 -71 137 -71q63 0 102.5 37t39.5 107q0 78 -61.5 119.5t-173.5 41.5h-73v295h355v-68h-280v-159h8q63 0 118 -12t95.5 -39t64 -71t23.5 -108z" />
    <glyph glyph-name="six.alt" unicode="&#xf806;" horiz-adv-x="520" 
d="M476 207q0 -45 -14 -85t-40.5 -70t-64.5 -47.5t-85 -17.5q-57 0 -98 22.5t-67 59.5t-38.5 84.5t-12.5 97.5q0 81 23.5 152t68 126t107 92t140.5 50l16 -63q-43 -8 -83 -27t-73.5 -47.5t-58.5 -64t-39 -76.5q26 17 57 27t66 10q47 0 83.5 -18t61.5 -49t38 -71t13 -85z
M397 205q0 31 -8.5 59.5t-25 50t-41.5 34t-58 12.5q-35 0 -65.5 -11t-54.5 -29q-6 -35 -6 -70q0 -32 6.5 -67t22 -64t41.5 -47.5t65 -18.5q31 0 54.5 13t39 34.5t23 48.5t7.5 55z" />
    <glyph glyph-name="seven.alt" unicode="&#xf807;" horiz-adv-x="477" 
d="M217 0h-84l244 591h-366v68h457v-54z" />
    <glyph glyph-name="eight.alt" unicode="&#xf808;" horiz-adv-x="519" 
d="M470 182q0 -49 -18 -85.5t-47.5 -61t-67 -36.5t-76.5 -12t-76.5 12t-67.5 36.5t-48 61t-18 84.5q0 52 24 95t72 68q-39 26 -62.5 66t-23.5 85t17.5 78t46 55.5t64 33.5t72.5 11t72.5 -11t63.5 -32.5t45 -54t17 -75.5q0 -48 -22.5 -87.5t-60.5 -67.5q46 -23 70 -67.5
t24 -95.5zM382 495q0 28 -10.5 49t-28 35t-39 20.5t-43.5 6.5t-44 -7t-39 -20.5t-28 -34.5t-11 -49q0 -29 10.5 -51.5t28 -37.5t39 -22.5t43.5 -7.5t44 8t39 23t28 37t11 51zM393 180q0 31 -11.5 55t-30.5 41t-43 26t-48 9t-47.5 -9t-42.5 -25.5t-30.5 -40.5t-11.5 -54
q0 -32 12 -55.5t31 -39t43 -23.5t48 -8t47.5 7.5t42 23t30 38.5t11.5 55z" />
    <glyph glyph-name="nine.alt" unicode="&#xf809;" horiz-adv-x="519" 
d="M470 408q0 -80 -25 -150.5t-70.5 -126t-109.5 -92.5t-142 -50l-16 63q45 10 86 29t74.5 46t59.5 61.5t41 75.5q-26 -17 -56 -26.5t-66 -9.5q-47 0 -83 18.5t-61 50t-38 71.5t-13 84q0 46 14 86t40.5 70t64 47.5t84.5 17.5q55 0 96 -22.5t67.5 -60t39.5 -85t13 -97.5z
M387 409q0 32 -6 66.5t-21.5 63.5t-41.5 47.5t-65 18.5q-32 0 -55.5 -13t-39 -34.5t-23.5 -48.5t-8 -55q0 -32 8.5 -60.5t25 -50.5t42 -35t59.5 -13q32 0 62.5 11.5t56.5 30.5q6 34 6 72z" />
    <glyph glyph-name="zero.alt" unicode="&#xf800;" 
d="M508 330q0 -64 -14.5 -125.5t-43.5 -110t-74 -78.5t-106 -30q-62 0 -106.5 30t-74 78.5t-43.5 110t-14 125.5t14 125.5t43.5 110t74 78t106.5 29.5q61 0 106 -29.5t74.5 -78t43.5 -110t14 -125.5zM423 331q0 50 -8.5 98.5t-27.5 86.5t-48 61.5t-69 23.5q-41 0 -70 -23.5
t-48 -61.5t-27.5 -86.5t-8.5 -98.5t9 -99t27.5 -88t47.5 -63t70 -24q40 0 69 24t47.5 63t27.5 88t9 99z" />
    <glyph glyph-name="apostrophe" unicode="&#x2bc;" horiz-adv-x="192" 
d="M145 642q0 -21 -9 -38.5t-24 -31.5t-33.5 -24.5t-36.5 -17.5l-9 25q14 5 30.5 16t24.5 24q-8 5 -17 16.5t-9 32.5q0 20 10.5 34.5t30.5 14.5q21 0 31.5 -14t10.5 -37z" />
    <glyph glyph-name="uni2215" unicode="&#x2215;" horiz-adv-x="222" 
d="M-201 -16l-38 44l638 642l44 -46z" />
    <glyph glyph-name="uni2219" unicode="&#x2219;" horiz-adv-x="288" 
d="M198 369q0 -25 -15.5 -42.5t-38.5 -17.5t-38.5 17.5t-15.5 42.5t15.5 42.5t38.5 17.5t38.5 -17.5t15.5 -42.5z" />
    <glyph glyph-name="afii61289" unicode="&#x2113;" horiz-adv-x="456" 
d="M180 289q54 60 85.5 123.5t31.5 132.5q0 48 -16 67.5t-38 19.5q-26 0 -44.5 -33t-18.5 -109v-201zM366 115l19.5 -19.5t20.5 -18.5q-27 -40 -65.5 -63t-90.5 -23q-70 0 -108 39.5t-38 127.5q-13 -10 -24.5 -18t-24.5 -17q-5 11 -11.5 22t-13.5 22q19 13 37 27.5t36 30.5
v212q0 71 9.5 119.5t28 78t45 42.5t61.5 13q51 0 84 -37.5t33 -106.5q0 -91 -48 -172.5t-136 -163.5v-20q0 -41 6 -66.5t16.5 -39.5t25 -19.5t31.5 -5.5q32 0 61.5 16.5t45.5 39.5z" />
    <glyph glyph-name="Gcommaaccent" unicode="&#x122;" horiz-adv-x="597" 
d="M547 25q-15 -6 -37 -13t-50 -12.5t-60 -9t-66 -3.5q-59 0 -110.5 19.5t-90.5 61t-61.5 106.5t-22.5 157q0 94 22.5 160t60 108t86 61.5t100.5 19.5q45 0 79 -9t60 -26t45 -41t34 -54l-64 -39q-23 45 -58.5 71.5t-95.5 26.5q-35 0 -68.5 -16t-59 -50t-41 -87t-15.5 -126
q0 -65 16 -116t43.5 -86t64 -53t77.5 -18q45 0 78 5.5t54 12.5v174h-110v70h190v-294zM307 -174h-61l51 130h82z" />
    <glyph glyph-name="Kcommaaccent" unicode="&#x136;" horiz-adv-x="562" 
d="M461 0l-231 347l-69 -71v-276h-80v667h80v-293l287 293h95l-257 -262l271 -405h-96zM281 -174h-61l51 130h82z" />
    <glyph glyph-name="kcommaaccent" unicode="&#x137;" horiz-adv-x="477" 
d="M390 0l-173 270l-71 -65v-205h-77v667h77v-371l193 181h98l-163 -154l205 -323h-89zM238 -174h-61l51 130h82z" />
    <glyph glyph-name="Lcommaaccent" unicode="&#x13b;" horiz-adv-x="490" 
d="M81 0v667h80v-598h309v-69h-389zM250 -174h-61l51 130h82z" />
    <glyph glyph-name="lcommaaccent" unicode="&#x13c;" horiz-adv-x="215" 
d="M69 0v667h77v-667h-77zM72 -174h-61l51 130h82z" />
    <glyph glyph-name="Ncommaaccent" unicode="&#x145;" horiz-adv-x="658" 
d="M518 0l-358 529v-529h-79v667h81l336 -497v497h79v-667h-59zM329 -174h-61l51 130h82z" />
    <glyph glyph-name="ncommaaccent" unicode="&#x146;" horiz-adv-x="541" 
d="M398 0v299q0 60 -27 94t-88 34q-38 0 -74.5 -16.5t-62.5 -36.5v-374h-77v477h71l5 -38q29 22 68.5 36t82.5 14q98 0 138.5 -48.5t40.5 -143.5v-297h-77zM258 -174h-61l51 130h82z" />
    <glyph glyph-name="Rcommaaccent" unicode="&#x156;" horiz-adv-x="551" 
d="M438 0l-180 292h-97v-292h-80v667h214q112 0 165 -50t53 -132q0 -44 -12.5 -76.5t-35 -55t-53 -36.5t-65.5 -20l182 -297h-91zM429 485q0 57 -34 85t-98 28h-136v-237h129q139 0 139 124zM275 -174h-61l51 130h82z" />
    <glyph glyph-name="rcommaaccent" unicode="&#x157;" horiz-adv-x="322" 
d="M310 409q-25 11 -63 11q-29 0 -55.5 -16t-45.5 -33v-371h-77v476h70l6 -41q19 20 49 37t61 17q22 0 40.5 -3t28.5 -6zM71 -174h-61l51 130h82z" />
    <glyph glyph-name="Tcommaaccent" unicode="&#x162;" horiz-adv-x="511" 
d="M295 598v-598h-79v598h-207v69h493v-69h-207zM221 -174h-61l51 130h82z" />
    <glyph glyph-name="tcommaaccent" unicode="&#x163;" horiz-adv-x="328" 
d="M322 26q-23 -17 -45.5 -27t-63.5 -10q-54 0 -83 27.5t-29 84.5v313h-82v63h82v130h77v-130h125v-63h-126v-305q0 -35 13.5 -46.5t34.5 -11.5q19 0 36 8t31 19zM174 -174h-61l51 130h82z" />
    <glyph glyph-name="Scommaaccent" unicode="&#x218;" horiz-adv-x="516" 
d="M479 181q0 -51 -17.5 -88t-47.5 -61t-69.5 -35t-84.5 -11q-34 0 -67.5 7.5t-64 21.5t-56 34.5t-42.5 46.5l63 47q29 -42 76 -63t96 -21q26 0 49.5 6.5t41 20t28 35.5t10.5 52q0 28 -13 49.5t-35 38.5t-50 30.5t-58 26.5q-34 15 -67 30.5t-59.5 37.5t-43 51t-16.5 71
q0 43 17.5 75t47 53.5t67 32t78.5 10.5q63 0 121 -25t94 -79l-61 -48q-26 36 -66.5 58.5t-88.5 22.5q-59 0 -91.5 -26t-32.5 -70q0 -25 11.5 -42.5t32 -32t49.5 -27.5t65 -29q34 -15 67 -32t59 -40t42 -54t16 -74zM237 -174h-61l51 130h82z" />
    <glyph glyph-name="scommaaccent" unicode="&#x219;" horiz-adv-x="412" 
d="M380 131q0 -34 -13 -60.5t-35.5 -44.5t-53.5 -27.5t-68 -9.5q-71 0 -111 26t-64 66l60 37q17 -32 43.5 -49.5t71.5 -17.5q98 0 98 70q0 21 -6.5 35.5t-21 26t-37.5 22t-56 22.5q-36 12 -61 25.5t-41 29.5t-23.5 36t-7.5 47q0 58 42.5 91t112.5 33q58 0 97 -19.5t66 -55.5
l-54 -43q-20 24 -47 40t-61 16q-42 0 -62.5 -16.5t-20.5 -40.5q0 -15 5.5 -26.5t19.5 -21t36.5 -19t57.5 -21.5q66 -23 100 -58t34 -93zM183 -174h-61l51 130h82z" />
    <glyph glyph-name="uni021A" unicode="&#x21a;" horiz-adv-x="511" 
d="M295 598v-598h-79v598h-207v69h493v-69h-207zM221 -174h-61l51 130h82z" />
    <glyph glyph-name="uni021B" unicode="&#x21b;" horiz-adv-x="328" 
d="M322 26q-23 -17 -45.5 -27t-63.5 -10q-54 0 -83 27.5t-29 84.5v313h-82v63h82v130h77v-130h125v-63h-126v-305q0 -35 13.5 -46.5t34.5 -11.5q19 0 36 8t31 19zM177 -174h-61l51 130h82z" />
  </font>
</defs>
</svg>
